<svg width="113" height="127" viewBox="0 0 113 127" fill="none" xmlns="http://www.w3.org/2000/svg">
<circle cx="54.1228" cy="32.8484" r="32.78" fill="#FEAA53"/>
<path d="M73.9145 46.3675H65.2169C62.3759 46.3675 59.9721 45.3623 58.0053 43.3955C56.0385 41.385 55.0332 38.9811 55.0332 36.1402C55.0332 33.343 56.0385 30.9828 58.0053 28.9723C59.9721 26.9618 62.3759 25.9565 65.2169 25.9565V31.8132C64.605 31.8132 64.0368 31.9006 63.5123 32.1192C62.9441 32.3377 62.507 32.6436 62.07 33.0807C61.6766 33.4741 61.3707 33.9548 61.1521 34.4793C60.9336 35.0038 60.8462 35.572 60.8462 36.1402C60.8462 37.364 61.2396 38.3692 62.07 39.2434C62.9441 40.1175 63.9494 40.5546 65.2169 40.5546H73.9145C76.7554 40.5546 79.1593 41.5598 81.1261 43.5266C83.1366 45.5371 84.1419 47.941 84.1419 50.7382C84.1419 53.5354 83.1366 55.9393 81.1261 57.9498C79.1593 59.9166 76.7554 60.9219 73.9145 60.9219V55.0652C74.5264 55.0652 75.0946 54.9778 75.6191 54.7592C76.1872 54.5407 76.668 54.2348 77.0614 53.8414C77.4547 53.448 77.7607 53.011 77.9792 52.4428C78.1978 51.9183 78.3289 51.3501 78.3289 50.7382C78.3289 49.5581 77.8481 48.5529 77.0177 47.6787C76.1435 46.8046 75.1383 46.3675 73.9145 46.3675Z" fill="#7A24A1"/>
<path d="M19.3621 87.1888C30.1139 87.1888 36.2328 90.6417 36.3203 100.388V113.369H28.8027V110.179C24.2572 112.408 19.2309 113.806 13.1557 113.806C5.94411 113.806 1.44232 111.49 1.44232 105.677C1.44232 98.9896 8.78505 96.8917 16.9582 96.8917C21.3726 96.8917 25.4373 97.591 28.8027 98.7274C28.8027 93.8322 22.5089 93.4389 19.0124 93.4389C15.647 93.4389 11.5386 93.7448 6.25006 95.3183L3.58395 89.8549C8.82875 88.1504 13.9861 87.1888 19.3621 87.1888ZM28.8027 105.371V103.36C26.1803 102.53 22.6401 101.787 17.876 101.787C12.2816 101.787 8.91617 102.748 8.91617 105.371C8.91617 108.081 11.4074 108.299 15.2973 108.299C19.3621 108.299 24.9565 107.032 28.8027 105.371ZM56.8798 87.1888C67.6317 87.1888 73.7506 90.6417 73.838 100.388V113.369H66.3205V110.179C61.775 112.408 56.7487 113.806 50.6735 113.806C43.4619 113.806 38.9601 111.49 38.9601 105.677C38.9601 98.9896 46.3028 96.8917 54.476 96.8917C58.8903 96.8917 62.9551 97.591 66.3205 98.7274C66.3205 93.8322 60.0267 93.4389 56.5302 93.4389C53.1648 93.4389 49.0563 93.7448 43.7678 95.3183L41.1017 89.8549C46.3465 88.1504 51.5039 87.1888 56.8798 87.1888ZM66.3205 105.371V103.36C63.6981 102.53 60.1578 101.787 55.3938 101.787C49.7993 101.787 46.4339 102.748 46.4339 105.371C46.4339 108.081 48.9252 108.299 52.8151 108.299C56.8798 108.299 62.4743 107.032 66.3205 105.371ZM75.9657 104.322H83.4395C83.4395 107.075 86.2804 108.124 94.6284 108.124C102.714 108.124 104.025 107.6 104.025 105.589C104.025 103.623 102.802 103.491 93.7543 102.923C82.4342 102.268 76.8835 101.394 76.8835 95.1872C76.8835 88.4563 84.7507 87.1888 93.9291 87.1888C103.632 87.1888 110.669 88.4563 110.669 95.5368H103.151C103.151 93.3952 100.441 92.8707 93.492 92.8707C86.4116 92.8707 84.401 93.3952 84.401 94.8812C84.401 96.4984 85.756 96.7606 94.6284 97.4162C104.681 98.1592 111.543 98.4215 111.543 105.283C111.543 112.539 104.987 113.806 95.0655 113.806C85.1441 113.806 75.9657 112.539 75.9657 104.322Z" fill="#183953"/>
</svg>
