<svg width="526" height="469" viewBox="0 0 526 469" fill="none" xmlns="http://www.w3.org/2000/svg">
<path d="M274.661 1.2608C292.954 1.99635 307.502 12.7365 321.866 25.0852C324.013 26.9307 326.156 28.8126 328.307 30.7011C340.499 41.4079 352.934 52.3283 367.698 58.0526C385.294 64.8753 405.279 65.7772 424.877 66.6617C429.424 66.8669 433.951 67.0712 438.422 67.3482C462.23 68.8237 484.489 72.3547 500.465 88.7915C516.033 104.808 522.241 126.059 524.424 148.986C526.07 166.274 525.425 184.453 524.801 202.01C524.597 207.753 524.396 213.429 524.277 218.985C523.335 263.255 514.442 306.473 494.878 346.167C474.397 387.724 450.333 431.046 409.376 452.243C368.838 473.222 319.517 469.992 274.798 460.086C254.919 455.683 238.335 444.54 221.963 432.435C219.724 430.779 217.488 429.105 215.248 427.428C201.141 416.864 186.877 406.184 170.554 399.223C153.001 391.738 133.084 389.25 113.498 386.804C108.172 386.139 102.869 385.477 97.6459 384.718C73.1556 381.16 50.3602 375.482 34.3824 357.608C2.59179 322.043 -9.13994 263.164 9.29794 219.203C18.7966 196.555 39.6392 184.214 62.6305 173.121C66.424 171.291 70.2765 169.495 74.1441 167.691C93.6556 158.594 113.554 149.316 128.207 134.587C139.629 123.105 145.819 108.046 151.946 93.1412C152.13 92.6932 152.314 92.2453 152.499 91.7977C158.827 76.4182 165.254 61.3185 177.403 50.276C204.847 25.3305 237.865 -0.218771 274.661 1.2608Z" fill="url(#paint0_linear_735_5846)" stroke="#DDB8F2" stroke-width="1.06692"/>
<defs>
<linearGradient id="paint0_linear_735_5846" x1="81" y1="-7.50098" x2="477" y2="415.999" gradientUnits="userSpaceOnUse">
<stop offset="0.05" stop-color="white" stop-opacity="0"/>
<stop offset="1" stop-color="white"/>
</linearGradient>
</defs>
</svg>
