<svg width="25" height="24" viewBox="0 0 25 24" fill="none" xmlns="http://www.w3.org/2000/svg">
<g clip-path="url(#clip0_735_5643)">
<path d="M20.6699 1.5H4.16992C3.57318 1.5 3.00089 1.73705 2.57893 2.15901C2.15697 2.58097 1.91992 3.15326 1.91992 3.75L1.91992 20.25C1.91992 20.8467 2.15697 21.419 2.57893 21.841C3.00089 22.2629 3.57318 22.5 4.16992 22.5H10.6035V15.3605H7.65039V12H10.6035V9.43875C10.6035 6.52547 12.3379 4.91625 14.9943 4.91625C16.2665 4.91625 17.5968 5.14313 17.5968 5.14313V8.0025H16.131C14.6868 8.0025 14.2363 8.89875 14.2363 9.81797V12H17.4604L16.9448 15.3605H14.2363V22.5H20.6699C21.2667 22.5 21.839 22.2629 22.2609 21.841C22.6829 21.419 22.9199 20.8467 22.9199 20.25V3.75C22.9199 3.15326 22.6829 2.58097 22.2609 2.15901C21.839 1.73705 21.2667 1.5 20.6699 1.5Z" fill="#FEAA53"/>
</g>
<defs>
<clipPath id="clip0_735_5643">
<rect width="24" height="24" fill="white" transform="translate(0.419922)"/>
</clipPath>
</defs>
</svg>
