<svg width="39" height="36" viewBox="0 0 39 36" fill="none" xmlns="http://www.w3.org/2000/svg">
<g clip-path="url(#clip0_735_5759)">
<path d="M4.6543 0C2.1868 0 0.154297 2.0325 0.154297 4.5V31.5C0.154297 33.9675 2.1868 36 4.6543 36H10.6543C11.8123 36 12.853 35.5251 13.6543 34.7949C14.4556 35.5251 15.4963 36 16.6543 36H21.6543C22.8123 36 23.853 35.5251 24.6543 34.7949C25.4556 35.5251 26.4963 36 27.6543 36H33.6543C36.1218 36 38.1543 33.9675 38.1543 31.5V4.5C38.1543 2.0325 36.1218 0 33.6543 0H27.6543C25.1868 0 23.1543 2.0325 23.1543 4.5V6.30664C22.6798 6.13456 22.1849 6 21.6543 6H16.6543C16.1237 6 15.6288 6.13456 15.1543 6.30664V4.5C15.1543 2.0325 13.1218 0 10.6543 0H4.6543ZM4.6543 3H10.6543C11.5008 3 12.1543 3.6535 12.1543 4.5V10.5V31.5C12.1543 32.3465 11.5008 33 10.6543 33H4.6543C3.8078 33 3.1543 32.3465 3.1543 31.5V4.5C3.1543 3.6535 3.8078 3 4.6543 3ZM27.6543 3H33.6543C34.5008 3 35.1543 3.6535 35.1543 4.5V31.5C35.1543 32.3465 34.5008 33 33.6543 33H27.6543C26.8078 33 26.1543 32.3465 26.1543 31.5V10.5V4.5C26.1543 3.6535 26.8078 3 27.6543 3ZM7.63086 5.97852C7.23337 5.98473 6.85461 6.14845 6.57775 6.43373C6.3009 6.71901 6.14859 7.10251 6.1543 7.5V21.5C6.15149 21.6988 6.18821 21.8961 6.26233 22.0806C6.33645 22.265 6.44649 22.4329 6.58606 22.5745C6.72562 22.716 6.89193 22.8284 7.07532 22.9051C7.2587 22.9819 7.45551 23.0214 7.6543 23.0214C7.85308 23.0214 8.04989 22.9819 8.23328 22.9051C8.41666 22.8284 8.58297 22.716 8.72254 22.5745C8.8621 22.4329 8.97215 22.265 9.04627 22.0806C9.12039 21.8961 9.15711 21.6988 9.1543 21.5V7.5C9.15718 7.29923 9.11973 7.09993 9.04416 6.91391C8.96859 6.72788 8.85646 6.55892 8.71439 6.41704C8.57232 6.27515 8.40321 6.16323 8.21709 6.0879C8.03097 6.01258 7.83162 5.97538 7.63086 5.97852ZM30.6309 5.97852C30.2334 5.98473 29.8546 6.14845 29.5778 6.43373C29.3009 6.71901 29.1486 7.10251 29.1543 7.5V21.5C29.1515 21.6988 29.1882 21.8961 29.2623 22.0806C29.3365 22.265 29.4465 22.4329 29.5861 22.5745C29.7256 22.716 29.8919 22.8284 30.0753 22.9051C30.2587 22.9819 30.4555 23.0214 30.6543 23.0214C30.8531 23.0214 31.0499 22.9819 31.2333 22.9051C31.4167 22.8284 31.583 22.716 31.7225 22.5745C31.8621 22.4329 31.9721 22.265 32.0463 22.0806C32.1204 21.8961 32.1571 21.6988 32.1543 21.5V7.5C32.1572 7.29923 32.1197 7.09993 32.0442 6.91391C31.9686 6.72788 31.8565 6.55892 31.7144 6.41704C31.5723 6.27515 31.4032 6.16323 31.2171 6.0879C31.031 6.01258 30.8316 5.97538 30.6309 5.97852ZM16.6543 9H21.6543C22.5008 9 23.1543 9.6535 23.1543 10.5V31.5C23.1543 32.3465 22.5008 33 21.6543 33H16.6543C15.8078 33 15.1543 32.3465 15.1543 31.5V10.5C15.1543 9.6535 15.8078 9 16.6543 9ZM18.6543 12C18.4555 11.9972 18.2582 12.0339 18.0737 12.108C17.8893 12.1822 17.7214 12.2922 17.5798 12.4318C17.4383 12.5713 17.3259 12.7376 17.2492 12.921C17.1724 13.1044 17.1329 13.3012 17.1329 13.5C17.1329 13.6988 17.1724 13.8956 17.2492 14.079C17.3259 14.2624 17.4383 14.4287 17.5798 14.5682C17.7214 14.7078 17.8893 14.8178 18.0737 14.892C18.2582 14.9661 18.4555 15.0028 18.6543 15H19.6543C19.8531 15.0028 20.0504 14.9661 20.2349 14.892C20.4193 14.8178 20.5872 14.7078 20.7288 14.5682C20.8703 14.4287 20.9827 14.2624 21.0594 14.079C21.1362 13.8956 21.1757 13.6988 21.1757 13.5C21.1757 13.3012 21.1362 13.1044 21.0594 12.921C20.9827 12.7376 20.8703 12.5713 20.7288 12.4318C20.5872 12.2922 20.4193 12.1822 20.2349 12.108C20.0504 12.0339 19.8531 11.9972 19.6543 12H18.6543ZM6.6543 27C6.45553 26.9972 6.25818 27.0339 6.07373 27.108C5.88928 27.1822 5.7214 27.2922 5.57984 27.4318C5.43829 27.5713 5.32589 27.7376 5.24916 27.921C5.17244 28.1044 5.13293 28.3012 5.13293 28.5C5.13293 28.6988 5.17244 28.8956 5.24916 29.079C5.32589 29.2624 5.43829 29.4287 5.57984 29.5682C5.7214 29.7078 5.88928 29.8178 6.07373 29.892C6.25818 29.9661 6.45553 30.0028 6.6543 30H8.6543C8.85306 30.0028 9.05041 29.9661 9.23486 29.892C9.41931 29.8178 9.5872 29.7078 9.72875 29.5682C9.87031 29.4287 9.98271 29.2624 10.0594 29.079C10.1362 28.8956 10.1757 28.6988 10.1757 28.5C10.1757 28.3012 10.1362 28.1044 10.0594 27.921C9.98271 27.7376 9.87031 27.5713 9.72875 27.4318C9.5872 27.2922 9.41931 27.1822 9.23486 27.108C9.05041 27.0339 8.85306 26.9972 8.6543 27H6.6543ZM18.6543 27C18.4555 26.9972 18.2582 27.0339 18.0737 27.108C17.8893 27.1822 17.7214 27.2922 17.5798 27.4318C17.4383 27.5713 17.3259 27.7376 17.2492 27.921C17.1724 28.1044 17.1329 28.3012 17.1329 28.5C17.1329 28.6988 17.1724 28.8956 17.2492 29.079C17.3259 29.2624 17.4383 29.4287 17.5798 29.5682C17.7214 29.7078 17.8893 29.8178 18.0737 29.892C18.2582 29.9661 18.4555 30.0028 18.6543 30H19.6543C19.8531 30.0028 20.0504 29.9661 20.2349 29.892C20.4193 29.8178 20.5872 29.7078 20.7288 29.5682C20.8703 29.4287 20.9827 29.2624 21.0594 29.079C21.1362 28.8956 21.1757 28.6988 21.1757 28.5C21.1757 28.3012 21.1362 28.1044 21.0594 27.921C20.9827 27.7376 20.8703 27.5713 20.7288 27.4318C20.5872 27.2922 20.4193 27.1822 20.2349 27.108C20.0504 27.0339 19.8531 26.9972 19.6543 27H18.6543ZM29.6543 27C29.4555 26.9972 29.2582 27.0339 29.0737 27.108C28.8893 27.1822 28.7214 27.2922 28.5798 27.4318C28.4383 27.5713 28.3259 27.7376 28.2492 27.921C28.1724 28.1044 28.1329 28.3012 28.1329 28.5C28.1329 28.6988 28.1724 28.8956 28.2492 29.079C28.3259 29.2624 28.4383 29.4287 28.5798 29.5682C28.7214 29.7078 28.8893 29.8178 29.0737 29.892C29.2582 29.9661 29.4555 30.0028 29.6543 30H31.6543C31.8531 30.0028 32.0504 29.9661 32.2349 29.892C32.4193 29.8178 32.5872 29.7078 32.7287 29.5682C32.8703 29.4287 32.9827 29.2624 33.0594 29.079C33.1362 28.8956 33.1757 28.6988 33.1757 28.5C33.1757 28.3012 33.1362 28.1044 33.0594 27.921C32.9827 27.7376 32.8703 27.5713 32.7287 27.4318C32.5872 27.2922 32.4193 27.1822 32.2349 27.108C32.0504 27.0339 31.8531 26.9972 31.6543 27H29.6543Z" fill="#FEAA53"/>
</g>
<defs>
<clipPath id="clip0_735_5759">
<rect width="39" height="36" fill="white"/>
</clipPath>
</defs>
</svg>
