<svg width="53" height="53" viewBox="0 0 53 53" fill="none" xmlns="http://www.w3.org/2000/svg">
<g clip-path="url(#clip0_735_5738)">
<path d="M26.1238 0.00023668C25.6071 0.00825978 25.1147 0.219793 24.7548 0.588373C24.3949 0.956953 24.1969 1.45244 24.2043 1.966V5.84201C24.2006 6.09882 24.2484 6.35379 24.3447 6.5921C24.4411 6.83042 24.5841 7.04732 24.7656 7.23021C24.947 7.4131 25.1632 7.55832 25.4016 7.65745C25.64 7.75657 25.8959 7.80762 26.1543 7.80762C26.4127 7.80762 26.6686 7.75657 26.907 7.65745C27.1454 7.55832 27.3616 7.4131 27.543 7.23021C27.7244 7.04732 27.8675 6.83042 27.9639 6.5921C28.0602 6.35379 28.108 6.09882 28.1043 5.84201V1.966C28.108 1.70661 28.0594 1.44911 27.9611 1.20877C27.8629 0.968424 27.7171 0.750124 27.5324 0.566806C27.3477 0.383489 27.1279 0.238884 26.8859 0.141563C26.644 0.0442409 26.3848 -0.00381714 26.1238 0.00023668ZM9.88398 1.29729C9.52914 1.29824 9.18128 1.39539 8.87788 1.57828C8.57448 1.76118 8.32704 2.02287 8.16221 2.33518C7.99738 2.64749 7.92142 2.99858 7.9425 3.35062C7.96358 3.70266 8.0809 4.04231 8.28183 4.33299L10.8818 8.209C11.0219 8.42512 11.2039 8.61137 11.4171 8.75693C11.6303 8.90248 11.8706 9.00442 12.1238 9.05681C12.3771 9.10921 12.6383 9.111 12.8922 9.0621C13.1462 9.0132 13.3878 8.91457 13.603 8.77197C13.8183 8.62936 14.0028 8.44563 14.1459 8.23146C14.289 8.0173 14.3878 7.77698 14.4365 7.5245C14.4853 7.27202 14.483 7.01242 14.4298 6.76083C14.3766 6.50924 14.2736 6.27067 14.1268 6.05903L11.5268 2.18302C11.3494 1.9105 11.1061 1.68659 10.8191 1.53183C10.5321 1.37708 10.2105 1.29643 9.88398 1.29729ZM42.3662 1.29729C42.0496 1.30596 41.7399 1.39114 41.4638 1.54546C41.1878 1.69979 40.9537 1.91861 40.7818 2.18302L38.1818 6.05903C38.035 6.27067 37.932 6.50924 37.8788 6.76083C37.8256 7.01242 37.8233 7.27202 37.8721 7.5245C37.9208 7.77698 38.0196 8.0173 38.1627 8.23146C38.3058 8.44563 38.4903 8.62936 38.7056 8.77197C38.9208 8.91457 39.1624 9.0132 39.4164 9.0621C39.6703 9.111 39.9315 9.10921 40.1848 9.05681C40.438 9.00442 40.6783 8.90248 40.8915 8.75693C41.1047 8.61137 41.2867 8.42512 41.4268 8.209L44.0268 4.33299C44.2307 4.03825 44.3486 3.69316 44.3674 3.33594C44.3862 2.97872 44.3051 2.62329 44.1332 2.30902C43.9613 1.99475 43.7052 1.73389 43.3934 1.55532C43.0815 1.37676 42.726 1.28745 42.3662 1.29729ZM15.1043 11.656C14.8328 11.656 14.5643 11.7123 14.3159 11.8214C14.0676 11.9305 13.8449 12.0899 13.6621 12.2894L0.662109 26.5015C0.321775 26.8731 0.140016 27.3617 0.155174 27.864C0.170333 28.3664 0.381224 28.8432 0.743359 29.194L24.7934 52.45C25.1575 52.8027 25.6459 53 26.1543 53C26.6627 53 27.1511 52.8027 27.5152 52.45L51.5652 29.194C51.9274 28.8432 52.1383 28.3664 52.1534 27.864C52.1686 27.3617 51.9868 26.8731 51.6465 26.5015L38.6465 12.2894C38.4637 12.0899 38.241 11.9305 37.9927 11.8214C37.7443 11.7123 37.4758 11.656 37.2043 11.656H26.2076H15.1043ZM15.9676 15.532H22.2543L14.8453 25.3508C14.7245 25.5078 14.6286 25.6822 14.5609 25.8681H6.51211L15.9676 15.532ZM30.0543 15.532H36.341L45.7965 25.8681H37.7502C37.6817 25.6821 37.5849 25.5076 37.4633 25.3508L30.0543 15.532ZM26.1543 16.824L32.9793 25.8681H19.3293L26.1543 16.824ZM6.90566 29.7441H14.566C14.5849 29.7971 14.6061 29.8493 14.6295 29.9005L20.6268 43.0098L6.90566 29.7441ZM18.8418 29.7441H33.4668L26.1543 45.7326L18.8418 29.7441ZM37.7426 29.7441H45.4029L31.6818 43.0098L37.6791 29.9005C37.7025 29.8493 37.7237 29.7971 37.7426 29.7441Z" fill="#FEAA53"/>
</g>
<defs>
<clipPath id="clip0_735_5738">
<rect width="53" height="53" fill="white"/>
</clipPath>
</defs>
</svg>
