<svg width="33" height="40" viewBox="0 0 33 40" fill="none" xmlns="http://www.w3.org/2000/svg">
<g clip-path="url(#clip0_735_5779)">
<path d="M12.6543 0C10.3577 0 8.46 1.76662 8.20508 4H4.6543C2.1868 4 0.154297 6.0325 0.154297 8.5V35.5C0.154297 37.9675 2.1868 40 4.6543 40H27.6543C30.1218 40 32.1543 37.9675 32.1543 35.5V8.5C32.1543 6.0325 30.1218 4 27.6543 4H24.1035C23.8486 1.76662 21.9509 0 19.6543 0H12.6543ZM12.6543 3H19.6543C20.5008 3 21.1543 3.6535 21.1543 4.5C21.1543 5.3465 20.5008 6 19.6543 6H12.6543C11.8078 6 11.1543 5.3465 11.1543 4.5C11.1543 3.6535 11.8078 3 12.6543 3ZM4.6543 7H8.92383C9.73553 8.2019 11.109 9 12.6543 9H19.6543C21.1996 9 22.5731 8.2019 23.3848 7H27.6543C28.5008 7 29.1543 7.6535 29.1543 8.5V35.5C29.1543 36.3465 28.5008 37 27.6543 37H4.6543C3.8078 37 3.1543 36.3465 3.1543 35.5V8.5C3.1543 7.6535 3.8078 7 4.6543 7ZM16.1543 13C14.6126 13 13.2664 13.6321 12.4082 14.5977C11.55 15.5632 11.1543 16.7917 11.1543 18C11.1543 19.2083 11.55 20.4368 12.4082 21.4023C13.2664 22.3679 14.6126 23 16.1543 23C17.696 23 19.0421 22.3679 19.9004 21.4023C20.7586 20.4368 21.1543 19.2083 21.1543 18C21.1543 16.7917 20.7586 15.5632 19.9004 14.5977C19.0421 13.6321 17.696 13 16.1543 13ZM16.1543 16C16.946 16 17.3498 16.2429 17.6582 16.5898C17.9666 16.9368 18.1543 17.4583 18.1543 18C18.1543 18.5417 17.9666 19.0632 17.6582 19.4102C17.3498 19.7571 16.946 20 16.1543 20C15.3626 20 14.9588 19.7571 14.6504 19.4102C14.342 19.0632 14.1543 18.5417 14.1543 18C14.1543 17.4583 14.342 16.9368 14.6504 16.5898C14.9588 16.2429 15.3626 16 16.1543 16ZM10.4082 25C9.18211 25 8.1543 26.0278 8.1543 27.2539V28C8.1543 29.4641 9.07666 30.6063 10.4395 31.502C11.8022 32.3976 13.7194 33 16.1543 33C18.5892 33 20.5064 32.3976 21.8691 31.502C23.2319 30.6063 24.1543 29.4641 24.1543 28V27.2539C24.1543 26.0278 23.1265 25 21.9004 25H16.1543H10.4082ZM11.1543 28H16.1543H21.1543C21.1543 27.8669 21.0144 28.4745 20.2207 28.9961C19.427 29.5177 18.0934 30 16.1543 30C14.2152 30 12.8816 29.5177 12.0879 28.9961C11.2942 28.4745 11.1543 27.8669 11.1543 28Z" fill="#FEAA53"/>
</g>
<defs>
<clipPath id="clip0_735_5779">
<rect width="33" height="40" fill="white"/>
</clipPath>
</defs>
</svg>
