<svg width="335" height="514" viewBox="0 0 335 514" fill="none" xmlns="http://www.w3.org/2000/svg">
<g clip-path="url(#clip0_735_5699)">
<g clip-path="url(#clip1_735_5699)">
<g opacity="0.06">
<path d="M257.155 0C115.449 0 0.154785 115.294 0.154785 257C0.154785 299.088 11.2406 338.428 29.2179 373.503L1.35947 473.241C-5.12917 496.415 17.784 519.327 40.9636 512.846L140.777 484.987C175.824 502.927 215.106 514 257.155 514C257.155 514 321.178 512.246 354.82 499C388.461 485.754 429.444 446.161 429.444 446.161V391.5C389.503 442.638 327.245 475.45 257.155 475.45C218.584 475.45 182.504 465.42 151.042 447.893C146.607 445.421 141.376 444.799 136.485 446.161L41.5659 472.639L68.069 377.77C69.4382 372.871 68.8157 367.63 66.3373 363.188C48.7747 331.703 38.7048 295.608 38.7048 257C38.7048 136.129 136.284 38.55 257.155 38.55C327.245 38.55 389.503 71.3617 429.444 122.5V66.4642C383.83 25.1783 323.376 0 257.155 0Z" fill="#FEAA53"/>
<path d="M334.255 167.074C320.623 167.074 307.549 172.489 297.91 182.129C288.27 191.768 282.855 204.842 282.855 218.474C282.855 232.106 288.27 245.18 297.91 254.819C307.549 264.459 320.623 269.874 334.255 269.874C335.763 269.865 337.271 269.79 338.772 269.648C332.65 289.345 322.18 311.062 303.41 325.139C301.31 326.629 299.53 328.525 298.175 330.715C296.819 332.904 295.917 335.343 295.52 337.888C295.123 340.432 295.24 343.03 295.863 345.528C296.487 348.027 297.605 350.375 299.151 352.434C300.697 354.493 302.64 356.222 304.865 357.517C307.09 358.813 309.552 359.65 312.106 359.979C314.66 360.308 317.254 360.121 319.735 359.431C322.216 358.74 324.533 357.56 326.55 355.959C387.819 310.007 385.655 224.899 385.655 224.899C385.66 224.052 385.61 223.205 385.504 222.364C386.04 215.307 385.112 208.215 382.78 201.533C380.447 194.851 376.76 188.723 371.948 183.532C367.137 178.342 361.306 174.201 354.82 171.369C348.333 168.537 341.332 167.075 334.255 167.074Z" fill="#FEAA53"/>
<path d="M180.055 167.074C166.423 167.074 153.349 172.489 143.71 182.129C134.07 191.768 128.655 204.842 128.655 218.474C128.655 232.106 134.07 245.18 143.71 254.819C153.349 264.459 166.423 269.874 180.055 269.874C181.563 269.865 183.071 269.79 184.572 269.648C178.45 289.345 167.98 311.062 149.21 325.139C147.11 326.629 145.33 328.525 143.975 330.715C142.619 332.904 141.717 335.343 141.32 337.888C140.923 340.432 141.04 343.03 141.663 345.528C142.287 348.027 143.405 350.375 144.951 352.434C146.497 354.493 148.44 356.222 150.665 357.517C152.89 358.813 155.352 359.65 157.906 359.979C160.46 360.308 163.054 360.121 165.535 359.431C168.016 358.74 170.333 357.56 172.35 355.959C233.619 310.007 231.455 224.899 231.455 224.899C231.46 224.052 231.41 223.205 231.304 222.364C231.84 215.307 230.912 208.215 228.58 201.533C226.247 194.851 222.56 188.723 217.748 183.532C212.937 178.342 207.106 174.201 200.62 171.369C194.133 168.537 187.132 167.075 180.055 167.074Z" fill="#FEAA53"/>
</g>
</g>
</g>
<defs>
<clipPath id="clip0_735_5699">
<rect width="429" height="514" fill="white"/>
</clipPath>
<clipPath id="clip1_735_5699">
<rect width="429" height="514" fill="white"/>
</clipPath>
</defs>
</svg>
