<svg width="391" height="469" viewBox="0 0 391 469" fill="none" xmlns="http://www.w3.org/2000/svg">
<g filter="url(#filter0_dddd_1010_5633)">
<path d="M279.88 44.9725C319.24 44.9725 341.64 57.6125 341.96 93.2925V140.812H314.44V129.132C297.8 137.292 279.4 142.413 257.16 142.413C230.76 142.413 214.28 133.932 214.28 112.652C214.28 88.1725 241.16 80.4925 271.08 80.4925C287.24 80.4925 302.12 83.0525 314.44 87.2125C314.44 69.2925 291.4 67.8525 278.6 67.8525C266.28 67.8525 251.24 68.9725 231.88 74.7325L222.12 54.7325C241.32 48.4925 260.2 44.9725 279.88 44.9725ZM314.44 111.532V104.172C304.84 101.132 291.88 98.4125 274.44 98.4125C253.96 98.4125 241.64 101.932 241.64 111.532C241.64 121.452 250.76 122.252 265 122.252C279.88 122.252 300.36 117.612 314.44 111.532Z" fill="#183953"/>
<circle cx="126.751" cy="86.751" r="77.751" fill="#7A24A1"/>
<path d="M165.695 119.311H145.065C138.326 119.311 132.625 116.926 127.96 112.261C123.295 107.492 120.91 101.791 120.91 95.0523C120.91 88.4175 123.295 82.8195 127.96 78.0507C132.625 73.282 138.326 70.8977 145.065 70.8977V84.7892C143.613 84.7892 142.266 84.9965 141.022 85.5148C139.674 86.0332 138.637 86.7589 137.601 87.7955C136.668 88.7285 135.942 89.8689 135.424 91.1129C134.905 92.3569 134.698 93.7046 134.698 95.0523C134.698 97.955 135.631 100.339 137.601 102.413C139.674 104.486 142.058 105.523 145.065 105.523H165.695C172.433 105.523 178.135 107.907 182.8 112.572C187.569 117.341 189.953 123.043 189.953 129.677C189.953 136.312 187.569 142.014 182.8 146.783C178.135 151.448 172.433 153.832 165.695 153.832V139.941C167.146 139.941 168.494 139.733 169.738 139.215C171.085 138.697 172.226 137.971 173.159 137.038C174.092 136.105 174.818 135.068 175.336 133.72C175.854 132.476 176.165 131.129 176.165 129.677C176.165 126.878 175.025 124.494 173.055 122.421C170.982 120.347 168.597 119.311 165.695 119.311Z" fill="#FCFCFC"/>
<path d="M132.88 198.972C172.24 198.972 194.64 211.612 194.96 247.292V294.812H167.44V283.132C150.8 291.292 132.4 296.413 110.16 296.413C83.76 296.413 67.28 287.932 67.28 266.652C67.28 242.172 94.16 234.492 124.08 234.492C140.24 234.492 155.12 237.052 167.44 241.212C167.44 223.292 144.4 221.852 131.6 221.852C119.28 221.852 104.24 222.972 84.88 228.732L75.12 208.732C94.32 202.492 113.2 198.972 132.88 198.972ZM167.44 265.532V258.172C157.84 255.132 144.88 252.412 127.44 252.412C106.96 252.412 94.64 255.932 94.64 265.532C94.64 275.452 103.76 276.252 118 276.252C132.88 276.252 153.36 271.612 167.44 265.532ZM202.749 261.692H230.109C230.109 271.772 240.509 275.612 271.069 275.612C300.669 275.612 305.469 273.693 305.469 266.332C305.469 259.132 300.989 258.652 267.869 256.572C226.429 254.172 206.109 250.972 206.109 228.252C206.109 203.612 234.909 198.972 268.509 198.972C304.029 198.972 329.789 203.612 329.789 229.532H302.269C302.269 221.692 292.349 219.772 266.909 219.772C240.989 219.772 233.629 221.692 233.629 227.132C233.629 233.052 238.589 234.012 271.069 236.412C307.869 239.132 332.989 240.092 332.989 265.212C332.989 291.772 308.989 296.413 272.669 296.413C236.349 296.413 202.749 291.772 202.749 261.692Z" fill="#183953"/>
</g>
<defs>
<filter id="filter0_dddd_1010_5633" x="0" y="0" width="398" height="493.812" filterUnits="userSpaceOnUse" color-interpolation-filters="sRGB">
<feFlood flood-opacity="0" result="BackgroundImageFix"/>
<feColorMatrix in="SourceAlpha" type="matrix" values="0 0 0 0 0 0 0 0 0 0 0 0 0 0 0 0 0 0 127 0" result="hardAlpha"/>
<feOffset dy="8"/>
<feGaussianBlur stdDeviation="8.5"/>
<feColorMatrix type="matrix" values="0 0 0 0 0.294118 0 0 0 0 0.101961 0 0 0 0 0.576471 0 0 0 0.1 0"/>
<feBlend mode="normal" in2="BackgroundImageFix" result="effect1_dropShadow_1010_5633"/>
<feColorMatrix in="SourceAlpha" type="matrix" values="0 0 0 0 0 0 0 0 0 0 0 0 0 0 0 0 0 0 127 0" result="hardAlpha"/>
<feOffset dy="31"/>
<feGaussianBlur stdDeviation="15.5"/>
<feColorMatrix type="matrix" values="0 0 0 0 0.294118 0 0 0 0 0.101961 0 0 0 0 0.576471 0 0 0 0.09 0"/>
<feBlend mode="normal" in2="effect1_dropShadow_1010_5633" result="effect2_dropShadow_1010_5633"/>
<feColorMatrix in="SourceAlpha" type="matrix" values="0 0 0 0 0 0 0 0 0 0 0 0 0 0 0 0 0 0 127 0" result="hardAlpha"/>
<feOffset dy="69"/>
<feGaussianBlur stdDeviation="20.5"/>
<feColorMatrix type="matrix" values="0 0 0 0 0.294118 0 0 0 0 0.101961 0 0 0 0 0.576471 0 0 0 0.05 0"/>
<feBlend mode="normal" in2="effect2_dropShadow_1010_5633" result="effect3_dropShadow_1010_5633"/>
<feColorMatrix in="SourceAlpha" type="matrix" values="0 0 0 0 0 0 0 0 0 0 0 0 0 0 0 0 0 0 127 0" result="hardAlpha"/>
<feOffset dy="123"/>
<feGaussianBlur stdDeviation="24.5"/>
<feColorMatrix type="matrix" values="0 0 0 0 0.294118 0 0 0 0 0.101961 0 0 0 0 0.576471 0 0 0 0.01 0"/>
<feBlend mode="normal" in2="effect3_dropShadow_1010_5633" result="effect4_dropShadow_1010_5633"/>
<feBlend mode="normal" in="SourceGraphic" in2="effect4_dropShadow_1010_5633" result="shape"/>
</filter>
</defs>
</svg>
