<svg width="21" height="22" viewBox="0 0 21 22" fill="none" xmlns="http://www.w3.org/2000/svg">
<g clip-path="url(#clip0_1010_5681)">
<path d="M20.0438 1.59942L15.8188 0.624424C15.3598 0.518799 14.8885 0.758486 14.7016 1.18911L12.7516 5.73911C12.581 6.13724 12.6948 6.60442 13.0319 6.87661L15.4938 8.89161C14.0313 12.0075 11.476 14.5994 8.29507 16.0904L6.28007 13.6285C6.00382 13.2913 5.5407 13.1775 5.14257 13.3482L0.592572 15.2982C0.157884 15.4891 -0.0818034 15.9604 0.0238216 16.4194L0.998822 20.6444C1.10038 21.0832 1.49038 21.4 1.94945 21.4C12.3535 21.4 20.7994 12.9704 20.7994 2.55005C20.7994 2.09505 20.4866 1.70099 20.0438 1.59942Z" fill="#7A24A1"/>
</g>
<defs>
<clipPath id="clip0_1010_5681">
<rect width="20.8" height="20.8" fill="white" transform="translate(0 0.599609)"/>
</clipPath>
</defs>
</svg>
