<svg width="18" height="17" viewBox="0 0 18 17" fill="none" xmlns="http://www.w3.org/2000/svg">
<g clip-path="url(#clip0_1010_5688)">
<path d="M16.9817 6.35984C17.1097 6.25813 17.3 6.35328 17.3 6.51406V13.2242C17.3 14.0938 16.5945 14.7992 15.725 14.7992H2.075C1.20547 14.7992 0.5 14.0938 0.5 13.2242V6.51734C0.5 6.35328 0.687031 6.26141 0.818281 6.36312C1.55328 6.93406 2.52781 7.65922 5.87469 10.0906C6.56703 10.5959 7.73516 11.6591 8.9 11.6525C10.0714 11.6623 11.2625 10.5763 11.9286 10.0906C15.2755 7.65922 16.2467 6.93078 16.9817 6.35984ZM8.9 10.5992C9.66125 10.6123 10.7572 9.64109 11.3084 9.24078C15.6627 6.08094 15.9941 5.80531 16.9981 5.01781C17.1884 4.87016 17.3 4.64047 17.3 4.39766V3.77422C17.3 2.90469 16.5945 2.19922 15.725 2.19922H2.075C1.20547 2.19922 0.5 2.90469 0.5 3.77422V4.39766C0.5 4.64047 0.611562 4.86687 0.801875 5.01781C1.80594 5.80203 2.13734 6.08094 6.49156 9.24078C7.04281 9.64109 8.13875 10.6123 8.9 10.5992Z" fill="#7A24A1"/>
</g>
<defs>
<clipPath id="clip0_1010_5688">
<rect width="16.8" height="16.8" fill="white" transform="translate(0.5 0.0996094)"/>
</clipPath>
</defs>
</svg>
