<svg width="25" height="24" viewBox="0 0 25 24" fill="none" xmlns="http://www.w3.org/2000/svg">
<path d="M6.62055 20.9995H2.2668V6.97922H6.62055V20.9995ZM4.44133 5.06672C3.04914 5.06672 1.91992 3.91359 1.91992 2.52141C1.91992 1.85269 2.18557 1.21136 2.65842 0.738503C3.13128 0.265647 3.77261 0 4.44133 0C5.11005 0 5.75138 0.265647 6.22423 0.738503C6.69709 1.21136 6.96273 1.85269 6.96273 2.52141C6.96273 3.91359 5.83305 5.06672 4.44133 5.06672ZM22.9152 20.9995H18.5709V14.1745C18.5709 12.548 18.538 10.462 16.3073 10.462C14.0437 10.462 13.6968 12.2292 13.6968 14.0573V20.9995H9.34773V6.97922H13.5234V8.89172H13.5843C14.1655 7.79016 15.5854 6.62766 17.7037 6.62766C22.1099 6.62766 22.9199 9.52922 22.9199 13.298V20.9995H22.9152Z" fill="#FEAA53"/>
</svg>
