<svg width="73" height="57" viewBox="0 0 73 57" fill="none" xmlns="http://www.w3.org/2000/svg">
<path d="M34.8 0.599991L16.8 41.2L14.8 29C18.4 29 21.4 30.2667 23.8 32.8C26.3333 35.2 27.6 38.2 27.6 41.8C27.6 46.0667 26.2 49.6 23.4 52.4C20.6 55.0667 17.3333 56.4 13.6 56.4C10 56.4 6.93333 55.2 4.4 52.8C2 50.2667 0.800001 47.2 0.800001 43.6C0.800001 41.4667 1.13333 39.4667 1.8 37.6C2.6 35.6 3.8 33.2667 5.4 30.6L22.2 0.599991H34.8ZM72.6 0.599991L54.6 41.2L52.6 29C56.2 29 59.2 30.2667 61.6 32.8C64.1333 35.2 65.4 38.2 65.4 41.8C65.4 46.0667 64 49.6 61.2 52.4C58.4 55.0667 55.1333 56.4 51.4 56.4C47.8 56.4 44.7333 55.2 42.2 52.8C39.8 50.2667 38.6 47.2 38.6 43.6C38.6 41.4667 38.9333 39.4667 39.6 37.6C40.4 35.6 41.6 33.2667 43.2 30.6L60 0.599991H72.6Z" fill="#909090"/>
</svg>
