<svg width="985" height="765" viewBox="0 0 985 765" fill="none" xmlns="http://www.w3.org/2000/svg">
<g filter="url(#filter0_dddd_1171_6021)">
<line x1="138.768" y1="497.458" x2="885.614" y2="497.458" stroke="#B7B8C1" stroke-width="0.729342"/>
<path d="M90.7228 505.214C89.7082 505.214 88.844 504.938 88.1302 504.386C87.4164 503.829 86.8709 503.023 86.4938 501.968C86.1167 500.909 85.9282 499.629 85.9282 498.13C85.9282 496.639 86.1167 495.367 86.4938 494.312C86.8754 493.252 87.4231 492.444 88.1369 491.887C88.8552 491.326 89.7172 491.046 90.7228 491.046C91.7284 491.046 92.5881 491.326 93.3019 491.887C94.0202 492.444 94.5679 493.252 94.945 494.312C95.3266 495.367 95.5174 496.639 95.5174 498.13C95.5174 499.629 95.3288 500.909 94.9517 501.968C94.5746 503.023 94.0292 503.829 93.3154 504.386C92.6016 504.938 91.7374 505.214 90.7228 505.214ZM90.7228 503.732C91.7284 503.732 92.5095 503.248 93.0662 502.278C93.6229 501.308 93.9012 499.926 93.9012 498.13C93.9012 496.936 93.7733 495.919 93.5174 495.079C93.266 494.24 92.9023 493.6 92.4265 493.16C91.9551 492.72 91.3872 492.5 90.7228 492.5C89.7262 492.5 88.9473 492.992 88.3861 493.975C87.8249 494.954 87.5443 496.339 87.5443 498.13C87.5443 499.324 87.67 500.339 87.9214 501.174C88.1728 502.009 88.5342 502.644 89.0056 503.079C89.4815 503.515 90.0539 503.732 90.7228 503.732ZM99.3951 501.254L99.3681 499.288H99.6914L104.217 494.682H106.183L101.361 499.557H101.227L99.3951 501.254ZM97.9136 505.025V491.234H99.5028V505.025H97.9136ZM104.486 505.025L100.446 499.908L101.577 498.803L106.506 505.025H104.486Z" fill="#3E4259"/>
<rect x="60.7293" y="12.6004" width="863.541" height="542.631" rx="41.5725" fill="white" stroke="#D9D9D9" stroke-width="1.45868"/>
<path d="M104.129 97.1242C102.807 97.1242 101.542 96.9258 100.335 96.529C99.1284 96.1157 98.1778 95.5867 97.4835 94.942L98.401 93.0078C99.0623 93.5864 99.9054 94.0658 100.93 94.446C101.955 94.8262 103.022 95.0164 104.129 95.0164C105.138 95.0164 105.956 94.9006 106.584 94.6692C107.212 94.4378 107.675 94.1236 107.973 93.7269C108.27 93.3136 108.419 92.8507 108.419 92.3382C108.419 91.7431 108.221 91.2637 107.824 90.9C107.444 90.5363 106.94 90.2469 106.311 90.032C105.7 89.8006 105.022 89.6022 104.278 89.4369C103.534 89.2716 102.782 89.0815 102.021 88.8665C101.278 88.6351 100.591 88.3458 99.9633 87.9986C99.3516 87.6515 98.8556 87.1886 98.4754 86.61C98.0952 86.0148 97.9051 85.2544 97.9051 84.3286C97.9051 83.4359 98.1365 82.6175 98.5994 81.8736C99.0788 81.1132 99.8062 80.5097 100.782 80.0634C101.773 79.6005 103.03 79.3691 104.551 79.3691C105.559 79.3691 106.559 79.5013 107.551 79.7658C108.543 80.0303 109.403 80.4106 110.13 80.9065L109.312 82.8903C108.568 82.3944 107.783 82.0389 106.956 81.824C106.13 81.5926 105.328 81.4769 104.551 81.4769C103.575 81.4769 102.774 81.6008 102.145 81.8488C101.517 82.0968 101.054 82.4274 100.757 82.8407C100.476 83.254 100.335 83.7169 100.335 84.2294C100.335 84.8411 100.525 85.3288 100.906 85.6925C101.302 86.0561 101.807 86.3455 102.418 86.5604C103.046 86.7753 103.733 86.9737 104.476 87.1555C105.22 87.3208 105.964 87.5109 106.708 87.7259C107.469 87.9408 108.155 88.2218 108.766 88.569C109.395 88.9161 109.899 89.379 110.279 89.9576C110.659 90.5363 110.849 91.2802 110.849 92.1894C110.849 93.0656 110.61 93.8839 110.13 94.6444C109.651 95.3883 108.907 95.9917 107.899 96.4546C106.907 96.901 105.65 97.1242 104.129 97.1242ZM122.035 96.9258V94.1484L121.912 93.6277V88.8913C121.912 87.8829 121.614 87.1059 121.019 86.5604C120.44 85.9983 119.564 85.7172 118.39 85.7172C117.613 85.7172 116.853 85.8495 116.109 86.114C115.365 86.362 114.737 86.7009 114.224 87.1307L113.232 85.3453C113.91 84.7997 114.72 84.3864 115.662 84.1054C116.621 83.8078 117.622 83.659 118.663 83.659C120.465 83.659 121.854 84.0971 122.829 84.9733C123.804 85.8495 124.292 87.1886 124.292 88.9905V96.9258H122.035ZM117.721 97.0746C116.745 97.0746 115.886 96.9092 115.142 96.5786C114.414 96.248 113.852 95.7934 113.456 95.2147C113.059 94.6196 112.86 93.9501 112.86 93.2061C112.86 92.4953 113.026 91.8505 113.356 91.2719C113.703 90.6933 114.257 90.2304 115.018 89.8833C115.795 89.5361 116.836 89.3625 118.142 89.3625H122.308V91.0735H118.241C117.051 91.0735 116.249 91.2719 115.836 91.6687C115.423 92.0654 115.216 92.5449 115.216 93.1069C115.216 93.7517 115.472 94.2724 115.985 94.6692C116.497 95.0494 117.208 95.2395 118.117 95.2395C119.01 95.2395 119.787 95.0412 120.448 94.6444C121.126 94.2476 121.614 93.669 121.912 92.9086L122.383 94.5452C122.069 95.3222 121.515 95.9421 120.721 96.405C119.928 96.8514 118.928 97.0746 117.721 97.0746ZM128.45 96.9258V78.5259H130.83V96.9258H128.45ZM140.98 97.0746C139.575 97.0746 138.335 96.7853 137.26 96.2066C136.202 95.628 135.375 94.8345 134.78 93.8261C134.202 92.8176 133.912 91.6604 133.912 90.3544C133.912 89.0484 134.193 87.8912 134.756 86.8827C135.334 85.8743 136.119 85.089 137.111 84.527C138.12 83.9483 139.252 83.659 140.509 83.659C141.782 83.659 142.906 83.9401 143.881 84.5022C144.856 85.0642 145.617 85.8578 146.162 86.8827C146.725 87.8912 147.006 89.0732 147.006 90.4288C147.006 90.528 146.997 90.6437 146.981 90.776C146.981 90.9082 146.972 91.0322 146.956 91.1479H135.772V89.4369H145.716L144.749 90.032C144.765 89.1889 144.592 88.4367 144.228 87.7755C143.865 87.1142 143.36 86.6017 142.716 86.238C142.087 85.8578 141.352 85.6677 140.509 85.6677C139.682 85.6677 138.946 85.8578 138.302 86.238C137.657 86.6017 137.153 87.1224 136.789 87.8002C136.425 88.4615 136.243 89.222 136.243 90.0816V90.4784C136.243 91.3546 136.442 92.1398 136.839 92.8342C137.252 93.512 137.822 94.041 138.55 94.4212C139.277 94.8015 140.112 94.9916 141.054 94.9916C141.831 94.9916 142.534 94.8593 143.162 94.5948C143.807 94.3303 144.369 93.9335 144.848 93.4045L146.162 94.942C145.567 95.6363 144.823 96.1653 143.931 96.529C143.054 96.8927 142.071 97.0746 140.98 97.0746ZM153.832 97.0746C152.741 97.0746 151.7 96.9258 150.708 96.6282C149.733 96.3306 148.964 95.9669 148.402 95.5371L149.394 93.6525C149.956 94.0327 150.65 94.3551 151.477 94.6196C152.303 94.8841 153.146 95.0164 154.006 95.0164C155.114 95.0164 155.907 94.8593 156.387 94.5452C156.883 94.2311 157.131 93.793 157.131 93.2309C157.131 92.8176 156.982 92.4953 156.684 92.2638C156.387 92.0324 155.99 91.8588 155.494 91.7431C155.014 91.6274 154.477 91.5282 153.882 91.4455C153.287 91.3463 152.692 91.2306 152.097 91.0983C151.501 90.9495 150.956 90.7512 150.46 90.5032C149.964 90.2387 149.567 89.8833 149.27 89.4369C148.972 88.974 148.823 88.3623 148.823 87.6019C148.823 86.8083 149.047 86.114 149.493 85.5189C149.939 84.9237 150.567 84.4691 151.377 84.155C152.204 83.8244 153.179 83.659 154.304 83.659C155.163 83.659 156.031 83.7665 156.907 83.9814C157.8 84.1798 158.527 84.4691 159.09 84.8493L158.073 86.734C157.478 86.3372 156.858 86.0644 156.213 85.9156C155.568 85.7668 154.924 85.6925 154.279 85.6925C153.237 85.6925 152.46 85.866 151.948 86.2132C151.435 86.5438 151.179 86.9737 151.179 87.5027C151.179 87.949 151.328 88.2962 151.625 88.5442C151.94 88.7756 152.336 88.9575 152.816 89.0897C153.312 89.222 153.857 89.3377 154.452 89.4369C155.048 89.5196 155.643 89.6353 156.238 89.7841C156.833 89.9163 157.37 90.1064 157.85 90.3544C158.346 90.6024 158.742 90.9496 159.04 91.3959C159.354 91.8423 159.511 92.4374 159.511 93.1813C159.511 93.9749 159.28 94.6609 158.817 95.2395C158.354 95.8182 157.701 96.2728 156.858 96.6034C156.015 96.9175 155.006 97.0746 153.832 97.0746Z" fill="#183953"/>
<path d="M807.39 94.9258L814.033 81.7852V81.6692H806.375V80.0737H815.89V81.7562L809.276 94.9258H807.39ZM828.163 95.1578C827.235 95.1578 826.415 94.9234 825.705 94.4544C824.994 93.9806 824.438 93.3134 824.037 92.4529C823.635 91.5875 823.435 90.5649 823.435 89.3853C823.435 88.2153 823.635 87.2 824.037 86.3394C824.438 85.4789 824.996 84.8141 825.712 84.3451C826.427 83.8762 827.254 83.6417 828.192 83.6417C828.917 83.6417 829.49 83.7626 829.911 84.0043C830.336 84.2412 830.66 84.5119 830.883 84.8165C831.11 85.1163 831.286 85.3628 831.412 85.5562H831.557V80.0737H833.268V94.9258H831.615V93.2143H831.412C831.286 93.4174 831.107 93.6736 830.875 93.983C830.643 94.2876 830.312 94.5608 829.882 94.8025C829.451 95.0394 828.879 95.1578 828.163 95.1578ZM828.395 93.6204C829.082 93.6204 829.662 93.4415 830.136 93.0838C830.609 92.7212 830.97 92.2208 831.216 91.5826C831.463 90.9396 831.586 90.1975 831.586 89.3563C831.586 88.5247 831.465 87.7971 831.223 87.1734C830.982 86.5449 830.624 86.0566 830.15 85.7085C829.676 85.3556 829.091 85.1791 828.395 85.1791C827.67 85.1791 827.066 85.3652 826.582 85.7375C826.103 86.105 825.743 86.6053 825.502 87.2387C825.265 87.8672 825.146 88.573 825.146 89.3563C825.146 90.1491 825.267 90.8695 825.509 91.5173C825.755 92.1604 826.118 92.6728 826.597 93.0548C827.08 93.4319 827.68 93.6204 828.395 93.6204ZM839.714 95.1869C839.008 95.1869 838.368 95.0539 837.792 94.788C837.217 94.5173 836.76 94.1281 836.422 93.6204C836.083 93.108 835.914 92.4891 835.914 91.7639C835.914 91.1257 836.04 90.6084 836.291 90.212C836.543 89.8107 836.879 89.4965 837.299 89.2692C837.72 89.042 838.184 88.8728 838.692 88.7616C839.204 88.6456 839.719 88.5537 840.236 88.486C840.913 88.399 841.462 88.3337 841.883 88.2902C842.308 88.2419 842.617 88.1621 842.811 88.0509C843.009 87.9397 843.108 87.7463 843.108 87.4707V87.4127C843.108 86.6972 842.912 86.1412 842.521 85.7448C842.134 85.3483 841.547 85.1501 840.759 85.1501C839.941 85.1501 839.301 85.329 838.837 85.6868C838.373 86.0445 838.046 86.4265 837.858 86.8326L836.233 86.2524C836.523 85.5756 836.91 85.0486 837.394 84.6715C837.882 84.2895 838.414 84.0236 838.989 83.8738C839.569 83.719 840.14 83.6417 840.701 83.6417C841.058 83.6417 841.469 83.6852 841.933 83.7722C842.402 83.8544 842.854 84.026 843.289 84.2871C843.729 84.5482 844.094 84.9422 844.385 85.4692C844.675 85.9962 844.82 86.702 844.82 87.5868V94.9258H843.108V93.4174H843.021C842.905 93.6591 842.712 93.9178 842.441 94.1933C842.17 94.4689 841.81 94.7034 841.36 94.8968C840.911 95.0902 840.362 95.1869 839.714 95.1869ZM839.975 93.6494C840.652 93.6494 841.223 93.5165 841.687 93.2506C842.156 92.9847 842.509 92.6414 842.746 92.2208C842.987 91.8002 843.108 91.3578 843.108 90.8937V89.3272C843.036 89.4143 842.876 89.494 842.63 89.5666C842.388 89.6343 842.107 89.6947 841.788 89.7479C841.474 89.7962 841.167 89.8397 840.867 89.8784C840.572 89.9122 840.333 89.9413 840.149 89.9654C839.705 90.0234 839.289 90.1177 838.902 90.2483C838.52 90.374 838.211 90.5649 837.974 90.8212C837.742 91.0726 837.626 91.4158 837.626 91.8509C837.626 92.4456 837.846 92.8952 838.286 93.1998C838.73 93.4996 839.294 93.6494 839.975 93.6494ZM848.443 99.1029C848.153 99.1029 847.894 99.0788 847.667 99.0304C847.439 98.9869 847.282 98.9434 847.195 98.8999L847.63 97.3915C848.046 97.4978 848.414 97.5365 848.733 97.5075C849.052 97.4785 849.335 97.3359 849.581 97.0796C849.833 96.8282 850.062 96.4197 850.27 95.854L850.589 94.9838L846.47 83.7867H848.327L851.401 92.6632H851.518L854.592 83.7867H856.449L851.721 96.5502C851.508 97.1255 851.244 97.6018 850.93 97.9789C850.616 98.3608 850.251 98.6436 849.835 98.8273C849.424 99.0111 848.96 99.1029 848.443 99.1029ZM866.394 86.2814L864.856 86.7165C864.76 86.4603 864.617 86.2113 864.429 85.9696C864.245 85.723 863.993 85.52 863.674 85.3604C863.355 85.2009 862.947 85.1211 862.449 85.1211C861.767 85.1211 861.199 85.2782 860.745 85.5925C860.295 85.9019 860.07 86.2959 860.07 86.7746C860.07 87.2 860.225 87.536 860.534 87.7826C860.844 88.0291 861.327 88.2346 861.985 88.399L863.638 88.8051C864.634 89.0468 865.376 89.4167 865.864 89.9147C866.353 90.4078 866.597 91.0436 866.597 91.8219C866.597 92.4601 866.413 93.0306 866.046 93.5334C865.683 94.0362 865.175 94.4326 864.523 94.7227C863.87 95.0128 863.111 95.1578 862.246 95.1578C861.11 95.1578 860.169 94.9113 859.425 94.4181C858.68 93.925 858.209 93.2046 858.011 92.2571L859.635 91.8509C859.79 92.4504 860.082 92.9001 860.512 93.1998C860.948 93.4996 861.516 93.6494 862.217 93.6494C863.014 93.6494 863.648 93.4802 864.117 93.1418C864.59 92.7985 864.827 92.3876 864.827 91.909C864.827 91.5222 864.692 91.1983 864.421 90.9372C864.151 90.6713 863.735 90.4731 863.174 90.3425L861.317 89.9074C860.297 89.6657 859.548 89.291 859.069 88.7834C858.596 88.2709 858.359 87.6303 858.359 86.8616C858.359 86.2331 858.535 85.6771 858.888 85.1936C859.246 84.7102 859.732 84.3306 860.346 84.0551C860.964 83.7795 861.666 83.6417 862.449 83.6417C863.551 83.6417 864.416 83.8834 865.045 84.3669C865.678 84.8504 866.128 85.4885 866.394 86.2814Z" fill="#878997"/>
<path d="M882.7 83.2376L888.534 88.6543L894.369 83.2376" stroke="#878997" stroke-width="1.75042" stroke-linecap="round" stroke-linejoin="round"/>
<path d="M148.98 425.67C148.98 425.67 201.748 403.596 241.679 376.243C289.7 343.347 317.623 277.026 375.954 277.389C436.969 277.769 453.011 367.64 512.275 353.222C569.653 339.263 541.695 244.87 598.839 229.993C675.872 209.937 660.421 371.8 739.931 376.243C827.695 381.148 897.381 216.451 897.381 216.451" stroke="#FEAA53" stroke-width="2.91737" stroke-dasharray="5.83 5.83"/>
<line x1="150.437" y1="160.256" x2="897.284" y2="160.256" stroke="#B7B8C1" stroke-width="0.729342"/>
<path d="M97.8944 169.6V168.387L102.447 163.404C102.981 162.821 103.421 162.313 103.766 161.882C104.112 161.447 104.368 161.038 104.534 160.657C104.705 160.271 104.79 159.867 104.79 159.445C104.79 158.96 104.673 158.54 104.44 158.186C104.211 157.831 103.897 157.557 103.497 157.364C103.098 157.171 102.649 157.074 102.15 157.074C101.621 157.074 101.158 157.184 100.763 157.404C100.373 157.62 100.069 157.923 99.854 158.313C99.643 158.704 99.5375 159.162 99.5375 159.687H97.9483C97.9483 158.879 98.1346 158.17 98.5072 157.559C98.8798 156.949 99.3871 156.473 100.029 156.132C100.676 155.79 101.401 155.62 102.204 155.62C103.012 155.62 103.728 155.79 104.352 156.132C104.976 156.473 105.466 156.933 105.82 157.512C106.175 158.091 106.352 158.735 106.352 159.445C106.352 159.952 106.26 160.448 106.076 160.933C105.897 161.413 105.582 161.95 105.133 162.542C104.689 163.13 104.072 163.849 103.282 164.697L100.184 168.01V168.118H106.595V169.6H97.8944ZM113.496 169.788C112.706 169.788 111.994 169.631 111.361 169.317C110.728 169.003 110.221 168.572 109.839 168.024C109.458 167.476 109.249 166.852 109.213 166.152H110.829C110.892 166.776 111.175 167.292 111.678 167.701C112.185 168.105 112.791 168.307 113.496 168.307C114.062 168.307 114.564 168.174 115.004 167.909C115.449 167.645 115.797 167.281 116.048 166.818C116.304 166.352 116.432 165.824 116.432 165.236C116.432 164.634 116.3 164.098 116.035 163.627C115.774 163.151 115.415 162.776 114.957 162.502C114.499 162.228 113.976 162.089 113.388 162.084C112.966 162.08 112.533 162.145 112.089 162.28C111.644 162.41 111.278 162.578 110.991 162.785L109.429 162.596L110.264 155.808H117.429V157.29H111.664L111.179 161.357H111.26C111.543 161.133 111.898 160.946 112.324 160.798C112.751 160.65 113.195 160.576 113.658 160.576C114.502 160.576 115.254 160.778 115.913 161.182C116.578 161.582 117.099 162.129 117.476 162.825C117.857 163.521 118.048 164.316 118.048 165.209C118.048 166.089 117.851 166.875 117.456 167.566C117.065 168.253 116.526 168.796 115.839 169.196C115.153 169.591 114.371 169.788 113.496 169.788ZM122.042 165.829L122.015 163.862H122.338L126.864 159.256H128.83L124.008 164.132H123.874L122.042 165.829ZM120.561 169.6V155.808H122.15V169.6H120.561ZM127.133 169.6L123.093 164.482L124.224 163.377L129.153 169.6H127.133Z" fill="#3E4259"/>
<line x1="150.437" y1="238.799" x2="897.284" y2="238.799" stroke="#B7B8C1" stroke-width="0.729342"/>
<path d="M97.8944 248.143V246.93L102.447 241.947C102.981 241.364 103.421 240.856 103.766 240.425C104.112 239.99 104.368 239.581 104.534 239.2C104.705 238.814 104.79 238.41 104.79 237.988C104.79 237.503 104.673 237.083 104.44 236.728C104.211 236.374 103.897 236.1 103.497 235.907C103.098 235.714 102.649 235.617 102.15 235.617C101.621 235.617 101.158 235.727 100.763 235.947C100.373 236.163 100.069 236.466 99.854 236.856C99.643 237.247 99.5375 237.705 99.5375 238.23H97.9483C97.9483 237.422 98.1346 236.713 98.5072 236.102C98.8798 235.492 99.3871 235.016 100.029 234.675C100.676 234.333 101.401 234.163 102.204 234.163C103.012 234.163 103.728 234.333 104.352 234.675C104.976 235.016 105.466 235.476 105.82 236.055C106.175 236.634 106.352 237.278 106.352 237.988C106.352 238.495 106.26 238.991 106.076 239.476C105.897 239.956 105.582 240.493 105.133 241.085C104.689 241.673 104.072 242.392 103.282 243.24L100.184 246.553V246.661H106.595V248.143H97.8944ZM113.685 248.331C112.67 248.331 111.806 248.055 111.092 247.503C110.378 246.946 109.833 246.14 109.456 245.085C109.078 244.026 108.89 242.746 108.89 241.247C108.89 239.757 109.078 238.484 109.456 237.429C109.837 236.369 110.385 235.561 111.099 235.005C111.817 234.443 112.679 234.163 113.685 234.163C114.69 234.163 115.55 234.443 116.264 235.005C116.982 235.561 117.53 236.369 117.907 237.429C118.288 238.484 118.479 239.757 118.479 241.247C118.479 242.746 118.291 244.026 117.913 245.085C117.536 246.14 116.991 246.946 116.277 247.503C115.563 248.055 114.699 248.331 113.685 248.331ZM113.685 246.85C114.69 246.85 115.471 246.365 116.028 245.395C116.585 244.425 116.863 243.043 116.863 241.247C116.863 240.053 116.735 239.036 116.479 238.196C116.228 237.357 115.864 236.717 115.388 236.277C114.917 235.837 114.349 235.617 113.685 235.617C112.688 235.617 111.909 236.109 111.348 237.092C110.787 238.071 110.506 239.456 110.506 241.247C110.506 242.441 110.632 243.456 110.883 244.291C111.135 245.126 111.496 245.761 111.967 246.196C112.443 246.632 113.016 246.85 113.685 246.85ZM122.357 244.372L122.33 242.405H122.653L127.178 237.799H129.145L124.323 242.675H124.188L122.357 244.372ZM120.875 248.143V234.351H122.465V248.143H120.875ZM127.448 248.143L123.407 243.025L124.539 241.92L129.468 248.143H127.448Z" fill="#3E4259"/>
<line x1="150.437" y1="317.34" x2="897.284" y2="317.34" stroke="#B7B8C1" stroke-width="0.729342"/>
<path d="M102.743 312.892V326.684H101.073V314.643H100.992L97.625 316.879V315.182L101.073 312.892H102.743ZM110.829 326.872C110.039 326.872 109.328 326.715 108.695 326.401C108.062 326.087 107.554 325.656 107.173 325.108C106.791 324.56 106.582 323.936 106.546 323.236H108.163C108.226 323.86 108.508 324.376 109.011 324.785C109.518 325.189 110.124 325.391 110.829 325.391C111.395 325.391 111.898 325.258 112.338 324.993C112.782 324.728 113.13 324.365 113.381 323.902C113.637 323.436 113.765 322.908 113.765 322.32C113.765 321.718 113.633 321.182 113.368 320.711C113.108 320.235 112.748 319.86 112.291 319.586C111.833 319.312 111.31 319.173 110.722 319.168C110.3 319.164 109.866 319.229 109.422 319.364C108.977 319.494 108.612 319.662 108.324 319.869L106.762 319.68L107.597 312.892H114.762V314.374H108.998L108.513 318.441H108.594C108.876 318.217 109.231 318.03 109.658 317.882C110.084 317.734 110.529 317.66 110.991 317.66C111.835 317.66 112.587 317.862 113.247 318.266C113.911 318.666 114.432 319.213 114.809 319.909C115.191 320.605 115.381 321.4 115.381 322.293C115.381 323.173 115.184 323.959 114.789 324.65C114.398 325.337 113.86 325.88 113.173 326.28C112.486 326.675 111.705 326.872 110.829 326.872ZM119.375 322.913L119.348 320.946H119.672L124.197 316.34H126.163L121.342 321.216H121.207L119.375 322.913ZM117.894 326.684V312.892H119.483V326.684H117.894ZM124.466 326.684L120.426 321.566L121.557 320.461L126.486 326.684H124.466Z" fill="#3E4259"/>
<line x1="150.437" y1="395.881" x2="897.284" y2="395.881" stroke="#B7B8C1" stroke-width="0.729342"/>
<path d="M102.204 405.413C101.414 405.413 100.702 405.256 100.069 404.942C99.4365 404.628 98.9292 404.197 98.5476 403.649C98.166 403.101 97.9573 402.477 97.9213 401.777H99.5375C99.6003 402.401 99.8832 402.917 100.386 403.326C100.893 403.73 101.499 403.932 102.204 403.932C102.77 403.932 103.273 403.799 103.713 403.534C104.157 403.27 104.505 402.906 104.756 402.443C105.012 401.977 105.14 401.449 105.14 400.861C105.14 400.259 105.008 399.723 104.743 399.252C104.482 398.776 104.123 398.401 103.665 398.127C103.208 397.853 102.685 397.714 102.096 397.709C101.674 397.705 101.241 397.77 100.797 397.905C100.352 398.035 99.9864 398.203 99.6991 398.41L98.1368 398.221L98.9718 391.433H106.137V392.915H100.373L99.8877 396.982H99.9685C100.251 396.758 100.606 396.571 101.032 396.423C101.459 396.275 101.903 396.201 102.366 396.201C103.21 396.201 103.962 396.403 104.622 396.807C105.286 397.207 105.807 397.754 106.184 398.45C106.566 399.146 106.756 399.941 106.756 400.834C106.756 401.714 106.559 402.5 106.164 403.191C105.773 403.878 105.234 404.421 104.548 404.821C103.861 405.216 103.08 405.413 102.204 405.413ZM110.75 401.454L110.723 399.487H111.046L115.572 394.881H117.538L112.717 399.757H112.582L110.75 401.454ZM109.269 405.225V391.433H110.858V405.225H109.269ZM115.841 405.225L111.801 400.107L112.932 399.002L117.861 405.225H115.841Z" fill="#3E4259"/>
<path d="M247.13 281.452C191.158 295.921 152.387 394.525 152.387 394.525V472.817H898.743V263.848C898.743 263.848 881.526 343.009 841.488 364.056C776.744 398.09 755.753 252.776 683.356 263.848C648.055 269.246 637.955 305.138 602.245 305.827C550.582 306.824 550.996 223.358 499.323 223.223C431.679 223.045 465.645 348.627 399.809 364.056C333.728 379.543 312.836 264.466 247.13 281.452Z" fill="url(#paint0_linear_1171_6021)"/>
<path d="M152.387 394.525C152.387 394.525 191.158 295.921 247.13 281.452C312.836 264.466 333.728 379.543 399.809 364.056C465.645 348.627 431.679 223.045 499.323 223.223C550.996 223.358 550.582 306.823 602.245 305.827C637.955 305.138 648.055 269.246 683.356 263.848C755.753 252.776 776.744 398.09 841.488 364.056C881.526 343.009 898.743 263.848 898.743 263.848" stroke="#7A24A1" stroke-width="5.83474" stroke-linecap="round"/>
<line x1="500.542" y1="152.021" x2="500.542" y2="467.383" stroke="#9D9EA9" stroke-width="1.45868" stroke-dasharray="8.75 8.75"/>
<rect x="443.635" y="160.621" width="118.153" height="46.0417" rx="17.5042" fill="#183953"/>
<path d="M473.429 193.093V173.897H475.104V193.093H473.429ZM474.062 190.847C472.946 190.847 471.877 190.69 470.856 190.377C469.835 190.05 469.025 189.635 468.426 189.131L469.345 187.069C469.916 187.518 470.624 187.892 471.469 188.192C472.313 188.492 473.177 188.641 474.062 188.641C474.811 188.641 475.417 188.56 475.88 188.396C476.342 188.233 476.683 188.015 476.901 187.743C477.118 187.457 477.227 187.137 477.227 186.783C477.227 186.347 477.071 186 476.758 185.741C476.445 185.469 476.036 185.258 475.532 185.108C475.042 184.945 474.491 184.795 473.878 184.659C473.279 184.523 472.673 184.366 472.061 184.189C471.462 183.999 470.91 183.761 470.407 183.475C469.916 183.175 469.515 182.78 469.202 182.29C468.889 181.8 468.732 181.174 468.732 180.411C468.732 179.635 468.936 178.927 469.345 178.288C469.767 177.634 470.4 177.117 471.244 176.735C472.102 176.341 473.184 176.143 474.491 176.143C475.349 176.143 476.2 176.252 477.044 176.47C477.888 176.688 478.623 177.001 479.249 177.409L478.412 179.472C477.772 179.091 477.112 178.812 476.431 178.635C475.75 178.444 475.097 178.349 474.47 178.349C473.735 178.349 473.136 178.437 472.673 178.614C472.224 178.791 471.891 179.023 471.673 179.309C471.469 179.595 471.366 179.921 471.366 180.289C471.366 180.724 471.516 181.078 471.816 181.351C472.129 181.609 472.53 181.814 473.021 181.963C473.524 182.113 474.082 182.263 474.695 182.413C475.308 182.549 475.914 182.705 476.513 182.882C477.125 183.059 477.677 183.291 478.167 183.577C478.671 183.863 479.072 184.251 479.372 184.741C479.685 185.231 479.841 185.85 479.841 186.599C479.841 187.362 479.63 188.069 479.208 188.723C478.8 189.363 478.167 189.88 477.309 190.275C476.451 190.656 475.369 190.847 474.062 190.847ZM481.244 187.396V185.558L488.289 176.347H491.128L484.184 185.558L482.857 185.149H494.191V187.396H481.244ZM489.086 190.643V187.396L489.167 185.149V182.27H491.659V190.643H489.086ZM495.605 193.726L496.79 189.213L497.137 190.724C496.66 190.724 496.259 190.581 495.932 190.295C495.619 189.996 495.462 189.594 495.462 189.091C495.462 188.573 495.619 188.165 495.932 187.865C496.259 187.552 496.653 187.396 497.116 187.396C497.593 187.396 497.988 187.552 498.301 187.865C498.614 188.178 498.77 188.587 498.77 189.091C498.77 189.227 498.757 189.376 498.73 189.54C498.702 189.69 498.655 189.867 498.587 190.071C498.532 190.275 498.437 190.534 498.301 190.847L497.259 193.726H495.605ZM505.022 190.847C504.015 190.847 503.028 190.704 502.061 190.418C501.108 190.118 500.305 189.71 499.651 189.193L500.775 187.13C501.292 187.552 501.918 187.892 502.653 188.151C503.402 188.41 504.178 188.539 504.981 188.539C505.921 188.539 506.656 188.342 507.187 187.947C507.732 187.552 508.004 187.021 508.004 186.354C508.004 185.905 507.888 185.51 507.657 185.17C507.439 184.829 507.044 184.571 506.472 184.394C505.914 184.217 505.145 184.128 504.165 184.128H500.713L501.449 176.347H509.842V178.573H502.429L503.817 177.307L503.266 183.127L501.877 181.882H504.757C506.173 181.882 507.31 182.072 508.167 182.454C509.039 182.821 509.672 183.338 510.066 184.006C510.475 184.659 510.679 185.408 510.679 186.252C510.679 187.082 510.475 187.845 510.066 188.539C509.658 189.233 509.032 189.792 508.188 190.214C507.357 190.636 506.302 190.847 505.022 190.847ZM517.969 190.847C516.839 190.847 515.818 190.561 514.906 189.989C514.007 189.417 513.3 188.587 512.782 187.498C512.265 186.395 512.006 185.061 512.006 183.495C512.006 181.929 512.265 180.602 512.782 179.513C513.3 178.41 514.007 177.573 514.906 177.001C515.818 176.429 516.839 176.143 517.969 176.143C519.113 176.143 520.134 176.429 521.032 177.001C521.931 177.573 522.639 178.41 523.156 179.513C523.687 180.602 523.953 181.929 523.953 183.495C523.953 185.061 523.687 186.395 523.156 187.498C522.639 188.587 521.931 189.417 521.032 189.989C520.134 190.561 519.113 190.847 517.969 190.847ZM517.969 188.539C518.636 188.539 519.215 188.362 519.705 188.008C520.195 187.641 520.576 187.082 520.849 186.334C521.135 185.585 521.278 184.639 521.278 183.495C521.278 182.338 521.135 181.392 520.849 180.656C520.576 179.908 520.195 179.356 519.705 179.002C519.215 178.635 518.636 178.451 517.969 178.451C517.329 178.451 516.758 178.635 516.254 179.002C515.764 179.356 515.376 179.908 515.09 180.656C514.818 181.392 514.681 182.338 514.681 183.495C514.681 184.639 514.818 185.585 515.09 186.334C515.376 187.082 515.764 187.641 516.254 188.008C516.758 188.362 517.329 188.539 517.969 188.539ZM530.362 176.143C531.669 176.143 532.779 176.422 533.691 176.981C534.617 177.525 535.325 178.322 535.815 179.37C536.305 180.418 536.55 181.712 536.55 183.25C536.55 184.884 536.25 186.266 535.651 187.396C535.066 188.526 534.249 189.383 533.201 189.969C532.152 190.554 530.934 190.847 529.545 190.847C528.824 190.847 528.136 190.772 527.483 190.622C526.829 190.472 526.264 190.241 525.788 189.928L526.768 187.927C527.163 188.185 527.592 188.369 528.054 188.478C528.517 188.573 528.994 188.621 529.484 188.621C530.832 188.621 531.901 188.206 532.69 187.375C533.48 186.545 533.875 185.319 533.875 183.699C533.875 183.441 533.868 183.141 533.854 182.801C533.841 182.447 533.793 182.093 533.711 181.739L534.528 182.637C534.297 183.196 533.963 183.665 533.527 184.046C533.092 184.414 532.581 184.693 531.996 184.884C531.41 185.074 530.764 185.17 530.056 185.17C529.13 185.17 528.293 184.993 527.544 184.639C526.809 184.271 526.223 183.761 525.788 183.107C525.352 182.44 525.134 181.664 525.134 180.779C525.134 179.826 525.366 179.009 525.829 178.328C526.291 177.634 526.918 177.096 527.707 176.715C528.511 176.334 529.396 176.143 530.362 176.143ZM530.505 178.226C529.961 178.226 529.477 178.328 529.055 178.533C528.633 178.723 528.3 179.002 528.054 179.37C527.823 179.724 527.707 180.153 527.707 180.656C527.707 181.405 527.966 181.997 528.483 182.433C529.001 182.869 529.695 183.087 530.566 183.087C531.138 183.087 531.642 182.984 532.078 182.78C532.513 182.562 532.854 182.27 533.099 181.902C533.344 181.521 533.466 181.099 533.466 180.636C533.466 180.187 533.35 179.785 533.119 179.431C532.888 179.064 532.554 178.771 532.118 178.553C531.683 178.335 531.145 178.226 530.505 178.226Z" fill="white"/>
<path d="M500.522 229.104C505.148 229.104 509.274 225.573 509.274 220.77C509.274 215.967 505.148 212.436 500.522 212.436C495.897 212.436 491.77 215.967 491.77 220.77C491.77 225.573 495.897 229.104 500.522 229.104Z" fill="#183953" stroke="white" stroke-width="5.83474"/>
</g>
<path d="M407.167 500.027V488.895H402.861V487.774H412.768V488.895H408.462V500.027H407.167ZM419.266 490.75C420.013 490.75 420.667 490.896 421.227 491.188C421.799 491.468 422.242 491.9 422.557 492.483C422.884 493.067 423.047 493.802 423.047 494.689V500.027H421.804V494.811C421.804 493.843 421.559 493.113 421.069 492.623C420.591 492.121 419.914 491.87 419.039 491.87C418.385 491.87 417.813 492.005 417.323 492.273C416.845 492.53 416.471 492.909 416.203 493.411C415.946 493.901 415.818 494.496 415.818 495.196V500.027H414.575V487.039H415.818V493.358L415.573 492.886C415.865 492.22 416.331 491.701 416.973 491.328C417.615 490.943 418.379 490.75 419.266 490.75ZM426.404 500.027V490.838H427.647V500.027H426.404ZM427.034 488.807C426.778 488.807 426.562 488.72 426.387 488.545C426.212 488.37 426.124 488.159 426.124 487.914C426.124 487.669 426.212 487.465 426.387 487.302C426.562 487.127 426.778 487.039 427.034 487.039C427.291 487.039 427.507 487.121 427.682 487.284C427.857 487.448 427.945 487.652 427.945 487.897C427.945 488.154 427.857 488.37 427.682 488.545C427.519 488.72 427.303 488.807 427.034 488.807ZM433.573 500.115C432.815 500.115 432.097 500.01 431.42 499.8C430.743 499.578 430.212 499.304 429.827 498.977L430.387 497.997C430.761 498.277 431.239 498.522 431.823 498.732C432.406 498.93 433.019 499.03 433.661 499.03C434.536 499.03 435.166 498.895 435.551 498.627C435.936 498.347 436.129 497.979 436.129 497.524C436.129 497.186 436.018 496.923 435.796 496.737C435.586 496.538 435.306 496.392 434.956 496.299C434.606 496.194 434.215 496.106 433.783 496.036C433.351 495.966 432.92 495.885 432.488 495.791C432.068 495.698 431.683 495.564 431.333 495.389C430.983 495.202 430.697 494.951 430.475 494.636C430.265 494.321 430.16 493.901 430.16 493.376C430.16 492.874 430.3 492.425 430.58 492.028C430.86 491.631 431.268 491.322 431.805 491.1C432.354 490.867 433.019 490.75 433.801 490.75C434.396 490.75 434.991 490.832 435.586 490.995C436.181 491.147 436.671 491.351 437.056 491.608L436.514 492.606C436.105 492.325 435.668 492.127 435.201 492.01C434.734 491.882 434.267 491.818 433.801 491.818C432.972 491.818 432.36 491.964 431.963 492.255C431.578 492.536 431.385 492.897 431.385 493.341C431.385 493.691 431.49 493.965 431.7 494.163C431.922 494.362 432.208 494.519 432.558 494.636C432.92 494.741 433.311 494.829 433.731 494.899C434.162 494.969 434.588 495.056 435.008 495.161C435.44 495.255 435.831 495.389 436.181 495.564C436.543 495.727 436.829 495.966 437.039 496.281C437.261 496.585 437.372 496.987 437.372 497.489C437.372 498.026 437.22 498.493 436.916 498.89C436.625 499.275 436.193 499.578 435.621 499.8C435.061 500.01 434.378 500.115 433.573 500.115ZM444.496 500.027V487.774H445.564L451.165 497.332H450.605L456.154 487.774H457.221V500.027H455.979V489.717H456.276L451.165 498.469H450.552L445.406 489.717H445.739V500.027H444.496ZM464.697 500.115C463.81 500.115 463.011 499.916 462.299 499.52C461.599 499.111 461.044 498.557 460.636 497.857C460.228 497.145 460.023 496.334 460.023 495.424C460.023 494.502 460.228 493.691 460.636 492.991C461.044 492.29 461.599 491.742 462.299 491.345C462.999 490.948 463.798 490.75 464.697 490.75C465.607 490.75 466.412 490.948 467.113 491.345C467.824 491.742 468.379 492.29 468.775 492.991C469.184 493.691 469.388 494.502 469.388 495.424C469.388 496.334 469.184 497.145 468.775 497.857C468.379 498.557 467.824 499.111 467.113 499.52C466.401 499.916 465.596 500.115 464.697 500.115ZM464.697 499.012C465.362 499.012 465.951 498.866 466.465 498.574C466.978 498.271 467.381 497.851 467.673 497.314C467.976 496.766 468.128 496.136 468.128 495.424C468.128 494.7 467.976 494.07 467.673 493.533C467.381 492.996 466.978 492.582 466.465 492.29C465.951 491.987 465.368 491.835 464.715 491.835C464.061 491.835 463.478 491.987 462.964 492.29C462.451 492.582 462.042 492.996 461.739 493.533C461.435 494.07 461.284 494.7 461.284 495.424C461.284 496.136 461.435 496.766 461.739 497.314C462.042 497.851 462.451 498.271 462.964 498.574C463.478 498.866 464.055 499.012 464.697 499.012ZM476.617 490.75C477.363 490.75 478.017 490.896 478.577 491.188C479.149 491.468 479.592 491.9 479.907 492.483C480.234 493.067 480.397 493.802 480.397 494.689V500.027H479.155V494.811C479.155 493.843 478.91 493.113 478.419 492.623C477.941 492.121 477.264 491.87 476.389 491.87C475.736 491.87 475.164 492.005 474.674 492.273C474.195 492.53 473.822 492.909 473.553 493.411C473.297 493.901 473.168 494.496 473.168 495.196V500.027H471.925V490.838H473.116V493.358L472.923 492.886C473.215 492.22 473.682 491.701 474.323 491.328C474.965 490.943 475.73 490.75 476.617 490.75ZM486.66 500.115C485.797 500.115 485.131 499.881 484.665 499.415C484.198 498.948 483.964 498.289 483.964 497.437V488.807H485.207V497.367C485.207 497.903 485.341 498.318 485.61 498.61C485.89 498.901 486.287 499.047 486.8 499.047C487.349 499.047 487.804 498.89 488.166 498.574L488.603 499.467C488.358 499.689 488.06 499.852 487.71 499.957C487.372 500.062 487.022 500.115 486.66 500.115ZM482.319 491.87V490.838H488.008V491.87H482.319ZM495.557 490.75C496.304 490.75 496.957 490.896 497.517 491.188C498.089 491.468 498.532 491.9 498.847 492.483C499.174 493.067 499.338 493.802 499.338 494.689V500.027H498.095V494.811C498.095 493.843 497.85 493.113 497.36 492.623C496.881 492.121 496.204 491.87 495.329 491.87C494.676 491.87 494.104 492.005 493.614 492.273C493.135 492.53 492.762 492.909 492.493 493.411C492.237 493.901 492.108 494.496 492.108 495.196V500.027H490.866V487.039H492.108V493.358L491.863 492.886C492.155 492.22 492.622 491.701 493.264 491.328C493.905 490.943 494.67 490.75 495.557 490.75Z" fill="#3E4259"/>
<circle cx="385.287" cy="494.697" r="8.75211" fill="#7A24A1"/>
<path d="M562.962 500.027V487.774H564.258V498.907H571.119V500.027H562.962ZM578.766 500.027V497.997L578.714 497.664V494.268C578.714 493.487 578.492 492.886 578.049 492.466C577.617 492.045 576.969 491.835 576.106 491.835C575.51 491.835 574.945 491.935 574.408 492.133C573.871 492.331 573.416 492.594 573.042 492.921L572.482 491.993C572.949 491.596 573.509 491.293 574.163 491.083C574.816 490.861 575.505 490.75 576.228 490.75C577.418 490.75 578.334 491.048 578.976 491.643C579.63 492.226 579.957 493.119 579.957 494.321V500.027H578.766ZM575.598 500.115C574.909 500.115 574.309 500.004 573.795 499.782C573.293 499.549 572.908 499.234 572.64 498.837C572.371 498.429 572.237 497.962 572.237 497.437C572.237 496.958 572.348 496.527 572.57 496.141C572.803 495.745 573.177 495.43 573.69 495.196C574.215 494.951 574.915 494.829 575.791 494.829H578.959V495.756H575.826C574.939 495.756 574.32 495.914 573.97 496.229C573.632 496.544 573.462 496.935 573.462 497.402C573.462 497.927 573.667 498.347 574.075 498.662C574.484 498.977 575.055 499.135 575.791 499.135C576.491 499.135 577.092 498.977 577.593 498.662C578.107 498.335 578.48 497.868 578.714 497.262L578.994 498.119C578.76 498.726 578.352 499.21 577.769 499.572C577.197 499.934 576.473 500.115 575.598 500.115ZM585.8 500.115C585.042 500.115 584.324 500.01 583.647 499.8C582.97 499.578 582.439 499.304 582.054 498.977L582.614 497.997C582.988 498.277 583.466 498.522 584.05 498.732C584.633 498.93 585.246 499.03 585.888 499.03C586.763 499.03 587.393 498.895 587.778 498.627C588.163 498.347 588.356 497.979 588.356 497.524C588.356 497.186 588.245 496.923 588.023 496.737C587.813 496.538 587.533 496.392 587.183 496.299C586.833 496.194 586.442 496.106 586.01 496.036C585.578 495.966 585.147 495.885 584.715 495.791C584.295 495.698 583.91 495.564 583.56 495.389C583.21 495.202 582.924 494.951 582.702 494.636C582.492 494.321 582.387 493.901 582.387 493.376C582.387 492.874 582.527 492.425 582.807 492.028C583.087 491.631 583.495 491.322 584.032 491.1C584.581 490.867 585.246 490.75 586.028 490.75C586.623 490.75 587.218 490.832 587.813 490.995C588.408 491.147 588.898 491.351 589.284 491.608L588.741 492.606C588.332 492.325 587.895 492.127 587.428 492.01C586.961 491.882 586.495 491.818 586.028 491.818C585.199 491.818 584.587 491.964 584.19 492.255C583.805 492.536 583.612 492.897 583.612 493.341C583.612 493.691 583.717 493.965 583.927 494.163C584.149 494.362 584.435 494.519 584.785 494.636C585.147 494.741 585.538 494.829 585.958 494.899C586.39 494.969 586.815 495.056 587.236 495.161C587.667 495.255 588.058 495.389 588.408 495.564C588.77 495.727 589.056 495.966 589.266 496.281C589.488 496.585 589.599 496.987 589.599 497.489C589.599 498.026 589.447 498.493 589.144 498.89C588.852 499.275 588.42 499.578 587.848 499.8C587.288 500.01 586.605 500.115 585.8 500.115ZM594.785 500.115C593.921 500.115 593.256 499.881 592.789 499.415C592.323 498.948 592.089 498.289 592.089 497.437V488.807H593.332V497.367C593.332 497.903 593.466 498.318 593.735 498.61C594.015 498.901 594.411 499.047 594.925 499.047C595.473 499.047 595.928 498.89 596.29 498.574L596.728 499.467C596.483 499.689 596.185 499.852 595.835 499.957C595.497 500.062 595.147 500.115 594.785 500.115ZM590.444 491.87V490.838H596.133V491.87H590.444ZM603.834 500.027V487.774H604.902L610.503 497.332H609.943L615.492 487.774H616.56V500.027H615.317V489.717H615.614L610.503 498.469H609.89L604.744 489.717H605.077V500.027H603.834ZM624.035 500.115C623.148 500.115 622.349 499.916 621.637 499.52C620.937 499.111 620.383 498.557 619.974 497.857C619.566 497.145 619.362 496.334 619.362 495.424C619.362 494.502 619.566 493.691 619.974 492.991C620.383 492.29 620.937 491.742 621.637 491.345C622.337 490.948 623.137 490.75 624.035 490.75C624.945 490.75 625.751 490.948 626.451 491.345C627.163 491.742 627.717 492.29 628.114 492.991C628.522 493.691 628.726 494.502 628.726 495.424C628.726 496.334 628.522 497.145 628.114 497.857C627.717 498.557 627.163 499.111 626.451 499.52C625.739 499.916 624.934 500.115 624.035 500.115ZM624.035 499.012C624.7 499.012 625.29 498.866 625.803 498.574C626.317 498.271 626.719 497.851 627.011 497.314C627.314 496.766 627.466 496.136 627.466 495.424C627.466 494.7 627.314 494.07 627.011 493.533C626.719 492.996 626.317 492.582 625.803 492.29C625.29 491.987 624.706 491.835 624.053 491.835C623.399 491.835 622.816 491.987 622.302 492.29C621.789 492.582 621.38 492.996 621.077 493.533C620.774 494.07 620.622 494.7 620.622 495.424C620.622 496.136 620.774 496.766 621.077 497.314C621.38 497.851 621.789 498.271 622.302 498.574C622.816 498.866 623.393 499.012 624.035 499.012ZM635.955 490.75C636.702 490.75 637.355 490.896 637.915 491.188C638.487 491.468 638.93 491.9 639.246 492.483C639.572 493.067 639.736 493.802 639.736 494.689V500.027H638.493V494.811C638.493 493.843 638.248 493.113 637.758 492.623C637.279 492.121 636.602 491.87 635.727 491.87C635.074 491.87 634.502 492.005 634.012 492.273C633.533 492.53 633.16 492.909 632.891 493.411C632.635 493.901 632.506 494.496 632.506 495.196V500.027H631.264V490.838H632.454V493.358L632.261 492.886C632.553 492.22 633.02 491.701 633.662 491.328C634.303 490.943 635.068 490.75 635.955 490.75ZM645.998 500.115C645.135 500.115 644.47 499.881 644.003 499.415C643.536 498.948 643.303 498.289 643.303 497.437V488.807H644.545V497.367C644.545 497.903 644.68 498.318 644.948 498.61C645.228 498.901 645.625 499.047 646.138 499.047C646.687 499.047 647.142 498.89 647.504 498.574L647.941 499.467C647.696 499.689 647.399 499.852 647.049 499.957C646.71 500.062 646.36 500.115 645.998 500.115ZM641.657 491.87V490.838H647.346V491.87H641.657ZM654.895 490.75C655.642 490.75 656.295 490.896 656.855 491.188C657.427 491.468 657.871 491.9 658.186 492.483C658.512 493.067 658.676 493.802 658.676 494.689V500.027H657.433V494.811C657.433 493.843 657.188 493.113 656.698 492.623C656.219 492.121 655.542 491.87 654.667 491.87C654.014 491.87 653.442 492.005 652.952 492.273C652.473 492.53 652.1 492.909 651.832 493.411C651.575 493.901 651.446 494.496 651.446 495.196V500.027H650.204V487.039H651.446V493.358L651.201 492.886C651.493 492.22 651.96 491.701 652.602 491.328C653.244 490.943 654.008 490.75 654.895 490.75Z" fill="#3E4259"/>
<circle cx="543.463" cy="494.697" r="8.75211" fill="#FEAA53"/>
<path d="M258.381 76.0547L249.629 84.8068L258.381 93.5589" stroke="#242730" stroke-width="2.91737" stroke-linecap="round" stroke-linejoin="round"/>
<path d="M295.758 93.3066V92.1164L302.55 85.4648C303.172 84.8579 303.639 84.3289 303.95 83.8777C304.261 83.4109 304.471 82.9753 304.58 82.5707C304.689 82.1662 304.743 81.785 304.743 81.4271C304.743 80.478 304.417 79.7311 303.763 79.1866C303.125 78.642 302.176 78.3697 300.916 78.3697C299.951 78.3697 299.095 78.5175 298.348 78.8131C297.617 79.1088 296.987 79.5678 296.458 80.1901L295.268 79.1632C295.906 78.4164 296.723 77.8407 297.718 77.4362C298.714 77.0316 299.827 76.8293 301.056 76.8293C302.161 76.8293 303.117 77.0083 303.927 77.3661C304.736 77.7084 305.358 78.2141 305.794 78.8832C306.245 79.5522 306.47 80.338 306.47 81.2404C306.47 81.7694 306.393 82.2907 306.237 82.8041C306.097 83.3176 305.833 83.8621 305.444 84.4378C305.07 84.998 304.518 85.6359 303.786 86.3516L297.555 92.4664L297.088 91.8129H307.217V93.3066H295.758ZM315.792 93.4467C314.532 93.4467 313.412 93.1199 312.431 92.4664C311.451 91.7974 310.681 90.8483 310.121 89.6191C309.561 88.3743 309.281 86.8806 309.281 85.138C309.281 83.3954 309.561 81.9095 310.121 80.6803C310.681 79.4355 311.451 78.4864 312.431 77.8329C313.412 77.1639 314.532 76.8293 315.792 76.8293C317.052 76.8293 318.173 77.1639 319.153 77.8329C320.133 78.4864 320.903 79.4355 321.464 80.6803C322.039 81.9095 322.327 83.3954 322.327 85.138C322.327 86.8806 322.039 88.3743 321.464 89.6191C320.903 90.8483 320.133 91.7974 319.153 92.4664C318.173 93.1199 317.052 93.4467 315.792 93.4467ZM315.792 91.9063C316.757 91.9063 317.597 91.6496 318.313 91.1361C319.029 90.6071 319.589 89.8447 319.993 88.8489C320.398 87.8375 320.6 86.6006 320.6 85.138C320.6 83.6754 320.398 82.4462 319.993 81.4505C319.589 80.4391 319.029 79.6767 318.313 79.1632C317.597 78.6342 316.757 78.3697 315.792 78.3697C314.859 78.3697 314.026 78.6342 313.295 79.1632C312.564 79.6767 311.996 80.4391 311.591 81.4505C311.187 82.4462 310.984 83.6754 310.984 85.138C310.984 86.6006 311.187 87.8375 311.591 88.8489C311.996 89.8447 312.564 90.6071 313.295 91.1361C314.026 91.6496 314.859 91.9063 315.792 91.9063ZM324.43 93.3066V92.1164L331.222 85.4648C331.844 84.8579 332.311 84.3289 332.622 83.8777C332.933 83.4109 333.143 82.9753 333.252 82.5707C333.361 82.1662 333.416 81.785 333.416 81.4271C333.416 80.478 333.089 79.7311 332.435 79.1866C331.797 78.642 330.848 78.3697 329.588 78.3697C328.623 78.3697 327.768 78.5175 327.021 78.8131C326.289 79.1088 325.659 79.5678 325.13 80.1901L323.94 79.1632C324.578 78.4164 325.395 77.8407 326.391 77.4362C327.386 77.0316 328.499 76.8293 329.728 76.8293C330.833 76.8293 331.79 77.0083 332.599 77.3661C333.408 77.7084 334.03 78.2141 334.466 78.8832C334.917 79.5522 335.143 80.338 335.143 81.2404C335.143 81.7694 335.065 82.2907 334.909 82.8041C334.769 83.3176 334.505 83.8621 334.116 84.4378C333.742 84.998 333.19 85.6359 332.459 86.3516L326.227 92.4664L325.76 91.8129H335.89V93.3066H324.43ZM337.194 89.0123V87.7986L345.853 76.9694H347.72L339.131 87.7986L338.221 87.5186H351.361V89.0123H337.194ZM346.413 93.3066V89.0123L346.46 87.5186V83.7377H348.093V93.3066H346.413Z" fill="#242730"/>
<path d="M388.314 76.0547L397.066 84.8068L388.314 93.5589" stroke="#242730" stroke-width="2.91737" stroke-linecap="round" stroke-linejoin="round"/>
<defs>
<filter id="filter0_dddd_1171_6021" x="0.193928" y="0.201616" width="984.612" height="764.351" filterUnits="userSpaceOnUse" color-interpolation-filters="sRGB">
<feFlood flood-opacity="0" result="BackgroundImageFix"/>
<feColorMatrix in="SourceAlpha" type="matrix" values="0 0 0 0 0 0 0 0 0 0 0 0 0 0 0 0 0 0 127 0" result="hardAlpha"/>
<feOffset dy="8.75211"/>
<feGaussianBlur stdDeviation="10.2108"/>
<feColorMatrix type="matrix" values="0 0 0 0 0.898039 0 0 0 0 0.752941 0 0 0 0 0.94902 0 0 0 0.1 0"/>
<feBlend mode="normal" in2="BackgroundImageFix" result="effect1_dropShadow_1171_6021"/>
<feColorMatrix in="SourceAlpha" type="matrix" values="0 0 0 0 0 0 0 0 0 0 0 0 0 0 0 0 0 0 127 0" result="hardAlpha"/>
<feOffset dy="36.4671"/>
<feGaussianBlur stdDeviation="18.2336"/>
<feColorMatrix type="matrix" values="0 0 0 0 0.898039 0 0 0 0 0.752941 0 0 0 0 0.94902 0 0 0 0.09 0"/>
<feBlend mode="normal" in2="effect1_dropShadow_1171_6021" result="effect2_dropShadow_1171_6021"/>
<feColorMatrix in="SourceAlpha" type="matrix" values="0 0 0 0 0 0 0 0 0 0 0 0 0 0 0 0 0 0 127 0" result="hardAlpha"/>
<feOffset dy="83.145"/>
<feGaussianBlur stdDeviation="24.7976"/>
<feColorMatrix type="matrix" values="0 0 0 0 0.898039 0 0 0 0 0.752941 0 0 0 0 0.94902 0 0 0 0.05 0"/>
<feBlend mode="normal" in2="effect2_dropShadow_1171_6021" result="effect3_dropShadow_1171_6021"/>
<feColorMatrix in="SourceAlpha" type="matrix" values="0 0 0 0 0 0 0 0 0 0 0 0 0 0 0 0 0 0 127 0" result="hardAlpha"/>
<feOffset dy="148.786"/>
<feGaussianBlur stdDeviation="29.903"/>
<feColorMatrix type="matrix" values="0 0 0 0 0.898039 0 0 0 0 0.752941 0 0 0 0 0.94902 0 0 0 0.01 0"/>
<feBlend mode="normal" in2="effect3_dropShadow_1171_6021" result="effect4_dropShadow_1171_6021"/>
<feBlend mode="normal" in="SourceGraphic" in2="effect4_dropShadow_1171_6021" result="shape"/>
</filter>
<linearGradient id="paint0_linear_1171_6021" x1="525.565" y1="223.223" x2="525.565" y2="472.817" gradientUnits="userSpaceOnUse">
<stop stop-color="#4169E1" stop-opacity="0.12"/>
<stop offset="1" stop-color="#4169E1" stop-opacity="0.01"/>
</linearGradient>
</defs>
</svg>
