<svg width="768" height="605" viewBox="0 0 768 605" fill="none" xmlns="http://www.w3.org/2000/svg">
<g clip-path="url(#clip0_1271_6441)">
<g clip-path="url(#clip1_1271_6441)">
<g clip-path="url(#clip2_1271_6441)">
<path d="M696.047 70.4349C695.862 69.2425 695.327 68.132 694.51 67.2439C693.693 66.3557 692.631 65.7298 691.458 65.4454C690.286 65.1609 689.055 65.2306 687.921 65.6457C686.789 66.0609 685.804 66.8027 685.093 67.7775C684.381 68.7522 683.975 69.9161 683.925 71.1218C683.875 72.3275 684.184 73.5209 684.812 74.5511C685.442 75.5811 686.361 76.4018 687.456 76.9089C688.551 77.4161 689.772 77.5872 690.964 77.4004C692.559 77.1448 693.989 76.2693 694.941 74.9646C695.893 73.6599 696.291 72.0318 696.047 70.4349Z" fill="#FEAA53"/>
<path d="M82.6946 317.646C77.7917 315.425 72.3406 314.709 67.0305 315.587C61.7204 316.464 56.7899 318.897 52.8624 322.578C48.9348 326.258 46.1868 331.019 44.9656 336.261C43.7444 341.503 44.1051 346.989 46.0017 352.026C47.8985 357.063 51.2462 361.424 55.6216 364.559C59.997 367.693 65.2035 369.459 70.5829 369.634C75.9621 369.81 81.2726 368.386 85.8427 365.543C90.4128 362.7 94.0377 358.566 96.2575 353.663C97.7352 350.408 98.5559 346.894 98.6744 343.321C98.7919 339.749 98.2043 336.187 96.9441 332.842C95.6847 329.497 93.7777 326.433 91.3325 323.825C88.8873 321.218 85.9521 319.118 82.6946 317.646Z" stroke="#FEAA53" stroke-width="0.925299" stroke-miterlimit="10"/>
<path d="M11.8929 506.172C10.3763 505.483 8.68967 505.261 7.04663 505.532C5.4036 505.803 3.87806 506.556 2.66294 507.695C1.44782 508.834 0.597801 510.307 0.220621 511.929C-0.156559 513.551 -0.0439342 515.248 0.544098 516.806C1.13213 518.364 2.16909 519.712 3.52391 520.681C4.87873 521.649 6.49045 522.194 8.15491 522.246C9.81937 522.298 11.4618 521.855 12.8742 520.972C14.2867 520.09 15.4056 518.808 16.0895 517.29C17.0043 515.259 17.0763 512.948 16.2896 510.864C15.5029 508.779 13.9218 507.091 11.8929 506.172Z" fill="#FEAA53"/>
<path d="M337.82 262.072C335.556 261.832 333.271 262.268 331.255 263.327C329.239 264.386 327.583 266.02 326.495 268.02C325.407 270.021 324.938 272.299 325.146 274.567C325.354 276.834 326.23 278.989 327.663 280.759C329.097 282.529 331.022 283.833 333.197 284.508C335.372 285.182 337.699 285.196 339.882 284.548C342.065 283.9 344.006 282.618 345.46 280.867C346.915 279.114 347.817 276.97 348.052 274.705C348.368 271.673 347.467 268.641 345.548 266.273C343.63 263.904 340.852 262.393 337.82 262.072Z" fill="#FEAA53"/>
<path d="M698.665 337.463C693.925 336.971 689.145 337.895 684.929 340.119C680.714 342.344 677.253 345.768 674.984 349.96C672.715 354.152 671.74 358.922 672.182 363.667C672.624 368.413 674.465 372.921 677.468 376.622C680.473 380.322 684.507 383.048 689.06 384.455C693.615 385.862 698.483 385.888 703.051 384.528C707.619 383.169 711.682 380.485 714.725 376.816C717.768 373.148 719.654 368.659 720.146 363.918C720.475 360.77 720.181 357.588 719.279 354.554C718.378 351.52 716.887 348.693 714.892 346.237C712.896 343.779 710.437 341.74 707.652 340.234C704.867 338.729 701.814 337.787 698.665 337.463Z" stroke="#040B38" stroke-width="0.925299" stroke-miterlimit="10"/>
<path d="M547.609 43.0496C545.947 38.6144 543.006 34.7716 539.161 32.0074C535.314 29.2431 530.735 27.6814 526.002 27.5198C521.268 27.3582 516.593 28.604 512.568 31.0996C508.542 33.5951 505.347 37.2284 503.386 41.5398C501.425 45.8514 500.788 50.6475 501.553 55.3216C502.318 59.9957 504.452 64.3379 507.685 67.7991C510.919 71.2602 515.106 73.6849 519.717 74.7665C524.328 75.848 529.157 75.5378 533.591 73.8751C536.538 72.7737 539.237 71.1022 541.536 68.9562C543.835 66.8103 545.69 64.2319 546.992 61.3689C548.294 58.5057 549.018 55.414 549.124 52.2706C549.23 49.1272 548.715 45.9938 547.609 43.0496Z" fill="#FEAA53"/>
<path d="M744.763 281.735C743.37 283.743 742.604 286.119 742.56 288.562C742.518 291.005 743.201 293.407 744.523 295.462C745.845 297.517 747.748 299.133 749.989 300.107C752.231 301.08 754.711 301.367 757.114 300.931C759.519 300.495 761.741 299.355 763.497 297.657C765.254 295.959 766.467 293.777 766.984 291.388C767.5 288.999 767.296 286.511 766.399 284.239C765.5 281.966 763.949 280.011 761.939 278.62C759.247 276.758 755.927 276.04 752.706 276.624C749.486 277.208 746.629 279.046 744.763 281.735Z" fill="#D885FF"/>
<path d="M230.83 136.067C230.107 133.105 228.52 130.423 226.272 128.361C224.025 126.3 221.216 124.952 218.202 124.485C215.188 124.02 212.103 124.459 209.338 125.746C206.574 127.033 204.252 129.111 202.668 131.717C201.084 134.323 200.307 137.341 200.438 140.388C200.568 143.435 201.599 146.374 203.4 148.836C205.2 151.298 207.691 153.17 210.556 154.216C213.421 155.263 216.532 155.436 219.495 154.715C221.464 154.236 223.32 153.372 224.955 152.176C226.591 150.979 227.974 149.472 229.027 147.74C230.08 146.009 230.78 144.086 231.09 142.084C231.399 140.08 231.311 138.036 230.83 136.067Z" stroke="#B126ED" stroke-width="0.925299" stroke-miterlimit="10"/>
<path d="M510.748 287.143C497.589 287.07 484.59 290.031 472.762 295.795L472.416 290.582C401.355 301.398 389.154 350.828 341.152 365.32C353.636 391.945 357.941 421.674 353.526 450.746C353.526 450.746 382.968 451.978 428.589 432.64C432.318 443.487 438.081 453.523 445.57 462.21L434.755 520.054C464.065 517.069 495.54 504.912 512.63 471.729C515.928 465.297 518.818 458.665 521.282 451.87C551.338 450.388 581.216 457.269 607.594 471.75C607.594 471.75 607.767 471.425 608.027 470.842C587.325 538.182 531.493 577.206 474.86 587.222C454.405 590.788 433.534 591.305 412.928 588.758L410.245 596.351L615.641 597.886L612.592 544.218C612.592 544.218 695.42 285.932 510.748 287.143Z" fill="#9B34F6"/>
<path d="M612.655 544.222C612.655 544.222 535.992 551.902 436.355 528.906L421.039 604.013L621.849 601.33C621.849 601.33 627.971 574.896 612.655 544.222Z" fill="#5A358A"/>
<path d="M595.178 545.928C597.122 553.094 598.682 560.358 599.851 567.69C600.838 574.53 601.287 581.437 601.191 588.348C601.191 592.675 600.868 597.001 600.499 601.327C600.37 602.755 602.663 602.755 602.663 601.327C603.37 593.879 603.535 586.389 603.161 578.917C602.729 571.89 601.775 564.905 600.305 558.02C599.418 553.694 598.38 549.54 597.255 545.344C597.216 545.202 597.151 545.068 597.061 544.952C596.971 544.835 596.859 544.738 596.732 544.665C596.604 544.591 596.463 544.544 596.317 544.525C596.172 544.506 596.024 544.516 595.881 544.554C595.74 544.593 595.606 544.659 595.49 544.748C595.373 544.838 595.275 544.95 595.202 545.078C595.129 545.205 595.081 545.346 595.062 545.492C595.043 545.637 595.053 545.786 595.092 545.928H595.178Z" fill="white"/>
<path d="M553.018 546.145C555.391 553.553 560.115 559.985 566.472 564.467C572.786 569.055 580.307 571.687 588.104 572.038C592.448 572.233 596.79 571.587 600.889 570.135C602.23 569.637 601.668 567.474 600.305 567.971C593.387 570.367 585.876 570.443 578.91 568.188C571.9 566.013 565.676 561.84 560.999 556.182C558.416 553.052 556.475 549.442 555.288 545.561C554.856 544.176 552.693 544.76 553.126 546.145H553.018Z" fill="white"/>
<path d="M541.488 552.074C544.386 561.756 550.232 570.293 558.21 576.497C566.154 582.8 575.712 586.744 585.791 587.875C591.411 588.473 597.093 588.033 602.555 586.577C602.842 586.499 603.087 586.311 603.235 586.053C603.383 585.796 603.422 585.49 603.345 585.203C603.267 584.916 603.079 584.672 602.822 584.524C602.564 584.376 602.258 584.336 601.972 584.414C592.574 586.793 582.671 586.188 573.633 582.683C564.622 579.325 556.736 573.501 550.877 565.875C547.589 561.552 545.125 556.661 543.608 551.446C543.516 551.174 543.322 550.947 543.068 550.813C542.814 550.679 542.516 550.648 542.24 550.725C541.962 550.802 541.726 550.984 541.578 551.231C541.43 551.478 541.382 551.771 541.445 552.052L541.488 552.074Z" fill="white"/>
<path d="M486.217 174.7C485.05 175.177 484.249 173.468 484.206 172.213C484.053 167.421 485.301 162.688 487.793 158.593C490.287 154.497 493.919 151.217 498.245 149.152C502.573 147.088 507.408 146.328 512.16 146.965C516.911 147.603 521.375 149.611 525.004 152.744C526.583 154.464 528.422 155.924 530.455 157.071C535.69 159.234 541.272 155.405 546.939 154.28C555.592 152.571 564.634 158.325 568.117 166.394C569.696 170.51 570.306 174.934 569.897 179.324C569.488 183.714 568.072 187.951 565.759 191.704C561.605 198.907 554.704 206.716 558.145 214.287C560.438 219.392 566.645 221.643 569.566 226.423C570.82 228.585 571.342 231.095 571.053 233.578C570.766 236.061 569.682 238.385 567.965 240.202C565.478 242.712 561.757 244.139 559.312 246.519C558.59 247.177 558.024 247.99 557.66 248.898C557.295 249.805 557.141 250.783 557.207 251.759C557.274 252.734 557.56 253.682 558.045 254.531C558.529 255.381 559.199 256.11 560.004 256.664C563.4 258.828 566.04 254.717 568.333 258.221C570.626 261.726 567.987 266.139 564.136 268.107C558.08 271.179 546.614 273.364 540.341 263.284C534.067 253.204 541.618 249.202 536.015 243.382C530.413 237.563 528.4 243.382 520.873 237.758C516.546 234.513 510.402 223.113 510.835 217.748" fill="#040B38"/>
<path d="M438.281 206.717C437.873 203.048 438.266 199.334 439.431 195.832C440.597 192.329 442.506 189.12 445.031 186.426C450.135 181.07 456.459 177.026 463.462 174.637C476.037 169.645 489.884 168.826 502.961 172.3C513.15 175.242 522.668 181.667 527.557 191.055C530.331 196.864 531.877 203.182 532.099 209.616C532.932 218.985 531.691 228.424 528.466 237.261C525.162 246.136 518.773 253.523 510.468 258.071C497.078 264.972 479.685 261.446 468.567 251.278" fill="#040B38"/>
<path d="M444.424 324.61C444.424 324.61 385.888 373.606 320.732 364.954C255.578 356.301 237.536 282.362 235.893 255.453C235.893 255.453 235.049 242.82 227.629 234.967C221.13 226.996 213.298 220.212 204.483 214.915C203.083 213.934 201.477 213.29 199.789 213.033C198.934 212.921 198.066 213.068 197.295 213.453C196.524 213.839 195.886 214.445 195.462 215.195C195.222 215.929 195.131 216.702 195.194 217.471C195.257 218.24 195.474 218.989 195.83 219.673C197.173 223.008 199.099 226.077 201.519 228.737C196.533 229.14 191.515 228.694 186.68 227.417C180.795 225.195 175.107 222.481 169.677 219.305C168.061 218.298 166.231 217.682 164.334 217.51C163.396 217.458 162.466 217.713 161.686 218.236C160.905 218.758 160.316 219.522 160.007 220.409C159.921 220.851 159.921 221.307 160.007 221.75C153.518 218.246 150.251 220.733 149.191 222.204C148.77 223.026 148.591 223.95 148.676 224.869C148.76 225.789 149.103 226.665 149.667 227.396C145.341 226.012 142.009 226.206 139.846 230.575C138.613 233.042 140.3 236.244 143.697 239.467C143.259 239.911 142.934 240.452 142.745 241.046C141.815 244.052 143.999 247.383 146.119 249.569C153.984 257.609 164.219 262.916 175.323 264.711C175.272 300.988 184.705 336.649 202.687 368.155C243.766 438.914 341.889 488.018 458.702 416.026L444.424 324.61Z" fill="#D885FF"/>
<path d="M444.424 324.61C444.424 324.61 385.888 373.606 320.732 364.954C255.578 356.301 237.536 282.362 235.893 255.453C235.893 255.453 235.049 242.82 227.629 234.967C221.13 226.996 213.298 220.212 204.483 214.915C203.083 213.934 201.477 213.29 199.789 213.033C198.934 212.921 198.066 213.068 197.295 213.453C196.524 213.839 195.886 214.445 195.462 215.195C195.222 215.929 195.131 216.702 195.194 217.471C195.257 218.24 195.474 218.989 195.83 219.673C197.173 223.008 199.099 226.077 201.519 228.737C196.533 229.14 191.515 228.694 186.68 227.417C180.795 225.195 175.107 222.481 169.677 219.305C168.061 218.298 166.231 217.682 164.334 217.51C163.396 217.458 162.466 217.713 161.686 218.236C160.905 218.758 160.316 219.522 160.007 220.409C159.921 220.851 159.921 221.307 160.007 221.75C153.518 218.246 150.251 220.733 149.191 222.204C148.77 223.026 148.591 223.95 148.676 224.869C148.76 225.789 149.103 226.665 149.667 227.396C145.341 226.012 142.009 226.206 139.846 230.575C138.613 233.042 140.3 236.244 143.697 239.467C143.259 239.911 142.934 240.452 142.745 241.046C141.815 244.052 143.999 247.383 146.119 249.569C153.984 257.609 164.219 262.916 175.323 264.711C175.272 300.988 184.705 336.649 202.687 368.155C243.766 438.914 341.889 488.018 458.702 416.026L444.424 324.61Z" fill="#D885FF"/>
<g style="mix-blend-mode:overlay" opacity="0.76">
<path d="M444.424 324.61C444.424 324.61 385.888 373.606 320.732 364.954C255.578 356.301 237.536 282.362 235.893 255.453C235.893 255.453 235.049 242.82 227.629 234.967C221.13 226.996 213.298 220.212 204.483 214.915C203.083 213.934 201.477 213.29 199.789 213.033C198.934 212.921 198.066 213.068 197.295 213.453C196.524 213.839 195.886 214.445 195.462 215.195C195.222 215.929 195.131 216.702 195.194 217.471C195.257 218.24 195.474 218.989 195.83 219.673C197.173 223.008 199.099 226.077 201.519 228.737C196.533 229.14 191.515 228.694 186.68 227.417C180.795 225.195 175.107 222.481 169.677 219.305C168.061 218.298 166.231 217.682 164.334 217.51C163.396 217.458 162.466 217.713 161.686 218.236C160.905 218.758 160.316 219.522 160.007 220.409C159.921 220.851 159.921 221.307 160.007 221.75C153.518 218.246 150.251 220.733 149.191 222.204C148.77 223.026 148.591 223.95 148.676 224.869C148.76 225.789 149.103 226.665 149.667 227.396C145.341 226.012 142.009 226.206 139.846 230.575C138.613 233.042 140.3 236.244 143.697 239.467C143.259 239.911 142.934 240.452 142.745 241.046C141.815 244.052 143.999 247.383 146.119 249.569C153.984 257.609 164.219 262.916 175.323 264.711C175.272 300.988 184.705 336.649 202.687 368.155C243.766 438.914 341.889 488.018 458.702 416.026L444.424 324.61Z" fill="url(#paint0_linear_1271_6441)"/>
</g>
<path d="M480.181 404.93C406.33 452.997 353.526 450.747 353.526 450.747C357.933 421.689 353.626 391.977 341.152 365.365C389.154 350.872 401.355 301.378 472.416 290.627" fill="#9B34F6"/>
<path d="M361.358 357.361C367.307 367.931 371.935 379.192 375.138 390.891C378.5 402.765 380.232 415.042 380.286 427.384C380.295 434.058 379.65 440.716 378.361 447.264C378.08 448.627 380.178 449.21 380.524 447.847C382.83 435.758 383.152 423.374 381.476 411.182C379.878 398.718 376.731 386.503 372.109 374.818C369.611 368.434 366.669 362.231 363.305 356.258C363.233 356.135 363.136 356.026 363.023 355.939C362.908 355.853 362.778 355.79 362.64 355.754C362.501 355.718 362.356 355.709 362.215 355.729C362.072 355.749 361.936 355.796 361.812 355.868C361.689 355.941 361.581 356.037 361.494 356.151C361.408 356.265 361.345 356.396 361.309 356.534C361.273 356.673 361.264 356.818 361.284 356.959C361.303 357.101 361.351 357.238 361.423 357.361H361.358Z" fill="white"/>
<g style="mix-blend-mode:soft-light">
<path d="M221.788 385.266C230.441 382.129 244.502 389.117 253.046 400.863C259.298 409.515 259.925 419.553 256.919 424.874C247.055 418.122 237.72 410.63 228.991 402.463C224.149 398.281 219.918 393.439 216.424 388.078C218.009 386.796 219.832 385.84 221.788 385.266Z" fill="#040B38"/>
</g>
<path d="M176.599 249.312C171.991 248.44 167.533 246.91 163.36 244.77C159.748 242.974 156.244 240.941 152.544 239.232C150.022 237.837 147.113 237.305 144.259 237.718C143.243 237.956 143.675 239.513 144.692 239.275C147.204 238.947 149.753 239.464 151.939 240.747C153.778 241.59 155.551 242.498 157.325 243.45C160.864 245.436 164.528 247.192 168.293 248.707C170.839 249.664 173.467 250.388 176.145 250.87C177.162 251.065 177.616 249.507 176.578 249.312H176.599Z" fill="#040B38"/>
<path d="M183.477 241.285C176.919 239.537 170.527 237.214 164.376 234.341C160.98 232.697 157.887 230.685 154.577 228.825C152.978 227.888 151.306 227.078 149.58 226.402C148.629 226.012 148.196 227.57 149.169 227.96C152.122 229.257 154.965 230.791 157.671 232.546C161.784 234.965 166.088 237.041 170.542 238.754C174.63 240.333 178.827 241.653 183.045 242.843C183.251 242.9 183.473 242.873 183.659 242.768C183.846 242.662 183.982 242.486 184.04 242.28C184.097 242.074 184.07 241.852 183.965 241.666C183.859 241.48 183.685 241.343 183.477 241.285Z" fill="#040B38"/>
<path d="M217.699 253.68C216.097 250.943 213.612 248.832 210.652 247.692C207.693 246.553 204.435 246.452 201.41 247.406C199.679 247.951 198.09 248.876 196.76 250.11C196.003 250.824 197.149 251.971 197.906 251.257C200.061 249.463 202.762 248.457 205.565 248.401C208.368 248.347 211.107 249.247 213.33 250.954C214.571 251.9 215.583 253.113 216.294 254.502C216.769 255.432 218.175 254.61 217.699 253.68Z" fill="#040B38"/>
<path d="M187.372 233.929C183.729 233.141 180.198 231.906 176.859 230.252C173.267 228.564 169.785 226.617 166.345 224.627C164.572 223.61 162.819 222.464 161.045 221.513C160.859 221.406 160.638 221.378 160.431 221.435C160.224 221.492 160.049 221.629 159.942 221.815C159.836 222.002 159.808 222.222 159.865 222.43C159.922 222.637 160.059 222.813 160.245 222.918C166.847 227.109 173.794 230.727 181.011 233.735C182.933 234.484 184.916 235.064 186.939 235.465C187.956 235.659 188.388 234.102 187.372 233.908V233.929Z" fill="#040B38"/>
<path d="M429.411 536.562C433.843 536.807 438.267 535.976 442.309 534.142C446.351 532.307 449.889 529.524 452.623 526.027C452.821 525.825 452.932 525.554 452.932 525.27C452.932 524.987 452.821 524.715 452.623 524.513C452.522 524.412 452.402 524.331 452.271 524.277C452.139 524.221 451.997 524.193 451.855 524.193C451.712 524.193 451.57 524.221 451.438 524.277C451.307 524.331 451.187 524.412 451.087 524.513C448.551 527.79 445.258 530.402 441.49 532.124C437.722 533.846 433.591 534.627 429.455 534.398C428.07 534.291 428.07 536.562 429.455 536.562H429.411Z" fill="#EEEFF2"/>
<path d="M422.923 548.828C429.451 549.539 436.056 548.871 442.309 546.867C448.563 544.862 454.324 541.565 459.221 537.189C461.944 534.768 464.344 532.005 466.36 528.969C467.139 527.801 465.257 526.806 464.5 527.888C460.961 533.006 456.382 537.32 451.064 540.547C445.744 543.776 439.804 545.844 433.631 546.621C430.075 547.064 426.478 547.064 422.923 546.621C422.339 546.621 421.842 547.162 421.842 547.702C421.847 547.987 421.962 548.26 422.164 548.461C422.366 548.663 422.638 548.779 422.923 548.784V548.828Z" fill="#EEEFF2"/>
<path d="M447.886 296.986C451.311 302.003 456.028 306.001 461.536 308.559C467.398 311.25 473.703 312.841 480.139 313.253C493.77 314.155 507.386 311.305 519.51 305.012C525.061 302.154 530.006 298.246 534.068 293.504C534.565 292.92 535.02 292.314 535.474 291.708C535.616 291.461 535.655 291.168 535.582 290.892C535.509 290.617 535.33 290.382 535.085 290.237C534.834 290.094 534.538 290.055 534.259 290.127C533.98 290.2 533.741 290.38 533.592 290.627C530.012 295.267 525.532 299.138 520.418 302.005C514.792 305.255 508.722 307.666 502.399 309.165C495.998 310.744 489.411 311.435 482.822 311.22C476.59 311.084 470.431 309.846 464.629 307.564C459.254 305.473 454.524 302.004 450.915 297.506C450.504 296.986 450.136 296.445 449.768 295.905C448.99 294.736 447.108 295.905 447.886 296.986Z" fill="white"/>
<path d="M427.616 362.663C424.758 375.397 423.401 388.421 423.571 401.471C423.863 414.854 426.522 428.08 431.423 440.538C434.538 448.306 438.437 455.735 443.061 462.711C443.862 463.922 445.786 462.711 444.986 461.585C437.139 449.786 431.524 436.647 428.417 422.821C425.799 410.249 425.149 397.347 426.491 384.576C427.207 377.416 428.327 370.302 429.843 363.268C430.147 361.862 427.984 361.256 427.681 362.663H427.616Z" fill="white"/>
<path d="M526.604 241.61C525.774 238.291 523.668 235.434 520.743 233.66C517.819 231.885 514.312 231.338 510.985 232.135C509.341 232.5 507.786 233.187 506.41 234.159C505.034 235.13 503.865 236.366 502.971 237.792C502.078 239.22 501.476 240.811 501.203 242.473C500.93 244.134 500.99 245.834 501.38 247.472C502.21 250.791 504.316 253.648 507.24 255.422C510.165 257.197 513.672 257.745 516.998 256.947C518.641 256.58 520.195 255.89 521.569 254.918C522.943 253.946 524.111 252.711 525.005 251.284C525.898 249.858 526.499 248.269 526.774 246.608C527.048 244.947 526.99 243.248 526.604 241.61Z" fill="#D885FF"/>
<path d="M515.615 237.912C514.483 237.996 513.38 238.312 512.373 238.836C511.366 239.362 510.477 240.087 509.761 240.968C509.044 241.849 508.514 242.867 508.203 243.96C507.893 245.052 507.81 246.196 507.957 247.322C507.982 247.434 508.029 247.54 508.097 247.632C508.164 247.726 508.249 247.803 508.347 247.863C508.446 247.922 508.555 247.96 508.669 247.975C508.783 247.99 508.897 247.982 509.008 247.951C509.119 247.921 509.221 247.867 509.311 247.795C509.4 247.723 509.474 247.634 509.528 247.532C509.58 247.431 509.613 247.319 509.622 247.206C509.631 247.091 509.616 246.976 509.579 246.868C509.493 245.993 509.581 245.11 509.839 244.27C510.097 243.429 510.518 242.649 511.079 241.973C511.641 241.297 512.33 240.739 513.109 240.332C513.888 239.924 514.74 239.676 515.615 239.6C516.697 239.6 516.697 237.847 515.615 237.912Z" fill="#040B38"/>
<path d="M470.08 597.263H199.225L197.689 585.906H457.101C460.273 585.904 463.338 587.055 465.725 589.145C468.113 591.233 469.661 594.118 470.08 597.263Z" fill="#040B38"/>
<path style="mix-blend-mode:overlay" d="M81.3965 437.704L459.113 177.904L612.635 544.242L355.28 586.013L81.3965 437.704Z" fill="url(#paint1_linear_1271_6441)"/>
<path d="M339.286 597.261H101.983C98.0481 597.264 94.2414 595.867 91.2445 593.318C88.2475 590.769 86.2567 587.235 85.6292 583.352L64.9923 456.934C64.6032 454.566 64.734 452.141 65.3757 449.827C66.0174 447.515 67.1547 445.369 68.7085 443.539C70.2622 441.71 72.1955 440.24 74.3739 439.233C76.5524 438.225 78.9241 437.703 81.3245 437.703H318.714C322.645 437.704 326.447 439.104 329.439 441.653C332.432 444.202 334.419 447.732 335.046 451.612L355.64 578.03C356.025 580.4 355.891 582.825 355.247 585.138C354.603 587.451 353.463 589.596 351.907 591.425C350.352 593.254 348.418 594.724 346.238 595.731C344.059 596.739 341.687 597.261 339.286 597.261Z" fill="#2A073A"/>
<path d="M210.756 517.157C210.911 519.644 210.331 522.122 209.085 524.281C207.841 526.439 205.987 528.184 203.757 529.295C201.527 530.406 199.019 530.836 196.546 530.529C194.073 530.222 191.745 529.194 189.853 527.572C187.962 525.95 186.589 523.807 185.909 521.409C185.229 519.012 185.27 516.467 186.028 514.094C186.786 511.72 188.226 509.622 190.169 508.062C192.114 506.503 194.473 505.551 196.955 505.324C200.346 505.096 203.692 506.209 206.272 508.421C208.853 510.633 210.463 513.77 210.756 517.157Z" fill="#481AC7"/>
<path style="mix-blend-mode:overlay" d="M339.286 597.261H101.983C98.0481 597.264 94.2414 595.867 91.2445 593.318C88.2475 590.769 86.2567 587.235 85.6292 583.352L64.9923 456.934C64.6032 454.566 64.734 452.141 65.3757 449.827C66.0174 447.515 67.1547 445.369 68.7085 443.539C70.2622 441.71 72.1955 440.24 74.3739 439.233C76.5524 438.225 78.9241 437.703 81.3245 437.703H318.714C322.645 437.704 326.447 439.104 329.439 441.653C332.432 444.202 334.419 447.732 335.046 451.612L355.64 578.03C356.025 580.4 355.891 582.825 355.247 585.138C354.603 587.451 353.463 589.596 351.907 591.425C350.352 593.254 348.418 594.724 346.238 595.731C344.059 596.739 341.687 597.261 339.286 597.261Z" fill="url(#paint2_linear_1271_6441)"/>
<path d="M210.756 517.157C210.911 519.644 210.331 522.122 209.085 524.281C207.841 526.439 205.987 528.184 203.757 529.295C201.527 530.406 199.019 530.836 196.546 530.529C194.073 530.222 191.745 529.194 189.853 527.572C187.962 525.95 186.589 523.807 185.909 521.409C185.229 519.012 185.27 516.467 186.028 514.094C186.786 511.72 188.226 509.622 190.169 508.062C192.114 506.503 194.473 505.551 196.955 505.324C200.346 505.096 203.692 506.209 206.272 508.421C208.853 510.633 210.463 513.77 210.756 517.157Z" stroke="white" stroke-width="0.925299" stroke-miterlimit="10"/>
<path style="mix-blend-mode:overlay" opacity="0.64" d="M210.756 517.157C210.911 519.644 210.331 522.122 209.085 524.281C207.841 526.439 205.987 528.184 203.757 529.295C201.527 530.406 199.019 530.836 196.546 530.529C194.073 530.222 191.745 529.194 189.853 527.572C187.962 525.95 186.589 523.807 185.909 521.409C185.229 519.012 185.27 516.467 186.028 514.094C186.786 511.72 188.226 509.622 190.169 508.062C192.114 506.503 194.473 505.551 196.955 505.324C200.346 505.096 203.692 506.209 206.272 508.421C208.853 510.633 210.463 513.77 210.756 517.157Z" fill="url(#paint3_linear_1271_6441)"/>
<path d="M667.601 535.221H665.005C660.491 535.227 656.165 537.023 652.973 540.214C649.782 543.405 647.987 547.732 647.98 552.246V565.592C647.984 569.058 649.044 572.441 651.019 575.29C652.994 578.138 655.79 580.316 659.035 581.535L660.484 572.883C659.251 572.106 658.233 571.031 657.526 569.757C656.819 568.483 656.445 567.049 656.44 565.592V552.246C656.44 549.951 657.351 547.75 658.973 546.127C660.596 544.505 662.797 543.593 665.092 543.593H665.395L666.779 535.286V543.593H667.688C669.982 543.593 672.184 544.505 673.806 546.127C675.429 547.75 676.341 549.951 676.341 552.246V565.592C676.341 567.887 675.429 570.088 673.806 571.711C672.184 573.333 669.982 574.245 667.688 574.245H666.779V582.552H662.972C663.689 582.641 664.412 582.684 665.135 582.681H667.731C672.245 582.676 676.571 580.881 679.763 577.689C682.954 574.497 684.75 570.17 684.756 565.657V552.31C684.761 550.059 684.321 547.829 683.46 545.749C682.6 543.669 681.335 541.78 679.74 540.191C678.145 538.602 676.251 537.345 674.167 536.491C672.085 535.638 669.853 535.207 667.601 535.221Z" fill="#B126ED"/>
<path style="mix-blend-mode:overlay" d="M667.601 535.221H665.005C660.491 535.227 656.165 537.023 652.973 540.214C649.782 543.405 647.987 547.732 647.98 552.246V565.592C647.984 569.058 649.044 572.441 651.019 575.29C652.994 578.138 655.79 580.316 659.035 581.535L660.484 572.883C659.251 572.106 658.233 571.031 657.526 569.757C656.819 568.483 656.445 567.049 656.44 565.592V552.246C656.44 549.951 657.351 547.75 658.973 546.127C660.596 544.505 662.797 543.593 665.092 543.593H665.395L666.779 535.286V543.593H667.688C669.982 543.593 672.184 544.505 673.806 546.127C675.429 547.75 676.341 549.951 676.341 552.246V565.592C676.341 567.887 675.429 570.088 673.806 571.711C672.184 573.333 669.982 574.245 667.688 574.245H666.779V582.552H662.972C663.689 582.641 664.412 582.684 665.135 582.681H667.731C672.245 582.676 676.571 580.881 679.763 577.689C682.954 574.497 684.75 570.17 684.756 565.657V552.31C684.761 550.059 684.321 547.829 683.46 545.749C682.6 543.669 681.335 541.78 679.74 540.191C678.145 538.602 676.251 537.345 674.167 536.491C672.085 535.638 669.853 535.207 667.601 535.221Z" fill="url(#paint4_linear_1271_6441)"/>
<path d="M666.693 574.181H665.006C663.407 574.182 661.84 573.732 660.485 572.883L659.035 581.535C660.279 581.997 661.571 582.316 662.886 582.487H666.693V574.181Z" fill="#040B38"/>
<path d="M666.672 535.35L665.309 543.657H666.672V535.35Z" fill="#09171F"/>
<path d="M665.785 526.156H727.718V571.389C727.718 579.604 724.453 587.483 718.644 593.292C712.835 599.102 704.957 602.366 696.741 602.366C688.525 602.366 680.646 599.102 674.836 593.292C669.027 587.483 665.764 579.604 665.764 571.389V526.156H665.785Z" fill="#B126ED"/>
<path style="mix-blend-mode:overlay" d="M665.785 526.156H727.718V571.389C727.718 579.604 724.453 587.483 718.644 593.292C712.835 599.102 704.957 602.366 696.741 602.366C688.525 602.366 680.646 599.102 674.836 593.292C669.027 587.483 665.764 579.604 665.764 571.389V526.156H665.785Z" fill="url(#paint5_linear_1271_6441)"/>
<path fill-rule="evenodd" clip-rule="evenodd" d="M727.738 525.769C727.738 527.261 713.873 528.495 696.762 528.495C679.651 528.495 665.785 527.261 665.785 525.769C665.785 524.276 679.651 523.021 696.762 523.021C713.873 523.021 727.738 524.255 727.738 525.769Z" fill="#B126ED"/>
<g style="mix-blend-mode:soft-light">
<path fill-rule="evenodd" clip-rule="evenodd" d="M727.738 525.769C727.738 527.261 713.873 528.495 696.762 528.495C679.651 528.495 665.785 527.261 665.785 525.769C665.785 524.276 679.651 523.021 696.762 523.021C713.873 523.021 727.738 524.255 727.738 525.769Z" fill="#09171F"/>
</g>
<g style="mix-blend-mode:soft-light">
<path d="M725.684 526.742C727.004 526.44 727.738 526.094 727.738 525.769C727.738 524.255 713.873 523.021 696.762 523.021C679.651 523.021 665.785 524.255 665.785 525.769C665.785 526.094 666.521 526.44 667.948 526.742C687.157 524.377 706.583 524.377 725.792 526.742H725.684Z" fill="#09171F"/>
</g>
<path d="M725.684 526.741C706.475 524.376 687.048 524.376 667.84 526.741C687.05 529.076 706.473 529.076 725.684 526.741Z" fill="#040B38"/>
<path d="M610.125 356.148L526.128 361.709C526.128 361.709 543.563 411.635 512.63 471.728C481.696 531.822 403.258 523.278 376.499 515.274V515.425C366.137 512.786 355.321 509.519 348.983 507.421C339.487 504.285 333.841 502.295 330.791 506.513C329.926 507.955 329.509 509.621 329.594 511.301C329.679 512.98 330.262 514.597 331.267 515.945C329.749 516.11 328.306 516.693 327.1 517.629C325.893 518.564 324.97 519.815 324.431 521.244C323.241 524.749 325.772 527.626 328.757 530.329C327.315 530.526 325.949 531.093 324.791 531.976C323.635 532.86 322.728 534.03 322.16 535.37C320.862 539.221 323.782 542.508 327.373 545.213C325.834 546.145 324.7 547.618 324.193 549.344C322.549 556.872 340.179 567.32 356.641 574.048C394.135 589.42 435.186 593.983 475.141 587.221C558.359 572.468 640.15 494.745 610.125 356.148Z" fill="#D885FF"/>
<path style="mix-blend-mode:overlay" opacity="0.76" d="M610.125 356.148L526.128 361.709C526.128 361.709 543.563 411.635 512.63 471.728C481.696 531.822 403.258 523.278 376.499 515.274V515.425C366.137 512.786 355.321 509.519 348.983 507.421C339.487 504.285 333.841 502.295 330.791 506.513C329.926 507.955 329.509 509.621 329.594 511.301C329.679 512.98 330.262 514.597 331.267 515.945C329.749 516.11 328.306 516.693 327.1 517.629C325.893 518.564 324.97 519.815 324.431 521.244C323.241 524.749 325.772 527.626 328.757 530.329C327.315 530.526 325.949 531.093 324.791 531.976C323.635 532.86 322.728 534.03 322.16 535.37C320.862 539.221 323.782 542.508 327.373 545.213C325.834 546.145 324.7 547.618 324.193 549.344C322.549 556.872 340.179 567.32 356.641 574.048C394.135 589.42 435.186 593.983 475.141 587.221C558.359 572.468 640.15 494.745 610.125 356.148Z" fill="url(#paint6_linear_1271_6441)"/>
<path d="M347.945 522.197C342.165 520.65 336.619 518.328 331.461 515.296C331.375 515.246 331.28 515.215 331.181 515.202C331.081 515.189 330.981 515.195 330.884 515.222C330.689 515.275 330.524 515.403 330.423 515.577C330.323 515.752 330.296 515.96 330.349 516.155C330.401 516.349 330.529 516.516 330.704 516.616C335.972 519.712 341.633 522.083 347.534 523.668C347.729 523.722 347.938 523.697 348.114 523.598C348.29 523.498 348.421 523.333 348.475 523.138C348.529 522.943 348.504 522.734 348.405 522.558C348.305 522.381 348.14 522.252 347.945 522.197Z" fill="#040B38"/>
<path d="M342.992 551.597C337.215 550.041 331.672 547.72 326.509 544.697C326.334 544.596 326.126 544.569 325.931 544.622C325.736 544.675 325.57 544.803 325.471 544.977C325.37 545.153 325.343 545.361 325.396 545.555C325.448 545.75 325.577 545.916 325.752 546.017C331.028 549.094 336.687 551.466 342.581 553.068C342.776 553.123 342.986 553.098 343.161 552.998C343.338 552.899 343.468 552.733 343.522 552.538C343.577 552.343 343.552 552.135 343.452 551.958C343.353 551.781 343.187 551.652 342.992 551.597Z" fill="#040B38"/>
<path d="M344.939 536.258C339.15 534.725 333.593 532.426 328.412 529.423C328.243 529.35 328.052 529.341 327.877 529.4C327.701 529.458 327.553 529.577 327.461 529.738C327.367 529.897 327.336 530.084 327.372 530.266C327.407 530.446 327.508 530.608 327.655 530.72C332.948 533.796 338.63 536.146 344.549 537.708C344.732 537.731 344.916 537.688 345.068 537.586C345.22 537.484 345.33 537.33 345.378 537.153C345.425 536.976 345.407 536.787 345.326 536.624C345.246 536.459 345.108 536.329 344.939 536.258Z" fill="#040B38"/>
<path d="M606.362 340.554C629.898 428.315 607.66 471.752 607.66 471.752C581.224 457.217 551.26 450.34 521.131 451.894C529.785 409.323 509.623 389.789 503.004 335.471" fill="#9B34F6"/>
<path d="M525.761 433.638C537.593 431.754 549.642 431.673 561.498 433.401C573.089 435.029 584.446 438.028 595.33 442.334C601.068 444.598 606.653 447.227 612.052 450.209C613.328 450.901 614.453 448.975 613.198 448.283C603.175 442.772 592.558 438.418 581.55 435.304C569.899 431.977 557.865 430.174 545.75 429.939C538.853 429.827 531.962 430.334 525.156 431.454C524.883 431.546 524.656 431.74 524.522 431.994C524.388 432.249 524.357 432.545 524.434 432.822C524.512 433.099 524.693 433.336 524.94 433.484C525.187 433.632 525.481 433.679 525.761 433.616V433.638Z" fill="white"/>
<g style="mix-blend-mode:soft-light">
<path d="M501.966 573.403C495.931 565.983 479.88 564.75 466.1 570.764C456.019 575.089 450.136 583.743 449.963 590.124C461.817 590.47 493.053 584.175 505.254 578.768C504.522 576.78 503.404 574.957 501.966 573.403Z" fill="#040B38"/>
</g>
<path style="mix-blend-mode:overlay" d="M510.748 287.143C497.589 287.07 484.59 290.031 472.762 295.795L472.416 290.582C401.355 301.398 389.154 350.828 341.152 365.32C353.636 391.945 357.941 421.674 353.526 450.746C353.526 450.746 382.968 451.978 428.589 432.64C432.318 443.487 438.081 453.523 445.57 462.21L434.755 520.054C464.065 517.069 495.54 504.912 512.63 471.729C515.928 465.297 518.818 458.665 521.282 451.87C551.338 450.388 581.216 457.269 607.594 471.75C607.594 471.75 607.767 471.425 608.027 470.842C587.325 538.182 531.493 577.206 474.86 587.222C454.405 590.788 433.534 591.305 412.928 588.758L410.245 596.351C410.245 596.351 463.373 593.214 496.535 583.134C529.697 573.053 560.004 545.623 560.004 545.623L612.592 544.218C612.592 544.218 695.42 285.932 510.748 287.143Z" fill="url(#paint7_linear_1271_6441)"/>
<path d="M524.53 450.421C526.313 439.317 526.964 428.062 526.476 416.826C526.173 405.383 525.308 393.961 525.049 382.518C524.737 371.352 525.36 360.18 526.909 349.118C528.401 338.843 530.933 328.373 536.794 319.656C541.63 312.03 549.186 306.531 557.929 304.275C558.97 304.044 560.025 303.878 561.087 303.778C562.515 303.648 562.515 301.398 561.087 301.614C551.86 302.751 543.457 307.486 537.703 314.788C531.019 322.857 527.579 332.916 525.654 343.082C523.633 354.18 522.655 365.441 522.734 376.721C522.734 388.293 523.599 399.867 524.053 411.332C524.732 422.761 524.392 434.228 523.036 445.597C522.842 447.003 522.625 448.387 522.388 449.772C522.15 451.156 524.291 451.784 524.551 450.377L524.53 450.421Z" fill="white"/>
<path d="M609.888 472.663C614.05 456.136 616.564 439.238 617.395 422.216C617.633 417.414 617.719 412.612 617.698 407.809C617.63 407.574 617.488 407.368 617.293 407.221C617.098 407.074 616.86 406.994 616.616 406.994C616.372 406.994 616.134 407.074 615.939 407.221C615.743 407.368 615.602 407.574 615.534 407.809C615.665 424.656 614.128 441.474 610.948 458.018C610.04 462.733 608.98 467.427 607.812 472.078C607.764 472.354 607.82 472.639 607.971 472.876C608.122 473.114 608.356 473.285 608.627 473.359C608.898 473.432 609.187 473.401 609.436 473.272C609.685 473.144 609.878 472.926 609.975 472.663H609.888Z" fill="white"/>
<g opacity="0.49">
<path d="M426.384 140.263C419.85 137.981 414.274 133.562 410.558 127.723C406.841 121.883 405.2 114.962 405.898 108.075C407.023 99.1846 412.042 91.3321 415.136 82.9173C426.427 52.1566 407.521 14.3006 376.609 3.41971C350.499 -5.77389 318.873 4.11192 302.671 26.566C286.468 49.0199 287.031 82.1385 303.991 104.008C317.099 120.968 339.143 133.753 360.017 138.62C384.007 144.179 412.647 144.158 426.514 140.35" fill="#B8CAD4"/>
</g>
<path d="M426.384 140.263C419.85 137.981 414.274 133.562 410.558 127.723C406.841 121.883 405.2 114.962 405.898 108.075C407.023 99.1846 412.042 91.3321 415.136 82.9173C426.427 52.1566 407.521 14.3006 376.609 3.41971C350.499 -5.77389 318.873 4.11192 302.671 26.566C286.468 49.0199 287.031 82.1385 303.991 104.008C317.099 120.968 339.143 133.753 360.017 138.62C384.007 144.179 412.647 144.158 426.514 140.35" fill="url(#paint8_linear_1271_6441)"/>
<path d="M617.848 245.309C623.536 243.924 628.588 240.656 632.185 236.038C635.782 231.421 637.713 225.722 637.664 219.87C637.426 212.298 633.835 205.311 631.909 197.978C624.879 171.197 643.829 140.869 670.696 134.185C682.147 131.334 694.212 132.267 705.088 136.843C715.965 141.42 725.068 149.394 731.036 159.574C737.004 169.754 739.516 181.593 738.197 193.319C736.876 205.045 731.796 216.029 723.716 224.628C711.32 237.824 691.765 246.823 673.832 249.224C653.195 251.971 629.097 249.657 617.74 245.351" fill="url(#paint9_linear_1271_6441)"/>
<g style="mix-blend-mode:overlay">
<path d="M697.843 511.014C697.43 511.366 696.95 511.631 696.433 511.792C695.915 511.953 695.37 512.008 694.83 511.954C694.291 511.899 693.768 511.736 693.293 511.474C692.819 511.212 692.401 510.857 692.067 510.431C690.782 508.625 690.156 506.433 690.294 504.222C690.421 502.033 690.172 499.838 689.558 497.733C687.935 493.406 682.636 490.573 683.068 486.052C683.371 483.434 685.642 481.53 687.395 479.562C689.872 476.5 691.23 472.684 691.245 468.746C691.245 462.364 687.676 456.329 687.935 449.926C688.303 441.273 695.853 434.265 704.03 431.279C710.519 428.943 718.091 428.596 723.714 432.491C726.548 434.551 728.611 437.497 729.579 440.863C730.547 444.229 730.364 447.822 729.058 451.073C727.133 455.398 723.304 458.687 719.95 462.126C716.598 465.566 713.461 469.784 713.461 474.586C713.461 478.459 715.625 482.33 714.543 486.03C713.159 490.356 707.75 492.303 705.37 496.283C703.77 498.944 703.705 502.21 702.969 505.239C702.235 508.267 700.266 511.469 697.172 511.729" fill="url(#paint10_linear_1271_6441)"/>
<path d="M686.637 510.302C686.701 510.479 686.812 510.637 686.958 510.756C687.104 510.875 687.281 510.952 687.468 510.979C687.655 511.006 687.845 510.981 688.018 510.907C688.192 510.834 688.343 510.714 688.454 510.562C688.528 510.39 688.56 510.203 688.545 510.017C688.53 509.83 688.47 509.649 688.369 509.492C688.269 509.334 688.132 509.203 687.969 509.111C687.807 509.018 687.624 508.966 687.437 508.961C687.25 508.995 687.073 509.072 686.921 509.186C686.769 509.3 686.645 509.447 686.559 509.617C686.473 509.786 686.428 509.973 686.426 510.164C686.425 510.354 686.467 510.542 686.55 510.712" fill="url(#paint11_linear_1271_6441)"/>
</g>
<path d="M446.067 191.209C438.561 194.151 431.077 197.979 426.037 204.188C420.996 210.396 418.941 219.763 422.987 226.728C426.643 233.045 434.884 237.912 433.478 245.05C432.764 248.771 429.519 251.367 426.989 254.136C424.458 256.905 422.272 261.058 424.176 264.346C425.691 266.258 427.673 267.748 429.93 268.673C431.451 269.424 432.775 270.522 433.793 271.878C434.811 273.235 435.496 274.812 435.793 276.482C436.095 279.835 432.245 279.056 429.779 282.841C427.767 285.957 431.034 288.552 434.538 288.812C437.819 288.874 441.063 288.116 443.976 286.604C446.889 285.093 449.378 282.877 451.216 280.159C456.516 272.48 453.985 269.474 453.379 260.171C453.077 255.845 451.974 251.735 451.93 247.474C451.766 245.342 452.107 243.202 452.922 241.225C453.737 239.249 455.006 237.491 456.624 236.095" fill="#040B38"/>
<path d="M470.513 296.922V285.717C470.513 285.717 443.214 293.527 441.374 269.407C438.173 227.419 434.885 216.235 451.174 202.175C467.463 188.114 512.89 203.473 512.76 238.84L513.885 290.13C513.885 290.13 507.806 296.036 494.87 298.264C486.756 299.683 478.423 299.225 470.513 296.922Z" fill="#D885FF"/>
<path style="mix-blend-mode:overlay" d="M470.513 296.922V285.717C470.513 285.717 443.214 293.527 441.374 269.407C438.173 227.419 434.885 216.235 451.174 202.175C467.463 188.114 512.89 203.473 512.76 238.84L513.885 290.13C513.885 290.13 507.806 296.036 494.87 298.264C486.756 299.683 478.423 299.225 470.513 296.922Z" fill="url(#paint12_linear_1271_6441)"/>
<path d="M469.668 240.378C469.928 242.065 469.539 243.514 468.782 243.623C468.024 243.731 467.202 242.476 466.921 240.811C466.64 239.145 467.05 237.695 467.808 237.566C468.565 237.436 469.387 238.712 469.668 240.378Z" fill="#040B38"/>
<path d="M448.102 243.64C448.384 245.307 447.995 246.756 447.237 246.864C446.48 246.972 445.637 245.739 445.377 244.073C445.117 242.408 445.377 240.937 446.243 240.828C447.108 240.72 447.887 242.062 448.102 243.64Z" fill="#040B38"/>
<path d="M469.518 285.849C478.421 283.523 486.414 278.561 492.447 271.615L470.037 297.574L469.518 285.849Z" fill="#040B38"/>
<g style="mix-blend-mode:soft-light">
<path d="M501.836 246.389C500.884 242.604 498.479 239.347 495.144 237.323C491.807 235.298 487.808 234.67 484.011 235.573C482.137 235.996 480.365 236.786 478.797 237.897C477.23 239.009 475.897 240.421 474.879 242.049C473.859 243.678 473.172 245.493 472.857 247.388C472.542 249.284 472.605 251.223 473.044 253.094C473.991 256.882 476.394 260.142 479.733 262.168C483.07 264.193 487.072 264.819 490.869 263.91C492.744 263.49 494.519 262.701 496.087 261.59C497.657 260.479 498.99 259.068 500.01 257.439C501.03 255.809 501.716 253.994 502.03 252.097C502.343 250.2 502.278 248.26 501.836 246.389Z" fill="#040B38"/>
</g>
<path d="M446.696 255.54C446.213 253.572 445.323 251.727 444.082 250.125C442.841 248.522 441.277 247.198 439.492 246.238C439.989 252.728 440.681 260.343 441.374 269.406C441.374 269.709 441.374 269.947 441.504 270.25C443.694 268.558 445.349 266.271 446.27 263.662C447.192 261.051 447.339 258.232 446.696 255.54Z" fill="#D885FF"/>
<g style="mix-blend-mode:soft-light">
<path d="M446.696 255.54C446.213 253.572 445.323 251.727 444.082 250.125C442.841 248.522 441.277 247.198 439.492 246.238C439.989 252.728 440.681 260.343 441.374 269.406C441.374 269.709 441.374 269.947 441.504 270.25C443.694 268.558 445.349 266.271 446.27 263.662C447.192 261.051 447.339 258.232 446.696 255.54Z" fill="#040B38"/>
</g>
<g style="mix-blend-mode:soft-light">
<path d="M452.45 231.811L456.258 230.924L461.363 251.95L452.191 254.092L452.45 231.811Z" fill="#040B38"/>
</g>
<path d="M469.171 226.921C469.171 228.067 467.614 229.084 465.58 229.084C463.547 229.084 461.838 228.326 461.773 227.18C461.709 226.034 463.331 225.018 465.364 225.018C467.397 225.018 469.106 225.839 469.171 226.921Z" fill="#040B38"/>
<path d="M447.69 229.843C448.295 230.816 447.365 232.46 445.527 233.499C443.688 234.537 441.871 234.58 441.2 233.607C440.529 232.633 441.525 230.968 443.363 229.93C445.202 228.891 447.084 228.848 447.69 229.843Z" fill="#040B38"/>
<path d="M448.318 203.409C450.287 210.115 457.685 213.879 464.694 214.961C471.703 216.042 478.928 215.221 485.894 216.605C492.859 217.989 499.976 222.554 501.035 229.584C501.001 231.492 501.393 233.384 502.182 235.122C502.824 235.958 503.697 236.586 504.694 236.928C505.69 237.271 506.765 237.311 507.784 237.047C509.816 236.439 511.577 235.157 512.782 233.413C514.427 231.22 515.571 228.692 516.132 226.008C516.692 223.324 516.657 220.549 516.027 217.881C514.715 212.528 512.022 207.613 508.218 203.626C501.154 195.559 491.318 190.44 480.658 189.284C475.354 188.771 470.004 189.52 465.044 191.472C460.085 193.423 455.659 196.52 452.126 200.51" fill="#040B38"/>
<path d="M462.617 264.905C461.392 265.191 460.117 265.179 458.897 264.871C457.678 264.562 456.55 263.966 455.608 263.131C455.024 262.461 453.965 260.969 455.305 259.952C456.647 258.935 458.745 260.125 460.497 259.671C462.25 259.216 463.828 256.231 466.229 256.621C468.003 256.901 468.891 257.767 469.064 259.216C469.323 261.38 466.9 264.062 462.942 264.905" fill="#040B38"/>
<path d="M516.048 179.482C508.412 182.099 500.776 185.625 495.455 191.747C490.134 197.869 487.71 207.171 491.453 214.418C494.805 220.907 502.853 226.272 501.144 233.432C500.257 237.175 496.817 239.641 494.2 242.323C491.583 245.006 489.181 249.116 490.934 252.512C492.058 254.675 494.481 255.778 496.514 257.12C498.01 257.948 499.287 259.119 500.242 260.537C501.197 261.954 501.802 263.578 502.009 265.274C502.182 268.692 496.601 267.848 495.736 271.44C494.87 275.031 496.017 277.367 502.917 279.119C504.779 279.553 506.715 279.572 508.585 279.171C510.454 278.772 512.212 277.963 513.733 276.804C520.569 270.314 520.374 259.088 520.223 249.635C520.223 245.308 519.163 240.981 519.315 236.656C519.466 232.329 520.937 227.743 524.484 225.363" fill="#040B38"/>
<path d="M500.798 245.028C500.929 242.463 501.812 239.992 503.336 237.924C504.859 235.855 506.957 234.28 509.369 233.395C511.78 232.508 514.399 232.35 516.899 232.94C519.399 233.53 521.671 234.841 523.432 236.711C525.194 238.581 526.366 240.927 526.806 243.458C527.245 245.989 526.931 248.594 525.902 250.948C524.873 253.302 523.176 255.301 521.02 256.699C518.865 258.097 516.345 258.829 513.777 258.807C510.233 258.689 506.88 257.173 504.448 254.592C502.016 252.011 500.704 248.572 500.798 245.028Z" fill="#B126ED"/>
<path d="M513.883 242.972C514.457 242.972 515.008 242.745 515.414 242.338C515.819 241.933 516.047 241.383 516.047 240.809V223.828C516.119 218.574 515.045 213.368 512.901 208.572C510.757 203.775 507.593 199.503 503.63 196.052C498.092 191.358 488.379 186.08 473.691 188.719C466.921 189.953 461.404 193.565 462.529 193.565C463.654 193.565 466.142 192.915 473.345 191.877C478.195 191.107 483.152 191.358 487.898 192.618C492.645 193.877 497.075 196.115 500.904 199.189C504.413 202.253 507.211 206.044 509.105 210.299C510.999 214.555 511.943 219.171 511.872 223.828V240.809C511.871 241.358 512.078 241.886 512.451 242.288C512.825 242.689 513.336 242.934 513.883 242.972Z" fill="#B126ED"/>
<path d="M506.876 245.029C506.953 243.663 507.427 242.348 508.241 241.247C509.057 240.147 510.176 239.309 511.462 238.838C512.747 238.367 514.142 238.283 515.475 238.596C516.808 238.908 518.02 239.604 518.962 240.598C519.904 241.593 520.534 242.84 520.774 244.188C521.014 245.536 520.854 246.925 520.315 248.183C519.774 249.441 518.878 250.513 517.735 251.268C516.592 252.023 515.254 252.425 513.885 252.427C512.939 252.402 512.007 252.191 511.142 251.805C510.278 251.419 509.498 250.868 508.848 250.18C508.196 249.494 507.687 248.685 507.35 247.801C507.011 246.917 506.85 245.975 506.876 245.029Z" fill="white"/>
<path d="M481.589 260.688C493.991 260.283 505.8 255.288 514.729 246.671C515.745 245.698 514.209 244.162 513.215 245.135C504.692 253.356 493.424 258.127 481.589 258.525C480.205 258.525 480.205 260.688 481.589 260.688Z" fill="white"/>
<path d="M476.136 259.371C476.054 260.521 476.315 261.67 476.884 262.672C477.454 263.674 478.308 264.484 479.338 265.003C480.368 265.521 481.528 265.722 482.672 265.582C483.817 265.442 484.894 264.966 485.768 264.215C486.642 263.464 487.275 262.471 487.586 261.361C487.897 260.25 487.873 259.073 487.516 257.977C487.159 256.88 486.486 255.914 485.581 255.2C484.676 254.486 483.58 254.055 482.431 253.963C480.88 253.85 479.347 254.355 478.168 255.368C476.988 256.382 476.258 257.82 476.136 259.371Z" fill="#481AC7"/>
</g>
</g>
</g>
<defs>
<linearGradient id="paint0_linear_1271_6441" x1="133.184" y1="509.564" x2="259.211" y2="367.982" gradientUnits="userSpaceOnUse">
<stop stop-color="white"/>
<stop offset="1" stop-color="white" stop-opacity="0"/>
</linearGradient>
<linearGradient id="paint1_linear_1271_6441" x1="198.209" y1="571.433" x2="495.087" y2="386.48" gradientUnits="userSpaceOnUse">
<stop stop-color="white"/>
<stop offset="1" stop-color="white" stop-opacity="0"/>
</linearGradient>
<linearGradient id="paint2_linear_1271_6441" x1="28.1314" y1="414.579" x2="276.64" y2="554.927" gradientUnits="userSpaceOnUse">
<stop stop-color="white"/>
<stop offset="1" stop-color="white" stop-opacity="0"/>
</linearGradient>
<linearGradient id="paint3_linear_1271_6441" x1="190.746" y1="508.029" x2="205.261" y2="528.341" gradientUnits="userSpaceOnUse">
<stop stop-color="white"/>
<stop offset="1" stop-color="white" stop-opacity="0"/>
</linearGradient>
<linearGradient id="paint4_linear_1271_6441" x1="637.187" y1="595.725" x2="668.791" y2="555.772" gradientUnits="userSpaceOnUse">
<stop stop-color="white"/>
<stop offset="1" stop-color="white" stop-opacity="0"/>
</linearGradient>
<linearGradient id="paint5_linear_1271_6441" x1="675.563" y1="589.387" x2="718.979" y2="514.756" gradientUnits="userSpaceOnUse">
<stop stop-color="white"/>
<stop offset="1" stop-color="white" stop-opacity="0"/>
</linearGradient>
<linearGradient id="paint6_linear_1271_6441" x1="419.633" y1="373.519" x2="507.286" y2="522.521" gradientUnits="userSpaceOnUse">
<stop stop-color="white"/>
<stop offset="1" stop-color="white" stop-opacity="0"/>
</linearGradient>
<linearGradient id="paint7_linear_1271_6441" x1="289.95" y1="567.212" x2="594.355" y2="378.711" gradientUnits="userSpaceOnUse">
<stop stop-color="white"/>
<stop offset="1" stop-color="white" stop-opacity="0"/>
</linearGradient>
<linearGradient id="paint8_linear_1271_6441" x1="487.949" y1="239.685" x2="322.616" y2="22.5207" gradientUnits="userSpaceOnUse">
<stop stop-color="white"/>
<stop offset="1" stop-color="white" stop-opacity="0"/>
</linearGradient>
<linearGradient id="paint9_linear_1271_6441" x1="735.57" y1="148.073" x2="563.487" y2="279.79" gradientUnits="userSpaceOnUse">
<stop stop-color="white"/>
<stop offset="1" stop-color="white" stop-opacity="0"/>
</linearGradient>
<linearGradient id="paint10_linear_1271_6441" x1="694.014" y1="498.684" x2="722.308" y2="403.157" gradientUnits="userSpaceOnUse">
<stop stop-color="white"/>
<stop offset="1" stop-color="white" stop-opacity="0"/>
</linearGradient>
<linearGradient id="paint11_linear_1271_6441" x1="687.412" y1="511.134" x2="687.641" y2="509.14" gradientUnits="userSpaceOnUse">
<stop stop-color="white"/>
<stop offset="1" stop-color="white" stop-opacity="0"/>
</linearGradient>
<linearGradient id="paint12_linear_1271_6441" x1="559.528" y1="175.351" x2="471.205" y2="256.536" gradientUnits="userSpaceOnUse">
<stop/>
<stop offset="1" stop-opacity="0"/>
</linearGradient>
<clipPath id="clip0_1271_6441">
<rect width="768" height="604.22" fill="white"/>
</clipPath>
<clipPath id="clip1_1271_6441">
<rect width="768" height="604.22" fill="white"/>
</clipPath>
<clipPath id="clip2_1271_6441">
<rect width="767.998" height="604.22" fill="white" transform="translate(0.00195312)"/>
</clipPath>
</defs>
</svg>
