<?xml version="1.0" encoding="utf-8"?>
<!-- Generator: Adobe Illustrator 27.5.0, SVG Export Plug-In . SVG Version: 6.00 Build 0)  -->
<svg version="1.1" xmlns="http://www.w3.org/2000/svg" xmlns:xlink="http://www.w3.org/1999/xlink" x="0px" y="0px"
	 viewBox="0 0 3710 3710" style="enable-background:new 0 0 3710 3710;" xml:space="preserve">
<g id="Background">
	<g>
		<g>
			<rect style="fill:#FFFFFF;" width="3710" height="3710"/>
		</g>
	</g>
</g>
<g id="Illustration">
	<g>
		<path style="fill:#F4F7FA;" d="M1616.404,3185.839c-716.291-108.477-1298.4-785.714-1192.643-1538.448
			c90.222-641.962,653.051-1141.547,1327.992-1188.724c48.872-3.425,98.308-4.485,148.203-3.037
			c376.525,10.876,711.067,161.479,958.493,389.379c246.263,226.805,406.257,530.166,435.389,848.428
			C3371.417,2540.205,2507.313,3320.764,1616.404,3185.839z"/>
		<g>
			<g>
				<g>
					<g>
						<g>
							<g>
								<defs>
									<path id="SVGID_1_" d="M2088.605,2447.767c-25.378,31.196-49.746,53.99-75.957,83.312
										c162.063,49.385,309.241,126.703,473.458,177.071c-35.888-218.513-103.966-333.87,44.901-543.07
										c69.861-98.174,236.314-271.195,231.895-393.787c-5.034-139.668-103.133-141.038-39.781-240.988
										c99.017-156.22,83.761-365.877-173.162-380.902c-253.572-14.828-474.652,606.342-407.6,823.101
										C2162.455,2168.384,2221.122,2284.87,2088.605,2447.767z"/>
								</defs>
								
									<linearGradient id="SVGID_00000108993270290352308570000011670162769792682916_" gradientUnits="userSpaceOnUse" x1="2398.3879" y1="1891.7316" x2="2310.7136" y2="4075.5803">
									<stop  offset="0.0036" style="stop-color:#E38DDD"/>
									<stop  offset="1" style="stop-color:#9571F6"/>
								</linearGradient>
								
									<use xlink:href="#SVGID_1_"  style="overflow:visible;fill:url(#SVGID_00000108993270290352308570000011670162769792682916_);"/>
								<clipPath id="SVGID_00000009566167612206434640000013965065017483130006_">
									<use xlink:href="#SVGID_1_"  style="overflow:visible;"/>
								</clipPath>
								<g style="opacity:0.7;clip-path:url(#SVGID_00000009566167612206434640000013965065017483130006_);">
									<g>
										<path style="fill:#FCFDFE;" d="M2267.99,2604.484l-3.61-0.552c9.46-61.757,14.179-125.01,18.741-186.18l1.741-23.24
											c3.73-49.202,7.943-93.144,11.662-131.913c2.081-21.718,4.062-42.356,5.812-62.324
											c5.354-61.091,8.986-103.85,10.79-125.108l1.199-14.04c14.738-167.509,96.386-389.702,140.252-509.073
											c4.747-12.917,8.99-24.466,12.578-34.407c61.668-170.884,105.372-356.076,129.896-550.43l3.626,0.457
											c-24.558,194.622-68.325,380.076-130.087,551.212c-3.589,9.947-7.835,21.502-12.585,34.427
											c-43.807,119.213-125.348,341.108-140.042,508.134l-1.198,14.029c-1.805,21.26-5.437,64.023-10.792,125.119
											c-1.751,19.976-3.731,40.625-5.815,62.353c-3.715,38.753-7.927,82.674-11.653,131.842l-1.743,23.234
											C2282.194,2479.262,2277.472,2542.587,2267.99,2604.484z"/>
										<path style="fill:#FCFDFE;" d="M2292.765,2294.593l-3.617-0.494c15.002-110.234,77.034-233.671,179.391-356.966
											c85.252-102.695,196.146-201.598,304.248-271.349l1.979,3.067C2565.237,1804.049,2325.031,2057.534,2292.765,2294.593z"/>
										<path style="fill:#FCFDFE;" d="M2450.411,1573.194l-3.005-2.073c54.634-79.159,119.592-151.872,182.414-222.193
											c42.992-48.124,87.448-97.886,128.231-149.305l2.862,2.271c-40.85,51.501-85.343,101.306-128.369,149.468
											C2569.796,1421.599,2504.914,1494.224,2450.411,1573.194z"/>
										<path style="fill:#FCFDFE;" d="M2351.008,1867.901c-5.402-133.607-73.218-310.046-145.125-377.58l2.5-2.663
											c72.49,68.079,140.84,245.694,146.273,380.097L2351.008,1867.901z"/>
									</g>
								</g>
							</g>
						</g>
					</g>
				</g>
			</g>
			<g>
				<defs>
					<polygon id="SVGID_00000013158280232391557250000013132453865452034947_" points="1748.862,2982.962 2050.674,3042.098 
						2218.693,3042.098 2796.226,2982.962 2796.226,2076.532 1748.862,2076.532 					"/>
				</defs>
				<clipPath id="SVGID_00000021798780924238400050000014489925745306653826_">
					<use xlink:href="#SVGID_00000013158280232391557250000013132453865452034947_"  style="overflow:visible;"/>
				</clipPath>
				<g style="clip-path:url(#SVGID_00000021798780924238400050000014489925745306653826_);">
					<g>
						<g>
							<defs>
								<path id="SVGID_00000135688870790159277590000006321557150036672421_" d="M1937.86,3368.709
									c-64.988-32.686-129.444-66.644-193.314-101.85c-1.399,0.432,20.157-130.203,113.304-169.338
									c183.271-74.803,129.783-220.169,126.806-295.998c-8.867-108.525,49.48-201.658,164.466-162.075
									c128.27,41.838,213.631-124.354,247.337-291.303c9.871-83.777,131.378-146.115,226.812-136.077
									c98.092,8.38,170.11,89.137,142.379,253.236c-22.353,193.503-217.842,244.869-307.98,313.555
									c-88.619,67.38,19.028,186.265-115.913,225.716c-114.824,36.877-246.147,45.879-235.681,147.723
									C2118.031,3253.566,2082.701,3320.171,1937.86,3368.709z"/>
							</defs>
							
								<linearGradient id="SVGID_00000086693739043466993530000010301802560151452824_" gradientUnits="userSpaceOnUse" x1="2490.4492" y1="2201.3677" x2="2069.6755" y2="3397.2515">
								<stop  offset="0" style="stop-color:#FF9085"/>
								<stop  offset="1" style="stop-color:#FB6FBB"/>
							</linearGradient>
							
								<use xlink:href="#SVGID_00000135688870790159277590000006321557150036672421_"  style="overflow:visible;fill:url(#SVGID_00000086693739043466993530000010301802560151452824_);"/>
							<clipPath id="SVGID_00000143593265965874483200000002418744611069051806_">
								<use xlink:href="#SVGID_00000135688870790159277590000006321557150036672421_"  style="overflow:visible;"/>
							</clipPath>
							<g style="clip-path:url(#SVGID_00000143593265965874483200000002418744611069051806_);">
								<path style="fill:#BEB8F2;" d="M1840.969,3342.121c0.37-1.096,157.519-235.873,359.341-446.908
									c29.978-35.094,61.438-70.075,91.858-103.905c169.421-188.396,329.446-366.345,320.236-631.393l4.266,0.33
									c9.25,266.284-151.175,444.678-321.02,633.548c-30.408,33.815-61.853,68.781-91.865,103.911
									c-202.911,212.178-357.989,444.451-358.759,445.966L1840.969,3342.121z"/>
								<path style="fill:#BEB8F2;" d="M2447.688,2616.191l-2.227-3.364c100.703-42.686,227.586-109.189,295.751-144.915
									c55.169-28.915,55.338-28.838,57.323-27.812l-0.914,1.564l0.429,1.81c-2.647,0.581-25.453,12.533-54.325,27.666
									C2675.511,2506.892,2548.54,2573.443,2447.688,2616.191z"/>
								<path style="fill:#BEB8F2;" d="M2503.79,2527.863c12.887-85.292-7.798-151.936-27.422-192.825
									c-21.375-44.54-47.161-70.749-50.794-72.697l0.744-1.197l-0.799-2.289c1.222-0.202,2.299,0.459,3.863,1.75
									c22.377,18.488,101.303,118.182,78.641,268.161L2503.79,2527.863z"/>
								<path style="fill:#BEB8F2;" d="M2078.92,3037.269l-3.92-1.86c79.833-151.22,2.589-346.769-34.328-423.825
									c-1.984-4.139-2.619-5.48-2.795-6.125l4.149-0.432l-2.074,0.216l2.07-0.229c0.142,0.457,1.267,2.8,2.565,5.512
									c26.624,55.572,45.984,110.892,57.543,164.423C2124.332,2877.783,2116.523,2966.039,2078.92,3037.269z"/>
								<path style="fill:#BEB8F2;" d="M2137.403,2969.995l-2.84-3.036c120.35-79.93,294.468-26.338,297.162-25.082
									c0.011,0.005,0.02,0.01,0.024,0.013l0.954,2.135l-1.995,1.165l-0.077-1.827l-0.739,1.621
									C2428.278,2944.364,2256.551,2890.864,2137.403,2969.995z M2430.554,2941.504l0.077,1.84L2430.554,2941.504z"/>
								<path style="fill:#BEB8F2;" d="M1867.379,3304.027c12.994-31.835,18.76-92.005-27.545-197.863
									c-2.628-6.007-2.628-6.007-2.163-6.829l3.875,1.939l-1.938-0.969l2.095-0.039c0.118,0.432,1.036,2.531,2.098,4.961
									c46.78,106.941,40.843,168,27.623,200.392L1867.379,3304.027z"/>
								<path style="fill:#BEB8F2;" d="M1910.445,3250.822l-3.59-2.356c40.768-50.482,152.844-57.881,216.021-57.799
									c2.004,0.003,3.292,0.007,3.763-0.021l0.789,3.692c-0.505,0.03-1.893,0.031-4.051,0.029
									C2060.948,3194.287,1950.268,3201.514,1910.445,3250.822z"/>
							</g>
						</g>
					</g>
				</g>
			</g>
		</g>
		<g>
			<g>
				<g>
					<g>
						<g>
							
								<linearGradient id="SVGID_00000046300119595121483210000014001371022821024423_" gradientUnits="userSpaceOnUse" x1="1087.1797" y1="1846.5143" x2="2089.0901" y2="1846.5143" gradientTransform="matrix(0.9993 -0.0361 0.0361 0.9993 -24.9226 104.6293)">
								<stop  offset="0" style="stop-color:#444B8C"/>
								<stop  offset="0.9964" style="stop-color:#26264F"/>
							</linearGradient>
							<path style="fill:url(#SVGID_00000046300119595121483210000014001371022821024423_);" d="M2170.979,3026.395
								c-34.756,29.146-77.964,48.082-124.886,53.725l-525.743,63.219c-49.678,5.974-96.89-2.586-136.237-23.869
								c-48.299-26.149-84.597-69.822-98.819-125.402c-179.53-702.698-209.375-1441.489-87.381-2162.207
								c10.899-64.467,51.205-118.034,106.896-149.367c34.26-19.25,74.278-30.213,116.792-30.13l545.206,1.065
								c40.144,0.078,78.354,10.529,111.515,29.177C1903.734,1460.277,1935.801,2272.98,2170.979,3026.395z"/>
							
								<linearGradient id="SVGID_00000155857865825644909570000007405590197525806489_" gradientUnits="userSpaceOnUse" x1="2389.2043" y1="1791.6683" x2="-37.3843" y2="1930.8281" gradientTransform="matrix(0.9993 -0.0361 0.0361 0.9993 -24.9226 104.6293)">
								<stop  offset="0" style="stop-color:#444B8C"/>
								<stop  offset="0.9964" style="stop-color:#26264F"/>
							</linearGradient>
							<path style="fill:url(#SVGID_00000155857865825644909570000007405590197525806489_);" d="M2198.616,3023.126
								c-34.657,29.098-77.743,48.001-124.533,53.628l-524.242,63.038c-49.534,5.957-96.609-2.599-135.843-23.857
								c-48.16-26.119-84.354-69.734-98.538-125.235c-179.041-701.688-208.837-1439.39-87.24-2159.043
								c10.864-64.372,51.049-117.861,106.577-149.148c34.16-19.222,74.06-30.169,116.451-30.086l543.65,1.062
								c40.032,0.078,78.134,10.514,111.203,29.136C1932.043,1459.19,1964.061,2270.743,2198.616,3023.126z"/>
							
								<linearGradient id="SVGID_00000021109870977091322240000012192329820425880203_" gradientUnits="userSpaceOnUse" x1="1329.3325" y1="1845.8348" x2="2308.2976" y2="1845.8348" gradientTransform="matrix(0.9993 -0.0361 0.0361 0.9993 -24.9226 104.6293)">
								<stop  offset="0" style="stop-color:#444B8C"/>
								<stop  offset="0.9964" style="stop-color:#26264F"/>
							</linearGradient>
							<path style="fill:url(#SVGID_00000021109870977091322240000012192329820425880203_);" d="M2279.754,2883.431
								c-9.076,55.486-38.943,104.244-81.138,139.695c-34.657,29.098-77.743,48.001-124.533,53.628l-524.242,63.038
								c-49.534,5.957-96.609-2.599-135.843-23.857c190.027-816.692,163.051-1642.668-79.211-2433.723
								c34.16-19.221,74.071-29.872,116.462-29.79l543.65,1.062c40.032,0.078,78.148,10.896,111.217,29.517
								c53.287,29.975,93.571,80.922,107.757,142.11C2370.223,1499.483,2392.467,2192.847,2279.754,2883.431z"/>
							
								<linearGradient id="SVGID_00000092416853014295909770000005388347916653952699_" gradientUnits="userSpaceOnUse" x1="1329.3329" y1="1845.9441" x2="1534.2959" y2="1845.9441" gradientTransform="matrix(0.9993 -0.0361 0.0361 0.9993 -24.9226 104.6293)">
								<stop  offset="0" style="stop-color:#444B8C"/>
								<stop  offset="0.9964" style="stop-color:#26264F"/>
							</linearGradient>
							<path style="fill:url(#SVGID_00000092416853014295909770000005388347916653952699_);" d="M1455.532,3133.806
								c186.656-827.897,158.718-1665.846-82.115-2468.231c-13.499,4.61-26.426,10.378-38.609,17.233
								c242.262,791.049,269.245,1617.219,79.219,2433.92C1427.053,3123.785,1440.965,3129.498,1455.532,3133.806z"/>
						</g>
						<g>
							
								<linearGradient id="SVGID_00000063598723361007674920000013419032474887760556_" gradientUnits="userSpaceOnUse" x1="2082.3086" y1="130.6122" x2="1856.0179" y2="1572.1678" gradientTransform="matrix(0.9993 -0.0361 0.0361 0.9993 -24.9226 104.6293)">
								<stop  offset="0" style="stop-color:#444B8C"/>
								<stop  offset="0.4836" style="stop-color:#35396E"/>
								<stop  offset="0.9964" style="stop-color:#26264F"/>
							</linearGradient>
							<path style="fill:url(#SVGID_00000063598723361007674920000013419032474887760556_);" d="M2473.06,1330.99l38.003,1052.568
								c3.345,92.657-69.068,175.218-163.19,184.246l-910.272,87.396c-16.581,1.591-35.023,1.239-50.54-1.145
								c-81.852-12.424-147.026-76.54-150.021-159.485l-40.495-1121.611c-0.865-23.954,6.184-45.477,14.623-66.638
								c26.208-65.971,94.245-112.102,173.214-114.026l912.296-22.245C2391.042,1167.75,2469.715,1238.332,2473.06,1330.99z"/>
							
								<linearGradient id="SVGID_00000061467615622589220580000017232143334291861434_" gradientUnits="userSpaceOnUse" x1="1927.4625" y1="2125.512" x2="1960.7224" y2="4170.9019" gradientTransform="matrix(0.9993 -0.0361 0.0361 0.9993 -24.9226 104.6293)">
								<stop  offset="0" style="stop-color:#444B8C"/>
								<stop  offset="0.9964" style="stop-color:#26264F"/>
							</linearGradient>
							<path style="fill:url(#SVGID_00000061467615622589220580000017232143334291861434_);" d="M2611.517,2379.431
								c3.334,92.344-68.29,174.412-161.602,183.384l-901.359,86.815c-103.19,9.922-188.912-61.716-192.464-160.09l-40.337-1117.244
								c-3.552-98.374,76.949-180.178,180.407-182.698l904.01-22.035c93.554-2.279,170.146,70.77,173.48,163.114L2611.517,2379.431z
								"/>
							<path style="opacity:0.7;fill:#FFFFFF;" d="M2536.341,1329.283c-2.548-70.571-63.733-126.249-135.165-124.371
								l-906.307,23.798c-78.816,2.071-140.986,64.431-138.283,139.294l40.108,1110.87c2.703,74.863,68.307,129.559,146.931,122.188
								l905.288-84.754c71.259-6.68,127.785-69.269,125.237-139.84L2536.341,1329.283z"/>
							<path style="fill:#D8DEE8;" d="M2500.202,1360.356c-2.408-66.717-58.1-119.269-125.704-117.362l-854.667,24.064
								c-74.156,2.091-134.88,61.001-132.333,131.528l37.745,1045.439c2.547,70.528,67.601,122.185,141.589,115.391l851.023-78.102
								c67.447-6.193,120.462-65.282,118.053-131.999L2500.202,1360.356z"/>
							
								<linearGradient id="SVGID_00000003102029116231534060000010077089418583159702_" gradientUnits="userSpaceOnUse" x1="1412.7473" y1="896.6528" x2="1224.3441" y2="2096.8508" gradientTransform="matrix(0.9993 -0.0361 0.0361 0.9993 -24.9226 104.6293)">
								<stop  offset="0" style="stop-color:#444B8C"/>
								<stop  offset="0.9964" style="stop-color:#26264F"/>
							</linearGradient>
							<path style="opacity:0.3;fill:url(#SVGID_00000003102029116231534060000010077089418583159702_);" d="M1387.582,2654.162
								c-81.852-12.423-147.547-76.648-150.541-159.593l-40.495-1121.611c-0.865-23.954,6.128-47.043,14.567-68.203
								c25.414,42.871,48.763,109.166,41.666,207.516c-15.186,210.441,5.797,268.936,44.391,416.888
								c38.471,147.477-19.969,310.143-14.508,420.343C1287.308,2443.839,1263.181,2598.99,1387.582,2654.162z"/>
						</g>
					</g>
					<g style="opacity:0.5;">
						<path style="fill:#FFFFFF;" d="M2275.776,2250.972c-171.793-167.402-380.897-108.596-472.898-279.271
							c-98.685-183.076,88.425-349.958,14.894-580.883c-20.687-64.969-57.414-120.429-103.332-167.875l-219.571,5.766
							c-78.816,2.071-140.986,64.431-138.283,139.294l40.107,1110.869c2.703,74.863,68.307,129.56,146.932,122.189l875.719-81.986
							C2388.409,2390.273,2333.366,2307.09,2275.776,2250.972z"/>
					</g>
				</g>
				<g>
					<path style="fill:#C3CCD8;" d="M1936.124,1350.911c-0.974-23.422-18.303-41.932-38.763-41.337l-408.472,11.882
						c-21.845,0.635-38.75,20.857-37.693,45.161l20.384,468.694c1.053,24.211,19.598,42.58,41.357,41.038l406.884-28.841
						c20.382-1.445,36.07-21.527,35.099-44.863L1936.124,1350.911z"/>
					<g>
						
							<linearGradient id="SVGID_00000098182195213204917310000017388791999641903518_" gradientUnits="userSpaceOnUse" x1="1478.1842" y1="2202.2507" x2="1979.803" y2="2202.2507">
							<stop  offset="0" style="stop-color:#FF9085"/>
							<stop  offset="1" style="stop-color:#FB6FBB"/>
						</linearGradient>
						<path style="fill:url(#SVGID_00000098182195213204917310000017388791999641903518_);" d="M1961.053,1950.07
							c-0.97-23.314-18.224-40.968-38.597-39.424l-406.698,30.827c-21.749,1.648-38.579,22.599-37.527,46.786l20.285,466.438
							c1.048,24.094,19.51,41.552,41.173,39.006l405.12-47.625c20.295-2.386,35.917-23.141,34.95-46.369L1961.053,1950.07z"/>
						<g>
							<path style="fill:#FFFFFF;" d="M1732.435,2165.939c-24.127,2.273-42.875,26.309-41.712,53.566
								c1.164,27.251,21.792,47.415,45.902,44.96c24.022-2.445,42.568-26.448,41.421-53.518
								C1776.899,2183.871,1756.474,2163.675,1732.435,2165.939z"/>
							<path style="fill:#FFFFFF;" d="M1827.084,2098.598l-51.561,4.626l-0.458-10.81c-0.313-7.381-3.23-10.209-9.755-9.634
								l-72.757,6.409c-6.604,0.582-12.383,4.198-12.066,11.632l0.465,10.888l-49.62,4.452c-14.6,1.31-26.628,11.755-25.965,27.156
								l6.631,154.141c0.662,15.381,13.666,27.876,28.245,26.337l195.463-20.631c14.117-1.49,25.604-16.309,24.969-31.402
								l-6.36-151.25C1853.681,2105.401,1841.222,2097.329,1827.084,2098.598z M1737.454,2283.945
								c-33.669,3.478-62.513-24.653-64.142-62.733c-1.629-38.092,24.592-71.645,58.294-74.77
								c33.529-3.109,61.979,25.086,63.575,62.826C1796.777,2246.997,1770.95,2280.485,1737.454,2283.945z M1829.648,2125.46
								c0.275,6.532-4.161,12.259-9.912,12.792l-13.367,1.24c-5.769,0.535-10.673-4.34-10.95-10.889l-0.044-1.048
								c-0.277-6.55,4.18-12.284,9.949-12.809l13.37-1.214c5.753-0.522,10.636,4.35,10.911,10.883L1829.648,2125.46z"/>
						</g>
					</g>
					<g>
						
							<linearGradient id="SVGID_00000066475251474680273780000007599670015643705784_" gradientUnits="userSpaceOnUse" x1="2510.2625" y1="990.7357" x2="1619.0656" y2="2826.907">
							<stop  offset="0" style="stop-color:#FF9085"/>
							<stop  offset="1" style="stop-color:#FB6FBB"/>
						</linearGradient>
						<path style="fill:url(#SVGID_00000066475251474680273780000007599670015643705784_);" d="M2449.328,1334.29
							c-0.891-22.49-16.858-40.281-35.715-39.732l-375.979,10.937c-20.081,0.584-35.625,19.951-34.661,43.252l18.581,449.395
							c0.96,23.216,18.001,40.88,38.006,39.462l374.582-26.551c18.788-1.332,33.258-20.573,32.37-42.983L2449.328,1334.29z"/>
						<g>
							<g>
								<path style="fill:#FFFFFF;" d="M2170.345,1443.582c-24.567,22.168-30.329,61.514-12.828,87.739
									c17.453,26.151,51.352,29.208,75.675,6.97L2170.345,1443.582z"/>
								<path style="fill:#FFFFFF;" d="M2233.192,1538.292L2233.192,1538.292l-62.847-94.709h0
									c11.407-10.293,27.873-7.696,36.783,5.767l30.477,46.05C2246.459,1508.777,2244.486,1527.966,2233.192,1538.292z"/>
								<path style="fill:#FFFFFF;" d="M2259.839,1580.969c-24.219,22.272-29.901,61.394-12.65,87.24
									c17.203,25.774,50.621,28.444,74.601,6.107L2259.839,1580.969z"/>
								<path style="fill:#FFFFFF;" d="M2321.79,1674.315L2321.79,1674.315l-61.951-93.346l0,0
									c11.246-10.342,27.478-7.941,36.261,5.328l30.043,45.388C2334.871,1644.872,2332.925,1663.943,2321.79,1674.315z"/>
								<path style="fill:#FFFFFF;" d="M2278.281,1651.37l-25.116,23.27c-42.283-32.977-75.348-82.442-99.049-148.415l25.515-23.158
									L2278.281,1651.37z"/>
							</g>
						</g>
					</g>
					<g>
						
							<linearGradient id="SVGID_00000073722924183604266400000001965333164773589949_" gradientUnits="userSpaceOnUse" x1="2540.0046" y1="1562.989" x2="1629.4871" y2="3438.9675">
							<stop  offset="0" style="stop-color:#FFC444"/>
							<stop  offset="0.9964" style="stop-color:#F36F56"/>
						</linearGradient>
						<path style="fill:url(#SVGID_00000073722924183604266400000001965333164773589949_);" d="M2472.119,1909.648
							c-0.887-22.39-16.789-39.392-35.569-37.968l-374.418,28.38c-19.996,1.516-35.475,21.553-34.516,44.746l18.495,447.321
							c0.955,23.108,17.924,39.935,37.845,37.593l373.03-43.853c18.712-2.2,33.123-22.062,32.239-44.372L2472.119,1909.648z"/>
						<g>
							<path style="fill:#FFFFFF;" d="M2319.531,2089.424c1.523,37.861-23.26,71.096-55.504,74.257
								c-32.411,3.177-60.068-25.206-61.623-63.42c-1.555-38.226,23.606-71.522,56.049-74.344
								C2290.729,2023.108,2318.008,2051.552,2319.531,2089.424z"/>
							<path style="fill:#FFFFFF;" d="M2368.016,2257.162c-16.215-49.262-56.776-79.584-103.239-74.96
								c-46.81,4.658-85.421,43.336-97.928,96.358L2368.016,2257.162z"/>
						</g>
					</g>
				</g>
			</g>
			<g style="opacity:0.5;">
				<path style="fill:#FFFFFF;" d="M2275.776,2250.972c-171.793-167.402-380.897-108.596-472.898-279.271
					c-98.685-183.076,88.425-349.958,14.894-580.883c-20.687-64.969-57.414-120.429-103.332-167.875l-219.571,5.766
					c-78.816,2.071-140.986,64.431-138.283,139.294l40.107,1110.869c2.703,74.863,68.307,129.56,146.932,122.189l875.719-81.986
					C2388.409,2390.273,2333.366,2307.09,2275.776,2250.972z"/>
			</g>
		</g>
		<g>
			
				<linearGradient id="SVGID_00000004522657534953120180000001699266318548514450_" gradientUnits="userSpaceOnUse" x1="1674.4873" y1="1710.1636" x2="1371.3367" y2="3163.6208" gradientTransform="matrix(-1 0 0 1 4299.5825 0)">
				<stop  offset="0" style="stop-color:#AA80F9"/>
				<stop  offset="0.9964" style="stop-color:#6165D7"/>
			</linearGradient>
			<path style="fill:url(#SVGID_00000004522657534953120180000001699266318548514450_);" d="M2557.427,2126.854
				c-26.374-28.159,46.639-133.949,85.718-180.304c34.14-40.496,69.231-82.121,112.321-76.851
				c37.832,4.627,74.646,44.524,76.851,82.762C2838.25,2055.329,2594.922,2166.886,2557.427,2126.854z"/>
			
				<linearGradient id="SVGID_00000151502938152491612130000015382986978609637557_" gradientUnits="userSpaceOnUse" x1="790.2946" y1="3242.208" x2="881.0829" y2="3242.208" gradientTransform="matrix(0.9996 0.0289 -0.0289 0.9996 2093.9072 -31.2392)">
				<stop  offset="0" style="stop-color:#444B8C"/>
				<stop  offset="0.9964" style="stop-color:#26264F"/>
			</linearGradient>
			<path style="fill:url(#SVGID_00000151502938152491612130000015382986978609637557_);" d="M2874.097,3213.938
				c4.965,4.036,5.878,14.114,6.474,20.701c0.269,2.943,0.401,4.415,0.072,5.454c-2.399,7.581-17.102,8.379-40.16,10.735
				c-36.437,3.723-47.28,6.59-50.132,1.168c-2.673-5.081,3.795-13.402,4.523-14.319c3.915-4.932,8.72-6.726,18.011-9.783
				c17.19-5.658,28.806-8.757,32.323-9.694C2867.167,3212.337,2870.836,3211.289,2874.097,3213.938z"/>
			
				<linearGradient id="SVGID_00000091733681505432815800000010752918712819889817_" gradientUnits="userSpaceOnUse" x1="2848.781" y1="3203.8621" x2="2881.3296" y2="3203.8621">
				<stop  offset="0" style="stop-color:#FFC444"/>
				<stop  offset="0.9964" style="stop-color:#F36F56"/>
			</linearGradient>
			<path style="fill:url(#SVGID_00000091733681505432815800000010752918712819889817_);" d="M2852.427,3180.651l-3.646,41.522
				c1.035,2.005,13.377,8.019,23.18,2.862l9.369-40.814L2852.427,3180.651z"/>
			
				<linearGradient id="SVGID_00000020399021495477376480000015647776820166579596_" gradientUnits="userSpaceOnUse" x1="1307.1034" y1="3287.6221" x2="1403.5602" y2="3287.6221" gradientTransform="matrix(0.9642 0.2651 -0.2651 0.9642 2106.7324 -308.9189)">
				<stop  offset="0" style="stop-color:#444B8C"/>
				<stop  offset="0.9964" style="stop-color:#26264F"/>
			</linearGradient>
			<path style="fill:url(#SVGID_00000020399021495477376480000015647776820166579596_);" d="M2585.127,3208.603
				c5.95,6.571,7.306,18.671,2.132,24.632c-5.086,5.861-12.734,1.465-34.424,2.113c-23.233,0.695-29.3,6.181-45.088,1.825
				c-6.378-1.763-17.643-6.039-17.429-10.594c0.15-3.203,5.885-4.857,25.041-11.275c27.19-9.108,27.07-9.605,32.844-10.563
				C2562.706,3202.339,2577.268,3199.926,2585.127,3208.603z"/>
			
				<linearGradient id="SVGID_00000072967286664500307470000003280590502837606044_" gradientUnits="userSpaceOnUse" x1="2558.5879" y1="3193.116" x2="2598.7881" y2="3193.116">
				<stop  offset="0" style="stop-color:#FFC444"/>
				<stop  offset="0.9964" style="stop-color:#F36F56"/>
			</linearGradient>
			<path style="fill:url(#SVGID_00000072967286664500307470000003280590502837606044_);" d="M2570.241,3170.709l-11.653,38.762
				c0.881,2.08,12.727,9.015,22.894,4.622l17.306-37.622L2570.241,3170.709z"/>
			<path style="fill:#26264F;" d="M2673.779,2321.757c-1.669,130.271-10.559,276.744-31.889,435.879
				c-21.08,157.281-50.623,299.391-82.85,424.357c14.868,4,29.735,8,44.602,12c37.72-35.171,85.303-90.537,108.263-168.778
				c14.25-48.561,9.501-73.515,18.54-133.244c14.392-95.102,43.544-144.927,73.675-221.617
				c27.076-68.914,59.081-170.052,76.241-305.24C2811.501,2350.662,2742.639,2336.209,2673.779,2321.757z"/>
			<path style="fill:#26264F;" d="M2807.985,2309.327c9.1,165.682,16.584,334.448,22.255,506.203
				c4.257,128.885,7.382,256.135,9.459,381.711c15.187,1.875,30.374,3.751,45.562,5.625c14.675-27.322,34.166-69.093,47.518-122.632
				c16.217-65.024,12.462-103.639,19.574-171.032c7.98-75.586,19.57-92.053,40.103-187.404
				c41.674-193.511,62.511-290.268,16.024-350.455C2993.389,2351.803,2946.081,2302.789,2807.985,2309.327z"/>
			
				<linearGradient id="SVGID_00000147915538455706536730000013718792428210682278_" gradientUnits="userSpaceOnUse" x1="1569.5208" y1="1688.2703" x2="1266.3707" y2="3141.7244" gradientTransform="matrix(-1 0 0 1 4299.5825 0)">
				<stop  offset="0" style="stop-color:#AA80F9"/>
				<stop  offset="0.9964" style="stop-color:#6165D7"/>
			</linearGradient>
			<path style="fill:url(#SVGID_00000147915538455706536730000013718792428210682278_);" d="M3029.323,1892.922
				c-35.566-10.001-87.691-21.698-151.528-25.306c-91.048-5.146-136.573-7.719-168.833,13.962
				c-74.509,50.078-16.824,165.658-47.323,452.169c-4.356,40.916-5.333,82.123-8.486,123.149
				c-5.223,67.927-6.412,71.615-1.686,78.499c29.639,43.163,140.218-21.942,302.293,3.793
				c90.685,14.4,131.813,47.574,156.657,23.646c28.974-27.904,4.121-102.957-17.273-167.567
				c-24.557-74.162-39.727-75.116-53.666-130.969c-14.57-58.378-5.757-88.436-3.488-180.495
				C3037.075,2039.755,3036.844,1974.201,3029.323,1892.922z"/>
			<g>
				
					<linearGradient id="SVGID_00000023976109834326065810000013887415867994085516_" gradientUnits="userSpaceOnUse" x1="1308.814" y1="2931.3171" x2="1423.8662" y2="2384.8206" gradientTransform="matrix(-1 0 0 1 4299.5825 0)">
					<stop  offset="0" style="stop-color:#AA80F9"/>
					<stop  offset="0.9964" style="stop-color:#6165D7"/>
				</linearGradient>
				<path style="fill:url(#SVGID_00000023976109834326065810000013887415867994085516_);" d="M2808.925,2430.81
					c42.361-3.315,69.843,20.634,106.409,1.97c50.142-25.593,66.253-105.224,63.058-161.584
					c-4.855-85.631-53.751-108.203-45.323-163.555c4.558-29.934,25.93-69.676,102.662-110.278c1.023,34.172,0.828,63.3,0.258,86.441
					c-2.269,92.059-11.082,122.117,3.488,180.495c13.939,55.853,29.109,56.807,53.666,130.969
					c21.394,64.61,46.247,139.663,17.273,167.567c-24.844,23.927-65.973-9.247-156.657-23.646
					c-139.653-22.175-241.016,23.037-285.366,8.374C2721.984,2459.004,2770.592,2433.809,2808.925,2430.81z"/>
			</g>
			
				<linearGradient id="SVGID_00000033367699912660566310000005325077864313817984_" gradientUnits="userSpaceOnUse" x1="1361.8514" y1="1644.9565" x2="1058.7013" y2="3098.4114" gradientTransform="matrix(-1 0 0 1 4299.5825 0)">
				<stop  offset="0" style="stop-color:#AA80F9"/>
				<stop  offset="0.9964" style="stop-color:#6165D7"/>
			</linearGradient>
			<path style="fill:url(#SVGID_00000033367699912660566310000005325077864313817984_);" d="M2971.541,1898.8
				c30.254-24.859,91.087,3.281,107.348,10.802c90.683,41.946,172.104,154.98,151.93,274.433
				c-3.025,17.916-17.055,101.71-88.01,142.312c-64.023,36.635-150.473,27.213-219.739-24.675
				c-9.465-8.4-18.933-16.798-28.399-25.198c-9.312-10.066-18.627-20.132-27.939-30.199c14.639-12.177,39.512-29.743,74.445-41.015
				c46.056-14.862,79.586,11.805,100.955-8.469c14.747-13.992,14.78-38.705,11.139-53.682c-7.34-30.187-33.95-38.676-56.16-60.102
				C2944.93,2032.672,2935.316,1928.566,2971.541,1898.8z"/>
			<g>
				
					<linearGradient id="SVGID_00000146468915031758971530000011397547830507584936_" gradientUnits="userSpaceOnUse" x1="1620.3026" y1="2456.4155" x2="1571.2473" y2="2317.4253" gradientTransform="matrix(-1 0 0 1 4299.5825 0)">
					<stop  offset="0" style="stop-color:#311944"/>
					<stop  offset="1" style="stop-color:#893976"/>
				</linearGradient>
				<polygon style="fill:url(#SVGID_00000146468915031758971530000011397547830507584936_);" points="2536.76,2288.764 
					2942.28,2282.71 2834.445,2334.752 2535.723,2315.201 				"/>
				
					<linearGradient id="SVGID_00000007394159886030151320000001160260260425911182_" gradientUnits="userSpaceOnUse" x1="1406.0018" y1="2255.04" x2="1423.9888" y2="2379.3137" gradientTransform="matrix(-1 0 0 1 4299.5825 0)">
					<stop  offset="0" style="stop-color:#311944"/>
					<stop  offset="1" style="stop-color:#893976"/>
				</linearGradient>
				<path style="fill:url(#SVGID_00000007394159886030151320000001160260260425911182_);" d="M2956.591,2293.486v0.001
					c0,7.589-4.749,14.368-11.881,16.961l-129.577,50.798l-0.59-35.218l127.737-43.32
					C2949.448,2280.649,2956.591,2286.03,2956.591,2293.486z"/>
			</g>
			
				<linearGradient id="SVGID_00000016762467623723583810000016601780216409756334_" gradientUnits="userSpaceOnUse" x1="2792.7705" y1="2274.5476" x2="2894.428" y2="2274.5476">
				<stop  offset="0" style="stop-color:#FFC444"/>
				<stop  offset="0.9964" style="stop-color:#F36F56"/>
			</linearGradient>
			<path style="fill:url(#SVGID_00000016762467623723583810000016601780216409756334_);" d="M2894.148,2269.492
				c2.489-0.556-12.125-29.674-23.597-26.314c-11.47,3.361-67.579,35.879-72.679,49.268c-5.101,13.389-5.101,13.389-5.101,13.389
				s24.476,1.913,39.654-3.187C2847.604,2297.547,2873.91,2274.004,2894.148,2269.492z"/>
			<g>
				<g>
					
						<linearGradient id="SVGID_00000088118744349218296130000003163024688652153218_" gradientUnits="userSpaceOnUse" x1="1762.4048" y1="2265.9246" x2="1666.7646" y2="2130.1157" gradientTransform="matrix(-1 0 0 1 4299.5825 0)">
						<stop  offset="0" style="stop-color:#444B8C"/>
						<stop  offset="0.9964" style="stop-color:#26264F"/>
					</linearGradient>
					<path style="fill:url(#SVGID_00000088118744349218296130000003163024688652153218_);" d="M2803.785,2078.931l28.584,260.26
						c0.986,8.981-11.586,22.359-20.61,21.933l-419.329-25.743c-6.891-0.328-12.628-5.398-13.794-12.197l-52.632-251.366
						c-1.57-9.147,14.873-18.595,24.151-18.336l439.43,12.356C2796.924,2066.046,2802.984,2071.632,2803.785,2078.931z"/>
					
						<linearGradient id="SVGID_00000031924446679358279860000008840584029720933549_" gradientUnits="userSpaceOnUse" x1="1578.95" y1="2490.686" x2="1788.2537" y2="2065.5383" gradientTransform="matrix(-1 0 0 1 4299.5825 0)">
						<stop  offset="0" style="stop-color:#311944"/>
						<stop  offset="1" style="stop-color:#893976"/>
					</linearGradient>
					<path style="fill:url(#SVGID_00000031924446679358279860000008840584029720933549_);" d="M2794.201,2086.519l28.585,260.263
						c0.986,8.98-6.284,16.716-15.309,16.291l-424.632-20.103c-6.889-0.327-12.626-5.398-13.794-12.196l-43.383-252.517
						c-1.571-9.149,5.624-17.447,14.902-17.186l439.431,12.356C2787.339,2073.633,2793.402,2079.223,2794.201,2086.519z"/>
				</g>
				
					<linearGradient id="SVGID_00000155104657960072906970000006537349391531119240_" gradientUnits="userSpaceOnUse" x1="1476.707" y1="2217.812" x2="1936.5178" y2="2217.812" gradientTransform="matrix(-1 0 0 1 4299.5825 0)">
					<stop  offset="0" style="stop-color:#311944"/>
					<stop  offset="1" style="stop-color:#893976"/>
				</linearGradient>
				<path style="opacity:0.3;fill:url(#SVGID_00000155104657960072906970000006537349391531119240_);" d="M2544.858,2281.985
					c37.077-15.715,23.99-45.682,67.774-83.024c57.76-49.262,116.635-27.898,137.245-66.081c6.418-11.893,9.484-30.397-1.696-60.346
					l31.821,0.895c7.337,0.205,13.4,5.794,14.199,13.091l28.585,260.263c0.985,8.979-6.286,16.716-15.309,16.291l-424.632-20.103
					c-6.889-0.327-12.626-5.397-13.794-12.196l-5.987-34.845c12.884-7.17,28.28-13.689,46.244-17.334
					C2471.606,2265.96,2502.171,2300.077,2544.858,2281.985z"/>
			</g>
			
				<linearGradient id="SVGID_00000168116936096491615210000009788008315742614446_" gradientUnits="userSpaceOnUse" x1="2355.9219" y1="2326.5479" x2="2424.5029" y2="2326.5479">
				<stop  offset="0" style="stop-color:#FFC444"/>
				<stop  offset="0.9964" style="stop-color:#F36F56"/>
			</linearGradient>
			<path style="fill:url(#SVGID_00000168116936096491615210000009788008315742614446_);" d="M2356.094,2306.568
				c-0.69-2.097,0.773-4.257,2.979-4.368c8.975-0.458,29.789-0.644,41.28,6.393c14.927,9.144,34.229,25.828,17.974,34.247
				l-15.177,7.863c-0.697,0.361-1.456,0.473-2.221,0.306c-5.393-1.186-28.092-6.221-30.574-7.472
				C2368.094,2342.398,2359.438,2316.715,2356.094,2306.568z"/>
			<g>
				
					<linearGradient id="SVGID_00000064355101909402509730000000831545023692052922_" gradientUnits="userSpaceOnUse" x1="2788.3076" y1="1848.5981" x2="2959.575" y2="1848.5981">
					<stop  offset="0" style="stop-color:#FFC444"/>
					<stop  offset="0.9964" style="stop-color:#F36F56"/>
				</linearGradient>
				<path style="fill:url(#SVGID_00000064355101909402509730000000831545023692052922_);" d="M2876.156,1776.998
					c-0.213,25.42,2.623,45.58,5.306,59.386c3.073,15.819,5.288,19.905,8.114,23.221c4.254,4.992,10.701,9.178,47.127,18.212
					c19.822,4.914,22.372,4.78,22.81,6.747c2.135,9.596-51.917,42.301-107.759,34.418c-34.177-4.823-65.272-24.322-63.364-34.561
					c1.921-10.304,40.655-1.727,50.83-20.369c7.079-12.969,5.259-33.85-4.119-49.097
					C2844.186,1797.936,2867.073,1794.018,2876.156,1776.998z"/>
				<g>
					
						<linearGradient id="SVGID_00000031907944709401882160000002628622481506522521_" gradientUnits="userSpaceOnUse" x1="653.6675" y1="1740.882" x2="589.0101" y2="1576.6641" gradientTransform="matrix(1 0.0037 -0.0037 1 2260.5579 162.9159)">
						<stop  offset="0" style="stop-color:#311944"/>
						<stop  offset="1" style="stop-color:#6B3976"/>
					</linearGradient>
					<path style="fill:url(#SVGID_00000031907944709401882160000002628622481506522521_);" d="M2812.723,1787.049
						c-8.065-10.714-8.563-29.42,0.73-41.244c7.998-10.174,20.583-11.625,28.118-12.497c21.834-2.521,49.383,6.594,58.966,26.689
						c5.678,11.909-6.605,36.653-8.528,41.102c-2.179,5.03-6.126,6.755-9.78,10.559c-5.062,5.274-12.988,13.661-25.925,27.687
						c-1.005-4.139-2.534-9.263-4.961-14.816c-0.935-2.138-4.688-10.487-10.369-17.409
						C2829.596,1793.244,2820.369,1797.203,2812.723,1787.049z"/>
					
						<linearGradient id="SVGID_00000137129116141714552310000001476972595733323141_" gradientUnits="userSpaceOnUse" x1="2849.4832" y1="1783.0176" x2="2855.752" y2="1970.0377">
						<stop  offset="0" style="stop-color:#FFC444"/>
						<stop  offset="0.9964" style="stop-color:#F36F56"/>
					</linearGradient>
					<path style="fill:url(#SVGID_00000137129116141714552310000001476972595733323141_);" d="M2874.759,1827.551
						c0,0-14.354,23.548-42.932,21.689c-25.587-1.666-29.335-59.047-12.992-71.223c5.453-4.062,16.372-5.749,25.251-3.261
						c5.244,1.47,7.021,3.649,15.635,5.883c7.948,2.063,10.191,1.182,12.591,3.199c3,2.526,5.198,8.717,0.188,25.491
						c4.882-4.943,10.741-6.84,14.894-4.879c0.661,0.314,2.419,1.508,3.408,3.32
						C2894.379,1814.323,2888.393,1822.693,2874.759,1827.551z"/>
				</g>
			</g>
		</g>
		<g>
			<g>
				
					<linearGradient id="SVGID_00000016787698417610981880000012657446555516647056_" gradientUnits="userSpaceOnUse" x1="-330.5518" y1="166.7633" x2="341.6563" y2="166.7633" gradientTransform="matrix(0.8789 -0.477 0.477 0.8789 735.7575 1065.7847)">
					<stop  offset="0" style="stop-color:#444B8C"/>
					<stop  offset="0.9964" style="stop-color:#26264F"/>
				</linearGradient>
				<path style="fill:url(#SVGID_00000016787698417610981880000012657446555516647056_);" d="M1099.941,1256.233
					c28.328-0.779,50.61-26.276,49.768-56.951c-0.844-30.674-24.492-54.909-52.821-54.131c-1.469,0.041-2.909,0.186-4.342,0.357
					c-3.096-15.546-7.264-30.645-12.459-45.193c1.271-0.695,2.537-1.409,3.772-2.23c24.112-16.011,31.584-50.209,16.689-76.385
					c-14.895-26.177-46.516-34.416-70.628-18.404c-1.26,0.838-2.448,1.753-3.616,2.684c-9.765-11.678-20.345-22.52-31.65-32.436
					c0.795-1.315,1.572-2.649,2.274-4.057c13.435-26.953,4.095-60.691-20.86-75.354c-24.954-14.662-56.075-4.698-69.51,22.255
					c-0.687,1.382-1.277,2.789-1.846,4.203c-13.7-4.817-27.851-8.492-42.357-10.982c0.078-1.559,0.133-3.126,0.09-4.714
					c-0.843-30.675,0.853-65.602-27.46-64.381c-65.497,2.828-75.971,36.526-75.128,67.2c0.044,1.589,0.185,3.149,0.349,4.702
					c-14.347,3.284-28.275,7.73-41.69,13.293c-0.647-1.38-1.312-2.752-2.076-4.094c-14.894-26.175-14.815-44.758-40.517-31.448
					c-56.047,29.026-61.693,63.256-46.799,89.43c0.778,1.369,1.628,2.658,2.494,3.927c-10.744,10.522-20.712,21.929-29.821,34.126
					c-1.218-0.866-2.454-1.714-3.758-2.482c-24.955-14.663-56.075-4.699-69.51,22.256c-13.434,26.955-4.095,60.692,20.86,75.354
					c1.279,0.751,2.582,1.396,3.889,2.02c-4.389,14.811-7.721,30.116-9.959,45.809c-1.44-0.091-2.887-0.159-4.354-0.118
					c-28.329,0.778-50.61,26.276-49.768,56.951c0.843,30.674,24.492,54.909,52.821,54.131c1.468-0.04,2.909-0.187,4.342-0.356
					c3.096,15.546,7.264,30.644,12.459,45.193c-1.271,0.695-2.537,1.409-3.772,2.228c-24.112,16.013-31.584,50.211-16.689,76.387
					c14.894,26.176,46.516,34.413,70.628,18.402c1.26-0.835,2.447-1.75,3.616-2.682c9.765,11.678,20.345,22.521,31.65,32.437
					c-0.795,1.314-1.572,2.649-2.274,4.057c-13.435,26.953-4.095,60.691,20.86,75.354c24.954,14.663,73.912,1.194,87.347-25.76
					c0.689-1.381-16.56,0.715-15.991-0.698c13.701,4.817,27.852,8.492,42.357,10.982c-0.078,1.559-0.134,3.125-0.09,4.714
					c0.842,30.674,24.492,54.909,52.82,54.131c28.329-0.779,50.61-26.276,49.767-56.951c-0.044-1.589-0.185-3.15-0.349-4.702
					c14.346-3.284,28.275-7.73,41.689-13.293c0.647,1.379,1.312,2.753,2.076,4.094c14.894,26.175,46.515,34.415,70.627,18.403
					c24.112-16.012,31.584-50.211,16.689-76.386c-0.778-1.368-1.627-2.657-2.494-3.926c10.744-10.522,20.712-21.929,29.821-34.127
					c1.218,0.868,2.454,1.715,3.758,2.48c24.955,14.663,56.075,4.701,69.51-22.255c13.434-26.954,4.095-60.691-20.86-75.355
					c-1.279-0.75-2.582-1.394-3.889-2.017c4.389-14.812,7.722-30.116,9.958-45.809
					C1097.026,1256.206,1098.473,1256.273,1099.941,1256.233z M824.996,1410.016c-102.855,2.827-188.718-85.164-191.779-196.536
					c-3.062-111.373,77.837-203.948,180.693-206.776c102.856-2.826,188.719,85.165,191.779,196.537
					C1008.752,1314.613,927.853,1407.189,824.996,1410.016z"/>
				
					<linearGradient id="SVGID_00000035511808304519052650000005049561704150359474_" gradientUnits="userSpaceOnUse" x1="-61.5737" y1="196.6368" x2="341.6563" y2="196.6368" gradientTransform="matrix(0.8789 -0.477 0.477 0.8789 735.7575 1065.7847)">
					<stop  offset="0" style="stop-color:#444B8C"/>
					<stop  offset="0.9964" style="stop-color:#26264F"/>
				</linearGradient>
				<path style="fill:url(#SVGID_00000035511808304519052650000005049561704150359474_);" d="M1083.859,1098.086
					c24.111-16.012,31.583-50.211,16.689-76.386c-14.894-26.176-46.516-34.417-70.628-18.404c-1.26,0.837-2.448,1.753-3.616,2.684
					c-9.765-11.678-20.345-22.52-31.649-32.436c0.795-1.314,1.572-2.649,2.273-4.058c13.435-26.953,20.336-78.207-5.991-90.232
					c-49.967-22.824-70.943,10.181-84.378,37.133c-0.687,1.382-1.277,2.789-1.846,4.202c-13.7-4.818-27.851-8.491-42.357-10.983
					c0.078-1.559,0.134-3.125,0.09-4.714c-0.458-16.694-7.704-31.442-18.751-41.327c-0.936,48.217-1.505,96.436-1.595,144.656
					c89.913,12.221,160.815,93.998,163.592,195.019c2.353,85.605-44.924,160.052-113.622,191.227
					c1.203,9.252,2.481,18.517,3.435,27.808c2.588,25.215,3.78,50.641,4.945,76.046c6.76-2.172,13.414-4.605,19.942-7.312
					c0.646,1.381,1.311,2.754,2.075,4.095c14.895,26.176,43.165,39.939,87.765,12.578c24.671-15.136,14.447-44.386-0.448-70.561
					c-0.778-1.368-1.627-2.657-2.493-3.926c10.743-10.521,20.711-21.93,29.82-34.126c1.218,0.868,2.454,1.715,3.758,2.48
					c24.955,14.664,75.524-0.799,88.958-27.753c13.435-26.955-15.354-55.191-40.308-69.856c-1.279-0.75-2.582-1.395-3.89-2.018
					c4.389-14.811,7.721-30.116,9.959-45.808c1.44,0.092,2.887,0.158,4.354,0.117c28.329-0.777,50.61-26.276,49.768-56.951
					c-0.843-30.673-24.492-54.909-52.821-54.131c-1.469,0.041-2.908,0.187-4.341,0.357c-3.096-15.546-7.265-30.646-12.459-45.192
					C1081.357,1099.62,1082.623,1098.905,1083.859,1098.086z"/>
				
					<linearGradient id="SVGID_00000019653892155621073630000012016412228067189393_" gradientUnits="userSpaceOnUse" x1="-303.3734" y1="168.3226" x2="368.8356" y2="168.3226" gradientTransform="matrix(0.8789 -0.477 0.477 0.8789 735.7575 1065.7847)">
					<stop  offset="0" style="stop-color:#AA80F9"/>
					<stop  offset="0.9964" style="stop-color:#6165D7"/>
				</linearGradient>
				<path style="fill:url(#SVGID_00000019653892155621073630000012016412228067189393_);" d="M1125.302,1245.984
					c28.328-0.779,50.61-26.277,49.767-56.95c-0.844-30.674-24.492-54.909-52.821-54.131c-1.468,0.04-2.909,0.186-4.342,0.356
					c-3.096-15.546-7.264-30.646-12.46-45.193c1.271-0.695,2.537-1.409,3.772-2.23c24.112-16.011,31.584-50.21,16.69-76.386
					c-14.895-26.176-46.516-34.416-70.628-18.404c-1.26,0.838-2.448,1.753-3.616,2.684c-9.765-11.678-20.345-22.52-31.65-32.436
					c0.796-1.315,1.573-2.649,2.275-4.058c13.434-26.953,4.095-60.691-20.86-75.354c-24.955-14.663-56.076-4.698-69.51,22.255
					c-0.688,1.382-1.278,2.79-1.847,4.203c-13.7-4.818-27.852-8.492-42.357-10.983c0.078-1.559,0.134-3.125,0.09-4.714
					c-0.844-30.674-24.492-54.909-52.821-54.132c-28.329,0.779-50.611,26.278-49.767,56.952c0.044,1.589,0.185,3.149,0.349,4.702
					c-14.347,3.284-28.275,7.73-41.69,13.293c-0.646-1.38-1.312-2.754-2.075-4.095c-14.895-26.174-46.516-34.414-70.628-18.403
					c-24.112,16.011-31.584,50.211-16.689,76.385c0.779,1.368,1.629,2.658,2.495,3.927c-10.743,10.521-20.711,21.929-29.82,34.125
					c-1.218-0.866-2.454-1.714-3.758-2.482c-24.955-14.663-56.076-4.699-69.51,22.256c-13.435,26.956-4.095,60.691,20.86,75.354
					c1.278,0.752,2.581,1.396,3.889,2.019c-4.389,14.812-7.721,30.116-9.959,45.808c-1.44-0.09-2.887-0.158-4.355-0.116
					c-28.329,0.778-50.61,26.276-49.767,56.95c0.843,30.674,24.492,54.909,52.82,54.131c1.467-0.041,2.908-0.187,4.342-0.356
					c3.096,15.546,7.263,30.645,12.459,45.193c-1.271,0.694-2.537,1.409-3.773,2.228c-24.111,16.013-31.583,50.211-16.689,76.387
					c14.895,26.176,46.516,34.414,70.628,18.403c1.261-0.836,2.448-1.751,3.616-2.682c9.765,11.677,20.345,22.521,31.65,32.436
					c-0.796,1.314-1.574,2.648-2.275,4.057c-13.434,26.953-4.095,60.691,20.86,75.353c24.955,14.663,56.076,4.698,69.51-22.255
					c0.689-1.381,1.278-2.789,1.847-4.202c13.7,4.817,27.852,8.492,42.357,10.983c-0.079,1.559-0.134,3.126-0.09,4.714
					c0.843,30.674,24.492,54.909,52.82,54.131c28.329-0.779,50.611-26.277,49.768-56.951c-0.044-1.589-0.185-3.15-0.349-4.702
					c14.346-3.284,28.275-7.73,41.689-13.293c0.646,1.38,1.311,2.753,2.075,4.095c14.895,26.174,46.516,34.413,70.628,18.402
					c24.112-16.011,31.584-50.211,16.689-76.385c-0.778-1.368-1.628-2.657-2.494-3.926c10.744-10.522,20.711-21.929,29.82-34.126
					c1.218,0.866,2.454,1.715,3.758,2.48c24.956,14.663,56.076,4.7,69.51-22.254c13.435-26.955,4.095-60.691-20.86-75.355
					c-1.278-0.75-2.581-1.394-3.889-2.018c4.389-14.812,7.721-30.117,9.958-45.809
					C1122.388,1245.957,1123.833,1246.024,1125.302,1245.984z M850.358,1399.766c-102.856,2.828-188.718-85.164-191.78-196.537
					c-3.061-111.372,77.839-203.948,180.694-206.775c102.856-2.828,188.719,85.165,191.78,196.537
					C1034.113,1304.364,953.213,1396.939,850.358,1399.766z"/>
			</g>
			<g>
				
					<linearGradient id="SVGID_00000070099636578143485130000013717121775556756654_" gradientUnits="userSpaceOnUse" x1="1053.1206" y1="617.6554" x2="1539.6146" y2="617.6554" gradientTransform="matrix(0.9729 -0.231 0.231 0.9729 -26.0642 466.9115)">
					<stop  offset="0" style="stop-color:#444B8C"/>
					<stop  offset="0.9964" style="stop-color:#26264F"/>
				</linearGradient>
				<path style="fill:url(#SVGID_00000070099636578143485130000013717121775556756654_);" d="M1564.492,853.733
					c19.937,4.809,40.32-8.793,45.528-30.381c5.207-21.588-6.734-42.987-26.671-47.795c-1.033-0.249-2.067-0.42-3.1-0.571
					c0.775-11.445,0.716-22.781-0.165-33.925c1.019-0.245,2.039-0.505,3.056-0.845c19.869-6.629,31.551-29.107,26.092-50.208
					c-5.459-21.101-25.992-32.832-45.862-26.202c-1.038,0.347-2.041,0.762-3.033,1.192c-4.615-10.003-9.957-19.577-15.981-28.64
					c0.804-0.768,1.599-1.553,2.355-2.405c14.478-16.291,14.329-41.624-0.334-56.583c-14.662-14.958-38.286-13.878-52.764,2.413
					c-0.741,0.835-1.419,1.707-2.084,2.587c-8.66-5.954-17.852-11.195-27.515-15.676c0.349-1.074,0.684-2.158,0.954-3.276
					c5.207-21.588,12.992-45.668-7.018-50.164c-46.289-10.4-59.974,11.161-65.181,32.749c-0.27,1.118-0.466,2.235-0.644,3.351
					c-10.643-0.417-21.213,0.057-31.635,1.409c-0.191-1.086-0.397-2.171-0.676-3.253c-5.459-21.1-1.893-34.066-22.363-29.625
					c-44.638,9.687-55.05,32.532-49.591,53.631c0.285,1.103,0.635,2.164,1,3.215c-9.493,5.32-18.612,11.406-27.281,18.205
					c-0.687-0.835-1.39-1.661-2.156-2.444c-14.662-14.959-38.285-13.878-52.764,2.413c-14.478,16.292-14.328,41.624,0.334,56.582
					c0.751,0.767,1.54,1.463,2.335,2.146c-5.865,9.518-11.084,19.58-15.613,30.12c-0.989-0.336-1.987-0.656-3.019-0.905
					c-19.937-4.809-40.321,8.793-45.528,30.381c-5.207,21.588,6.734,42.987,26.671,47.796c1.033,0.249,2.068,0.419,3.1,0.572
					c-0.775,11.445-0.716,22.78,0.165,33.925c-1.019,0.245-2.039,0.505-3.056,0.844c-19.87,6.63-31.552,29.109-26.093,50.209
					c5.459,21.1,25.992,32.83,45.862,26.201c1.038-0.346,2.04-0.76,3.033-1.191c4.615,10.004,9.957,19.577,15.981,28.64
					c-0.804,0.768-1.599,1.553-2.355,2.405c-14.478,16.29-14.329,41.624,0.334,56.583c14.662,14.958,51.408,14.8,65.886-1.491
					c0.742-0.835-11.704-2.629-11.039-3.509c8.661,5.954,17.852,11.195,27.515,15.676c-0.349,1.074-0.684,2.158-0.954,3.276
					c-5.208,21.588,6.734,42.987,26.671,47.796c19.937,4.809,40.321-8.793,45.527-30.381c0.27-1.118,0.466-2.236,0.645-3.35
					c10.643,0.417,21.213-0.057,31.635-1.409c0.191,1.086,0.396,2.171,0.676,3.252c5.459,21.1,25.992,32.831,45.862,26.202
					c19.869-6.63,31.552-29.109,26.092-50.208c-0.285-1.103-0.635-2.164-1.001-3.214c9.494-5.32,18.613-11.406,27.281-18.205
					c0.687,0.836,1.39,1.662,2.157,2.443c14.662,14.959,38.285,13.88,52.764-2.412c14.478-16.292,14.328-41.624-0.334-56.583
					c-0.752-0.765-1.54-1.461-2.336-2.144c5.865-9.518,11.085-19.58,15.613-30.12
					C1562.461,853.163,1563.459,853.483,1564.492,853.733z M1343.363,909.211c-72.387-17.46-115.743-95.154-96.837-173.535
					c18.906-78.382,92.913-127.767,165.301-110.307c72.387,17.461,115.744,95.154,96.837,173.535
					C1489.758,877.285,1415.751,926.671,1343.363,909.211z"/>
				
					<linearGradient id="SVGID_00000120535124381371558090000006350956962547152512_" gradientUnits="userSpaceOnUse" x1="1247.7784" y1="639.2781" x2="1539.6146" y2="639.2781" gradientTransform="matrix(0.9729 -0.231 0.231 0.9729 -26.0642 466.9115)">
					<stop  offset="0" style="stop-color:#444B8C"/>
					<stop  offset="0.9964" style="stop-color:#26264F"/>
				</linearGradient>
				<path style="fill:url(#SVGID_00000120535124381371558090000006350956962547152512_);" d="M1583.14,740.215
					c19.869-6.63,31.551-29.109,26.092-50.209c-5.459-21.1-25.992-32.832-45.862-26.202c-1.038,0.346-2.041,0.762-3.033,1.192
					c-4.615-10.004-9.957-19.576-15.981-28.639c0.804-0.767,1.599-1.553,2.355-2.405c14.478-16.29,28.984-50.792,12.864-64.167
					c-30.594-25.386-51.484-6.293-65.962,9.997c-0.741,0.835-1.419,1.707-2.084,2.587c-8.66-5.954-17.852-11.194-27.515-15.676
					c0.349-1.074,0.684-2.158,0.954-3.276c2.834-11.749,0.559-23.42-5.29-32.413c-9.765,33.507-19.273,67.084-28.448,100.753
					c60.503,25.527,94.581,96.052,77.433,167.149c-14.532,60.247-61.626,103.321-115.508,112.118
					c-0.908,6.691-1.766,13.404-2.855,20.076c-2.957,18.104-6.928,36.091-10.914,54.059c5.133-0.24,10.241-0.682,15.313-1.34
					c0.19,1.087,0.396,2.172,0.676,3.253c5.459,21.1,22.608,36.057,58.934,25.37c20.095-5.912,18.479-28.277,13.02-49.377
					c-0.285-1.102-0.635-2.164-1-3.214c9.493-5.32,18.612-11.406,27.28-18.205c0.687,0.836,1.39,1.662,2.157,2.443
					c14.662,14.96,52.911,13.712,67.389-2.579c14.479-16.292-0.297-41.457-14.959-56.417c-0.752-0.766-1.54-1.462-2.336-2.145
					c5.865-9.517,11.085-19.58,15.613-30.119c0.989,0.337,1.987,0.656,3.02,0.904c19.937,4.81,40.32-8.793,45.528-30.381
					c5.207-21.587-6.734-42.987-26.671-47.795c-1.033-0.249-2.067-0.419-3.1-0.571c0.775-11.445,0.716-22.781-0.164-33.925
					C1581.103,740.814,1582.122,740.554,1583.14,740.215z"/>
				
					<linearGradient id="SVGID_00000167376226869052152740000000961966118668690098_" gradientUnits="userSpaceOnUse" x1="1072.7902" y1="618.7844" x2="1559.2847" y2="618.7844" gradientTransform="matrix(0.9729 -0.231 0.231 0.9729 -26.0642 466.9115)">
					<stop  offset="0" style="stop-color:#AA80F9"/>
					<stop  offset="0.9964" style="stop-color:#6165D7"/>
				</linearGradient>
				<path style="fill:url(#SVGID_00000167376226869052152740000000961966118668690098_);" d="M1584.146,851.365
					c19.937,4.809,40.32-8.793,45.528-30.381c5.207-21.588-6.734-42.987-26.671-47.796c-1.033-0.249-2.067-0.419-3.1-0.571
					c0.774-11.445,0.716-22.781-0.165-33.925c1.019-0.245,2.039-0.505,3.056-0.845c19.87-6.629,31.551-29.108,26.093-50.208
					c-5.459-21.101-25.992-32.832-45.862-26.202c-1.039,0.347-2.041,0.762-3.033,1.192c-4.615-10.003-9.958-19.577-15.981-28.64
					c0.804-0.768,1.599-1.554,2.356-2.405c14.478-16.291,14.329-41.624-0.334-56.582c-14.663-14.959-38.286-13.878-52.764,2.412
					c-0.742,0.836-1.42,1.707-2.084,2.587c-8.66-5.954-17.852-11.195-27.514-15.676c0.349-1.074,0.684-2.158,0.954-3.276
					c5.207-21.588-6.734-42.987-26.671-47.796c-19.938-4.809-40.321,8.794-45.528,30.382c-0.27,1.118-0.466,2.235-0.645,3.351
					c-10.643-0.417-21.213,0.057-31.635,1.409c-0.191-1.087-0.396-2.172-0.676-3.253c-5.46-21.1-25.992-32.831-45.862-26.201
					c-19.87,6.629-31.552,29.109-26.092,50.208c0.286,1.103,0.636,2.164,1.001,3.215c-9.493,5.32-18.612,11.406-27.28,18.205
					c-0.687-0.835-1.391-1.661-2.156-2.444c-14.663-14.959-38.286-13.878-52.764,2.413c-14.479,16.292-14.329,41.624,0.334,56.583
					c0.75,0.767,1.539,1.463,2.335,2.145c-5.865,9.518-11.085,19.58-15.613,30.119c-0.989-0.335-1.987-0.655-3.02-0.904
					c-19.937-4.809-40.321,8.793-45.527,30.381c-5.207,21.588,6.734,42.987,26.671,47.796c1.033,0.249,2.067,0.419,3.1,0.571
					c-0.775,11.445-0.717,22.78,0.165,33.925c-1.019,0.245-2.039,0.505-3.057,0.844c-19.869,6.63-31.551,29.109-26.093,50.209
					c5.459,21.101,25.993,32.831,45.862,26.201c1.039-0.346,2.041-0.76,3.033-1.191c4.615,10.003,9.957,19.577,15.981,28.64
					c-0.804,0.768-1.6,1.553-2.356,2.405c-14.478,16.29-14.328,41.624,0.334,56.582c14.663,14.959,38.286,13.878,52.764-2.413
					c0.742-0.835,1.42-1.707,2.085-2.587c8.66,5.954,17.852,11.195,27.514,15.676c-0.349,1.074-0.684,2.158-0.954,3.276
					c-5.207,21.587,6.734,42.987,26.671,47.795c19.938,4.809,40.321-8.794,45.528-30.381c0.27-1.118,0.466-2.236,0.645-3.35
					c10.643,0.417,21.213-0.057,31.635-1.409c0.191,1.086,0.396,2.171,0.676,3.253c5.46,21.1,25.993,32.83,45.862,26.201
					c19.87-6.629,31.552-29.109,26.092-50.208c-0.285-1.103-0.635-2.164-1-3.214c9.494-5.32,18.612-11.406,27.28-18.205
					c0.687,0.835,1.39,1.662,2.157,2.443c14.663,14.959,38.286,13.879,52.764-2.412c14.479-16.292,14.328-41.624-0.334-56.583
					c-0.751-0.765-1.54-1.462-2.336-2.144c5.865-9.518,11.084-19.58,15.613-30.12
					C1582.115,850.796,1583.112,851.116,1584.146,851.365z M1363.016,906.843c-72.388-17.46-115.743-95.154-96.838-173.535
					c18.906-78.381,92.914-127.767,165.301-110.307c72.388,17.46,115.743,95.154,96.838,173.535
					C1509.411,874.917,1435.403,924.303,1363.016,906.843z"/>
			</g>
		</g>
		<g>
			<g>
				
					<linearGradient id="SVGID_00000049180782485776280600000002748143225805242047_" gradientUnits="userSpaceOnUse" x1="936.0083" y1="1740.4069" x2="1015.2307" y2="2031.2753">
					<stop  offset="0" style="stop-color:#FF9085"/>
					<stop  offset="1" style="stop-color:#FB6FBB"/>
				</linearGradient>
				<path style="fill:url(#SVGID_00000049180782485776280600000002748143225805242047_);" d="M1131.36,2034.521
					c-24.682,15.713-54.838,27.013-91.668,31.816c-243.825,31.78-318.649,56.498-338.6-74.154c0,0,68.292-100.214,308.409-128.675
					c240.118-28.461,157.136-164.057,173.026-158.76c5.262,1.66,10.418,1.413,15.325,4.944h0.036
					c21.292,7.062,37.606,9.216,37.606,9.216S1270.135,1946.313,1131.36,2034.521z"/>
				
					<linearGradient id="SVGID_00000162344624095780545290000008690087764630003131_" gradientUnits="userSpaceOnUse" x1="1032.6133" y1="1725.4417" x2="1107.2291" y2="1999.3972">
					<stop  offset="0" style="stop-color:#FF9085"/>
					<stop  offset="1" style="stop-color:#FB6FBB"/>
				</linearGradient>
				<path style="opacity:0.3;fill:url(#SVGID_00000162344624095780545290000008690087764630003131_);" d="M1131.36,2034.521
					c-92.198,2.86-249.087-7.38-245.132-111.09c0,0,124.826-37.96,195.837-45.234c71.047-7.239,106.359-11.759,109.89-94.07
					c1.59-36.971,3.885-60.312,5.897-74.436h0.036c21.292,7.062,37.606,9.216,37.606,9.216S1270.135,1946.313,1131.36,2034.521z"/>
			</g>
			<g>
				
					<linearGradient id="SVGID_00000142149119542499496560000008501131446777399726_" gradientUnits="userSpaceOnUse" x1="1691.8843" y1="857.0408" x2="718.8394" y2="2861.8472">
					<stop  offset="0" style="stop-color:#AB316D"/>
					<stop  offset="1" style="stop-color:#792D3D"/>
				</linearGradient>
				<path style="fill:url(#SVGID_00000142149119542499496560000008501131446777399726_);" d="M1676.887,1255.342
					c0-22.755-17.902-41.741-40.895-42.409l-476.79-13.873c-26.232-0.763-47.298,18.485-47.298,42.995v476.223
					c0,24.51,21.394,43.472,47.625,42.359l476.721-20.24c22.992-0.975,40.637-20.186,40.637-42.941V1255.342z"/>
				
					<linearGradient id="SVGID_00000177463755179105702690000012497570421959559555_" gradientUnits="userSpaceOnUse" x1="1708.8674" y1="858.3317" x2="738.0725" y2="2858.5024">
					<stop  offset="0" style="stop-color:#FFC444"/>
					<stop  offset="0.9964" style="stop-color:#F36F56"/>
				</linearGradient>
				<path style="fill:url(#SVGID_00000177463755179105702690000012497570421959559555_);" d="M1694.543,1255.735v441.087
					c0,1.163-0.055,2.328-0.166,3.467c-1.745,21.17-19.462,38.484-41.185,39.405l-475.256,20.146
					c-26.108,1.108-48.376-17.796-48.376-42.251v-475.075c0-22.844,19.264-41.128,43.009-42.789c1.685-0.129,3.706-0.169,5.42-0.12
					l475.038,13.808C1675.919,1214.08,1694.543,1233.03,1694.543,1255.735z"/>
				<g>
					<path style="fill:#FFFFFF;" d="M1606.401,1586.484l-90.231-123.612c-0.92-1.26-2.479-2.013-4.15-2.006
						c-1.672,0.007-3.234,0.776-4.156,2.045l-53.01,73.015l-88.459-119.344c-0.957-1.291-2.579-2.069-4.317-2.072
						c-1.74-0.003-3.363,0.771-4.322,2.06l-132.46,178.098c-1.086,1.461-1.182,3.9-0.245,5.396c0.934,1.495,2.747,2.995,4.719,2.951
						l180.183-4.064l89.268-2.014l103.129-2.326c1.786-0.04,3.427-1.543,4.273-3.004
						C1607.466,1590.145,1607.382,1587.829,1606.401,1586.484z"/>
					<path style="fill:#FFFFFF;" d="M1540.26,1384.215c0,21.15-17.548,38.284-39.309,38.27
						c-21.887-0.014-39.725-17.353-39.725-38.727s17.837-38.506,39.725-38.268C1522.712,1345.728,1540.26,1363.065,1540.26,1384.215
						z"/>
				</g>
				
					<linearGradient id="SVGID_00000091696006120588710320000018351915286320016524_" gradientUnits="userSpaceOnUse" x1="1578.8525" y1="1126.2072" x2="883.6512" y2="2558.5603">
					<stop  offset="0" style="stop-color:#FFC444"/>
					<stop  offset="0.9964" style="stop-color:#F36F56"/>
				</linearGradient>
				<path style="opacity:0.2;fill:url(#SVGID_00000091696006120588710320000018351915286320016524_);" d="M1694.376,1700.29
					c-1.745,21.17-19.462,38.484-41.185,39.405l-475.256,20.146c-26.108,1.108-48.376-17.796-48.376-42.251v-475.075
					c0-22.844,19.264-41.128,43.009-42.789c8.95,99.928,46.551,264.393,191.756,278.757
					C1519.432,1493.807,1660.41,1600.214,1694.376,1700.29z"/>
			</g>
			
				<linearGradient id="SVGID_00000069394190965293982310000012412976187658669246_" gradientUnits="userSpaceOnUse" x1="-483.8787" y1="1815.2122" x2="-443.789" y2="2100.1367" gradientTransform="matrix(-1 0 0 1 1013.1603 0)">
				<stop  offset="0" style="stop-color:#FFC444"/>
				<stop  offset="0.9964" style="stop-color:#F36F56"/>
			</linearGradient>
			<path style="fill:url(#SVGID_00000069394190965293982310000012412976187658669246_);" d="M1492.695,1746.466l13.807-53.365
				c0,0-13.276-20.475-6.904-41.379c6.373-20.904,2.542-13.459,7.679,0c5.137,13.459,15.285-9.331,23.211-30.092
				c7.925-20.761,11.99,11.154,10.057,30.092c-1.933,18.938-2.647,30.207-13.957,44.026c-11.31,13.818-9.043,62.961-9.043,62.961
				L1492.695,1746.466z"/>
			<path style="fill:#26264F;" d="M709.129,3215.544c-0.441-11.759-28.776-9.395-47.343-7.615
				c-18.569,1.78-26.745,9.232-29.646,16.193c-2.901,6.959-0.723,24.141,16.43,16.94
				C662.649,3235.152,709.519,3225.938,709.129,3215.544z"/>
			
				<linearGradient id="SVGID_00000074429761286847708520000016208240251043790506_" gradientUnits="userSpaceOnUse" x1="322.3806" y1="3086.4785" x2="382.9635" y2="3266.7854" gradientTransform="matrix(-1 0 0 1 1013.1603 0)">
				<stop  offset="0" style="stop-color:#FFC444"/>
				<stop  offset="0.9964" style="stop-color:#F36F56"/>
			</linearGradient>
			<path style="fill:url(#SVGID_00000074429761286847708520000016208240251043790506_);" d="M674.993,3169.993l-13.207,45.552
				c0,0-13.216,9.078-17.557,4.561l4.92-52.499L674.993,3169.993z"/>
			
				<linearGradient id="SVGID_00000134213165846385287530000005392585050023955098_" gradientUnits="userSpaceOnUse" x1="244.7873" y1="3113.2068" x2="304.9226" y2="3292.1816" gradientTransform="matrix(-1 0 0 1 1013.1603 0)">
				<stop  offset="0" style="stop-color:#FFC444"/>
				<stop  offset="0.9964" style="stop-color:#F36F56"/>
			</linearGradient>
			<polygon style="fill:url(#SVGID_00000134213165846385287530000005392585050023955098_);" points="768.301,3143.04 
				724.564,3162.118 731.906,3184.249 775.706,3172.857 			"/>
			<path style="fill:#26264F;" d="M770.791,3228.93c0,0-29.144,7.539-42.035-9.682c-8.289-11.073-15.188-29.881-19.057-41.898
				c-2.101-6.525,1.2-13.534,7.568-16.073c9.246-3.686,21.821-7.663,27.181-4.647c8.968,5.044,0.561,38.57,4.484,47.309
				C752.856,3212.677,771.911,3218.281,770.791,3228.93z"/>
			
				<linearGradient id="SVGID_00000051369877933811682950000014084241665005498520_" gradientUnits="userSpaceOnUse" x1="489.5591" y1="2994.0261" x2="205.1103" y2="2673.3054" gradientTransform="matrix(-1 0 0 1 1013.1603 0)">
				<stop  offset="0" style="stop-color:#AA80F9"/>
				<stop  offset="0.9964" style="stop-color:#6165D7"/>
			</linearGradient>
			<path style="fill:url(#SVGID_00000051369877933811682950000014084241665005498520_);" d="M838.757,2461.257
				c-6.591,105.665-21.143,228.077-50.113,362.243c-30.199,139.852-69.434,261.769-108.816,363.675
				c-3.799,1.818-10.568,4.449-19.379,4.703c-10.313,0.297-18.196-2.818-22.143-4.703c-7.154-54.467-10.839-100.443-12.886-134.588
				c-5.41-90.175-7.863-136.358,4.416-190.014c11.522-50.35,20.784-46.421,32.811-102.071
				c10.695-49.49,10.926-87.555,10.946-143.294c0.014-38.272-1.739-89.962-9.133-151.3
				C722.559,2464.359,780.658,2462.807,838.757,2461.257z"/>
			
				<linearGradient id="SVGID_00000170999169196912012260000012738939437299264130_" gradientUnits="userSpaceOnUse" x1="489.5592" y1="2994.0261" x2="205.1102" y2="2673.3054" gradientTransform="matrix(-1 0 0 1 1013.1603 0)">
				<stop  offset="0" style="stop-color:#AA80F9"/>
				<stop  offset="0.9964" style="stop-color:#6165D7"/>
			</linearGradient>
			<path style="opacity:0.3;fill:url(#SVGID_00000170999169196912012260000012738939437299264130_);" d="M674.102,3149.948
				c11.582-37.296-11.252-54.33-8.591-101.657c3.248-57.823,38.858-59.551,50.113-124.566c9.043-52.247-12.976-56.76-7.159-120.27
				c6.181-67.498,32.77-81.184,27.204-121.702c-3.095-22.528-16.233-53.256-62.292-86.721c-0.616-35.233-2.858-78.866-8.916-129.125
				c58.099-1.549,116.197-3.101,174.297-4.65c-6.591,105.665-21.143,228.077-50.113,362.243
				c-30.199,139.852-69.434,261.769-108.816,363.675c-3.799,1.818-10.568,4.449-19.379,4.703c-4.675,0.135-8.765-0.475-12.301-1.312
				C659.135,3179.915,668.932,3166.592,674.102,3149.948z"/>
			
				<linearGradient id="SVGID_00000059300587112551172320000008946210440575497651_" gradientUnits="userSpaceOnUse" x1="131.8603" y1="2811.2146" x2="-288.1305" y2="2732.9438" gradientTransform="matrix(-1 0 0 1 1013.1603 0)">
				<stop  offset="0" style="stop-color:#AA80F9"/>
				<stop  offset="0.9964" style="stop-color:#6165D7"/>
			</linearGradient>
			<path style="fill:url(#SVGID_00000059300587112551172320000008946210440575497651_);" d="M980.505,2442.644
				c2.115,25.464,6.264,64.017,15.178,110.318c20.098,104.404,43.168,137.844,49.253,206.108
				c7.094,79.602-14.641,142.256-22.909,166.088c-56.438,162.687-211.41,238.41-252.42,256.956
				c-4.631-15.017-9.263-30.034-13.893-45.051c10.316-13.798,25.598-36.008,40.008-65.429
				c24.602-50.233,26.255-79.828,43.036-129.294c30.274-89.244,53.281-76.606,58.809-122.046
				c8.759-72.012-49.35-101.086-101.762-238.765c-15.02-39.452-23.8-72.663-28.636-93.066
				C838.28,2473.189,909.392,2457.916,980.505,2442.644z"/>
			
				<linearGradient id="SVGID_00000090296712001830847430000012682312109517421459_" gradientUnits="userSpaceOnUse" x1="-206.6223" y1="1549.1161" x2="54.9172" y2="2509.3696" gradientTransform="matrix(-1 0 0 1 1013.1603 0)">
				<stop  offset="0" style="stop-color:#FF9085"/>
				<stop  offset="1" style="stop-color:#FB6FBB"/>
			</linearGradient>
			<path style="fill:url(#SVGID_00000090296712001830847430000012682312109517421459_);" d="M660.739,2145.115
				c0.047,128.516-2.386,209.558-6.803,258.062c-0.533,5.847-5.088,54.923,1.552,118.215c2.023,19.287,3.088,29.039,5.727,34.363
				c36.613,73.888,246.514,15.333,303.212-9.169c14.742-6.371,29.716-15.233,36.122-30.921c8.23-20.157,0.34-38.429-2.864-54.408
				c-7.868-39.237,15.456-68.854,62.23-144.974c19.778-32.188,48.499-80.51,82.043-143.241
				c38.827,11.328,130.329,31.625,219.907-11.107c131.625-62.792,206.736-236.699,168.446-425.164
				c-13.364-3.818-26.728-7.637-40.09-11.454c-8.845,36.573-25.897,85.818-60.828,135.486
				c-21.194,30.134-38.844,55.229-69.465,69.26c-48.081,22.03-90.781-0.338-153.202-15.75
				c-98.358-24.282-180.52,6.053-280.504-4.212C690.521,1885.903,652.816,2042.796,660.739,2145.115z"/>
			
				<linearGradient id="SVGID_00000144332528608852624310000009647187544793746053_" gradientUnits="userSpaceOnUse" x1="50.3281" y1="1882.1373" x2="97.5773" y2="2021.4984" gradientTransform="matrix(-1 0 0 1 1013.1603 0)">
				<stop  offset="0" style="stop-color:#FFC444"/>
				<stop  offset="0.9964" style="stop-color:#F36F56"/>
			</linearGradient>
			<path style="fill:url(#SVGID_00000144332528608852624310000009647187544793746053_);" d="M950.16,1824.542
				c0,0,6.545,26.198-2.675,37.94c-9.218,11.741-40.002,56.741-50.024,58.939c-5.71,1.252-20.015,3.417-31.269,5.049
				c-5.924,0.858-7.181,9.012-1.69,11.395c11.193,4.858,30.932,9.745,64.828,9.379c48.994-0.529,88.402-19.171,105.582-28.829
				c2.44-1.372,1.285-5.073-1.506-4.863l-22.048,1.657c-18.884,1.42-34.405-14.675-32.303-33.495l1.37-12.256L950.16,1824.542z"/>
			<g>
				<g>
					
						<linearGradient id="SVGID_00000060732455893307231060000005564994472366577328_" gradientUnits="userSpaceOnUse" x1="131.0722" y1="3614.5886" x2="178.3212" y2="3753.949" gradientTransform="matrix(-1 0 0 1 498.5801 0)">
						<stop  offset="0" style="stop-color:#FFC444"/>
						<stop  offset="0.9964" style="stop-color:#F36F56"/>
					</linearGradient>
					<path style="fill:url(#SVGID_00000060732455893307231060000005564994472366577328_);" d="M970.381,1877.283
						c3.031-1.664,27.661-4.656,31.055-17.902c4.61-17.979-11.549-39.862-13.562-43.384c-8.428-14.742-10.547-16.734-14.467-19.232
						l-5.438-3.188c0,0-0.315-0.119-0.644-0.228c-3.472-1.148-15.216-1.239-17.581-0.678c-7.559,1.794-14.947,32.92-11.65,76.615
						c-0.277,1.674-0.543,3.361-0.798,5.063C936.631,1878.771,970.604,1878.84,970.381,1877.283z"/>
					<path style="fill:#26264F;" d="M993.547,1790.797c1.068,5.341-13.072,15.975-19.116,20.568
						c-0.735,0.559-2.86,2.441-4.786,5.473c-0.281,0.442-0.525,0.956-0.738,1.618c-2.776,8.608,11.032,18.353,8.497,22.235
						c-1.838,2.819-11.152-0.683-12.194,1.736c-0.983,2.277,6.792,6.773,5.679,9.5c-0.84,2.058-5.603,0.299-8.509,3.493
						c-1.447,1.585-0.984,2.811-2.449,7.601c-0.829,2.707-2.007,5.679-2.932,7.338c-4.505,8.063-17.704,11.27-20.329,8.143
						c-0.732-0.872-0.137-1.63-0.93-4.591c0,0-0.735-2.747-2.728-5.892c-2.846-4.5-9.545-7.613-16.336-12.275
						c-12.579-8.632-16.116-16.152-17.184-18.697c-0.12-0.285-0.225-0.549-0.318-0.789c-0.182-0.431-0.338-0.864-0.471-1.297
						c-2.657-8.672,8.355-23.737,8.355-23.737c8.837-11.887,19.998-19.866,28.919-24.938c16.315-3.211,29.601-2.805,38.803-1.788
						C982.27,1785.33,992.701,1786.568,993.547,1790.797z"/>
					<path style="fill:#26264F;" d="M998.632,1835.778c0,0-10.431,12.518-24.211-2.516l-6.803,2.008c0,0,16.633,36.594,20.19,36.594
						c3.558,0,13.944-2.366,13.944-2.366c3.893-1.63,6.087-5.803,5.191-9.927C1005.312,1852.049,1001.039,1841.079,998.632,1835.778
						z"/>
					
						<linearGradient id="SVGID_00000009583995954972344340000007787473251764676999_" gradientUnits="userSpaceOnUse" x1="1149.9952" y1="4458.2627" x2="1271.6958" y2="4654.4155" gradientTransform="matrix(-1 0 0 1 498.5801 0)">
						<stop  offset="0" style="stop-color:#FFC444"/>
						<stop  offset="0.9964" style="stop-color:#F36F56"/>
					</linearGradient>
					<path style="fill:url(#SVGID_00000009583995954972344340000007787473251764676999_);" d="M971.113,1837.618
						c-3.425-4.49-9.165-0.07-9.066,5.837c0.1,5.905,5.96,11.916,11.484,10.623C979.058,1852.788,975.721,1843.66,971.113,1837.618z
						"/>
				</g>
			</g>
			
				<linearGradient id="SVGID_00000136401888836999178250000005192531691263292801_" gradientUnits="userSpaceOnUse" x1="-253.5505" y1="1561.8972" x2="7.9899" y2="2522.1541" gradientTransform="matrix(-1 0 0 1 1013.1603 0)">
				<stop  offset="0" style="stop-color:#FF9085"/>
				<stop  offset="1" style="stop-color:#FB6FBB"/>
			</linearGradient>
			<path style="opacity:0.3;fill:url(#SVGID_00000136401888836999178250000005192531691263292801_);" d="M717.055,2534.278
				c71.107,25.059,153.982-11.58,174.678-61.567c15.298-36.953-17.391-72.202,5.727-110.248
				c22.261-36.636,62.465-20.221,90.203-57.271c30.229-40.378-5.346-76.145,21.477-130.293
				c20.179-40.736,68.499-77.398,115.975-77.316c56.431,0.095,77.508,52.045,125.998,41.522
				c25.329-5.495,24.741-20.792,60.135-45.817c61.425-43.431,102.615-25.239,153.202-55.84
				c14.864-8.994,31.452-22.783,46.885-44.948c-30.219,76.75-82.504,137.489-149.468,169.436
				c-89.577,42.733-181.08,22.436-219.907,11.107c-33.544,62.731-62.265,111.053-82.043,143.241
				c-46.774,76.12-70.098,105.737-62.23,144.974c3.204,15.979,11.094,34.251,2.864,54.408c-6.406,15.688-21.381,24.55-36.122,30.921
				c-56.698,24.502-266.599,83.058-303.212,9.169c-2.639-5.324-3.704-15.076-5.727-34.363c-1.261-12.013-2.116-23.51-2.672-34.301
				C667.451,2505.85,688.114,2524.079,717.055,2534.278z"/>
		</g>
	</g>
</g>
</svg>
