<?xml version="1.0" encoding="utf-8"?>
<!-- Generator: Adobe Illustrator 27.5.0, SVG Export Plug-In . SVG Version: 6.00 Build 0)  -->
<svg version="1.1" xmlns="http://www.w3.org/2000/svg" xmlns:xlink="http://www.w3.org/1999/xlink" x="0px" y="0px"
	 viewBox="0 0 3710 3710" style="enable-background:new 0 0 3710 3710;" xml:space="preserve">
<g id="Background">
	<g>
		<g>
			<rect style="fill:#FFFFFF;" width="3710" height="3710"/>
		</g>
	</g>
</g>
<g id="Illustration">
	<g>
		<path style="fill:#F4F7FA;" d="M3009.168,2646.417c-574.981,735.466-1921.523,747.274-2294.287,338.749
			c-148.774-163.023-188.055-443.019-245.796-854.298c-27.797-197.983-31.777-357.571-34.137-467.064
			c-8.138-372.456-12.189-558.702,47.77-685.407c171.744-362.688,768.356-503.848,1153.98-510.396
			c26.914-0.465,54.076-0.286,81.449,0.537c451.536,13.454,961.062,201.417,1275.309,603.072
			c32.482,41.436,62.814,85.161,90.823,131.213C3371.117,1674.503,3322.852,2245.228,3009.168,2646.417z"/>
		<g>
			<g>
				<g>
					<defs>
						<path id="SVGID_1_" d="M2170.526,487.986c-33.322-23.251-81.805-33.424-122.045-32.972
							c-285.254,3.206-277.939,599.399-223.59,728.308c54.349,128.909,29.759,174.727-187.901,262.385
							c-217.66,87.658-99.548,212.311-65.909,288.118c33.638,75.807,92.96,137.304-63.493,228.228
							c-156.454,90.923-95.924,134.321-95.924,134.321s325.509,282.481,300.844,185.505
							c-24.665-96.976-6.814-247.929,261.479-281.324c115.56-14.385,288.592-84.29,317.714-211.684
							c6.782-29.665,9.524-74.351,0.1-103.703c-13.073-40.718-43.007-71.192-61.347-109.02
							c-42.739-88.155,40.211-162.1,86.102-227.138c23.957-33.954,47.836-68.722,65.205-106.619
							c36.062-78.679,13.624-158.042-38.069-223.592c-24.788-31.433-58.338-64.189-71.216-103.052
							c-13.833-41.748-9.607-100.686-10.751-144.711c-0.897-34.525-0.439-69.03-5.2-103.325
							C2247.668,603.92,2226.231,526.856,2170.526,487.986z"/>
					</defs>
					
						<linearGradient id="SVGID_00000155832934518297551720000012449681260868765879_" gradientUnits="userSpaceOnUse" x1="1988.7233" y1="325.1133" x2="1736.2545" y2="3999.9121">
						<stop  offset="0" style="stop-color:#FFC444"/>
						<stop  offset="0.9964" style="stop-color:#F36F56"/>
					</linearGradient>
					
						<use xlink:href="#SVGID_1_"  style="overflow:visible;fill:url(#SVGID_00000155832934518297551720000012449681260868765879_);"/>
					<clipPath id="SVGID_00000152236909170463893160000013683385177436578481_">
						<use xlink:href="#SVGID_1_"  style="overflow:visible;"/>
					</clipPath>
					<g style="opacity:0.8;clip-path:url(#SVGID_00000152236909170463893160000013683385177436578481_);">
						<g>
							<path style="fill:#FFFFFF;" d="M1402.212,2270.702c-1.884,0.857-4.158,0.215-5.295-1.584
								c-1.242-1.965-0.657-4.564,1.309-5.804c1.206-0.763,122.157-77.642,254.18-198.741
								c121.649-111.584,277.858-284.605,331.202-475.206c44.553-159.189,75.777-418.865,85.669-712.443
								c8.869-263.255-2.19-456.507-18.005-491.252c-0.963-2.116-0.029-4.61,2.086-5.573c2.115-0.963,4.61-0.029,5.573,2.087
								c18.5,40.643,26.739,258.084,18.756,495.022c-9.913,294.222-41.25,554.62-85.974,714.427
								c-53.891,192.555-211.229,366.895-333.729,479.242c-132.566,121.578-254.051,198.785-255.262,199.55
								C1402.556,2270.531,1402.385,2270.623,1402.212,2270.702z"/>
						</g>
						<g>
							<path style="fill:#FFFFFF;" d="M2072.967,927.512c-2.104,0.958-4.363,0.535-5.336-1.566
								c-1.289-2.782-130.371-278.533-271.983-331.553c-2.176-0.814-3.224-3.116-2.409-5.292c0.815-2.177,3.267-3.218,5.444-2.403
								c144.848,54.23,271.25,324.195,276.57,335.68c0.976,2.108-0.146,4.159-2.262,5.122
								C2072.983,927.505,2072.974,927.509,2072.967,927.512z"/>
						</g>
						<g>
							<path style="fill:#FFFFFF;" d="M2048.51,1261.604c-1.571,0.715-3.488,0.411-4.761-0.898c-1.619-1.666-1.582-4.331,0.085-5.95
								c0.722-0.702,73.316-70.951,164.957-132.422c123.822-83.056,221.612-111.435,290.657-84.348
								c2.163,0.848,3.229,3.291,2.38,5.454c-0.851,2.163-3.291,3.229-5.454,2.38c-158.85-62.316-443.815,212.191-446.674,214.971
								C2049.343,1261.138,2048.939,1261.409,2048.51,1261.604z"/>
						</g>
						<g>
							<path style="fill:#FFFFFF;" d="M1765.011,1963.678c-0.411,0.187-0.86,0.31-1.335,0.356c-2.312,0.226-4.371-1.466-4.596-3.779
								c-0.12-1.216-12.302-123.079-48.41-249.567c-33.106-115.971-93.597-259.677-193.775-285.705
								c-2.25-0.585-3.599-2.881-3.014-5.131c0.583-2.25,2.882-3.601,5.131-3.014c83.533,21.704,150.75,119.829,199.781,291.649
								c36.302,127.207,48.543,249.727,48.662,250.951C1767.635,1961.276,1766.604,1962.954,1765.011,1963.678z"/>
						</g>
						<g>
							<path style="fill:#FFFFFF;" d="M1922.095,1752.281c-1.648,0.75-3.657,0.37-4.909-1.061c-1.531-1.749-1.353-4.408,0.396-5.937
								c12.68-11.09,311.995-271.452,438.058-259.293c2.314,0.223,4.008,2.279,3.785,4.592c-0.223,2.314-2.279,4.01-4.592,3.785
								c-122.493-11.812-428.632,254.559-431.71,257.249C1922.806,1751.895,1922.459,1752.116,1922.095,1752.281z"/>
						</g>
					</g>
				</g>
			</g>
			<g>
				<g>
					<defs>
						<path id="SVGID_00000106854723446536077150000003257942653056359043_" d="M2784.961,782.536
							c-20.695-34.966-60.608-64.311-97.42-80.57c-260.951-115.258-501.287,430.396-505.226,570.239
							s-45.301,171.356-279.719,160.965c-234.418-10.391-178.561,151.993-179.35,234.925
							c-0.79,82.931,27.725,163.479-152.339,181.417c-180.064,17.938-142.952,82.512-142.952,82.512
							s179.234,391.952,196.961,293.472c17.726-98.48,96.511-228.475,354.533-147.72c111.136,34.782,297.581,42.843,376.864-61.041
							c18.462-24.19,39.47-63.725,43.053-94.344c4.97-42.476-9.649-82.612-10.669-124.639
							c-2.377-97.94,103.753-130.876,172.465-171.059c35.871-20.978,72.008-42.73,103.517-70.026
							c65.417-56.67,77.874-138.197,57.982-219.273c-9.538-38.878-26.504-82.59-22.124-123.296
							c4.706-43.727,32.969-95.619,50.166-136.162c13.486-31.794,28.199-63.01,38.073-96.195
							C2807.143,920.012,2819.558,840.991,2784.961,782.536z"/>
					</defs>
					
						<linearGradient id="SVGID_00000022553649984585192730000004585230408157534336_" gradientUnits="userSpaceOnUse" x1="1424.7931" y1="1463.7327" x2="2806.8584" y2="1463.7327">
						<stop  offset="0" style="stop-color:#FF9085"/>
						<stop  offset="1" style="stop-color:#FB6FBB"/>
					</linearGradient>
					
						<use xlink:href="#SVGID_00000106854723446536077150000003257942653056359043_"  style="overflow:visible;fill:url(#SVGID_00000022553649984585192730000004585230408157534336_);"/>
					<clipPath id="SVGID_00000116221170148250102240000017316064091316265642_">
						<use xlink:href="#SVGID_00000106854723446536077150000003257942653056359043_"  style="overflow:visible;"/>
					</clipPath>
					<g style="opacity:0.8;clip-path:url(#SVGID_00000116221170148250102240000017316064091316265642_);">
						<g>
							<path style="fill:#FFFFFF;" d="M1347.132,2086.772c-2.07,0-3.874-1.527-4.163-3.635c-0.316-2.302,1.293-4.426,3.596-4.741
								c1.414-0.194,143.347-20.058,313.676-75.581c156.946-51.16,370.799-143.921,498.312-295.296
								c106.499-126.428,242.497-349.836,373.125-612.938c117.135-235.927,187.13-416.396,187.13-454.572
								c0-2.324,1.883-4.208,4.208-4.208s4.208,1.883,4.208,4.208c0,44.656-82.583,245.972-188.008,458.314
								c-130.914,263.679-267.314,487.697-374.225,614.617c-128.821,152.927-344.249,246.42-502.285,297.923
								c-171.022,55.734-313.578,75.675-314.997,75.869C1347.516,2086.76,1347.323,2086.772,1347.132,2086.772z"/>
						</g>
						<g>
							<path style="fill:#FFFFFF;" d="M2514.079,1142.166c-2.312,0-4.193-1.327-4.208-3.642
								c-0.021-3.066-3.265-307.52-110.188-414.444c-1.644-1.642-1.644-4.173,0-5.815c1.644-1.644,4.306-1.576,5.95,0.067
								c109.367,109.366,112.569,407.446,112.653,420.103c0.015,2.323-1.856,3.731-4.18,3.731
								C2514.097,1142.166,2514.088,1142.166,2514.079,1142.166z"/>
						</g>
						<g>
							<path style="fill:#FFFFFF;" d="M2353.412,1436.094c-1.726,0-3.345-1.071-3.961-2.79c-0.783-2.187,0.355-4.597,2.542-5.38
								c0.948-0.34,96.122-34.202,204.996-52.185c147.105-24.296,247.865-9.613,299.484,43.645c1.618,1.668,1.575,4.332-0.093,5.95
								c-1.671,1.616-4.333,1.575-5.95-0.093c-118.76-122.526-491.844,9.261-495.599,10.606
								C2354.363,1436.015,2353.883,1436.094,2353.412,1436.094z"/>
						</g>
						<g>
							<path style="fill:#FFFFFF;" d="M1804.528,1957.637c-0.452,0-0.911-0.074-1.363-0.229c-2.198-0.752-3.371-3.145-2.618-5.343
								c0.395-1.156,39.793-117.117,59.331-247.198c17.913-119.266,22.392-275.12-58.001-340.312
								c-1.805-1.464-2.082-4.113-0.618-5.919c1.463-1.807,4.115-2.083,5.919-0.618c67.036,54.36,87.561,171.516,61.005,348.21
								c-19.66,130.817-59.276,247.399-59.675,248.562C1807.912,1956.537,1806.277,1957.637,1804.528,1957.637z"/>
						</g>
						<g>
							<path style="fill:#FFFFFF;" d="M2035.076,1830.312c-1.811,0-3.482-1.178-4.028-3c-0.668-2.226,0.594-4.572,2.82-5.239
								c16.135-4.841,396.42-117.807,506.118-54.515c2.013,1.162,2.704,3.735,1.542,5.747c-1.161,2.013-3.735,2.705-5.747,1.542
								c-106.593-61.498-495.578,54.111-499.494,55.285C2035.883,1830.254,2035.476,1830.312,2035.076,1830.312z"/>
						</g>
					</g>
				</g>
			</g>
		</g>
		<g>
			<path style="fill:#AABBCC;" d="M1569.379,867.35c0,0,112.355,37.901,124.297,233.807c-18.372-1.532-61.208,0-61.208,0
				s7.933-142.469-71.989-170.147C1566.91,914.403,1569.379,867.35,1569.379,867.35z"/>
			
				<linearGradient id="SVGID_00000062160416285025103670000018106875130337599659_" gradientUnits="userSpaceOnUse" x1="1348.2662" y1="1277.8774" x2="1382.2805" y2="771.449">
				<stop  offset="0" style="stop-color:#FFFFFF"/>
				<stop  offset="1" style="stop-color:#D8DEE8"/>
			</linearGradient>
			<path style="fill:url(#SVGID_00000062160416285025103670000018106875130337599659_);" d="M1157.139,855.587
				c2.802,35.668,5.602,71.336,8.403,107.004c55.524-16.018,116.245-34.602,181.522-38.017
				c84.873-4.441,162.663,5.447,231.945,22.635c3.08-4.503,9.609-15.332,12.62-32.968c4.851-28.416-3.273-52-4.778-56.202
				c-35.292-13.096-73.563-24.076-114.571-31.552C1354.69,805.049,1248.433,826.315,1157.139,855.587z"/>
			
				<linearGradient id="SVGID_00000062901762831261545800000011044509724130038443_" gradientUnits="userSpaceOnUse" x1="1173.2059" y1="915.0885" x2="1549.3634" y2="1116.7578">
				<stop  offset="0" style="stop-color:#FFFFFF"/>
				<stop  offset="1" style="stop-color:#D8DEE8"/>
			</linearGradient>
			<path style="fill:url(#SVGID_00000062901762831261545800000011044509724130038443_);" d="M1151.906,886.492
				c0.165-12.902,1.094-29.011,5.233-30.905c3.898-1.784,9.139,9.881,11.392,16.363c0.939,2.698,3.007,9.236,4.3,30.053
				c1.668,26.837-0.276,39.993-2.057,48.117c-1.07,4.884-2.742,12.285-5.233,12.471c-1.999,0.149-3.737-4.523-6.326-13.57
				C1155.728,936.835,1151.522,916.506,1151.906,886.492z"/>
			<path style="fill:#AABBCC;" d="M1049.571,1111.877c23.279,4.614,79.88,18.416,79.88,18.416s-36.904-125.301,32.678-183.137
				c1.802-9.466,3.632-24.493,1.433-42.555c-1.701-13.973-5.25-25.135-8.314-32.868
				C1125.708,889.391,1061.402,948.797,1049.571,1111.877z"/>
			
				<linearGradient id="SVGID_00000170260455048228170480000003056694211368820895_" gradientUnits="userSpaceOnUse" x1="670.7598" y1="1548.9325" x2="457.5459" y2="-400.0468">
				<stop  offset="0" style="stop-color:#FFFFFF"/>
				<stop  offset="1" style="stop-color:#D8DEE8"/>
			</linearGradient>
			<path style="fill:url(#SVGID_00000170260455048228170480000003056694211368820895_);" d="M568.11,1144.888
				c0,0,2.849-65.801,99.928-65.801c15.288,11.994,16.052,65.801,16.052,65.801H568.11z"/>
			
				<linearGradient id="SVGID_00000114787805992688816320000006707472383164192159_" gradientUnits="userSpaceOnUse" x1="1594.223" y1="2366.9495" x2="185.3385" y2="1582.4554">
				<stop  offset="0" style="stop-color:#FFFFFF"/>
				<stop  offset="1" style="stop-color:#D8DEE8"/>
			</linearGradient>
			<path style="fill:url(#SVGID_00000114787805992688816320000006707472383164192159_);" d="M481.909,2438.456l265.677,173.427
				l160.973-636.906L643.32,1121.111l-75.211,23.777L453.991,2371.191C451.408,2398.95,462.564,2425.827,481.909,2438.456z"/>
			
				<linearGradient id="SVGID_00000150784598084746056840000003962469681662244759_" gradientUnits="userSpaceOnUse" x1="322.1474" y1="1268.7966" x2="750.5343" y2="1987.1686">
				<stop  offset="0" style="stop-color:#FFFFFF"/>
				<stop  offset="1" style="stop-color:#D8DEE8"/>
			</linearGradient>
			<path style="opacity:0.3;fill:url(#SVGID_00000150784598084746056840000003962469681662244759_);" d="M908.559,1974.976
				L643.32,1121.111l-75.21,23.777c18.519,75.359,27.399,198.08,31.577,266.395c17.781,290.714,76.833,371.614,48.226,574.421
				c-23.786,168.632-75.731,191.52-71.191,304.975c4.946,123.565,71.788,227.038,151.259,308.408l19.603,12.795L908.559,1974.976z"
				/>
			
				<linearGradient id="SVGID_00000009581384279172593700000011303308914144301994_" gradientUnits="userSpaceOnUse" x1="1380.5259" y1="407.2759" x2="1537.5814" y2="2515.1392">
				<stop  offset="0" style="stop-color:#FFFFFF"/>
				<stop  offset="1" style="stop-color:#D8DEE8"/>
			</linearGradient>
			<polygon style="fill:url(#SVGID_00000009581384279172593700000011303308914144301994_);" points="643.32,1121.111 
				2102.099,1121.112 2331.763,2474.574 747.586,2611.883 			"/>
			<g style="opacity:0.2;">
				
					<linearGradient id="SVGID_00000088121460458951434130000005099498110958010805_" gradientUnits="userSpaceOnUse" x1="1117.1459" y1="1603.4447" x2="2257.4351" y2="2482.0295">
					<stop  offset="0" style="stop-color:#FFFFFF"/>
					<stop  offset="1" style="stop-color:#D8DEE8"/>
				</linearGradient>
				<path style="fill:url(#SVGID_00000088121460458951434130000005099498110958010805_);" d="M2102.1,1121.111h-491.432
					c-9.05,27.731-22.885,66.102-43.08,109.516c-219.774,472.439-722.889,531.97-713.8,609.611
					c13.587,116.051,1133.942-48.672,1162.547,110.792c13.808,76.979-222.776,251.964-469.996,318.22
					c-296.004,79.329-513.527-20.651-658.199,157.592c-48.986,60.352-70.609,131.053-81.143,178.867l1524.767-131.135
					L2102.1,1121.111z"/>
			</g>
			
				<linearGradient id="SVGID_00000039842152759872966690000001142117279532040335_" gradientUnits="userSpaceOnUse" x1="834.1771" y1="1476.8705" x2="1301.249" y2="1458.7318">
				<stop  offset="0" style="stop-color:#FFFFFF"/>
				<stop  offset="1" style="stop-color:#D8DEE8"/>
			</linearGradient>
			<path style="fill:url(#SVGID_00000039842152759872966690000001142117279532040335_);" d="M668.038,1079.088
				c-16.435,0-39.411-2.208-64.401,13.609c-5.335,3.377-10.046,7.092-14.18,10.866l11.504-4.408
				c18.507-5.85,44.026,1.936,53.556,21.957c11.712,24.606,15.928,81.542,18.489,109.745
				c7.284,80.226,52.054,579.398,52.054,579.398c3.354,42.088,32.991,73.962,68.016,73.15l1356.958-76.105
				c10.305-0.239,20.489-3.704,28.992-10.733c17.74-14.665,25.754-40.105,21.641-64.274l-68.745-594.51
				c-5.814-34.17-30.733-58.696-59.635-58.696H668.038z"/>
			
				<linearGradient id="SVGID_00000076591880639547005180000014877064765376654515_" gradientUnits="userSpaceOnUse" x1="1567.5455" y1="3113.1826" x2="1398.4443" y2="1212.8214">
				<stop  offset="0" style="stop-color:#FFFFFF"/>
				<stop  offset="1" style="stop-color:#D8DEE8"/>
			</linearGradient>
			<path style="fill:url(#SVGID_00000076591880639547005180000014877064765376654515_);" d="M682.561,1079.088
				c-16.434,0-35.927-2.422-57.652,3.867c-5.858,1.695-15.231,4.805-19.365,8.579c0,0,46.059-11.869,63.497,29.578
				c10.645,25.302,15.928,81.542,18.489,109.745c7.284,80.226,52.054,579.398,52.054,579.398
				c3.354,42.088,32.991,73.962,68.016,73.15l1372.246-31.82c10.305-0.239,20.489-3.704,28.992-10.733
				c17.741-14.665,25.755-40.105,21.641-64.273l-84.033-638.795c-5.814-34.17-30.733-58.696-59.634-58.696H682.561z"/>
			
				<linearGradient id="SVGID_00000085212053495146895760000011694580782010421409_" gradientUnits="userSpaceOnUse" x1="1649.6678" y1="3551.0103" x2="1363.2706" y2="933.0657">
				<stop  offset="0" style="stop-color:#FFFFFF"/>
				<stop  offset="1" style="stop-color:#D8DEE8"/>
			</linearGradient>
			<path style="opacity:0.3;fill:url(#SVGID_00000085212053495146895760000011694580782010421409_);" d="M2230.479,1776.578
				l-84.032-638.795c-5.815-34.17-30.733-58.696-59.635-58.696H682.562c-16.435,0-35.926-2.422-57.653,3.867
				c-5.858,1.695-15.231,4.805-19.365,8.579c0,0,46.06-11.869,63.498,29.578c1.677,3.988,3.208,8.807,4.628,14.1
				c133.359,5.69,266.718,1.595,400.075,10.881c263.624,17.876,530.21,17.876,779.024,132.279
				c79.588,36.594,134.151,168.067,112.559,228.806c-15.569,43.793-68.697,40.325-87.238,97.797
				c-19.498,60.442,27.255,101.51,7.644,143.926c-20.554,44.457-82.977,23.277-184.03,55.01
				c-55.677,17.484-98.383,43.275-125.054,61.661l603.198-13.987c10.305-0.239,20.489-3.704,28.992-10.733
				C2226.579,1826.187,2234.593,1800.746,2230.479,1776.578z"/>
			<g>
				
					<linearGradient id="SVGID_00000055690238779782109690000000194516004443652225_" gradientUnits="userSpaceOnUse" x1="2027.095" y1="2167.0791" x2="1178.8772" y2="1723.6924">
					<stop  offset="0" style="stop-color:#FFFFFF"/>
					<stop  offset="1" style="stop-color:#D8DEE8"/>
				</linearGradient>
				<path style="fill:url(#SVGID_00000055690238779782109690000000194516004443652225_);" d="M1573.769,1970.51l-171.834,44.417
					l-18.148,1.595c-18.285,1.607-34.021-15.363-34.819-37.725l-7.541-211.405c-0.798-22.363,13.672-40.902,32.004-41.198
					l18.24-0.294l172.734,23.598c16.501-0.266,30.401-9.701,31.149,11.271l7.072,198.264
					C1603.374,1980.006,1590.228,1969.063,1573.769,1970.51z"/>
				
					<linearGradient id="SVGID_00000113313996882788163870000005947005076037987492_" gradientUnits="userSpaceOnUse" x1="1267.5688" y1="1791.9104" x2="2129.8857" y2="2100.4846">
					<stop  offset="0" style="stop-color:#FFFFFF"/>
					<stop  offset="1" style="stop-color:#D8DEE8"/>
				</linearGradient>
				<path style="fill:url(#SVGID_00000113313996882788163870000005947005076037987492_);" d="M1586.834,1999.786l-190.378,16.736
					c-18.285,1.607-34.022-15.363-34.819-37.725l-7.541-211.405c-0.798-22.363,13.672-40.902,32.004-41.198l190.865-3.074
					c16.502-0.266,30.51,16.677,31.259,37.65l7.073,198.264C1616.044,1980.006,1603.293,1998.339,1586.834,1999.786z"/>
			</g>
		</g>
		<g>
			<g>
				
					<linearGradient id="SVGID_00000074410263897032030560000003414996948287115136_" gradientUnits="userSpaceOnUse" x1="4249.71" y1="2911.9656" x2="4352.8633" y2="2911.9656" gradientTransform="matrix(1 0 0 1 -1384.9691 0)">
					<stop  offset="0" style="stop-color:#444B8C"/>
					<stop  offset="0.9964" style="stop-color:#3E4177"/>
				</linearGradient>
				<path style="fill:url(#SVGID_00000074410263897032030560000003414996948287115136_);" d="M2885.885,2911.935l51.612-31.012
					h23.291c0,0,7.936,29.535,7.035,31.012c-10.377,17.005-58.697,29.943-88.849,31.012c-5.006,0.178-11.991,0.204-13.796-3.424
					C2862.12,2933.378,2875.777,2920.488,2885.885,2911.935z"/>
				
					<linearGradient id="SVGID_00000148625382187911327630000003039593402655035310_" gradientUnits="userSpaceOnUse" x1="4320.7847" y1="2906.1057" x2="4406.1587" y2="2649.9836" gradientTransform="matrix(1 0 0 1 -1384.9691 0)">
					<stop  offset="0" style="stop-color:#AB316D"/>
					<stop  offset="1" style="stop-color:#792D3D"/>
				</linearGradient>
				<path style="fill:url(#SVGID_00000148625382187911327630000003039593402655035310_);" d="M2938.409,2847.083
					c0.085,18.068-0.687,30.815-5.21,36.421c-3.183,3.948,27.421,12.828,27.589-2.582c0.111-10.143,1.705-27.54,3.325-32.649
					C2955.546,2847.877,2946.977,2847.48,2938.409,2847.083z"/>
			</g>
			<g>
				
					<linearGradient id="SVGID_00000039128802142322795380000004407762097873213853_" gradientUnits="userSpaceOnUse" x1="3904.637" y1="2906.9004" x2="4007.7898" y2="2906.9004" gradientTransform="matrix(1 0 0 1 -1384.9691 0)">
					<stop  offset="0" style="stop-color:#444B8C"/>
					<stop  offset="0.9964" style="stop-color:#3E4177"/>
				</linearGradient>
				<path style="fill:url(#SVGID_00000039128802142322795380000004407762097873213853_);" d="M2540.812,2906.869l51.612-31.011
					h23.291c0,0,7.936,29.535,7.035,31.011c-10.377,17.005-58.697,29.943-88.849,31.013c-5.006,0.177-11.992,0.204-13.796-3.425
					C2517.048,2928.313,2530.703,2915.423,2540.812,2906.869z"/>
				
					<linearGradient id="SVGID_00000042716334044246669550000006504232058411861940_" gradientUnits="userSpaceOnUse" x1="3981.2083" y1="2904.981" x2="4075.2234" y2="2622.9351" gradientTransform="matrix(1 0 0 1 -1384.9691 0)">
					<stop  offset="0" style="stop-color:#AB316D"/>
					<stop  offset="1" style="stop-color:#792D3D"/>
				</linearGradient>
				<path style="fill:url(#SVGID_00000042716334044246669550000006504232058411861940_);" d="M2608.1,2842.239
					c-7.521,14.378-15.451,30.594-19.974,36.2c-3.184,3.947,22.247,11.873,27.588-2.581c4.33-11.72,16.469-27.318,18.09-32.428
					C2625.237,2843.033,2616.668,2842.636,2608.1,2842.239z"/>
			</g>
			
				<linearGradient id="SVGID_00000011003593853052559590000006985261619778806431_" gradientUnits="userSpaceOnUse" x1="-3985.1003" y1="1838.7552" x2="-3756.8203" y2="2698.7844" gradientTransform="matrix(-1 0 0 1 -1154.6837 0)">
				<stop  offset="0" style="stop-color:#444B8C"/>
				<stop  offset="0.9964" style="stop-color:#3E4177"/>
			</linearGradient>
			<path style="fill:url(#SVGID_00000011003593853052559590000006985261619778806431_);" d="M2618.718,1996.146
				c19.971,132.804,33.015,297.979,21.235,486.642c-8.701,139.35-29.168,263.078-53.088,368.079
				c15.927,4.129,31.853,8.257,47.78,12.387c19.829-4.593,47.935-14.534,67.244-38.932c25.388-32.079,13.811-61.662,31.854-115.024
				c17.225-50.944,37.807-53.648,58.396-97.329c26.855-56.975,10.455-91.871,12.387-168.112
				c3.269-128.973,52.988-138.971,69.015-299.064c8.391-83.816,12.529-131.948-17.697-162.803
				C2813.519,1938.78,2720.457,1946.443,2618.718,1996.146z"/>
			
				<linearGradient id="SVGID_00000072991916633548236340000017322817396633322397_" gradientUnits="userSpaceOnUse" x1="-4266.2969" y1="2399.3726" x2="-3938.7725" y2="2399.3726" gradientTransform="matrix(-1 0 0 1 -1154.6837 0)">
				<stop  offset="0" style="stop-color:#444B8C"/>
				<stop  offset="0.9964" style="stop-color:#3E4177"/>
			</linearGradient>
			<path style="fill:url(#SVGID_00000072991916633548236340000017322817396633322397_);" d="M2728.434,1969.359
				c54.547,126.932,111.236,289.498,148.647,483.101c29.896,154.717,40.756,294.462,42.47,412.319c17.697,0,35.392,0,53.089,0
				c15.353-22.345,35.535-56.984,47.779-102.638c12.208-45.519,4.528-57.252,12.388-129.181
				c10.711-98.03,24.741-102.542,23.005-161.034c-1.996-67.218-22.422-66.952-30.084-134.49
				c-11.334-99.91,29.933-130.748,28.314-222.971c-0.727-41.428-10.26-103.835-56.627-180.5
				C2907.753,1945.763,2818.094,1957.561,2728.434,1969.359z"/>
			
				<linearGradient id="SVGID_00000091726213424190690860000017116603517086801084_" gradientUnits="userSpaceOnUse" x1="-3100.1125" y1="1890.6306" x2="-3197.4404" y2="2223.3147" gradientTransform="matrix(-1 0 0 1 -1154.6837 0)">
				<stop  offset="0" style="stop-color:#AB316D"/>
				<stop  offset="1" style="stop-color:#792D3D"/>
			</linearGradient>
			<path style="fill:url(#SVGID_00000091726213424190690860000017116603517086801084_);" d="M2031.198,1953.828l-20.808,18.445
				c0,0-45.689-1.802-62.14,2.382c-16.451,4.183-44.834,18.448-44.834,18.448s7.094,10.477,17.157,6.508
				c10.064-3.968,25.61-9.332,28.598-7.877c2.988,1.455,10.021,20.402,33.978,23.57c23.958,3.168,35.105-25.033,35.105-25.033
				l22.684-19.258L2031.198,1953.828z"/>
			
				<linearGradient id="SVGID_00000063596532461524422660000014714372986102461617_" gradientUnits="userSpaceOnUse" x1="314.7528" y1="6984.1226" x2="719.6257" y2="7560.7588" gradientTransform="matrix(-1 0 0 1 -1154.6837 0)">
				<stop  offset="0" style="stop-color:#444B8C"/>
				<stop  offset="0.9964" style="stop-color:#3E4177"/>
			</linearGradient>
			<path style="fill:url(#SVGID_00000063596532461524422660000014714372986102461617_);" d="M2269.663,1468.117
				c-8.431,1.035-24.954,6.132-62.378,75.65c-48.432,89.965-61.131,156.419-79.632,211.026
				c-17.313,51.101-49.817,121.66-116.794,199.081c11.06,11.502,22.12,23.005,33.18,34.508
				c94.878-2.353,141.862-32.606,167.228-59.725c37.026-39.585,25.592-69.932,70.342-130.066
				c52.348-70.345,92.027-61.111,110.157-107.504C2425.761,1604.102,2329.601,1460.763,2269.663,1468.117z"/>
			
				<linearGradient id="SVGID_00000170256382785637298760000000992204468340314269_" gradientUnits="userSpaceOnUse" x1="2.7771" y1="7203.1558" x2="407.6475" y2="7779.7886" gradientTransform="matrix(-1 0 0 1 -1154.6837 0)">
				<stop  offset="0" style="stop-color:#444B8C"/>
				<stop  offset="0.9964" style="stop-color:#3E4177"/>
			</linearGradient>
			<path style="fill:url(#SVGID_00000170256382785637298760000000992204468340314269_);" d="M2744.802,1344.687
				c-54.284-17.392-96.775-12.573-172.537-3.982c-110.566,12.538-181.445,49.191-242.878,80.959
				c-60.377,31.222-76.365,48.842-84.941,69.014c-19.998,47.041,4.367,98.431,19.908,130.066
				c39.679,80.773,76.504,77.965,160.592,175.191c73.976,85.535,110.965,128.304,135.375,191.118
				c10.799,27.79,21.346,63.77,55.743,84.941c33.391,20.552,71.301,16.099,92.904,13.272
				c90.755-11.877,98.804-70.451,157.938-66.359c47.121,3.26,57.341,41.516,138.029,54.415c36.064,5.765,46.583,0.131,51.761-3.981
				c19.636-15.594,17.349-52.868-1.327-128.739c-28.714-116.647-54.304-154.464-78.305-246.86
				c-24.926-95.953-5.729-87.519-26.545-142.011C2943.524,1533.418,2886.205,1389.989,2744.802,1344.687z"/>
			
				<linearGradient id="SVGID_00000002359973422203951930000005930323698914553273_" gradientUnits="userSpaceOnUse" x1="-4009.5002" y1="1853.7902" x2="-3446.7632" y2="1328.2153" gradientTransform="matrix(-1 0 0 1 -1154.6837 0)">
				<stop  offset="0" style="stop-color:#444B8C"/>
				<stop  offset="0.9964" style="stop-color:#3E4177"/>
			</linearGradient>
			<path style="opacity:0.3;fill:url(#SVGID_00000002359973422203951930000005930323698914553273_);" d="M2727.549,2037.488
				c18.878-23.053,8.692-50.705,34.507-74.324c42.049-38.472,118.15-10.009,122.103-23.889
				c4.736-16.628-109.246-40.732-122.103-106.176c-5.829-29.673,15.638-34.717,13.272-74.323
				c-2.218-37.131-25.399-67.73-71.669-127.412c-36.533-47.122-46.415-50.957-47.78-69.015
				c-4.101-54.282,64.47-92.058,92.905-111.485c34.774-23.758,71.119-36.072,105.041-41.711
				c63.307,58.31,91.887,129.993,96.694,142.579c20.816,54.492,1.619,46.057,26.545,142.011c24,92.396,49.591,130.212,78.305,246.86
				c18.677,75.871,20.963,113.146,1.327,128.739c-5.178,4.113-15.697,9.746-51.761,3.981
				c-80.688-12.899-90.908-51.155-138.029-54.415c-59.134-4.092-67.183,54.483-157.938,66.359
				c-21.603,2.828-59.513,7.281-92.904-13.272c-7.518-4.627-13.842-9.991-19.333-15.793
				C2676.979,2070.947,2711.714,2056.824,2727.549,2037.488z"/>
			<path style="fill:#FFFFFF;" d="M2544.682,1349.57c8.679,23.396-19.386,115.652-37.075,253.867
				c-4.94,38.305-11.892,80.824-18.793,126.474c-19.608-20.477-36.853-41.339-52.461-61.869l-0.01-0.026
				c-78.487-114.935-106.097-215.953-107.683-232.585c-0.13-1.423,19.009-8.257,19.009-8.257
				C2410.408,1377.5,2523.448,1350.711,2544.682,1349.57z"/>
			
				<linearGradient id="SVGID_00000056385440198339450550000009843065454610232985_" gradientUnits="userSpaceOnUse" x1="1428.545" y1="1576.0516" x2="1487.6271" y2="1576.0516" gradientTransform="matrix(0.9391 -0.3436 0.3436 0.9391 525.9475 470.7647)">
				<stop  offset="0.0036" style="stop-color:#E38DDD"/>
				<stop  offset="1" style="stop-color:#9571F6"/>
			</linearGradient>
			<path style="fill:url(#SVGID_00000056385440198339450550000009843065454610232985_);" d="M2402.002,1440.791l20.544,36.013
				l26.78-9.797l8.938-44.39C2458.264,1422.617,2407.898,1443.234,2402.002,1440.791z"/>
			<g>
				
					<linearGradient id="SVGID_00000097460582653470863370000005060642766137934994_" gradientUnits="userSpaceOnUse" x1="1422.8423" y1="1551.3624" x2="1427.9153" y2="1793.1809" gradientTransform="matrix(0.9391 -0.3436 0.3436 0.9391 525.9475 470.7647)">
					<stop  offset="0.0036" style="stop-color:#E38DDD"/>
					<stop  offset="1" style="stop-color:#9571F6"/>
				</linearGradient>
				<path style="fill:url(#SVGID_00000097460582653470863370000005060642766137934994_);" d="M2507.607,1603.437
					c-1.491,11.582-3.061,23.522-4.745,35.805c-3.831,28.302-9.233,58.828-14.048,90.669
					c-19.608-20.477-36.853-41.339-52.461-61.869l-0.01-0.026l-14.535-188.145l0.306-3.201c-0.034-0.258,0.223-0.591,0.251-0.842
					c0.664-8.76,26.51-9.699,26.51-9.699L2507.607,1603.437z"/>
				
					<linearGradient id="SVGID_00000101070276552038010680000015714599693435237015_" gradientUnits="userSpaceOnUse" x1="1382.7189" y1="1728.0399" x2="1455.0752" y2="1728.0399" gradientTransform="matrix(0.9391 -0.3436 0.3436 0.9391 525.9475 470.7647)">
					<stop  offset="0.0036" style="stop-color:#E38DDD"/>
					<stop  offset="1" style="stop-color:#9571F6"/>
				</linearGradient>
				<path style="opacity:0.3;fill:url(#SVGID_00000101070276552038010680000015714599693435237015_);" d="M2502.862,1639.242
					c-3.831,28.302-9.233,58.828-14.048,90.669c-19.608-20.477-36.853-41.339-52.461-61.869l-0.01-0.026l-14.535-188.145
					c5.059-0.682,17.746,0.285,24.876,24.037c9.227,30.632-3.327,95.204,22.479,109.754
					C2479.327,1619.392,2491.877,1628.805,2502.862,1639.242z"/>
			</g>
			
				<linearGradient id="SVGID_00000136382433134480199240000001739417873101749176_" gradientUnits="userSpaceOnUse" x1="-3696.8296" y1="1662.8104" x2="-3536.5457" y2="2186.9805" gradientTransform="matrix(-1 0 0 1 -1154.6837 0)">
				<stop  offset="0" style="stop-color:#FFC444"/>
				<stop  offset="0.9964" style="stop-color:#F36F56"/>
			</linearGradient>
			<path style="fill:url(#SVGID_00000136382433134480199240000001739417873101749176_);" d="M2733.667,1828.289l-191.317-209.983
				c-4.617-6.098-12.231-9.141-19.779-7.907l-219.104,35.815c-9.388,1.535-13.714,12.555-7.876,20.067l178.115,229.159
				c4.776,6.145,12.603,9.08,20.242,7.59l227.219-42.03C2736.15,1858.078,2742.883,1840.459,2733.667,1828.289z"/>
			
				<linearGradient id="SVGID_00000147920721606112294990000007955945012529314695_" gradientUnits="userSpaceOnUse" x1="-3815.6912" y1="1681.2853" x2="-3913.019" y2="2013.9698" gradientTransform="matrix(-1 0 0 1 -1154.6837 0)">
				<stop  offset="0" style="stop-color:#AB316D"/>
				<stop  offset="1" style="stop-color:#792D3D"/>
			</linearGradient>
			<path style="fill:url(#SVGID_00000147920721606112294990000007955945012529314695_);" d="M2741.705,1760.693l-40.955-17.871
				c0,0-15.636-22.339-28.296-26.063c-12.659-3.723-58.081,1.49-58.081,1.49s4.467,17.871,13.403,20.849
				c8.936,2.979,36.487,5.213,40.955,14.148c4.468,8.935,20.849,15.637,26.807,12.659c5.957-2.979,43.933,9.68,43.933,9.68
				L2741.705,1760.693z"/>
			
				<linearGradient id="SVGID_00000163035370187777857470000015540962858600256139_" gradientUnits="userSpaceOnUse" x1="22.1837" y1="7189.5034" x2="427.0542" y2="7766.1362" gradientTransform="matrix(-1 0 0 1 -1154.6837 0)">
				<stop  offset="0" style="stop-color:#444B8C"/>
				<stop  offset="0.9964" style="stop-color:#3E4177"/>
			</linearGradient>
			<path style="fill:url(#SVGID_00000163035370187777857470000015540962858600256139_);" d="M2569.612,1363.268
				c35.876-60.558,204.757-38.407,318.529,27.871c37.051,21.584,150.037,87.406,157.938,201.736
				c0.859,12.427,3.067,62.917-26.544,110.158c-49.804,79.459-167.563,114.52-291.985,83.613
				c1.327-13.272,2.654-26.544,3.982-39.816c10.599,0.368,52.77,0.606,90.25-30.526c7.508-6.236,52.122-43.294,45.126-76.978
				c-11.746-56.551-152.781-25.716-244.206-120.776C2581.709,1475.931,2546,1403.125,2569.612,1363.268z"/>
			<g>
				
					<linearGradient id="SVGID_00000148660303111247879000000007812205690259662746_" gradientUnits="userSpaceOnUse" x1="-1910.8262" y1="3766.9539" x2="-1897.8392" y2="3421.0244" gradientTransform="matrix(-0.6867 0.7269 0.7269 0.6867 -1512.199 286.0352)">
					<stop  offset="0" style="stop-color:#AB316D"/>
					<stop  offset="1" style="stop-color:#792D3D"/>
				</linearGradient>
				<path style="fill:url(#SVGID_00000148660303111247879000000007812205690259662746_);" d="M2356.816,1287.175
					c12.126,29.134,57.512,102.637,155.611,66.62c26.255-9.641,30.735-6.247,32.255-4.224c7.406,9.872-45.188,75.506-119.603,95.51
					c-45.394,12.202-93.938,6.085-96.52-6.555c-2.599-12.722,29.837-11.56,33.566-38.096c2.594-18.472-34.759-40.604-53.973-53.089
					C2311.287,1323.198,2353.664,1311.37,2356.816,1287.175z"/>
				<g>
					
						<linearGradient id="SVGID_00000132803928712522358480000017420907086363083403_" gradientUnits="userSpaceOnUse" x1="4863.478" y1="3095.5232" x2="4780.5659" y2="2884.9414" gradientTransform="matrix(0.8439 -0.5366 0.5366 0.8439 -3302.6929 1404.9562)">
						<stop  offset="0" style="stop-color:#444B8C"/>
						<stop  offset="0.9964" style="stop-color:#26264F"/>
					</linearGradient>
					<path style="fill:url(#SVGID_00000132803928712522358480000017420907086363083403_);" d="M2275.215,1344.762
						c-16.808-5.517-30.431-24.543-27.938-43.225c2.148-16.083,15.692-26.323,23.805-32.462
						c23.535-17.801,61.89-27.543,87.112-13.366c14.959,8.41,18.008,42.667,18.887,48.625c0.991,6.741-2.396,11.278-3.982,17.766
						c-2.194,8.996-5.54,23.208-10.759,46.741c-4.067-3.602-9.431-7.863-16.141-11.947c-2.582-1.57-12.784-7.633-24.22-10.882
						C2299.082,1339.503,2291.16,1349.995,2275.215,1344.762z"/>
					
						<linearGradient id="SVGID_00000085214571764767754320000002298638202408191670_" gradientUnits="userSpaceOnUse" x1="-3456.0664" y1="2686.4441" x2="-3459.7756" y2="2985.2944" gradientTransform="matrix(-0.8751 0.4839 0.4839 0.8751 -2003.6436 639.0932)">
						<stop  offset="0" style="stop-color:#AB316D"/>
						<stop  offset="1" style="stop-color:#792D3D"/>
					</linearGradient>
					<path style="fill:url(#SVGID_00000085214571764767754320000002298638202408191670_);" d="M2375.542,1343.797
						c0,0-0.201,34.412-34.719,52.25c-30.845,15.94-75.25-40.95-64.842-64.875c3.477-7.987,14.947-17.306,26.975-20.885
						c7.11-2.116,10.694-1.089,22.254-4.754c10.674-3.382,12.663-5.855,16.864-5.427c5.256,0.535,12.147,5.435,18.072,26.333
						c2.217-8.523,7.704-14.565,13.91-15.414c0.991-0.135,3.874-0.115,6.295,1.078
						C2389.113,1316.427,2388.011,1329.285,2375.542,1343.797z"/>
				</g>
			</g>
		</g>
		<g>
			<g>
				<ellipse style="fill:#B7C0CE;" cx="1523.295" cy="2829.45" rx="212.828" ry="86.86"/>
				<path style="fill:#EBEFF2;" d="M1310.467,2819.265c0,45.284,95.287,81.994,212.828,81.994
					c117.542,0,212.828-36.71,212.828-81.994s-95.286-119.378-212.828-119.378
					C1405.753,2699.887,1310.467,2773.981,1310.467,2819.265z"/>
				<path style="opacity:0.3;fill:#EBEFF2;" d="M1310.467,2819.264c0-45.284,95.287-119.378,212.828-119.378
					c54.272,0,103.771,15.811,141.366,37.274c2.631,5.513,3.858,10.994,3.359,16.198c-2.441,25.479-43.995,41.142-67.847,46.308
					c-60.065,13.01-89.398-22.908-138.924-21.538c-30.617,0.845-73.048,16.228-123.375,81.372
					C1320.454,2847.612,1310.467,2833.892,1310.467,2819.264z"/>
				<path style="fill:#D8DEE8;" d="M1511.638,2756.633c8.502,2.118,16.437,2.034,23.902,0.138c6.77-1.719,11.417-7.985,11.417-14.97
					v-204.2h-47.325v203.916C1499.632,2748.718,1504.65,2754.894,1511.638,2756.633z"/>
				<g>
					
						<linearGradient id="SVGID_00000009549457204187518000000017820146112399299770_" gradientUnits="userSpaceOnUse" x1="-1058.0754" y1="2656.8057" x2="-1144.8429" y2="2543.7449" gradientTransform="matrix(-1 0 0 1 230.2854 0)">
						<stop  offset="0" style="stop-color:#311944"/>
						<stop  offset="1" style="stop-color:#893976"/>
					</linearGradient>
					<path style="fill:url(#SVGID_00000009549457204187518000000017820146112399299770_);" d="M1773.356,2477.936l-72.297-45.702
						c-3.007-17.074-37.087-195.678-175.441-251.763c-56.262-22.808-116.813-20.102-150.04-18.618
						c-66.331,2.964-113.646,5.078-136.404,36.718c-29.221,40.63,19.789,77.475,9.641,193.694
						c-4.138,47.393-14.662,68.441-1.553,99.837c15.703,37.61,52.118,58.458,80.433,70.192
						c33.846,19.654,92.778,47.662,170.614,54.483c131.108,11.49,228.987-44.751,262.646-66.27
						c14.968-4.719,26.213-17.165,29.396-32.533C1793.577,2502.391,1786.807,2486.439,1773.356,2477.936z"/>
					
						<linearGradient id="SVGID_00000159439127824717065700000008202929481454326177_" gradientUnits="userSpaceOnUse" x1="-1255.8848" y1="2404.2522" x2="-1144.3958" y2="2108.7188" gradientTransform="matrix(-1 0 0 1 230.2854 0)">
						<stop  offset="0" style="stop-color:#311944"/>
						<stop  offset="1" style="stop-color:#893976"/>
					</linearGradient>
					<path style="fill:url(#SVGID_00000159439127824717065700000008202929481454326177_);" d="M1361,2171.401
						c-49.059,1.453-79.547,0.882-96.409,22.788c-17.698,22.993,0.19,42.59,3.506,124.454
						c3.024,74.632-10.136,104.142,13.983,145.502c0,0,12.256,21.017,31.603,36.803c68.371,55.788,244.77,55.113,319.013-61.358
						c59.231-92.919,34.535-229.882-35.058-275.202C1563.543,2142.186,1555.718,2165.634,1361,2171.401z"/>
					
						<linearGradient id="SVGID_00000003799939083642443030000017971181023357608586_" gradientUnits="userSpaceOnUse" x1="-1318.2363" y1="2456.9683" x2="-1319.9377" y2="2601.5959" gradientTransform="matrix(-1 0 0 1 230.2854 0)">
						<stop  offset="0" style="stop-color:#311944"/>
						<stop  offset="1" style="stop-color:#893976"/>
					</linearGradient>
					<path style="fill:url(#SVGID_00000003799939083642443030000017971181023357608586_);" d="M1778.614,2436.893l-72.297-45.703
						c0,0-193.652-63.667-372.826,26.101c-20.065,10.053-32.549,30.809-32.549,53.251c0,17.219,10.343,32.753,26.23,39.397
						c31.256,21.339,92.278,56.573,176.397,65.794c133.731,14.66,233.231-46.578,262.646-66.27
						c14.969-4.72,26.213-17.165,29.396-32.533C1798.836,2461.348,1792.066,2445.396,1778.614,2436.893z"/>
				</g>
				<g>
					
						<linearGradient id="SVGID_00000175297243781416242450000011279444120726238873_" gradientUnits="userSpaceOnUse" x1="-1467.1091" y1="1540.7797" x2="-551.0013" y2="2163.041" gradientTransform="matrix(-1 0 0 1 230.2854 0)">
						<stop  offset="0" style="stop-color:#311944"/>
						<stop  offset="1" style="stop-color:#6B3976"/>
					</linearGradient>
					<path style="fill:url(#SVGID_00000175297243781416242450000011279444120726238873_);" d="M1647.063,1871.771
						c17.234-11.173,1.531-43.678,0.603-113.495c-1.137-85.557,21.586-101.501,3.335-135.066
						c-22.317-41.046-78.497-58.032-115.718-58.832c-8.209-0.177-10.129-4.661-78.902,13.151
						c-123.904,32.089-154.922-2.31-210.408,32.051c-53.607,33.199-30.132,69.559-82.19,108.492
						c-84.381,63.11-173.114-5.119-233.422,47.671c-57.041,49.931-58.355,177.148,1.644,246.572
						c68.018,78.704,190.666,55.058,272.873,39.451c17.296-3.281,104.655-21.627,195.614-88.763
						c50.319-37.141,84.867-76.803,106.848-106.027c5.159-5.805,13.208-12.839,23.835-13.971
						c12.758-1.363,23.006,6.441,27.944,9.861C1585.053,1870.825,1630.133,1882.747,1647.063,1871.771z"/>
					
						<linearGradient id="SVGID_00000101824323552138598160000013838962981278134707_" gradientUnits="userSpaceOnUse" x1="1775.3855" y1="1899.3796" x2="1799.022" y2="2279.2493">
						<stop  offset="0" style="stop-color:#FF9085"/>
						<stop  offset="1" style="stop-color:#FB6FBB"/>
					</linearGradient>
					<path style="fill:url(#SVGID_00000101824323552138598160000013838962981278134707_);" d="M1577.816,1824.883
						c22.159-20.188,101.236,18.721,153.642,70.363c61.568,60.67,56.836,109.86,110.565,185.232
						c26.709,37.47,72.504,87.913,153.643,132.101c-5.744,14.358-11.488,28.72-17.231,43.078
						c-39.231,2.36-116.251,0.972-188.105-45.946c-49.915-32.594-75.596-75.781-124.924-160.825
						C1615.901,1963.534,1550.119,1850.119,1577.816,1824.883z"/>
					
						<linearGradient id="SVGID_00000052105386190196892050000012970259987319126462_" gradientUnits="userSpaceOnUse" x1="-1872.2606" y1="2978.8623" x2="-1748.8832" y2="2978.8623" gradientTransform="matrix(-1 0 0 1 230.2854 0)">
						<stop  offset="0" style="stop-color:#311944"/>
						<stop  offset="1" style="stop-color:#6B3976"/>
					</linearGradient>
					<path style="fill:url(#SVGID_00000052105386190196892050000012970259987319126462_);" d="M2077.256,2978.825l-61.73-37.091
						h-27.859c0,0-9.491,35.326-8.414,37.091c12.413,20.339,70.205,35.814,106.269,37.093c5.988,0.212,14.342,0.244,16.501-4.095
						C2105.68,3004.474,2089.346,2989.056,2077.256,2978.825z"/>
					
						<linearGradient id="SVGID_00000016066652908899416470000005890105014351571387_" gradientUnits="userSpaceOnUse" x1="-1814.0757" y1="3027.4854" x2="-1630.006" y2="2475.2747" gradientTransform="matrix(-1 0 0 1 230.2854 0)">
						<stop  offset="0" style="stop-color:#FFC444"/>
						<stop  offset="0.9964" style="stop-color:#F36F56"/>
					</linearGradient>
					<path style="fill:url(#SVGID_00000016066652908899416470000005890105014351571387_);" d="M2014.434,2901.259
						c-3.969,22.962,1.051,34.935,6.462,41.64c3.807,4.72,7.19,6.063,29.793,25.601c7.474,6.462,11.276,9.922,10.412,11.733
						c-0.988,2.072-7.584,0.949-21.827-2.476c-31.04-7.465-46.638-11.349-50.445-18.819c-3.447-6.764-0.399-9.814-0.6-28.244
						c-0.131-12.132-2.599-21.899-4.538-28.009C1993.938,2902.209,2004.186,2901.734,2014.434,2901.259z"/>
					
						<linearGradient id="SVGID_00000132794575264794776910000003966997094634114221_" gradientUnits="userSpaceOnUse" x1="-1852.6226" y1="2752.3235" x2="-1777.1681" y2="2752.3235" gradientTransform="matrix(-1 0 0 1 230.2854 0)">
						<stop  offset="0" style="stop-color:#311944"/>
						<stop  offset="1" style="stop-color:#6B3976"/>
					</linearGradient>
					<path style="fill:url(#SVGID_00000132794575264794776910000003966997094634114221_);" d="M2059.058,2719.273
						c0,0,27.889,33.278,23.351,69.759c-4.538,36.481-53.38-16.855-60.189-34.88c-6.811-18.025-14.766-43.706-14.766-43.706
						S2041.704,2689.138,2059.058,2719.273z"/>
					
						<linearGradient id="SVGID_00000131366905272873906230000013349608797135347862_" gradientUnits="userSpaceOnUse" x1="-1896.3538" y1="2959.5068" x2="-1773.1451" y2="2589.8799" gradientTransform="matrix(-1 0 0 1 230.2854 0)">
						<stop  offset="0" style="stop-color:#FFC444"/>
						<stop  offset="0.9964" style="stop-color:#F36F56"/>
					</linearGradient>
					<path style="fill:url(#SVGID_00000131366905272873906230000013349608797135347862_);" d="M2048.42,2667.204
						c0,0-7.567,38.77,6.865,59.231c7.187,10.191,16.881,18.836,14.03,27.132c-1.911,5.559-9.165,9.553-15.31,8.923
						c-11.764-1.208-18.286-19.245-22.886-31.965c-6.794-18.791-10.581-58.998-10.581-58.998L2048.42,2667.204z"/>
					
						<linearGradient id="SVGID_00000139277151648045145800000012791537540943562174_" gradientUnits="userSpaceOnUse" x1="-1744.5376" y1="2336.7739" x2="-1652.6396" y2="2868.0601" gradientTransform="matrix(-1 0 0 1 230.2854 0)">
						<stop  offset="0" style="stop-color:#AB316D"/>
						<stop  offset="1" style="stop-color:#792D3D"/>
					</linearGradient>
					<path style="fill:url(#SVGID_00000139277151648045145800000012791537540943562174_);" d="M2026.192,2699.887
						c8.577-3.123,17.153-6.249,25.73-9.373c13.38-30.562,29.71-80.76,24.256-141.773
						c-14.027-156.908-159.149-240.054-175.27-248.954c-39.54,19.839-79.59,47.825-81.04,83.107
						c-1.821,44.289,58.513,67.7,115.232,132.462C1969.144,2554.23,2005.521,2612.153,2026.192,2699.887z"/>
					
						<linearGradient id="SVGID_00000023255899638651321350000004164113748092429193_" gradientUnits="userSpaceOnUse" x1="-1614.7566" y1="2966.4248" x2="-1484.0886" y2="2552.8826" gradientTransform="matrix(-1 0 0 1 230.2854 0)">
						<stop  offset="0" style="stop-color:#AB316D"/>
						<stop  offset="1" style="stop-color:#792D3D"/>
					</linearGradient>
					<path style="fill:url(#SVGID_00000023255899638651321350000004164113748092429193_);" d="M2016.946,2919.206
						c28.337-110.702,21.098-201.039,12.923-253.079c-12.356-78.656-37.488-238.65-144.309-298.311
						c-23.326-13.028-56.675-24.695-97.318-60.916c-33.941-30.248-55.513-62.058-68.53-84.47
						c-142.86-41.907-274.627-24.924-332.772,51.693c-6.719,8.854-23.538,28.055-26.792,56.371
						c-7.342,63.888,55.431,140.801,125.87,156.862c89.521,20.413,141.457-71.507,220.771-40.923
						c22.185,8.555,40.996,29.755,78.616,72.154c47.857,53.938,74.761,103.708,84.939,123.623
						c30.307,59.303,53.29,103.081,56.641,159.815c0.781,13.218,1.247,39.92,16.729,68.719
						c11.884,22.107,27.991,36.848,39.975,45.955C1994.776,2917.535,2005.861,2918.372,2016.946,2919.206z"/>
					
						<linearGradient id="SVGID_00000083062024539128659910000005243911066632044161_" gradientUnits="userSpaceOnUse" x1="-1614.7452" y1="2966.4294" x2="-1484.0771" y2="2552.887" gradientTransform="matrix(-1 0 0 1 230.2854 0)">
						<stop  offset="0" style="stop-color:#AB316D"/>
						<stop  offset="1" style="stop-color:#792D3D"/>
					</linearGradient>
					<path style="opacity:0.3;fill:url(#SVGID_00000083062024539128659910000005243911066632044161_);" d="M1360.148,2330.494
						c3.254-28.316,20.074-47.518,26.792-56.371c58.145-76.617,189.912-93.6,332.772-51.693c13.017,22.412,34.59,54.223,68.53,84.47
						c40.644,36.22,73.992,47.888,97.318,60.916c65.229,36.432,99.968,110.266,119.969,180.156
						c-29.677-46.012-55.079-58.243-74.737-58.462c-28.138-0.313-40.71,23.745-74.308,20.461
						c-35.912-3.51-44.121-33.204-73.231-36.615c-8.713-1.02-19.433,0.324-32.31,7.179c-17.183-17.993-29.99-28.642-44.152-34.103
						c-79.315-30.584-131.251,61.337-220.771,40.923C1415.579,2471.295,1352.806,2394.382,1360.148,2330.494z"/>
					
						<linearGradient id="SVGID_00000100382982982050314220000016968989014751222417_" gradientUnits="userSpaceOnUse" x1="-1430.8771" y1="2283.1528" x2="-1339.1912" y2="2813.2136" gradientTransform="matrix(-1 0 0 1 230.2854 0)">
						<stop  offset="0" style="stop-color:#AB316D"/>
						<stop  offset="1" style="stop-color:#792D3D"/>
					</linearGradient>
					<path style="fill:url(#SVGID_00000100382982982050314220000016968989014751222417_);" d="M1942.927,2417.33
						c-16.17-0.86-41.068-1.357-71.104,1.611c-142.545,14.086-181.841,84.594-299.649,101.8
						c-27.869,4.07-151.952,22.193-205.694-49.539c-38.584-51.499-32.746-140.237,9.456-175.138
						c17.861-14.77,35.544-14.36,149.93-13.326c43.077,0.39,86.156,0.528,129.232,1.077
						c182.344,2.324,217.215-10.304,250.393,19.856C1920.967,2317.742,1943.6,2347.961,1942.927,2417.33z"/>
					<g>
						<g>
							
								<linearGradient id="SVGID_00000065067940319488208220000004787415366571348608_" gradientUnits="userSpaceOnUse" x1="-1563.4358" y1="1954.0651" x2="-748.9727" y2="2252.3193" gradientTransform="matrix(-1 0 0 1 230.2854 0)">
								<stop  offset="0" style="stop-color:#FF9085"/>
								<stop  offset="1" style="stop-color:#FB6FBB"/>
							</linearGradient>
							<path style="fill:url(#SVGID_00000065067940319488208220000004787415366571348608_);" d="M1557.98,1832.281
								c0,0-212.779-62.054-234.853,93.721c-21.156,149.304,87.226,217.82,37.912,369.051
								c-5.716,17.529,405.041-62.77,405.041-62.77c-54.83-68.405-67.572-124.838-68.881-164.076
								c-1.436-43.018,10.963-62.571,0-113.424c0,0-12.234-56.74-56.365-105.463
								C1634.5,1842.327,1626.947,1835.042,1557.98,1832.281z"/>
						</g>
						<path style="fill:#F4F7FA;" d="M1421.754,2262.371l-0.904-3.374c1.998-0.535,201.145-53.53,318.949-60.132l0.194,3.489
							C1622.551,2208.934,1423.748,2261.837,1421.754,2262.371z"/>
					</g>
					<g>
						
							<linearGradient id="SVGID_00000075142552744203692680000013061426465121480881_" gradientUnits="userSpaceOnUse" x1="3373.7109" y1="1605.0482" x2="3383.074" y2="1355.6459" gradientTransform="matrix(0.984 0.1784 -0.1784 0.984 -1518.1509 -244.2395)">
							<stop  offset="0" style="stop-color:#FFC444"/>
							<stop  offset="0.9964" style="stop-color:#F36F56"/>
						</linearGradient>
						<path style="fill:url(#SVGID_00000075142552744203692680000013061426465121480881_);" d="M1511.767,1738.926
							c1.95,9.107,11.872,57.974-8.121,70.547c-4.334,2.726-12.662,4.286-29.318,7.408c-10.904,2.044-20.054,3.297-26.506,4.069
							c0.931,8.195,3.692,21.533,13.148,33.665c26.508,34.008,79.662,25.208,87.243,23.828
							c26.735-4.869,53.044-13.129,59.398-18.178c9.673-7.688,17.28-13.456,21.78-19.315c-10.347-5-31.235-18.187-45.255-22.5
							c-10.475-3.224-20.309-5.524-29.255-7.174c-1.471-9.44-2.942-18.88-4.413-28.32
							C1537.569,1768.279,1524.668,1753.602,1511.767,1738.926z"/>
						
							<linearGradient id="SVGID_00000075853327427456705100000006682214407317356675_" gradientUnits="userSpaceOnUse" x1="3370.7886" y1="1384.8749" x2="3366.7808" y2="1707.7883" gradientTransform="matrix(0.984 0.1784 -0.1784 0.984 -1518.1509 -244.2395)">
							<stop  offset="0" style="stop-color:#FFC444"/>
							<stop  offset="0.9964" style="stop-color:#F36F56"/>
						</linearGradient>
						<path style="fill:url(#SVGID_00000075853327427456705100000006682214407317356675_);" d="M1510.832,1763.279
							c0,0,3.612,35.811,38.424,42.123c31.17,5.651,54.633-69.67,38.681-89.152c-5.321-6.499-18.457-12.681-29.844-12.353
							c-8.008,0.23-35.06,10.533-38.835,37.602c-5.388-5.676-12.101-7.309-15.411-4.932c-4.198,3.015-1.948,11.781-1.438,13.768
							C1504.174,1757.216,1508.667,1761.48,1510.832,1763.279z"/>
					</g>
				</g>
			</g>
			<g>
				<g>
					<path style="fill:#B7C0CE;" d="M2403.162,2935.7c-0.095,0-0.187-0.004-0.282-0.011c-1.882-0.157-3.336-1.845-3.336-3.876
						v-728.566c0-2.147,1.617-3.888,3.615-3.888c1.998,0,3.615,1.741,3.615,3.888v678.285l95.477-660.071
						c0.311-2.12,2.167-3.583,4.126-3.243c1.973,0.329,3.325,2.317,3.018,4.439l-102.664,709.754
						C2406.456,2934.316,2404.927,2935.7,2403.162,2935.7z"/>
				</g>
				<g>
					<polygon style="opacity:0.81;fill:#F4F7FA;" points="687.721,2317.128 2384.646,2201.161 3279.658,2301.975 1575.765,2427.034 
											"/>
					<polygon style="fill:#B7C0CE;" points="1575.765,2427.036 687.721,2317.127 687.721,2357.527 1575.765,2467.435 
						3279.658,2342.374 3279.658,2301.974 					"/>
				</g>
				<g>
					<path style="fill:#B7C0CE;" d="M1568.101,3232.486c-1.795,0-3.336-1.427-3.579-3.367l-97.63-778.081
						c-0.266-2.128,1.121-4.086,3.099-4.373c1.968-0.283,3.8,1.204,4.067,3.333l90.432,720.723v-717.315
						c0-2.147,1.619-3.888,3.615-3.888s3.615,1.741,3.615,3.888v775.193c0,2.046-1.474,3.741-3.373,3.879
						C1568.266,3232.484,1568.183,3232.486,1568.101,3232.486z"/>
				</g>
				<g>
					<path style="fill:#B7C0CE;" d="M3267.275,3067.368c-1.793,0-3.333-1.426-3.58-3.364l-90.485-714.837
						c-0.268-2.128,1.115-4.087,3.096-4.377c1.98-0.286,3.798,1.2,4.07,3.329l83.288,657.986v-682.979
						c0-2.147,1.617-3.888,3.615-3.888s3.615,1.741,3.615,3.888v740.355c0,2.045-1.472,3.74-3.371,3.879
						C3267.441,3067.365,3267.356,3067.368,3267.275,3067.368z"/>
				</g>
				<g>
					<path style="fill:#B7C0CE;" d="M698.39,3064.269c-0.09,0-0.178-0.003-0.268-0.01c-1.889-0.149-3.35-1.84-3.35-3.877v-702.539
						c0-2.147,1.618-3.888,3.615-3.888s3.615,1.741,3.615,3.888v649.603l88.886-647.329c0.291-2.125,2.159-3.59,4.104-3.278
						c1.975,0.313,3.339,2.29,3.048,4.414l-96.077,699.697C701.699,3062.868,700.166,3064.269,698.39,3064.269z"/>
				</g>
			</g>
			<g>
				
					<linearGradient id="SVGID_00000064345550112708866100000018230392748488406192_" gradientUnits="userSpaceOnUse" x1="1314.5389" y1="1933.2488" x2="1338.6882" y2="2321.3594">
					<stop  offset="0" style="stop-color:#FF9085"/>
					<stop  offset="1" style="stop-color:#FB6FBB"/>
				</linearGradient>
				<path style="fill:url(#SVGID_00000064345550112708866100000018230392748488406192_);" d="M1467.251,2300.172
					c8.137-9.095,16.274-18.19,24.411-27.285c-63.391-83.181-113.709-119.224-149.335-136.409
					c-7.458-3.597-21.386-9.802-24.41-22.258c-7.727-31.833,67.717-55.084,103.385-118.463c33.053-58.734,28.655-146.071,0-159.386
					c-56.787-26.381-308.074,191.858-238.362,347.492C1219.402,2265.264,1337.005,2314.656,1467.251,2300.172z"/>
			</g>
			<polygon style="fill:#B7C0CE;" points="1645.087,2264.146 1645.087,2253.781 2091.228,2229.741 2091.228,2240.003 
				1775.962,2271.029 			"/>
			<polygon style="fill:#EBEFF2;" points="1645.087,2253.781 1783.477,2255.541 2091.228,2229.741 2005.177,2224.466 			"/>
			<g>
				
					<linearGradient id="SVGID_00000170236620480491913070000007633779463221601967_" gradientUnits="userSpaceOnUse" x1="1704.2445" y1="2016.3527" x2="2417.6355" y2="2016.3527">
					<stop  offset="0.1" style="stop-color:#311944"/>
					<stop  offset="0.267" style="stop-color:#371B47"/>
					<stop  offset="0.4803" style="stop-color:#462150"/>
					<stop  offset="0.7186" style="stop-color:#612A5F"/>
					<stop  offset="0.9736" style="stop-color:#853774"/>
					<stop  offset="1" style="stop-color:#893976"/>
				</linearGradient>
				<path style="fill:url(#SVGID_00000170236620480491913070000007633779463221601967_);" d="M1704.245,2218.035l125.473-392.584
					c1.979-6.193,9.037-10.675,17.031-10.822l549.386-10.084c4.683-0.086,12.808,3.335,15.657,6.289
					c2.847,2.954,6.73,3.495,5.664,7.317l-102.433,345.468c-1.707,5.757-7.825,10.207-14.935,10.858l-585.774,53.685
					L1704.245,2218.035z"/>
				
					<linearGradient id="SVGID_00000029738217924478057990000016874274963613704376_" gradientUnits="userSpaceOnUse" x1="1836.9385" y1="2315.8926" x2="2176.1824" y2="1883.6707">
					<stop  offset="0.1" style="stop-color:#311944"/>
					<stop  offset="0.267" style="stop-color:#371B47"/>
					<stop  offset="0.4803" style="stop-color:#462150"/>
					<stop  offset="0.7186" style="stop-color:#612A5F"/>
					<stop  offset="0.9736" style="stop-color:#853774"/>
					<stop  offset="1" style="stop-color:#893976"/>
				</linearGradient>
				<path style="fill:url(#SVGID_00000029738217924478057990000016874274963613704376_);" d="M1714.313,2228.162l127.24-395.246
					c1.987-6.175,9.024-10.643,16.988-10.794l548.227-10.431c4.673-0.089,9.033,1.573,11.878,4.523
					c2.843,2.95,3.873,6.876,2.806,10.696l-95.784,343.119c-1.649,5.906-7.939,10.479-15.213,11.053L1714.313,2228.162z"/>
				
					<linearGradient id="SVGID_00000082348451424357215520000007833110737912048044_" gradientUnits="userSpaceOnUse" x1="1714.3124" y1="2147.304" x2="2354.5837" y2="2147.304">
					<stop  offset="0.1" style="stop-color:#311944"/>
					<stop  offset="0.267" style="stop-color:#371B47"/>
					<stop  offset="0.4803" style="stop-color:#462150"/>
					<stop  offset="0.7186" style="stop-color:#612A5F"/>
					<stop  offset="0.9736" style="stop-color:#853774"/>
					<stop  offset="1" style="stop-color:#893976"/>
				</linearGradient>
				<path style="opacity:0.2;fill:url(#SVGID_00000082348451424357215520000007833110737912048044_);" d="M1742.984,2139.105
					l-28.672,89.058l596.141-47.079c7.274-0.574,13.565-5.147,15.214-11.053l28.916-103.584
					C2172.899,2129.966,1957.023,2122.996,1742.984,2139.105z"/>
				
					<linearGradient id="SVGID_00000088130632402981529980000009275037786887942816_" gradientUnits="userSpaceOnUse" x1="1916.5095" y1="2281.407" x2="2064.6848" y2="2281.407">
					<stop  offset="0.1" style="stop-color:#311944"/>
					<stop  offset="0.267" style="stop-color:#371B47"/>
					<stop  offset="0.4803" style="stop-color:#462150"/>
					<stop  offset="0.7186" style="stop-color:#612A5F"/>
					<stop  offset="0.9736" style="stop-color:#853774"/>
					<stop  offset="1" style="stop-color:#893976"/>
				</linearGradient>
				<path style="fill:url(#SVGID_00000088130632402981529980000009275037786887942816_);" d="M2064.685,2294.286l-22.611,7.805
					c0,0-118.885-22.324-124.061-25.969c-0.823-0.58-3.675-6.109,1.641-7.023c28.059-4.824,130.487-8.376,130.487-8.376l9.38,0.524
					L2064.685,2294.286z"/>
				
					<linearGradient id="SVGID_00000164512946414090931100000017043805976897438848_" gradientUnits="userSpaceOnUse" x1="1919.5103" y1="2274.4573" x2="2066.3071" y2="2274.4573">
					<stop  offset="0.1" style="stop-color:#311944"/>
					<stop  offset="0.267" style="stop-color:#371B47"/>
					<stop  offset="0.4803" style="stop-color:#462150"/>
					<stop  offset="0.7186" style="stop-color:#612A5F"/>
					<stop  offset="0.9736" style="stop-color:#853774"/>
					<stop  offset="1" style="stop-color:#893976"/>
				</linearGradient>
				<path style="fill:url(#SVGID_00000164512946414090931100000017043805976897438848_);" d="M2066.307,2287.341l-22.608,7.793
					c0,0-118.87-22.386-124.046-26.035c-5.181-3.652,132.109-15.319,132.109-15.319l9.373,0.557L2066.307,2287.341z"/>
				
					<linearGradient id="SVGID_00000162352321481257189530000001267772476281858460_" gradientUnits="userSpaceOnUse" x1="2040.7559" y1="2159.5115" x2="2224.0176" y2="2159.5115">
					<stop  offset="0.1" style="stop-color:#311944"/>
					<stop  offset="0.267" style="stop-color:#371B47"/>
					<stop  offset="0.4803" style="stop-color:#462150"/>
					<stop  offset="0.7186" style="stop-color:#612A5F"/>
					<stop  offset="0.9736" style="stop-color:#853774"/>
					<stop  offset="1" style="stop-color:#893976"/>
				</linearGradient>
				<path style="fill:url(#SVGID_00000162352321481257189530000001267772476281858460_);" d="M2164.603,2014.291
					c0,0,57.697,248.2,59.402,262.729c1.573,13.401-140.253,26.548-174.223,27.709c-2.834,0.096-6.57-1.858-7.708-2.638
					c-9.401-1.083,34.588-284.227,34.588-284.227l3.238,0.123L2164.603,2014.291z"/>
				
					<linearGradient id="SVGID_00000147922512393659277210000009246575118371232925_" gradientUnits="userSpaceOnUse" x1="2048.7898" y1="2159.4597" x2="2231.9221" y2="2159.4597">
					<stop  offset="0.1" style="stop-color:#311944"/>
					<stop  offset="0.267" style="stop-color:#371B47"/>
					<stop  offset="0.4803" style="stop-color:#462150"/>
					<stop  offset="0.7186" style="stop-color:#612A5F"/>
					<stop  offset="0.9736" style="stop-color:#853774"/>
					<stop  offset="1" style="stop-color:#893976"/>
				</linearGradient>
				<path style="fill:url(#SVGID_00000147922512393659277210000009246575118371232925_);" d="M2164.603,2014.291
					c0,0,65.606,250.713,67.306,265.23c1.699,14.502-166.914,25.587-181.662,25.093c-9.387-1.08,29.652-286.626,29.652-286.626
					L2164.603,2014.291z"/>
			</g>
			<path style="fill:#EBEFF2;" d="M1502.881,2253.781c0,0,37.428-17.128,59.039-15.599c21.61,1.53,52.02,21.194,57.308,32.847
				c5.289,11.651-73.121,10.378-73.121,10.378S1452.64,2277.766,1502.881,2253.781z"/>
			
				<linearGradient id="SVGID_00000176032790122143448910000011064247560563415230_" gradientUnits="userSpaceOnUse" x1="1520.3672" y1="2217.9263" x2="1545.6691" y2="2305.1919">
				<stop  offset="0" style="stop-color:#FFC444"/>
				<stop  offset="0.9964" style="stop-color:#F36F56"/>
			</linearGradient>
			<path style="fill:url(#SVGID_00000176032790122143448910000011064247560563415230_);" d="M1483.481,2233.76
				c20.887-26.552,70.688-10.33,73.502-9.373c11.905,4.043,27.857,12.255,26.745,17.492c-1.078,5.071-17.125,2.429-43.6,6.903
				c-38.744,6.546-55.925,20.912-62.779,13.603C1472.109,2256.792,1476.624,2242.479,1483.481,2233.76z"/>
		</g>
		<g>
			<g>
				<polygon style="fill:#BFC8D6;" points="802.451,2664.23 802.579,2831.786 821.471,2839.856 802.585,2839.323 802.664,2943.254 
					779.571,2959.98 800.01,2960.875 803.179,3122.957 1097.453,3254.563 1092.17,2748.603 				"/>
				<polygon style="fill:#EAEDF3;" points="803.014,2664.233 1084.922,2618.856 1376.423,2687.9 1080.214,2748.412 				"/>
				<polygon style="fill:#D8DEE8;" points="1080.22,2749.069 1087.771,2784.417 1073.453,2801.078 1087.982,2937.778 
					1088.569,2995.162 1075.361,3010.567 1090.063,3040.743 1098.945,3254.68 1383.352,3199.717 1380.715,3066.989 
					1360.797,3061.767 1384.333,3054.676 1373.197,3041.617 1362.717,2956.856 1352.781,2893.299 1371.173,2888.41 
					1359.682,2870.228 1354.139,2774.549 1369.873,2761.218 1355.753,2731.096 1356.537,2691.962 				"/>
			</g>
			<polygon style="fill:#EAEDF3;" points="835.631,2776.93 1021.787,2825.517 869.226,2817.275 			"/>
			<polygon style="fill:#BFC8D6;" points="1354.344,2778.146 1123.184,2814.758 1355.566,2799.247 			"/>
		</g>
	</g>
</g>
</svg>
