<?xml version="1.0" encoding="utf-8"?>
<!-- Generator: Adobe Illustrator 27.5.0, SVG Export Plug-In . SVG Version: 6.00 Build 0)  -->
<svg version="1.1" xmlns="http://www.w3.org/2000/svg" xmlns:xlink="http://www.w3.org/1999/xlink" x="0px" y="0px"
	 viewBox="0 0 3710 3710" style="enable-background:new 0 0 3710 3710;" xml:space="preserve">
<g id="Background">
	<g>
		<g>
			<rect style="fill:#FFFFFF;" width="3710" height="3710"/>
		</g>
	</g>
</g>
<g id="Illustration">
	<g>
		<path style="fill:#F4F7FA;" d="M1591.765,402.667c0,0-1010.131,43.899-1067.443,932.289
			c-57.312,888.39-322.382,1733.66,322.382,1784.115s2156.378,148.464,2371.299-380.798S3540.385,216.298,1591.765,402.667z"/>
		<g>
			
				<linearGradient id="SVGID_1_" gradientUnits="userSpaceOnUse" x1="-1160.7244" y1="2122.1501" x2="-1691.929" y2="2748.625" gradientTransform="matrix(1 0 0 1 2581.4224 0)">
				<stop  offset="0" style="stop-color:#311944"/>
				<stop  offset="1" style="stop-color:#893976"/>
			</linearGradient>
			<path style="fill:url(#SVGID_1_);" d="M1334.152,3077.22c-68.599-4.393-133.381-47.855-161.252-114.792l-392.977-943.919
				c-35.779-85.95,4.584-183.226,90.604-217.722c86.627-34.732,221.669,6.178,258.371,93.037l403.151,954.158
				c38.006,89.961-4.853,188.332-95.248,219.283C1414.539,3074.887,1356.783,3078.669,1334.152,3077.22z"/>
			
				<linearGradient id="SVGID_00000018929366536346868250000012224171243501325478_" gradientUnits="userSpaceOnUse" x1="-1226.158" y1="2066.6672" x2="-1757.3608" y2="2693.1399" gradientTransform="matrix(1 0 0 1 2581.4224 0)">
				<stop  offset="0" style="stop-color:#311944"/>
				<stop  offset="1" style="stop-color:#893976"/>
			</linearGradient>
			<path style="opacity:0.3;fill:url(#SVGID_00000018929366536346868250000012224171243501325478_);" d="M870.529,1800.788
				c86.627-34.733,221.669,6.177,258.371,93.036l368.618,872.427c-61.691-15.851-134.724-14.426-204.827-75.896
				c-116.703-102.33-59.29-233.471-151.79-350.282c-42.282-53.396-120.519-109.61-279.775-126.521l-81.201-195.042
				C744.145,1932.559,784.508,1835.283,870.529,1800.788z"/>
			
				<linearGradient id="SVGID_00000142887707604647301090000003327638562448798085_" gradientUnits="userSpaceOnUse" x1="1396.6697" y1="1677.3805" x2="967.8885" y2="2183.0623" gradientTransform="matrix(-1 0 0 1 1925.679 0)">
				<stop  offset="0.0036" style="stop-color:#E38DDD"/>
				<stop  offset="1" style="stop-color:#9571F6"/>
			</linearGradient>
			<path style="fill:url(#SVGID_00000142887707604647301090000003327638562448798085_);" d="M633.955,1613.475
				c3.378,0,6.728,0.255,10.051,0.712l242.922-2.667v631.628l-234.573-3.214c-6.031,1.531-12.171,2.335-18.401,2.335
				c-83.257,0-150.749-140.76-150.749-314.397C483.206,1754.236,550.698,1613.475,633.955,1613.475z"/>
			
				<linearGradient id="SVGID_00000158741965482858852360000009713738067404565381_" gradientUnits="userSpaceOnUse" x1="-915.4439" y1="972.6127" x2="-425.2156" y2="3684.1785" gradientTransform="matrix(1 0 0 1 2581.4224 0)">
				<stop  offset="0" style="stop-color:#AA80F9"/>
				<stop  offset="0.9964" style="stop-color:#6165D7"/>
			</linearGradient>
			<path style="fill:url(#SVGID_00000158741965482858852360000009713738067404565381_);" d="M886.929,1611.52
				c-92.014,210.324-92.014,419.897,0,631.628l1806.996,580.971l18.661-1772.782L886.929,1611.52z"/>
			
				<linearGradient id="SVGID_00000124843454873809439820000001546746944506516654_" gradientUnits="userSpaceOnUse" x1="-1083.1815" y1="977.5715" x2="-586.8495" y2="3722.8979" gradientTransform="matrix(1 0 0 1 2581.4224 0)">
				<stop  offset="0" style="stop-color:#AA80F9"/>
				<stop  offset="0.9964" style="stop-color:#6165D7"/>
			</linearGradient>
			<path style="opacity:0.3;fill:url(#SVGID_00000124843454873809439820000001546746944506516654_);" d="M2206.127,2303.024
				c-171.808-65.091-225.194-314.346-424.663-322.735c-156.514-6.582-203.666,145.387-357.021,128.996
				c-156.982-16.779-183.344-186.029-359.146-245.686c-79.932-27.123-163.552-22.111-244.714,0.819
				c-10.902,125.606,11.113,251.639,66.345,378.729l1806.996,580.971l-106.898-601.916
				C2408.857,2326.134,2289.419,2334.579,2206.127,2303.024z"/>
			
				<linearGradient id="SVGID_00000089537698770057755580000008572643139795014283_" gradientUnits="userSpaceOnUse" x1="-367.5968" y1="1354.8958" x2="-1344.1262" y2="2506.563" gradientTransform="matrix(-1 0 0 1 1925.679 0)">
				<stop  offset="0.0036" style="stop-color:#E38DDD"/>
				<stop  offset="1" style="stop-color:#9571F6"/>
			</linearGradient>
			
				<ellipse style="fill:url(#SVGID_00000089537698770057755580000008572643139795014283_);" cx="2781.541" cy="1930.729" rx="439.553" ry="916.715"/>
			
				<linearGradient id="SVGID_00000114062435240179836980000004516389251306804134_" gradientUnits="userSpaceOnUse" x1="2410.7922" y1="1930.7296" x2="3189.9912" y2="1930.7296">
				<stop  offset="0" style="stop-color:#D8DEE8"/>
				<stop  offset="1" style="stop-color:#FFFFFF"/>
			</linearGradient>
			<path style="fill:url(#SVGID_00000114062435240179836980000004516389251306804134_);" d="M2781.541,2816.341
				c51.537,0,102.18-21.62,150.519-64.262c49.197-43.398,93.692-106.173,132.247-186.582
				c81.048-169.033,125.685-394.464,125.685-634.769c0-240.302-44.636-465.734-125.685-634.767
				c-38.555-80.409-83.05-143.183-132.247-186.582c-48.339-42.642-98.981-64.262-150.519-64.262s-102.18,21.62-150.518,64.262
				c-49.197,43.399-93.692,106.173-132.247,186.582c-33.889,70.677-61.411,151.214-81.967,238.576
				c-28.605,121.574,54.074,248.488,54.074,388.314c0,148.683-80.705,299.549-48.476,427.009
				c19.858,78.543,45.467,151.189,76.368,215.637c38.555,80.409,83.051,143.183,132.247,186.582
				C2679.361,2794.721,2730.004,2816.341,2781.541,2816.341z"/>
			<g>
				<defs>
					<path id="SVGID_00000086649755770779788510000005809507824455451301_" d="M2781.541,2816.341
						c51.537,0,102.18-21.62,150.519-64.262c49.197-43.398,93.692-106.173,132.247-186.582
						c81.048-169.033,125.685-394.464,125.685-634.769c0-240.302-44.636-465.734-125.685-634.767
						c-38.555-80.409-83.05-143.183-132.247-186.582c-48.339-42.642-98.981-64.262-150.519-64.262s-102.18,21.62-150.518,64.262
						c-49.197,43.399-93.692,106.173-132.247,186.582c-81.048,169.033-125.685,394.464-125.685,634.767
						c0,240.304,44.636,465.735,125.685,634.769c38.555,80.409,83.051,143.183,132.247,186.582
						C2679.361,2794.721,2730.004,2816.341,2781.541,2816.341z"/>
				</defs>
				<clipPath id="SVGID_00000043456458844488363290000015592859899385702539_">
					<use xlink:href="#SVGID_00000086649755770779788510000005809507824455451301_"  style="overflow:visible;"/>
				</clipPath>
				
					<linearGradient id="SVGID_00000110446991519786893480000013633646183779023260_" gradientUnits="userSpaceOnUse" x1="-259.1839" y1="1058.2793" x2="60.8946" y2="2828.707" gradientTransform="matrix(1 0 0 1 2581.4224 0)">
					<stop  offset="0" style="stop-color:#FFC444"/>
					<stop  offset="0.9964" style="stop-color:#F36F56"/>
				</linearGradient>
				
					<path style="clip-path:url(#SVGID_00000043456458844488363290000015592859899385702539_);fill:url(#SVGID_00000110446991519786893480000013633646183779023260_);" d="
					M2817.716,1942.756c0,232.253-153.789,416.664-340.82,411.96c-184.139-4.631-331.335-191.371-331.335-417.16
					c0-225.789,147.197-410.252,331.335-412.034C2663.927,1523.713,2817.716,1710.503,2817.716,1942.756z"/>
				
					<linearGradient id="SVGID_00000013189821889626668600000013089642454703673247_" gradientUnits="userSpaceOnUse" x1="-74.6151" y1="1286.3528" x2="161.5538" y2="2592.6572" gradientTransform="matrix(1 0 0 1 2581.4224 0)">
					<stop  offset="0" style="stop-color:#FFC444"/>
					<stop  offset="0.9964" style="stop-color:#F36F56"/>
				</linearGradient>
				
					<path style="opacity:0.3;clip-path:url(#SVGID_00000043456458844488363290000015592859899385702539_);fill:url(#SVGID_00000013189821889626668600000013089642454703673247_);" d="
					M2788.167,1938.978c0,172.465-74.933,309.403-166.063,305.911c-89.72-3.439-161.441-142.107-161.441-309.772
					c0-167.665,71.72-304.641,161.441-305.965C2713.234,1627.807,2788.167,1766.513,2788.167,1938.978z"/>
			</g>
		</g>
		<g>
			<g>
				
					<linearGradient id="SVGID_00000135666650378016096660000003458397858924750760_" gradientUnits="userSpaceOnUse" x1="1593.8575" y1="3188.9001" x2="2459.0269" y2="3188.9001">
					<stop  offset="0" style="stop-color:#F57E53"/>
					<stop  offset="0.0045" style="stop-color:#F58152"/>
					<stop  offset="0.042" style="stop-color:#F99A4D"/>
					<stop  offset="0.084" style="stop-color:#FCAD49"/>
					<stop  offset="0.1333" style="stop-color:#FEBA46"/>
					<stop  offset="0.1962" style="stop-color:#FFC244"/>
					<stop  offset="0.3183" style="stop-color:#FFC444"/>
					<stop  offset="0.455" style="stop-color:#FDB946"/>
					<stop  offset="0.6941" style="stop-color:#F99C4C"/>
					<stop  offset="0.9964" style="stop-color:#F36F56"/>
				</linearGradient>
				<path style="fill:url(#SVGID_00000135666650378016096660000003458397858924750760_);" d="M1658.147,3122.8v83.403
					c0,26.951,168.348,48.797,376.016,48.797c207.669,0,376.017-21.846,376.017-48.797V3122.8H1658.147z"/>
				
					<linearGradient id="SVGID_00000152261059069966598490000015356054648218158510_" gradientUnits="userSpaceOnUse" x1="2030.4182" y1="3091.4419" x2="2076.0291" y2="3473.2717">
					<stop  offset="0" style="stop-color:#FFDB44"/>
					<stop  offset="1" style="stop-color:#FEEF06"/>
				</linearGradient>
				<path style="fill:url(#SVGID_00000152261059069966598490000015356054648218158510_);" d="M2410.181,3122.8
					c0,26.95-168.348,48.797-376.017,48.797c-207.668,0-376.016-21.847-376.016-48.797c0-26.949,168.348-48.797,376.016-48.797
					C2241.833,3074.003,2410.181,3095.851,2410.181,3122.8z"/>
				
					<linearGradient id="SVGID_00000032637411341558826920000000823119999729186488_" gradientUnits="userSpaceOnUse" x1="2028.4347" y1="3074.4138" x2="2042.4426" y2="3191.6802">
					<stop  offset="0" style="stop-color:#FFDB44"/>
					<stop  offset="1" style="stop-color:#FEEF06"/>
				</linearGradient>
				<path style="fill:url(#SVGID_00000032637411341558826920000000823119999729186488_);" d="M2034.163,3174.962
					c-183.917,0-376.235-17.566-376.235-51.449c0-1.86,0.664-5.131,2.525-5.131c1.861,0,1.06,2.559,1.06,4.419
					c0,21.489,153.042,45.429,372.65,45.429s372.65-23.94,372.65-45.429c0-1.86,0.318-3.604,2.178-3.604
					c1.86,0,1.412,2.483,1.412,4.345C2410.403,3157.423,2218.08,3174.962,2034.163,3174.962z"/>
				<g>
					<path style="fill:#FCB048;" d="M1998.632,3125.521c3.689-2.554,7.615-5.071,11.818-7.56c4.162-2.483,9.586-4.728,16.153-6.733
						c6.606-2.006,14.869-3.637,24.788-4.902c9.918-1.266,22.32-1.932,37.128-2.005c14.532-0.071,28.162,0.391,40.927,1.386
						c12.726,0.991,23.957,2.479,33.655,4.456c9.659,1.977,17.547,4.423,23.627,7.329c6.04,2.915,9.64,6.25,10.8,10.011
						l42.339,0.427c3.073,0.02,5.791,0.268,8.117,0.752c2.365,0.482,3.511,1.092,3.514,1.831l0.017,3.486l-54.43-0.524
						c-1.909,4.269-6.773,8.175-14.593,11.717c-7.78,3.545-17.729,6.612-29.847,9.208l-19.823-2.757
						c-1.773-0.271-3.232-0.616-4.376-1.036c-1.144-0.416-1.697-0.869-1.7-1.363c-0.003-0.671,1.529-1.435,4.597-2.292
						c3.068-0.862,6.528-1.927,10.381-3.198c3.854-1.265,7.626-2.762,11.359-4.491c3.694-1.725,6.165-3.788,7.453-6.188
						l-128.474-1.274c-3.375,2.484-7.183,4.923-11.345,7.321c-4.203,2.398-9.745,4.557-16.667,6.474
						c-6.921,1.916-15.539,3.472-25.851,4.669c-10.353,1.195-23.306,1.83-38.98,1.907c-11.776,0.058-23.238-0.389-34.467-1.336
						c-11.229-0.951-21.2-2.372-29.913-4.263c-8.713-1.896-15.852-4.239-21.459-7.027c-5.566-2.792-8.694-5.997-9.341-9.622
						l-34.856-0.358c-3.072-0.019-5.79-0.26-8.235-0.725c-2.404-0.465-3.628-1.083-3.632-1.856l-0.017-3.487l47.655,0.454
						c2.109-3.672,6.426-6.875,13.029-9.598c6.603-2.727,14.665-5.153,24.185-7.276l15.961,2.192
						c4.847,0.681,7.254,1.478,7.258,2.393c0.002,0.494-0.98,1.105-2.984,1.837c-2.045,0.733-4.403,1.607-7.156,2.623
						c-2.712,1.019-5.384,2.21-7.937,3.581c-2.593,1.367-4.515,2.916-5.806,4.65L1998.632,3125.521z M1881.057,3130.271
						c0.957,2.287,3.092,4.254,6.33,5.91c3.237,1.661,7.261,3.02,12.111,4.089c4.849,1.068,10.288,1.849,16.315,2.349
						c6.068,0.499,12.41,0.734,19.026,0.702c7.719-0.038,14.452-0.372,20.199-0.998c5.707-0.631,10.744-1.48,15.111-2.559
						c4.327-1.079,8.141-2.327,11.363-3.752c3.222-1.427,6.09-2.97,8.681-4.638L1881.057,3130.271z M2160.74,3127.154
						c-0.956-2.316-3.29-4.347-6.922-6.091c-3.631-1.74-8.286-3.209-13.924-4.394c-5.637-1.188-12.218-2.072-19.743-2.649
						c-7.486-0.578-15.757-0.847-24.816-0.802c-8.033,0.039-15.003,0.4-20.789,1.077c-5.786,0.682-10.823,1.593-15.11,2.744
						c-4.248,1.147-7.904,2.485-10.85,4.012c-2.985,1.528-5.774,3.163-8.324,4.903L2160.74,3127.154z"/>
				</g>
				
					<linearGradient id="SVGID_00000119090052843786244330000011786510458045384372_" gradientUnits="userSpaceOnUse" x1="-372.3534" y1="948.4533" x2="-358.3953" y2="1065.3029" gradientTransform="matrix(-1 0 0 -1 1669.249 4127.8389)">
					<stop  offset="0.0036" style="stop-color:#F36F56"/>
					<stop  offset="0.3059" style="stop-color:#F99C4C"/>
					<stop  offset="0.545" style="stop-color:#FDB946"/>
					<stop  offset="0.6817" style="stop-color:#FFC444"/>
					<stop  offset="0.8038" style="stop-color:#FFC244"/>
					<stop  offset="0.8667" style="stop-color:#FEBA46"/>
					<stop  offset="0.916" style="stop-color:#FCAD49"/>
					<stop  offset="0.958" style="stop-color:#F99A4D"/>
					<stop  offset="0.9955" style="stop-color:#F58152"/>
					<stop  offset="1" style="stop-color:#F57E53"/>
				</linearGradient>
				<path style="fill:url(#SVGID_00000119090052843786244330000011786510458045384372_);" d="M2034.215,3079.286
					c-167.66,0-342.23,14.753-370.154,43.313c1.094,1.007,2.109,2.082,3.053,3.214c23.536-19.83,167.682-39.794,367.101-39.794
					c204.538,0,350.996,21.005,368.737,41.322c0.871-1.114,1.803-2.18,2.812-3.185
					C2382.7,3094.584,2204.853,3079.286,2034.215,3079.286z"/>
			</g>
			<g>
				
					<linearGradient id="SVGID_00000103946266911331488240000007669090573384691329_" gradientUnits="userSpaceOnUse" x1="1489.3263" y1="3101.2961" x2="2354.4963" y2="3101.2961">
					<stop  offset="0" style="stop-color:#F57E53"/>
					<stop  offset="0.0045" style="stop-color:#F58152"/>
					<stop  offset="0.042" style="stop-color:#F99A4D"/>
					<stop  offset="0.084" style="stop-color:#FCAD49"/>
					<stop  offset="0.1333" style="stop-color:#FEBA46"/>
					<stop  offset="0.1962" style="stop-color:#FFC244"/>
					<stop  offset="0.3183" style="stop-color:#FFC444"/>
					<stop  offset="0.455" style="stop-color:#FDB946"/>
					<stop  offset="0.6941" style="stop-color:#F99C4C"/>
					<stop  offset="0.9964" style="stop-color:#F36F56"/>
				</linearGradient>
				<path style="fill:url(#SVGID_00000103946266911331488240000007669090573384691329_);" d="M1553.616,3035.197v83.402
					c0,26.951,168.349,48.797,376.017,48.797c207.668,0,376.017-21.846,376.017-48.797v-83.402H1553.616z"/>
				
					<linearGradient id="SVGID_00000106110055305888817260000000034998547552851609_" gradientUnits="userSpaceOnUse" x1="1925.8873" y1="3003.8386" x2="1971.4983" y2="3385.6689">
					<stop  offset="0" style="stop-color:#FFDB44"/>
					<stop  offset="1" style="stop-color:#FEEF06"/>
				</linearGradient>
				<path style="fill:url(#SVGID_00000106110055305888817260000000034998547552851609_);" d="M2305.65,3035.197
					c0,26.95-168.349,48.797-376.017,48.797c-207.669,0-376.017-21.847-376.017-48.797c0-26.95,168.349-48.797,376.017-48.797
					C2137.302,2986.4,2305.65,3008.247,2305.65,3035.197z"/>
				
					<linearGradient id="SVGID_00000025408210686864348260000012279367693360159416_" gradientUnits="userSpaceOnUse" x1="1923.9039" y1="2986.8108" x2="1937.9117" y2="3104.0762">
					<stop  offset="0" style="stop-color:#FFDB44"/>
					<stop  offset="1" style="stop-color:#FEEF06"/>
				</linearGradient>
				<path style="fill:url(#SVGID_00000025408210686864348260000012279367693360159416_);" d="M1929.632,3087.359
					c-183.917,0-376.235-17.567-376.235-51.449c0-1.861,0.664-5.131,2.525-5.131c1.861,0,1.061,2.557,1.061,4.418
					c0,21.488,153.043,45.429,372.65,45.429s372.65-23.941,372.65-45.429c0-1.861,0.318-3.604,2.178-3.604
					c1.861,0,1.412,2.483,1.412,4.344C2305.872,3069.819,2113.549,3087.359,1929.632,3087.359z"/>
				<g>
					<path style="fill:#FCB048;" d="M1894.101,3037.917c3.69-2.554,7.616-5.071,11.817-7.559c4.162-2.484,9.587-4.729,16.154-6.734
						c6.606-2.005,14.869-3.637,24.787-4.902c9.918-1.265,22.321-1.932,37.129-2.005c14.532-0.071,28.16,0.39,40.925,1.386
						c12.726,0.99,23.957,2.478,33.656,4.455c9.658,1.978,17.547,4.423,23.626,7.33c6.039,2.915,9.64,6.251,10.8,10.01l42.339,0.428
						c3.072,0.019,5.791,0.269,8.117,0.751c2.365,0.483,3.51,1.092,3.514,1.831l0.017,3.486l-54.43-0.524
						c-1.909,4.269-6.772,8.175-14.592,11.716c-7.781,3.546-17.73,6.613-29.847,9.208l-19.823-2.757
						c-1.773-0.27-3.233-0.616-4.376-1.036c-1.145-0.415-1.698-0.869-1.701-1.363c-0.003-0.67,1.529-1.435,4.597-2.292
						c3.068-0.862,6.528-1.928,10.381-3.197c3.853-1.266,7.626-2.763,11.36-4.492c3.693-1.725,6.164-3.788,7.452-6.188
						l-128.474-1.274c-3.375,2.485-7.183,4.923-11.346,7.321c-4.202,2.397-9.745,4.557-16.666,6.474
						c-6.923,1.917-15.539,3.472-25.852,4.671c-10.351,1.194-23.306,1.83-38.98,1.906c-11.775,0.057-23.238-0.39-34.466-1.336
						c-11.229-0.951-21.2-2.372-29.913-4.264c-8.713-1.896-15.853-4.238-21.459-7.026c-5.567-2.793-8.693-5.997-9.341-9.622
						l-34.856-0.358c-3.072-0.019-5.791-0.26-8.234-0.725c-2.405-0.465-3.629-1.082-3.633-1.856l-0.017-3.487l47.656,0.455
						c2.109-3.674,6.426-6.875,13.028-9.599c6.603-2.728,14.665-5.153,24.185-7.276l15.961,2.191
						c4.848,0.681,7.254,1.478,7.258,2.394c0.003,0.494-0.979,1.105-2.984,1.837c-2.044,0.733-4.403,1.608-7.154,2.623
						c-2.713,1.02-5.385,2.21-7.939,3.582c-2.592,1.366-4.514,2.914-5.806,4.649L1894.101,3037.917z M1776.526,3042.667
						c0.956,2.287,3.092,4.254,6.33,5.91c3.238,1.661,7.261,3.021,12.111,4.088c4.849,1.069,10.288,1.85,16.316,2.349
						c6.067,0.499,12.409,0.735,19.025,0.702c7.719-0.038,14.452-0.372,20.199-0.997c5.708-0.63,10.744-1.48,15.11-2.559
						c4.327-1.078,8.141-2.326,11.363-3.752c3.222-1.426,6.09-2.969,8.681-4.637L1776.526,3042.667z M2056.21,3039.55
						c-0.957-2.316-3.291-4.347-6.922-6.092c-3.632-1.741-8.286-3.209-13.923-4.393c-5.638-1.189-12.219-2.072-19.744-2.65
						c-7.486-0.579-15.757-0.847-24.815-0.803c-8.034,0.039-15.003,0.4-20.789,1.078c-5.786,0.681-10.822,1.591-15.109,2.743
						c-4.247,1.147-7.903,2.485-10.85,4.013c-2.986,1.528-5.774,3.162-8.326,4.902L2056.21,3039.55z"/>
				</g>
				
					<linearGradient id="SVGID_00000183249603602558061530000001543834961544548797_" gradientUnits="userSpaceOnUse" x1="-267.8233" y1="1036.0562" x2="-253.8651" y2="1152.9071" gradientTransform="matrix(-1 0 0 -1 1669.249 4127.8389)">
					<stop  offset="0.0036" style="stop-color:#F36F56"/>
					<stop  offset="0.3059" style="stop-color:#F99C4C"/>
					<stop  offset="0.545" style="stop-color:#FDB946"/>
					<stop  offset="0.6817" style="stop-color:#FFC444"/>
					<stop  offset="0.8038" style="stop-color:#FFC244"/>
					<stop  offset="0.8667" style="stop-color:#FEBA46"/>
					<stop  offset="0.916" style="stop-color:#FCAD49"/>
					<stop  offset="0.958" style="stop-color:#F99A4D"/>
					<stop  offset="0.9955" style="stop-color:#F58152"/>
					<stop  offset="1" style="stop-color:#F57E53"/>
				</linearGradient>
				<path style="fill:url(#SVGID_00000183249603602558061530000001543834961544548797_);" d="M1929.684,2991.681
					c-167.659,0-342.23,14.753-370.154,43.313c1.093,1.008,2.108,2.083,3.052,3.214c23.537-19.83,167.683-39.794,367.102-39.794
					c204.538,0,350.995,21.005,368.736,41.323c0.871-1.115,1.803-2.182,2.812-3.187
					C2278.17,3006.981,2100.322,2991.681,1929.684,2991.681z"/>
			</g>
			<g>
				
					<linearGradient id="SVGID_00000134949416169370897610000010355707133569855122_" gradientUnits="userSpaceOnUse" x1="1579.5225" y1="3013.9492" x2="2444.6926" y2="3013.9492">
					<stop  offset="0" style="stop-color:#F57E53"/>
					<stop  offset="0.0045" style="stop-color:#F58152"/>
					<stop  offset="0.042" style="stop-color:#F99A4D"/>
					<stop  offset="0.084" style="stop-color:#FCAD49"/>
					<stop  offset="0.1333" style="stop-color:#FEBA46"/>
					<stop  offset="0.1962" style="stop-color:#FFC244"/>
					<stop  offset="0.3183" style="stop-color:#FFC444"/>
					<stop  offset="0.455" style="stop-color:#FDB946"/>
					<stop  offset="0.6941" style="stop-color:#F99C4C"/>
					<stop  offset="0.9964" style="stop-color:#F36F56"/>
				</linearGradient>
				<path style="fill:url(#SVGID_00000134949416169370897610000010355707133569855122_);" d="M1643.812,2947.85v83.402
					c0,26.951,168.348,48.797,376.017,48.797c207.668,0,376.017-21.846,376.017-48.797v-83.402H1643.812z"/>
				
					<linearGradient id="SVGID_00000072999222388863126960000012608759896065317297_" gradientUnits="userSpaceOnUse" x1="2016.083" y1="2916.4912" x2="2061.6938" y2="3298.3215">
					<stop  offset="0" style="stop-color:#FFDB44"/>
					<stop  offset="1" style="stop-color:#FEEF06"/>
				</linearGradient>
				<path style="fill:url(#SVGID_00000072999222388863126960000012608759896065317297_);" d="M2395.846,2947.849
					c0,26.95-168.349,48.797-376.017,48.797s-376.017-21.847-376.017-48.797s168.349-48.797,376.017-48.797
					S2395.846,2920.899,2395.846,2947.849z"/>
				
					<linearGradient id="SVGID_00000075155706501601426060000014765272918902802816_" gradientUnits="userSpaceOnUse" x1="2014.0999" y1="2899.4629" x2="2028.1077" y2="3016.7288">
					<stop  offset="0" style="stop-color:#FFDB44"/>
					<stop  offset="1" style="stop-color:#FEEF06"/>
				</linearGradient>
				<path style="fill:url(#SVGID_00000075155706501601426060000014765272918902802816_);" d="M2019.828,3000.011
					c-183.917,0-376.235-17.567-376.235-51.449c0-1.861,0.664-5.131,2.525-5.131s1.06,2.558,1.06,4.419
					c0,21.488,153.043,45.428,372.65,45.428s372.65-23.94,372.65-45.428c0-1.862,0.318-3.605,2.178-3.605
					c1.862,0,1.412,2.483,1.412,4.344C2396.068,2982.471,2203.745,3000.011,2019.828,3000.011z"/>
				<g>
					<path style="fill:#FCB048;" d="M1984.297,2950.569c3.689-2.555,7.616-5.071,11.817-7.559c4.163-2.484,9.587-4.729,16.154-6.734
						c6.606-2.006,14.869-3.637,24.788-4.902c9.918-1.265,22.321-1.932,37.128-2.005c14.532-0.072,28.161,0.39,40.925,1.385
						c12.726,0.991,23.957,2.479,33.655,4.456c9.659,1.978,17.547,4.423,23.627,7.33c6.039,2.915,9.64,6.251,10.8,10.01
						l42.339,0.428c3.073,0.019,5.791,0.268,8.117,0.751c2.365,0.483,3.511,1.092,3.514,1.831l0.017,3.486l-54.43-0.524
						c-1.909,4.27-6.773,8.176-14.593,11.717c-7.781,3.547-17.73,6.613-29.846,9.208l-19.824-2.757
						c-1.773-0.27-3.233-0.616-4.376-1.036c-1.144-0.415-1.698-0.869-1.7-1.363c-0.003-0.671,1.529-1.435,4.597-2.292
						c3.068-0.861,6.528-1.927,10.381-3.197c3.853-1.266,7.627-2.763,11.36-4.493c3.693-1.724,6.165-3.787,7.452-6.188
						l-128.474-1.274c-3.375,2.484-7.183,4.923-11.346,7.32c-4.202,2.398-9.745,4.557-16.666,6.474
						c-6.923,1.917-15.539,3.472-25.852,4.671c-10.352,1.194-23.306,1.83-38.98,1.906c-11.775,0.057-23.238-0.39-34.466-1.336
						c-11.229-0.951-21.2-2.372-29.913-4.264c-8.713-1.896-15.853-4.238-21.459-7.026c-5.567-2.793-8.693-5.997-9.341-9.622
						l-34.856-0.358c-3.072-0.019-5.79-0.259-8.234-0.725c-2.405-0.465-3.629-1.083-3.633-1.856l-0.017-3.487l47.655,0.454
						c2.109-3.673,6.426-6.875,13.029-9.599c6.602-2.728,14.664-5.153,24.184-7.276l15.961,2.191
						c4.848,0.681,7.254,1.478,7.258,2.394c0.003,0.494-0.979,1.105-2.984,1.837c-2.044,0.732-4.403,1.608-7.154,2.623
						c-2.713,1.02-5.385,2.21-7.938,3.581c-2.593,1.367-4.515,2.915-5.806,4.65L1984.297,2950.569z M1866.722,2955.32
						c0.956,2.286,3.092,4.253,6.331,5.909c3.237,1.661,7.261,3.021,12.11,4.089c4.85,1.068,10.288,1.85,16.316,2.348
						c6.067,0.499,12.409,0.735,19.025,0.702c7.719-0.038,14.452-0.372,20.199-0.997c5.708-0.629,10.745-1.48,15.11-2.559
						c4.327-1.078,8.141-2.327,11.363-3.753c3.222-1.425,6.09-2.97,8.681-4.637L1866.722,2955.32z M2146.405,2952.203
						c-0.957-2.316-3.29-4.347-6.921-6.092c-3.632-1.74-8.286-3.209-13.924-4.393c-5.637-1.189-12.219-2.072-19.744-2.65
						c-7.485-0.578-15.757-0.847-24.815-0.802c-8.034,0.039-15.003,0.4-20.789,1.078c-5.786,0.681-10.822,1.591-15.109,2.743
						c-4.248,1.147-7.904,2.485-10.85,4.012c-2.986,1.528-5.774,3.162-8.326,4.902L2146.405,2952.203z"/>
				</g>
				
					<linearGradient id="SVGID_00000066509703163309546520000005757340541736981389_" gradientUnits="userSpaceOnUse" x1="-358.0189" y1="1123.4037" x2="-344.0607" y2="1240.2543" gradientTransform="matrix(-1 0 0 -1 1669.249 4127.8389)">
					<stop  offset="0.0036" style="stop-color:#F36F56"/>
					<stop  offset="0.3059" style="stop-color:#F99C4C"/>
					<stop  offset="0.545" style="stop-color:#FDB946"/>
					<stop  offset="0.6817" style="stop-color:#FFC444"/>
					<stop  offset="0.8038" style="stop-color:#FFC244"/>
					<stop  offset="0.8667" style="stop-color:#FEBA46"/>
					<stop  offset="0.916" style="stop-color:#FCAD49"/>
					<stop  offset="0.958" style="stop-color:#F99A4D"/>
					<stop  offset="0.9955" style="stop-color:#F58152"/>
					<stop  offset="1" style="stop-color:#F57E53"/>
				</linearGradient>
				<path style="fill:url(#SVGID_00000066509703163309546520000005757340541736981389_);" d="M2019.88,2904.335
					c-167.659,0-342.23,14.753-370.153,43.313c1.094,1.008,2.108,2.082,3.052,3.214c23.536-19.83,167.683-39.793,367.102-39.793
					c204.538,0,350.996,21.004,368.736,41.322c0.871-1.115,1.804-2.182,2.812-3.187
					C2368.365,2919.634,2190.518,2904.335,2019.88,2904.335z"/>
			</g>
			<g>
				
					<linearGradient id="SVGID_00000029028469087563272430000013617839574915257243_" gradientUnits="userSpaceOnUse" x1="1634.2557" y1="2926.345" x2="2499.4258" y2="2926.345">
					<stop  offset="0" style="stop-color:#F57E53"/>
					<stop  offset="0.0045" style="stop-color:#F58152"/>
					<stop  offset="0.042" style="stop-color:#F99A4D"/>
					<stop  offset="0.084" style="stop-color:#FCAD49"/>
					<stop  offset="0.1333" style="stop-color:#FEBA46"/>
					<stop  offset="0.1962" style="stop-color:#FFC244"/>
					<stop  offset="0.3183" style="stop-color:#FFC444"/>
					<stop  offset="0.455" style="stop-color:#FDB946"/>
					<stop  offset="0.6941" style="stop-color:#F99C4C"/>
					<stop  offset="0.9964" style="stop-color:#F36F56"/>
				</linearGradient>
				<path style="fill:url(#SVGID_00000029028469087563272430000013617839574915257243_);" d="M1698.546,2860.246v83.402
					c0,26.95,168.349,48.797,376.017,48.797c207.669,0,376.017-21.846,376.017-48.797v-83.402H1698.546z"/>
				
					<linearGradient id="SVGID_00000182516346367253997080000005393710799350057398_" gradientUnits="userSpaceOnUse" x1="2070.8167" y1="2828.8867" x2="2116.4277" y2="3210.7173">
					<stop  offset="0" style="stop-color:#FFDB44"/>
					<stop  offset="1" style="stop-color:#FEEF06"/>
				</linearGradient>
				<path style="fill:url(#SVGID_00000182516346367253997080000005393710799350057398_);" d="M2450.58,2860.245
					c0,26.95-168.349,48.797-376.017,48.797c-207.668,0-376.017-21.847-376.017-48.797c0-26.95,168.349-48.797,376.017-48.797
					C2282.231,2811.448,2450.58,2833.295,2450.58,2860.245z"/>
				
					<linearGradient id="SVGID_00000018197136906305958900000015209397194614793631_" gradientUnits="userSpaceOnUse" x1="2068.8333" y1="2811.8591" x2="2082.8411" y2="2929.1248">
					<stop  offset="0" style="stop-color:#FFDB44"/>
					<stop  offset="1" style="stop-color:#FEEF06"/>
				</linearGradient>
				<path style="fill:url(#SVGID_00000018197136906305958900000015209397194614793631_);" d="M2074.562,2912.407
					c-183.917,0-376.235-17.567-376.235-51.449c0-1.862,0.664-5.131,2.525-5.131c1.861,0,1.061,2.558,1.061,4.419
					c0,21.488,153.042,45.428,372.65,45.428c219.607,0,372.65-23.94,372.65-45.428c0-1.861,0.317-3.604,2.178-3.604
					c1.861,0,1.412,2.483,1.412,4.343C2450.802,2894.867,2258.478,2912.407,2074.562,2912.407z"/>
				<g>
					<path style="fill:#FCB048;" d="M2039.03,2862.965c3.689-2.555,7.615-5.071,11.817-7.559c4.163-2.484,9.586-4.728,16.154-6.734
						c6.606-2.006,14.869-3.636,24.787-4.902c9.918-1.265,22.321-1.932,37.128-2.005c14.532-0.072,28.161,0.39,40.926,1.386
						c12.726,0.99,23.957,2.479,33.655,4.456c9.659,1.978,17.547,4.423,23.627,7.33c6.04,2.914,9.641,6.25,10.8,10.01l42.339,0.429
						c3.073,0.019,5.791,0.268,8.117,0.751c2.365,0.483,3.511,1.092,3.514,1.831l0.017,3.487l-54.43-0.524
						c-1.909,4.269-6.773,8.175-14.593,11.717c-7.78,3.546-17.729,6.613-29.846,9.208l-19.824-2.757
						c-1.773-0.271-3.232-0.616-4.376-1.035c-1.144-0.416-1.698-0.869-1.7-1.364c-0.003-0.671,1.529-1.435,4.597-2.292
						c3.068-0.862,6.528-1.928,10.382-3.198c3.853-1.266,7.626-2.763,11.359-4.492c3.694-1.724,6.165-3.787,7.452-6.188
						l-128.474-1.274c-3.375,2.484-7.183,4.923-11.345,7.32c-4.203,2.398-9.745,4.557-16.667,6.474
						c-6.922,1.917-15.539,3.473-25.852,4.671c-10.352,1.194-23.306,1.829-38.98,1.906c-11.776,0.058-23.238-0.388-34.466-1.335
						c-11.23-0.951-21.2-2.372-29.914-4.264c-8.713-1.896-15.852-4.238-21.459-7.026c-5.566-2.793-8.693-5.997-9.341-9.623
						l-34.856-0.358c-3.072-0.019-5.79-0.26-8.234-0.724c-2.405-0.466-3.629-1.083-3.633-1.857l-0.017-3.485l47.655,0.454
						c2.109-3.673,6.426-6.875,13.029-9.599c6.603-2.728,14.665-5.153,24.185-7.276l15.961,2.191
						c4.847,0.681,7.254,1.478,7.258,2.393c0.002,0.494-0.979,1.105-2.984,1.837c-2.044,0.732-4.403,1.608-7.155,2.623
						c-2.712,1.02-5.385,2.21-7.938,3.582c-2.593,1.366-4.514,2.916-5.806,4.649L2039.03,2862.965z M1921.455,2867.716
						c0.957,2.286,3.092,4.253,6.331,5.91c3.237,1.66,7.261,3.02,12.111,4.089c4.849,1.067,10.288,1.849,16.316,2.348
						c6.067,0.499,12.409,0.735,19.025,0.702c7.719-0.038,14.452-0.372,20.199-0.998c5.708-0.63,10.745-1.48,15.111-2.559
						c4.327-1.079,8.141-2.327,11.363-3.753c3.222-1.425,6.09-2.97,8.681-4.638L1921.455,2867.716z M2201.138,2864.599
						c-0.956-2.317-3.29-4.347-6.921-6.093c-3.632-1.739-8.286-3.208-13.924-4.393c-5.638-1.189-12.219-2.072-19.744-2.65
						c-7.486-0.578-15.757-0.847-24.815-0.802c-8.034,0.04-15.003,0.401-20.789,1.078c-5.786,0.682-10.823,1.592-15.109,2.743
						c-4.248,1.147-7.904,2.485-10.85,4.012c-2.986,1.528-5.774,3.162-8.325,4.902L2201.138,2864.599z"/>
				</g>
				
					<linearGradient id="SVGID_00000052061977633014370120000007055618873727142079_" gradientUnits="userSpaceOnUse" x1="-412.752" y1="1211.0078" x2="-398.7939" y2="1327.8582" gradientTransform="matrix(-1 0 0 -1 1669.249 4127.8389)">
					<stop  offset="0.0036" style="stop-color:#F36F56"/>
					<stop  offset="0.3059" style="stop-color:#F99C4C"/>
					<stop  offset="0.545" style="stop-color:#FDB946"/>
					<stop  offset="0.6817" style="stop-color:#FFC444"/>
					<stop  offset="0.8038" style="stop-color:#FFC244"/>
					<stop  offset="0.8667" style="stop-color:#FEBA46"/>
					<stop  offset="0.916" style="stop-color:#FCAD49"/>
					<stop  offset="0.958" style="stop-color:#F99A4D"/>
					<stop  offset="0.9955" style="stop-color:#F58152"/>
					<stop  offset="1" style="stop-color:#F57E53"/>
				</linearGradient>
				<path style="fill:url(#SVGID_00000052061977633014370120000007055618873727142079_);" d="M2074.613,2816.73
					c-167.66,0-342.229,14.753-370.154,43.313c1.094,1.008,2.108,2.083,3.052,3.214c23.536-19.828,167.683-39.793,367.101-39.793
					c204.538,0,350.996,21.005,368.737,41.322c0.871-1.114,1.803-2.182,2.812-3.186
					C2423.099,2832.03,2245.251,2816.73,2074.613,2816.73z"/>
			</g>
			<g>
				
					<linearGradient id="SVGID_00000014632673457034592920000009667807527996090265_" gradientUnits="userSpaceOnUse" x1="1593.8575" y1="2831.8298" x2="2459.0269" y2="2831.8298">
					<stop  offset="0" style="stop-color:#F57E53"/>
					<stop  offset="0.0045" style="stop-color:#F58152"/>
					<stop  offset="0.042" style="stop-color:#F99A4D"/>
					<stop  offset="0.084" style="stop-color:#FCAD49"/>
					<stop  offset="0.1333" style="stop-color:#FEBA46"/>
					<stop  offset="0.1962" style="stop-color:#FFC244"/>
					<stop  offset="0.3183" style="stop-color:#FFC444"/>
					<stop  offset="0.455" style="stop-color:#FDB946"/>
					<stop  offset="0.6941" style="stop-color:#F99C4C"/>
					<stop  offset="0.9964" style="stop-color:#F36F56"/>
				</linearGradient>
				<path style="fill:url(#SVGID_00000014632673457034592920000009667807527996090265_);" d="M1658.147,2765.731v83.402
					c0,26.95,168.348,48.797,376.016,48.797c207.669,0,376.017-21.846,376.017-48.797v-83.402H1658.147z"/>
				
					<linearGradient id="SVGID_00000173849498984069211400000016782099354590882183_" gradientUnits="userSpaceOnUse" x1="2030.4182" y1="2734.3718" x2="2076.0291" y2="3116.2024">
					<stop  offset="0" style="stop-color:#FFDB44"/>
					<stop  offset="1" style="stop-color:#FEEF06"/>
				</linearGradient>
				<path style="fill:url(#SVGID_00000173849498984069211400000016782099354590882183_);" d="M2410.181,2765.73
					c0,26.95-168.348,48.797-376.017,48.797c-207.668,0-376.016-21.847-376.016-48.797c0-26.95,168.348-48.796,376.016-48.796
					C2241.833,2716.934,2410.181,2738.78,2410.181,2765.73z"/>
				
					<linearGradient id="SVGID_00000095335369405609692500000009994974173378529438_" gradientUnits="userSpaceOnUse" x1="2028.4347" y1="2717.3442" x2="2042.4425" y2="2834.6099">
					<stop  offset="0" style="stop-color:#FFDB44"/>
					<stop  offset="1" style="stop-color:#FEEF06"/>
				</linearGradient>
				<path style="fill:url(#SVGID_00000095335369405609692500000009994974173378529438_);" d="M2034.163,2817.892
					c-183.917,0-376.235-17.567-376.235-51.449c0-1.862,0.664-5.131,2.525-5.131c1.861,0,1.06,2.558,1.06,4.419
					c0,21.488,153.042,45.428,372.65,45.428s372.65-23.94,372.65-45.428c0-1.861,0.318-3.604,2.178-3.604
					c1.86,0,1.412,2.483,1.412,4.343C2410.403,2800.353,2218.08,2817.892,2034.163,2817.892z"/>
				<g>
					<path style="fill:#FCB048;" d="M1998.632,2768.45c3.689-2.555,7.615-5.071,11.818-7.559c4.162-2.484,9.586-4.728,16.153-6.734
						c6.606-2.006,14.869-3.636,24.788-4.902c9.918-1.265,22.32-1.932,37.128-2.005c14.532-0.072,28.162,0.39,40.927,1.386
						c12.726,0.99,23.957,2.479,33.655,4.456c9.659,1.978,17.547,4.423,23.627,7.33c6.04,2.914,9.64,6.25,10.8,10.01l42.339,0.429
						c3.073,0.019,5.791,0.268,8.117,0.751c2.365,0.483,3.511,1.092,3.514,1.831l0.017,3.487l-54.43-0.524
						c-1.909,4.27-6.773,8.175-14.593,11.717c-7.78,3.546-17.729,6.613-29.847,9.208l-19.823-2.757
						c-1.773-0.271-3.232-0.616-4.376-1.035c-1.144-0.416-1.697-0.869-1.7-1.364c-0.003-0.67,1.529-1.434,4.597-2.292
						c3.068-0.862,6.528-1.928,10.381-3.198c3.854-1.266,7.626-2.763,11.359-4.492c3.694-1.725,6.165-3.787,7.453-6.188
						l-128.474-1.274c-3.375,2.484-7.183,4.923-11.345,7.32c-4.203,2.398-9.745,4.557-16.667,6.474
						c-6.921,1.917-15.539,3.473-25.851,4.671c-10.353,1.194-23.306,1.829-38.98,1.906c-11.776,0.058-23.238-0.388-34.467-1.335
						c-11.229-0.951-21.2-2.372-29.913-4.264c-8.713-1.896-15.852-4.238-21.459-7.026c-5.566-2.793-8.694-5.997-9.341-9.623
						l-34.856-0.357c-3.072-0.02-5.79-0.26-8.235-0.725c-2.404-0.466-3.628-1.083-3.632-1.857l-0.017-3.486l47.655,0.454
						c2.109-3.673,6.426-6.875,13.029-9.599c6.603-2.727,14.665-5.153,24.185-7.275l15.961,2.191
						c4.847,0.681,7.254,1.478,7.258,2.393c0.002,0.494-0.98,1.105-2.984,1.837c-2.045,0.732-4.403,1.608-7.156,2.623
						c-2.712,1.02-5.384,2.21-7.937,3.582c-2.593,1.367-4.515,2.916-5.806,4.649L1998.632,2768.45z M1881.057,2773.201
						c0.957,2.286,3.092,4.253,6.33,5.91c3.237,1.66,7.261,3.02,12.111,4.089c4.849,1.067,10.288,1.849,16.315,2.348
						c6.068,0.499,12.41,0.735,19.026,0.702c7.719-0.038,14.452-0.372,20.199-0.998c5.707-0.63,10.744-1.48,15.111-2.559
						c4.327-1.079,8.141-2.327,11.363-3.753c3.222-1.425,6.09-2.97,8.681-4.638L1881.057,2773.201z M2160.74,2770.084
						c-0.956-2.317-3.29-4.347-6.922-6.093c-3.631-1.739-8.286-3.208-13.924-4.393c-5.637-1.189-12.218-2.072-19.743-2.65
						c-7.486-0.578-15.757-0.847-24.816-0.802c-8.033,0.04-15.003,0.401-20.789,1.078c-5.786,0.682-10.823,1.592-15.11,2.743
						c-4.248,1.147-7.904,2.485-10.85,4.012c-2.985,1.528-5.774,3.162-8.324,4.902L2160.74,2770.084z"/>
				</g>
				
					<linearGradient id="SVGID_00000090973093472031365480000016469995537646905736_" gradientUnits="userSpaceOnUse" x1="-372.3535" y1="1305.5227" x2="-358.3954" y2="1422.3732" gradientTransform="matrix(-1 0 0 -1 1669.249 4127.8389)">
					<stop  offset="0.0036" style="stop-color:#F36F56"/>
					<stop  offset="0.3059" style="stop-color:#F99C4C"/>
					<stop  offset="0.545" style="stop-color:#FDB946"/>
					<stop  offset="0.6817" style="stop-color:#FFC444"/>
					<stop  offset="0.8038" style="stop-color:#FFC244"/>
					<stop  offset="0.8667" style="stop-color:#FEBA46"/>
					<stop  offset="0.916" style="stop-color:#FCAD49"/>
					<stop  offset="0.958" style="stop-color:#F99A4D"/>
					<stop  offset="0.9955" style="stop-color:#F58152"/>
					<stop  offset="1" style="stop-color:#F57E53"/>
				</linearGradient>
				<path style="fill:url(#SVGID_00000090973093472031365480000016469995537646905736_);" d="M2034.215,2722.216
					c-167.66,0-342.23,14.753-370.154,43.313c1.094,1.008,2.109,2.083,3.053,3.214c23.536-19.828,167.682-39.793,367.101-39.793
					c204.538,0,350.996,21.005,368.737,41.322c0.871-1.114,1.803-2.182,2.812-3.186
					C2382.7,2737.515,2204.853,2722.216,2034.215,2722.216z"/>
			</g>
			<g>
				
					<linearGradient id="SVGID_00000162315342310196807200000018308116890875341978_" gradientUnits="userSpaceOnUse" x1="1489.3263" y1="2744.2268" x2="2354.4963" y2="2744.2268">
					<stop  offset="0" style="stop-color:#F57E53"/>
					<stop  offset="0.0045" style="stop-color:#F58152"/>
					<stop  offset="0.042" style="stop-color:#F99A4D"/>
					<stop  offset="0.084" style="stop-color:#FCAD49"/>
					<stop  offset="0.1333" style="stop-color:#FEBA46"/>
					<stop  offset="0.1962" style="stop-color:#FFC244"/>
					<stop  offset="0.3183" style="stop-color:#FFC444"/>
					<stop  offset="0.455" style="stop-color:#FDB946"/>
					<stop  offset="0.6941" style="stop-color:#F99C4C"/>
					<stop  offset="0.9964" style="stop-color:#F36F56"/>
				</linearGradient>
				<path style="fill:url(#SVGID_00000162315342310196807200000018308116890875341978_);" d="M1553.616,2678.127v83.402
					c0,26.951,168.349,48.797,376.017,48.797c207.668,0,376.017-21.847,376.017-48.797v-83.402H1553.616z"/>
				
					<linearGradient id="SVGID_00000003801305802488663900000008625445201177926028_" gradientUnits="userSpaceOnUse" x1="1925.8873" y1="2646.7686" x2="1971.4982" y2="3028.5977">
					<stop  offset="0" style="stop-color:#FFDB44"/>
					<stop  offset="1" style="stop-color:#FEEF06"/>
				</linearGradient>
				<path style="fill:url(#SVGID_00000003801305802488663900000008625445201177926028_);" d="M2305.65,2678.126
					c0,26.949-168.349,48.797-376.017,48.797c-207.669,0-376.017-21.848-376.017-48.797s168.349-48.797,376.017-48.797
					C2137.302,2629.33,2305.65,2651.177,2305.65,2678.126z"/>
				
					<linearGradient id="SVGID_00000171693803870862509590000016880029638110055087_" gradientUnits="userSpaceOnUse" x1="1923.9039" y1="2629.74" x2="1937.9117" y2="2747.0063">
					<stop  offset="0" style="stop-color:#FFDB44"/>
					<stop  offset="1" style="stop-color:#FEEF06"/>
				</linearGradient>
				<path style="fill:url(#SVGID_00000171693803870862509590000016880029638110055087_);" d="M1929.632,2730.288
					c-183.917,0-376.235-17.567-376.235-51.449c0-1.861,0.664-5.131,2.525-5.131c1.861,0,1.061,2.558,1.061,4.419
					c0,21.488,153.043,45.429,372.65,45.429s372.65-23.941,372.65-45.429c0-1.861,0.318-3.605,2.178-3.605
					c1.861,0,1.412,2.483,1.412,4.344C2305.872,2712.749,2113.549,2730.288,1929.632,2730.288z"/>
				<g>
					<path style="fill:#FCB048;" d="M1894.101,2680.847c3.69-2.555,7.616-5.072,11.817-7.56c4.162-2.483,9.587-4.728,16.154-6.733
						c6.606-2.006,14.869-3.637,24.787-4.902c9.918-1.266,22.321-1.933,37.129-2.005c14.532-0.071,28.16,0.392,40.925,1.385
						c12.726,0.991,23.957,2.479,33.656,4.456c9.658,1.978,17.547,4.423,23.626,7.33c6.039,2.915,9.64,6.25,10.8,10.01l42.339,0.429
						c3.072,0.019,5.791,0.268,8.117,0.751c2.365,0.482,3.51,1.092,3.514,1.831l0.017,3.486l-54.43-0.524
						c-1.909,4.269-6.772,8.175-14.592,11.716c-7.781,3.547-17.73,6.612-29.847,9.208l-19.823-2.758
						c-1.773-0.271-3.233-0.616-4.376-1.035c-1.145-0.416-1.698-0.869-1.701-1.364c-0.003-0.67,1.529-1.434,4.597-2.292
						c3.068-0.862,6.528-1.927,10.381-3.197c3.853-1.266,7.626-2.763,11.36-4.493c3.693-1.724,6.164-3.788,7.452-6.188
						l-128.474-1.274c-3.375,2.484-7.183,4.923-11.346,7.32c-4.202,2.398-9.745,4.557-16.666,6.474
						c-6.923,1.917-15.539,3.472-25.852,4.67c-10.351,1.195-23.306,1.829-38.98,1.906c-11.775,0.058-23.238-0.388-34.466-1.335
						c-11.229-0.951-21.2-2.372-29.913-4.264c-8.713-1.895-15.853-4.238-21.459-7.026c-5.567-2.793-8.693-5.997-9.341-9.622
						l-34.856-0.358c-3.072-0.019-5.791-0.26-8.234-0.725c-2.405-0.466-3.629-1.083-3.633-1.857l-0.017-3.486l47.656,0.454
						c2.109-3.673,6.426-6.875,13.028-9.599c6.603-2.728,14.665-5.153,24.185-7.276l15.961,2.192
						c4.848,0.681,7.254,1.477,7.258,2.393c0.003,0.494-0.979,1.105-2.984,1.837c-2.044,0.732-4.403,1.608-7.154,2.622
						c-2.713,1.02-5.385,2.211-7.939,3.581c-2.592,1.367-4.514,2.916-5.806,4.65L1894.101,2680.847z M1776.526,2685.597
						c0.956,2.287,3.092,4.254,6.33,5.91c3.238,1.661,7.261,3.021,12.111,4.089c4.849,1.068,10.288,1.849,16.316,2.348
						c6.067,0.499,12.409,0.735,19.025,0.703c7.719-0.039,14.452-0.372,20.199-0.998c5.708-0.63,10.744-1.48,15.11-2.559
						c4.327-1.079,8.141-2.327,11.363-3.753c3.222-1.426,6.09-2.97,8.681-4.638L1776.526,2685.597z M2056.21,2682.48
						c-0.957-2.317-3.291-4.346-6.922-6.091c-3.632-1.74-8.286-3.21-13.923-4.394c-5.638-1.189-12.219-2.072-19.744-2.65
						c-7.486-0.578-15.757-0.847-24.815-0.802c-8.034,0.039-15.003,0.4-20.789,1.077c-5.786,0.683-10.822,1.593-15.109,2.744
						c-4.247,1.148-7.903,2.485-10.85,4.012c-2.986,1.527-5.774,3.162-8.326,4.903L2056.21,2682.48z"/>
				</g>
				
					<linearGradient id="SVGID_00000067206366721902949550000013917703928370488216_" gradientUnits="userSpaceOnUse" x1="-267.8232" y1="1393.1272" x2="-253.8651" y2="1509.9767" gradientTransform="matrix(-1 0 0 -1 1669.249 4127.8389)">
					<stop  offset="0.0036" style="stop-color:#F36F56"/>
					<stop  offset="0.3059" style="stop-color:#F99C4C"/>
					<stop  offset="0.545" style="stop-color:#FDB946"/>
					<stop  offset="0.6817" style="stop-color:#FFC444"/>
					<stop  offset="0.8038" style="stop-color:#FFC244"/>
					<stop  offset="0.8667" style="stop-color:#FEBA46"/>
					<stop  offset="0.916" style="stop-color:#FCAD49"/>
					<stop  offset="0.958" style="stop-color:#F99A4D"/>
					<stop  offset="0.9955" style="stop-color:#F58152"/>
					<stop  offset="1" style="stop-color:#F57E53"/>
				</linearGradient>
				<path style="fill:url(#SVGID_00000067206366721902949550000013917703928370488216_);" d="M1929.684,2634.612
					c-167.659,0-342.23,14.753-370.154,43.313c1.093,1.008,2.108,2.082,3.052,3.213c23.537-19.829,167.683-39.793,367.102-39.793
					c204.538,0,350.995,21.004,368.736,41.321c0.871-1.114,1.803-2.181,2.812-3.185
					C2278.17,2649.91,2100.322,2634.612,1929.684,2634.612z"/>
			</g>
			<g>
				
					<linearGradient id="SVGID_00000182525189379749907220000017450874288398684801_" gradientUnits="userSpaceOnUse" x1="1579.5225" y1="2656.8789" x2="2444.6926" y2="2656.8789">
					<stop  offset="0" style="stop-color:#F57E53"/>
					<stop  offset="0.0045" style="stop-color:#F58152"/>
					<stop  offset="0.042" style="stop-color:#F99A4D"/>
					<stop  offset="0.084" style="stop-color:#FCAD49"/>
					<stop  offset="0.1333" style="stop-color:#FEBA46"/>
					<stop  offset="0.1962" style="stop-color:#FFC244"/>
					<stop  offset="0.3183" style="stop-color:#FFC444"/>
					<stop  offset="0.455" style="stop-color:#FDB946"/>
					<stop  offset="0.6941" style="stop-color:#F99C4C"/>
					<stop  offset="0.9964" style="stop-color:#F36F56"/>
				</linearGradient>
				<path style="fill:url(#SVGID_00000182525189379749907220000017450874288398684801_);" d="M1643.812,2590.779v83.403
					c0,26.95,168.348,48.797,376.017,48.797c207.668,0,376.017-21.847,376.017-48.797v-83.403H1643.812z"/>
				
					<linearGradient id="SVGID_00000168823451024783644880000013384093691797932729_" gradientUnits="userSpaceOnUse" x1="2016.0829" y1="2559.4207" x2="2061.6938" y2="2941.2505">
					<stop  offset="0" style="stop-color:#FFDB44"/>
					<stop  offset="1" style="stop-color:#FEEF06"/>
				</linearGradient>
				<path style="fill:url(#SVGID_00000168823451024783644880000013384093691797932729_);" d="M2395.846,2590.779
					c0,26.95-168.349,48.797-376.017,48.797s-376.017-21.847-376.017-48.797c0-26.949,168.349-48.797,376.017-48.797
					S2395.846,2563.83,2395.846,2590.779z"/>
				
					<linearGradient id="SVGID_00000082350164322657871190000017314686238235456443_" gradientUnits="userSpaceOnUse" x1="2014.0999" y1="2542.3926" x2="2028.1077" y2="2659.6589">
					<stop  offset="0" style="stop-color:#FFDB44"/>
					<stop  offset="1" style="stop-color:#FEEF06"/>
				</linearGradient>
				<path style="fill:url(#SVGID_00000082350164322657871190000017314686238235456443_);" d="M2019.828,2642.941
					c-183.917,0-376.235-17.567-376.235-51.449c0-1.861,0.664-5.131,2.525-5.131s1.06,2.558,1.06,4.419
					c0,21.489,153.043,45.429,372.65,45.429s372.65-23.94,372.65-45.429c0-1.861,0.318-3.604,2.178-3.604
					c1.862,0,1.412,2.483,1.412,4.343C2396.068,2625.402,2203.745,2642.941,2019.828,2642.941z"/>
				<g>
					<path style="fill:#FCB048;" d="M1984.297,2593.499c3.689-2.555,7.616-5.072,11.817-7.56c4.163-2.484,9.587-4.728,16.154-6.734
						c6.606-2.005,14.869-3.636,24.788-4.901c9.918-1.266,22.321-1.933,37.128-2.005c14.532-0.071,28.161,0.391,40.925,1.385
						c12.726,0.991,23.957,2.479,33.655,4.456c9.659,1.978,17.547,4.423,23.627,7.33c6.039,2.915,9.64,6.25,10.8,10.01l42.339,0.428
						c3.073,0.02,5.791,0.268,8.117,0.751c2.365,0.482,3.511,1.092,3.514,1.831l0.017,3.486l-54.43-0.524
						c-1.909,4.269-6.773,8.175-14.593,11.717c-7.781,3.545-17.73,6.612-29.846,9.208l-19.824-2.757
						c-1.773-0.271-3.233-0.616-4.376-1.036c-1.144-0.416-1.698-0.869-1.7-1.363c-0.003-0.671,1.529-1.435,4.597-2.292
						c3.068-0.862,6.528-1.927,10.381-3.198c3.853-1.265,7.627-2.762,11.36-4.491c3.693-1.725,6.165-3.788,7.452-6.188
						l-128.474-1.274c-3.375,2.484-7.183,4.923-11.346,7.32c-4.202,2.398-9.745,4.558-16.666,6.474
						c-6.923,1.917-15.539,3.473-25.852,4.671c-10.352,1.195-23.306,1.829-38.98,1.907c-11.775,0.057-23.238-0.389-34.466-1.336
						c-11.229-0.951-21.2-2.372-29.913-4.263c-8.713-1.896-15.853-4.239-21.459-7.027c-5.567-2.793-8.693-5.997-9.341-9.621
						l-34.856-0.358c-3.072-0.02-5.79-0.26-8.234-0.725c-2.405-0.466-3.629-1.083-3.633-1.856l-0.017-3.487l47.655,0.454
						c2.109-3.673,6.426-6.875,13.029-9.598c6.602-2.728,14.664-5.153,24.184-7.276l15.961,2.192
						c4.848,0.681,7.254,1.477,7.258,2.393c0.003,0.494-0.979,1.105-2.984,1.837c-2.044,0.732-4.403,1.608-7.154,2.623
						c-2.713,1.019-5.385,2.21-7.938,3.581c-2.593,1.367-4.515,2.916-5.806,4.65L1984.297,2593.499z M1866.722,2598.25
						c0.956,2.287,3.092,4.253,6.331,5.91c3.237,1.661,7.261,3.021,12.11,4.089c4.85,1.068,10.288,1.85,16.316,2.349
						c6.067,0.499,12.409,0.735,19.025,0.702c7.719-0.037,14.452-0.372,20.199-0.998c5.708-0.63,10.745-1.48,15.11-2.559
						c4.327-1.079,8.141-2.327,11.363-3.752c3.222-1.426,6.09-2.971,8.681-4.639L1866.722,2598.25z M2146.405,2595.132
						c-0.957-2.316-3.29-4.347-6.921-6.091c-3.632-1.741-8.286-3.21-13.924-4.394c-5.637-1.19-12.219-2.073-19.744-2.65
						c-7.485-0.578-15.757-0.847-24.815-0.803c-8.034,0.04-15.003,0.4-20.789,1.078c-5.786,0.683-10.822,1.593-15.109,2.744
						c-4.248,1.147-7.904,2.484-10.85,4.012c-2.986,1.528-5.774,3.163-8.326,4.903L2146.405,2595.132z"/>
				</g>
				
					<linearGradient id="SVGID_00000115475462469978859780000009104173291037053325_" gradientUnits="userSpaceOnUse" x1="-358.0187" y1="1480.4746" x2="-344.0607" y2="1597.3241" gradientTransform="matrix(-1 0 0 -1 1669.249 4127.8389)">
					<stop  offset="0.0036" style="stop-color:#F36F56"/>
					<stop  offset="0.3059" style="stop-color:#F99C4C"/>
					<stop  offset="0.545" style="stop-color:#FDB946"/>
					<stop  offset="0.6817" style="stop-color:#FFC444"/>
					<stop  offset="0.8038" style="stop-color:#FFC244"/>
					<stop  offset="0.8667" style="stop-color:#FEBA46"/>
					<stop  offset="0.916" style="stop-color:#FCAD49"/>
					<stop  offset="0.958" style="stop-color:#F99A4D"/>
					<stop  offset="0.9955" style="stop-color:#F58152"/>
					<stop  offset="1" style="stop-color:#F57E53"/>
				</linearGradient>
				<path style="fill:url(#SVGID_00000115475462469978859780000009104173291037053325_);" d="M2019.88,2547.264
					c-167.659,0-342.23,14.753-370.153,43.313c1.094,1.007,2.108,2.082,3.052,3.214c23.536-19.83,167.683-39.794,367.102-39.794
					c204.538,0,350.996,21.005,368.736,41.322c0.871-1.114,1.804-2.181,2.812-3.185
					C2368.365,2562.563,2190.518,2547.264,2019.88,2547.264z"/>
			</g>
			<g>
				
					<linearGradient id="SVGID_00000032646698366038861750000014000192195372121268_" gradientUnits="userSpaceOnUse" x1="1532.608" y1="2569.2749" x2="2397.7773" y2="2569.2749">
					<stop  offset="0" style="stop-color:#F57E53"/>
					<stop  offset="0.0045" style="stop-color:#F58152"/>
					<stop  offset="0.042" style="stop-color:#F99A4D"/>
					<stop  offset="0.084" style="stop-color:#FCAD49"/>
					<stop  offset="0.1333" style="stop-color:#FEBA46"/>
					<stop  offset="0.1962" style="stop-color:#FFC244"/>
					<stop  offset="0.3183" style="stop-color:#FFC444"/>
					<stop  offset="0.455" style="stop-color:#FDB946"/>
					<stop  offset="0.6941" style="stop-color:#F99C4C"/>
					<stop  offset="0.9964" style="stop-color:#F36F56"/>
				</linearGradient>
				<path style="fill:url(#SVGID_00000032646698366038861750000014000192195372121268_);" d="M1596.898,2503.176v83.402
					c0,26.951,168.348,48.797,376.017,48.797s376.017-21.846,376.017-48.797v-83.402H1596.898z"/>
				
					<linearGradient id="SVGID_00000164472143009794746480000011925600498734835084_" gradientUnits="userSpaceOnUse" x1="1969.1687" y1="2471.8169" x2="2014.7797" y2="2853.6475">
					<stop  offset="0" style="stop-color:#FFDB44"/>
					<stop  offset="1" style="stop-color:#FEEF06"/>
				</linearGradient>
				<path style="fill:url(#SVGID_00000164472143009794746480000011925600498734835084_);" d="M2348.931,2503.176
					c0,26.95-168.348,48.797-376.017,48.797c-207.668,0-376.016-21.847-376.016-48.797s168.348-48.797,376.016-48.797
					C2180.583,2454.378,2348.931,2476.226,2348.931,2503.176z"/>
				
					<linearGradient id="SVGID_00000085246799581279911800000012090227759581509287_" gradientUnits="userSpaceOnUse" x1="1967.1854" y1="2454.7883" x2="1981.1934" y2="2572.0549">
					<stop  offset="0" style="stop-color:#FFDB44"/>
					<stop  offset="1" style="stop-color:#FEEF06"/>
				</linearGradient>
				<path style="fill:url(#SVGID_00000085246799581279911800000012090227759581509287_);" d="M1972.914,2555.337
					c-183.917,0-376.236-17.567-376.236-51.45c0-1.86,0.664-5.131,2.525-5.131c1.861,0,1.061,2.558,1.061,4.419
					c0,21.488,153.042,45.429,372.65,45.429c219.607,0,372.65-23.941,372.65-45.429c0-1.861,0.317-3.604,2.178-3.604
					c1.861,0,1.412,2.483,1.412,4.344C2349.153,2537.797,2156.831,2555.337,1972.914,2555.337z"/>
				<g>
					<path style="fill:#FCB048;" d="M1937.383,2505.895c3.689-2.554,7.615-5.071,11.817-7.559c4.162-2.483,9.586-4.728,16.153-6.734
						c6.606-2.006,14.869-3.637,24.788-4.902c9.918-1.265,22.32-1.931,37.128-2.004c14.532-0.072,28.161,0.39,40.926,1.384
						c12.726,0.991,23.957,2.479,33.655,4.457c9.659,1.977,17.548,4.423,23.627,7.329c6.039,2.916,9.639,6.251,10.8,10.011
						l42.339,0.428c3.072,0.019,5.791,0.268,8.117,0.751c2.365,0.483,3.51,1.092,3.514,1.831l0.017,3.487l-54.43-0.524
						c-1.909,4.27-6.772,8.175-14.593,11.717c-7.781,3.546-17.729,6.612-29.847,9.208l-19.823-2.757
						c-1.773-0.27-3.232-0.616-4.376-1.036c-1.144-0.415-1.698-0.869-1.7-1.363c-0.003-0.67,1.529-1.435,4.596-2.293
						c3.068-0.861,6.528-1.927,10.381-3.197c3.854-1.266,7.627-2.763,11.359-4.492c3.694-1.725,6.165-3.787,7.453-6.188
						l-128.473-1.274c-3.375,2.483-7.183,4.922-11.346,7.32c-4.202,2.398-9.745,4.557-16.667,6.474
						c-6.921,1.916-15.539,3.471-25.851,4.67c-10.352,1.194-23.306,1.829-38.98,1.907c-11.776,0.057-23.238-0.39-34.467-1.336
						c-11.229-0.951-21.199-2.372-29.913-4.263c-8.713-1.896-15.852-4.239-21.458-7.027c-5.567-2.792-8.694-5.997-9.342-9.622
						l-34.856-0.358c-3.072-0.019-5.79-0.259-8.234-0.725c-2.404-0.465-3.629-1.083-3.632-1.856l-0.017-3.487l47.656,0.454
						c2.109-3.673,6.425-6.875,13.028-9.597c6.603-2.728,14.665-5.154,24.185-7.277l15.961,2.192
						c4.847,0.681,7.254,1.478,7.258,2.393c0.003,0.495-0.979,1.106-2.984,1.837c-2.044,0.733-4.403,1.608-7.155,2.623
						c-2.713,1.019-5.385,2.21-7.938,3.581c-2.592,1.366-4.514,2.915-5.806,4.65L1937.383,2505.895z M1819.808,2510.646
						c0.957,2.286,3.093,4.253,6.33,5.909c3.238,1.661,7.261,3.022,12.111,4.089c4.849,1.068,10.288,1.849,16.316,2.349
						c6.067,0.499,12.409,0.734,19.025,0.702c7.719-0.038,14.452-0.372,20.2-0.998c5.707-0.63,10.743-1.48,15.11-2.559
						c4.327-1.078,8.141-2.326,11.363-3.752c3.223-1.426,6.089-2.97,8.681-4.637L1819.808,2510.646z M2099.491,2507.528
						c-0.957-2.316-3.291-4.347-6.922-6.091c-3.632-1.74-8.286-3.209-13.923-4.394c-5.638-1.188-12.219-2.072-19.744-2.65
						c-7.486-0.578-15.757-0.847-24.816-0.802c-8.034,0.039-15.003,0.4-20.789,1.077c-5.786,0.682-10.823,1.592-15.11,2.743
						c-4.248,1.148-7.903,2.485-10.85,4.012c-2.986,1.528-5.774,3.163-8.325,4.903L2099.491,2507.528z"/>
				</g>
				
					<linearGradient id="SVGID_00000140732229677189332420000001401674962120562816_" gradientUnits="userSpaceOnUse" x1="-311.1047" y1="1568.0781" x2="-297.1465" y2="1684.9283" gradientTransform="matrix(-1 0 0 -1 1669.249 4127.8389)">
					<stop  offset="0.0036" style="stop-color:#F36F56"/>
					<stop  offset="0.3059" style="stop-color:#F99C4C"/>
					<stop  offset="0.545" style="stop-color:#FDB946"/>
					<stop  offset="0.6817" style="stop-color:#FFC444"/>
					<stop  offset="0.8038" style="stop-color:#FFC244"/>
					<stop  offset="0.8667" style="stop-color:#FEBA46"/>
					<stop  offset="0.916" style="stop-color:#FCAD49"/>
					<stop  offset="0.958" style="stop-color:#F99A4D"/>
					<stop  offset="0.9955" style="stop-color:#F58152"/>
					<stop  offset="1" style="stop-color:#F57E53"/>
				</linearGradient>
				<path style="fill:url(#SVGID_00000140732229677189332420000001401674962120562816_);" d="M1972.965,2459.66
					c-167.659,0-342.23,14.753-370.154,43.313c1.093,1.007,2.108,2.082,3.052,3.214c23.536-19.83,167.683-39.794,367.101-39.794
					c204.538,0,350.996,21.004,368.737,41.322c0.871-1.114,1.803-2.181,2.812-3.186
					C2321.45,2474.959,2143.603,2459.66,1972.965,2459.66z"/>
			</g>
			<g>
				
					<linearGradient id="SVGID_00000058559896506506826390000010727870386706775487_" gradientUnits="userSpaceOnUse" x1="2351.1504" y1="1487.699" x2="3216.3245" y2="1487.699" gradientTransform="matrix(0.5796 0.8149 -0.8149 0.5796 2214.3765 -230.3409)">
					<stop  offset="0" style="stop-color:#F57E53"/>
					<stop  offset="0.0045" style="stop-color:#F58152"/>
					<stop  offset="0.042" style="stop-color:#F99A4D"/>
					<stop  offset="0.084" style="stop-color:#FCAD49"/>
					<stop  offset="0.1333" style="stop-color:#FEBA46"/>
					<stop  offset="0.1962" style="stop-color:#FFC244"/>
					<stop  offset="0.3183" style="stop-color:#FFC444"/>
					<stop  offset="0.455" style="stop-color:#FDB946"/>
					<stop  offset="0.6941" style="stop-color:#F99C4C"/>
					<stop  offset="0.9964" style="stop-color:#F36F56"/>
				</linearGradient>
				<path style="fill:url(#SVGID_00000058559896506506826390000010727870386706775487_);" d="M2455.89,2561.971l-67.963,48.342
					c-21.961,15.621,57.816,165.468,178.186,334.694c120.37,169.225,235.752,293.747,257.714,278.125l67.963-48.342
					L2455.89,2561.971z"/>
				
					<linearGradient id="SVGID_00000067956863351469949140000007581652159195584393_" gradientUnits="userSpaceOnUse" x1="2787.7124" y1="1390.2507" x2="2833.3176" y2="1772.0333" gradientTransform="matrix(0.5796 0.8149 -0.8149 0.5796 2214.3765 -230.3409)">
					<stop  offset="0" style="stop-color:#FFDB44"/>
					<stop  offset="1" style="stop-color:#FEEF06"/>
				</linearGradient>
				<path style="fill:url(#SVGID_00000067956863351469949140000007581652159195584393_);" d="M2891.789,3174.79
					c-21.96,15.621-137.343-108.901-257.713-278.126c-120.371-169.225-200.147-319.073-178.186-334.693
					s137.344,108.9,257.713,278.125C2833.973,3009.322,2913.75,3159.169,2891.789,3174.79z"/>
				
					<linearGradient id="SVGID_00000145776270154139224390000016431476557101653641_" gradientUnits="userSpaceOnUse" x1="2785.7302" y1="1373.2307" x2="2799.7356" y2="1490.4766" gradientTransform="matrix(0.5796 0.8149 -0.8149 0.5796 2214.3765 -230.3409)">
					<stop  offset="0" style="stop-color:#FFDB44"/>
					<stop  offset="1" style="stop-color:#FEEF06"/>
				</linearGradient>
				<path style="fill:url(#SVGID_00000145776270154139224390000016431476557101653641_);" d="M2631.333,2898.614
					c-106.603-149.871-203.761-316.77-176.15-336.409c1.516-1.078,4.565-2.433,5.644-0.917c1.078,1.517-1.471,2.347-2.986,3.426
					c-17.51,12.455,51.689,151.043,178.979,329.996c127.291,178.955,235.507,289.79,253.018,277.335
					c1.516-1.079,3.12-1.831,4.199-0.315c1.079,1.517-1.205,2.59-2.721,3.668
					C2863.705,3195.038,2737.937,3048.484,2631.333,2898.614z"/>
				<g>
					<path style="fill:#FCB048;" d="M2651.027,2841.002c4.221,1.526,8.547,3.267,13.01,5.248c4.437,1.953,9.409,5.071,14.85,9.26
						c5.463,4.222,11.582,10.009,18.361,17.358c6.781,7.35,14.512,17.069,23.154,29.093c8.481,11.802,16.005,23.175,22.593,34.153
						c6.568,10.944,11.866,20.959,15.875,30.008c3.988,9.016,6.567,16.862,7.723,23.501c1.125,6.611,0.494,11.478-1.897,14.603
						l24.191,34.749c1.765,2.515,3.138,4.875,4.093,7.05c0.977,2.207,1.145,3.493,0.544,3.924l-2.83,2.035l-31.123-44.658
						c-4.585,0.919-10.588-0.78-18.006-5.1c-7.399-4.285-15.665-10.614-24.803-18.984l-9.244-17.751
						c-0.808-1.602-1.372-2.991-1.693-4.167c-0.324-1.173-0.276-1.887,0.125-2.176c0.544-0.391,2.055,0.415,4.532,2.417
						c2.48,2,5.355,4.202,8.623,6.606c3.264,2.406,6.672,4.614,10.244,6.653c3.547,2.01,6.659,2.827,9.362,2.486l-73.429-105.429
						c-3.98-1.31-8.175-3-12.541-5.002c-4.39-2.035-9.363-5.3-14.936-9.83c-5.574-4.53-11.837-10.65-18.79-18.359
						c-6.974-7.744-15-17.932-24.148-30.659c-6.873-9.562-13.152-19.161-18.89-28.86c-5.733-9.701-10.354-18.65-13.863-26.847
						c-3.505-8.199-5.735-15.375-6.713-21.559c-0.951-6.155-0.152-10.561,2.427-13.189l-19.912-28.611
						c-1.765-2.515-3.144-4.869-4.182-7.13c-1.015-2.229-1.222-3.585-0.593-4.036l2.831-2.035l27.253,39.097
						c4.215-0.411,9.326,1.251,15.373,5.052c6.049,3.8,12.699,8.964,19.947,15.49l7.466,14.276c2.254,4.345,3,6.767,2.257,7.302
						c-0.402,0.289-1.469-0.157-3.227-1.367c-1.781-1.242-3.862-2.656-6.285-4.31c-2.403-1.62-4.922-3.106-7.519-4.393
						c-2.616-1.32-4.992-1.99-7.154-2.035L2651.027,2841.002z M2579.006,2747.947c-1.308,2.105-1.673,4.986-1.146,8.584
						c0.524,3.601,1.747,7.667,3.688,12.239c1.941,4.57,4.457,9.455,7.544,14.657c3.111,5.233,6.594,10.537,10.456,15.91
						c4.504,6.267,8.679,11.561,12.52,15.881c3.822,4.285,7.434,7.897,10.844,10.83c3.387,2.901,6.615,5.285,9.644,7.085
						c3.03,1.799,5.95,3.24,8.811,4.385L2579.006,2747.947z M2743.66,2974.049c1.333-2.122,1.635-5.201,0.952-9.172
						c-0.688-3.968-2.188-8.612-4.491-13.893c-2.299-5.283-5.394-11.159-9.284-17.625c-3.868-6.436-8.444-13.332-13.73-20.687
						c-4.689-6.524-9.022-11.994-12.928-16.316c-3.91-4.319-7.57-7.896-10.994-10.722c-3.397-2.797-6.606-5.001-9.559-6.516
						c-2.975-1.547-5.923-2.873-8.82-3.942L2743.66,2974.049z"/>
				</g>
				
					<linearGradient id="SVGID_00000044871110616761120030000004142159763646765710_" gradientUnits="userSpaceOnUse" x1="-1129.0797" y1="2649.2048" x2="-1115.1241" y2="2766.0334" gradientTransform="matrix(-0.5796 -0.8149 0.8149 -0.5796 -181.2018 3522.6223)">
					<stop  offset="0.0036" style="stop-color:#F36F56"/>
					<stop  offset="0.3059" style="stop-color:#F99C4C"/>
					<stop  offset="0.545" style="stop-color:#FDB946"/>
					<stop  offset="0.6817" style="stop-color:#FFC444"/>
					<stop  offset="0.8038" style="stop-color:#FFC244"/>
					<stop  offset="0.8667" style="stop-color:#FEBA46"/>
					<stop  offset="0.916" style="stop-color:#FCAD49"/>
					<stop  offset="0.958" style="stop-color:#F99A4D"/>
					<stop  offset="0.9955" style="stop-color:#F58152"/>
					<stop  offset="1" style="stop-color:#F57E53"/>
				</linearGradient>
				<path style="fill:url(#SVGID_00000044871110616761120030000004142159763646765710_);" d="M2709.329,2843.199
					c-97.18-136.622-210.388-270.325-249.846-276.526c-0.188,1.475-0.475,2.926-0.849,4.35
					c29.8,7.686,129.62,113.576,245.209,276.079c118.556,166.675,186.33,298.195,180.058,324.429
					c1.413,0.063,2.822,0.204,4.225,0.445C2898.854,3136.041,2808.235,2982.249,2709.329,2843.199z"/>
			</g>
		</g>
		<g>
			<g>
				<g>
					
						<linearGradient id="SVGID_00000082331423612314858740000015545217736338947507_" gradientUnits="userSpaceOnUse" x1="-1070.001" y1="696.8904" x2="-184.2696" y2="1298.5188" gradientTransform="matrix(-1 0 0 1 230.2854 0)">
						<stop  offset="0" style="stop-color:#311944"/>
						<stop  offset="1" style="stop-color:#6B3976"/>
					</linearGradient>
					<path style="fill:url(#SVGID_00000082331423612314858740000015545217736338947507_);" d="M1251.624,1016.907
						c16.662-10.803,1.48-42.23,0.583-109.732c-1.1-82.719,20.87-98.134,3.224-130.588c-21.577-39.685-75.894-56.107-111.881-56.881
						c-7.936-0.17-9.792-4.505-76.285,12.715c-119.796,31.026-149.785-2.232-203.432,30.989
						c-51.83,32.099-29.134,67.252-79.465,104.895c-81.583,61.017-167.374-4.95-225.681,46.089
						c-55.151,48.276-56.421,171.274,1.589,238.397c65.763,76.094,184.344,53.232,263.824,38.143
						c16.723-3.173,101.186-20.911,189.129-85.821c48.65-35.91,82.053-74.256,103.306-102.511
						c4.988-5.613,12.77-12.414,23.045-13.508c12.334-1.317,22.242,6.228,27.018,9.535
						C1191.67,1015.992,1235.256,1027.518,1251.624,1016.907z"/>
					
						<linearGradient id="SVGID_00000138564145097120872930000018097020174568627376_" gradientUnits="userSpaceOnUse" x1="1375.6913" y1="1043.5995" x2="1398.5439" y2="1410.8732">
						<stop  offset="0" style="stop-color:#FF9085"/>
						<stop  offset="1" style="stop-color:#FB6FBB"/>
					</linearGradient>
					<path style="fill:url(#SVGID_00000138564145097120872930000018097020174568627376_);" d="M1184.673,971.573
						c21.425-19.519,97.879,18.1,148.548,68.029c59.526,58.659,54.95,106.219,106.898,179.091
						c25.824,36.227,70.1,84.999,148.549,127.721c-5.554,13.883-11.107,27.768-16.659,41.649
						c-37.93,2.282-112.397,0.94-181.868-44.422c-48.259-31.514-73.09-73.268-120.782-155.492
						C1221.495,1105.627,1157.893,995.973,1184.673,971.573z"/>
					
						<linearGradient id="SVGID_00000160904018922475246840000009827327320242183345_" gradientUnits="userSpaceOnUse" x1="-1461.719" y1="2087.2893" x2="-1342.4321" y2="2087.2893" gradientTransform="matrix(-1 0 0 1 230.2854 0)">
						<stop  offset="0" style="stop-color:#311944"/>
						<stop  offset="1" style="stop-color:#6B3976"/>
					</linearGradient>
					<path style="fill:url(#SVGID_00000160904018922475246840000009827327320242183345_);" d="M1667.553,2087.254l-59.682-35.862
						h-26.936c0,0-9.176,34.155-8.134,35.862c12.001,19.665,67.876,34.625,102.745,35.863c5.789,0.205,13.867,0.236,15.955-3.961
						C1695.035,2112.05,1679.242,2097.145,1667.553,2087.254z"/>
					
						<linearGradient id="SVGID_00000142164408804768382000000000025121549675006117_" gradientUnits="userSpaceOnUse" x1="-1405.4625" y1="2134.2993" x2="-1227.4969" y2="1600.4011" gradientTransform="matrix(-1 0 0 1 230.2854 0)">
						<stop  offset="0" style="stop-color:#FFC444"/>
						<stop  offset="0.9964" style="stop-color:#F36F56"/>
					</linearGradient>
					<path style="fill:url(#SVGID_00000142164408804768382000000000025121549675006117_);" d="M1606.813,2012.259
						c-3.836,22.201,1.017,33.776,6.247,40.26c3.682,4.563,6.952,5.862,28.805,24.751c7.226,6.249,10.903,9.594,10.067,11.345
						c-0.955,2.003-7.333,0.916-21.104-2.395c-30.01-7.217-45.091-10.973-48.772-18.195c-3.333-6.54-0.386-9.489-0.58-27.307
						c-0.127-11.731-2.512-21.173-4.388-27.08C1586.997,2013.177,1596.905,2012.719,1606.813,2012.259z"/>
					
						<linearGradient id="SVGID_00000140004902557430768470000002620279819681848255_" gradientUnits="userSpaceOnUse" x1="-1442.7317" y1="1868.262" x2="-1369.7794" y2="1868.262" gradientTransform="matrix(-1 0 0 1 230.2854 0)">
						<stop  offset="0" style="stop-color:#311944"/>
						<stop  offset="1" style="stop-color:#6B3976"/>
					</linearGradient>
					<path style="fill:url(#SVGID_00000140004902557430768470000002620279819681848255_);" d="M1649.958,1836.307
						c0,0,26.965,32.175,22.577,67.447c-4.388,35.27-51.611-16.296-58.193-33.724c-6.586-17.427-14.276-42.257-14.276-42.257
						S1633.179,1807.172,1649.958,1836.307z"/>
					
						<linearGradient id="SVGID_00000121968223703592066160000015856964171905352623_" gradientUnits="userSpaceOnUse" x1="-1485.0126" y1="2068.5754" x2="-1365.8893" y2="1711.2046" gradientTransform="matrix(-1 0 0 1 230.2854 0)">
						<stop  offset="0" style="stop-color:#FFC444"/>
						<stop  offset="0.9964" style="stop-color:#F36F56"/>
					</linearGradient>
					<path style="fill:url(#SVGID_00000121968223703592066160000015856964171905352623_);" d="M1639.672,1785.965
						c0,0-7.315,37.484,6.637,57.268c6.949,9.853,16.322,18.211,13.566,26.232c-1.847,5.375-8.861,9.237-14.802,8.627
						c-11.374-1.169-17.68-18.607-22.128-30.906c-6.568-18.167-10.23-57.041-10.23-57.041L1639.672,1785.965z"/>
					
						<linearGradient id="SVGID_00000080902780608049165690000011032262273775487363_" gradientUnits="userSpaceOnUse" x1="-1338.2306" y1="1466.4917" x2="-1249.38" y2="1980.1599" gradientTransform="matrix(-1 0 0 1 230.2854 0)">
						<stop  offset="0" style="stop-color:#AB316D"/>
						<stop  offset="1" style="stop-color:#792D3D"/>
					</linearGradient>
					<path style="fill:url(#SVGID_00000080902780608049165690000011032262273775487363_);" d="M1618.181,1817.563
						c8.293-3.02,16.586-6.041,24.878-9.062c12.937-29.549,28.726-78.081,23.452-137.072
						c-13.563-151.705-153.873-232.094-169.46-240.698c-38.228,19.181-76.95,46.239-78.352,80.351
						c-1.76,42.82,56.574,65.455,111.41,128.071C1563.025,1676.736,1598.195,1732.739,1618.181,1817.563z"/>
					
						<linearGradient id="SVGID_00000108270727102538851560000000469299805561018281_" gradientUnits="userSpaceOnUse" x1="-1212.7526" y1="2075.2637" x2="-1086.4174" y2="1675.4337" gradientTransform="matrix(-1 0 0 1 230.2854 0)">
						<stop  offset="0" style="stop-color:#AB316D"/>
						<stop  offset="1" style="stop-color:#792D3D"/>
					</linearGradient>
					<path style="fill:url(#SVGID_00000108270727102538851560000000469299805561018281_);" d="M1609.242,2029.611
						c27.399-107.031,20.4-194.373,12.496-244.688c-11.947-76.048-36.246-230.737-139.525-288.419
						c-22.553-12.596-54.794-23.876-94.09-58.896c-32.815-29.244-53.673-60.001-66.258-81.67
						c-138.123-40.518-265.522-24.098-321.739,49.979c-6.495,8.56-22.758,27.126-25.904,54.502
						c-7.099,61.768,53.593,136.132,121.696,151.661c86.553,19.736,136.767-69.136,213.451-39.567
						c21.451,8.271,39.637,28.768,76.01,69.761c46.271,52.149,72.282,100.27,82.123,119.524
						c29.302,57.336,51.523,99.663,54.764,154.516c0.754,12.779,1.205,38.596,16.173,66.44
						c11.489,21.374,27.063,35.626,38.65,44.431C1587.807,2027.994,1598.524,2028.804,1609.242,2029.611z"/>
					
						<linearGradient id="SVGID_00000084498507729408299530000006623988288361915014_" gradientUnits="userSpaceOnUse" x1="-1212.7415" y1="2075.2681" x2="-1086.4061" y2="1675.4379" gradientTransform="matrix(-1 0 0 1 230.2854 0)">
						<stop  offset="0" style="stop-color:#AB316D"/>
						<stop  offset="1" style="stop-color:#792D3D"/>
					</linearGradient>
					<path style="opacity:0.3;fill:url(#SVGID_00000084498507729408299530000006623988288361915014_);" d="M974.223,1460.42
						c3.146-27.377,19.408-45.943,25.904-54.502c56.217-74.077,183.616-90.497,321.739-49.979
						c12.585,21.669,33.443,52.426,66.257,81.67c39.296,35.019,71.538,46.299,94.091,58.896
						c63.066,35.223,96.653,106.609,115.991,174.182c-28.692-44.486-53.252-56.312-72.258-56.524
						c-27.205-0.302-39.361,22.958-71.845,19.782c-34.721-3.393-42.658-32.102-70.803-35.4c-8.425-0.987-18.789,0.313-31.239,6.94
						c-16.613-17.395-28.996-27.692-42.689-32.971c-76.684-29.569-126.898,59.303-213.451,39.567
						C1027.816,1596.552,967.123,1522.188,974.223,1460.42z"/>
					
						<linearGradient id="SVGID_00000093887947852191946390000000085616462651351976_" gradientUnits="userSpaceOnUse" x1="-1034.9703" y1="1414.6478" x2="-946.3245" y2="1927.1324" gradientTransform="matrix(-1 0 0 1 230.2854 0)">
						<stop  offset="0" style="stop-color:#AB316D"/>
						<stop  offset="1" style="stop-color:#792D3D"/>
					</linearGradient>
					<path style="fill:url(#SVGID_00000093887947852191946390000000085616462651351976_);" d="M1537.677,1544.376
						c-15.633-0.83-39.707-1.311-68.748,1.558c-137.817,13.619-175.81,81.79-289.713,98.424
						c-26.944,3.936-146.913,21.457-198.874-47.896c-37.304-49.791-31.66-135.587,9.143-169.331
						c17.268-14.281,34.365-13.885,144.958-12.884c41.649,0.377,83.3,0.512,124.947,1.042
						c176.297,2.247,210.013-9.963,242.09,19.197C1516.446,1448.089,1538.327,1477.307,1537.677,1544.376z"/>
					<g>
						<g>
							
								<linearGradient id="SVGID_00000003817492944039510810000007632081458908160701_" gradientUnits="userSpaceOnUse" x1="-1163.1339" y1="1096.4722" x2="-375.6765" y2="1384.837" gradientTransform="matrix(-1 0 0 1 230.2854 0)">
								<stop  offset="0" style="stop-color:#FF9085"/>
								<stop  offset="1" style="stop-color:#FB6FBB"/>
							</linearGradient>
							<path style="fill:url(#SVGID_00000003817492944039510810000007632081458908160701_);" d="M1165.494,978.726
								c0,0-205.723-59.996-227.065,90.613c-20.455,144.354,84.334,210.598,36.655,356.814
								c-5.527,16.948,391.612-60.688,391.612-60.688c-53.013-66.137-65.332-120.7-66.598-158.637
								c-1.389-41.591,10.599-60.495,0-109.662c0,0-11.828-54.859-54.496-101.966
								C1239.477,988.438,1232.175,981.394,1165.494,978.726z"/>
						</g>
						<path style="fill:#F4F7FA;" d="M1033.816,1394.669l-0.935-3.492c1.933-0.515,194.486-51.755,308.398-58.139l0.201,3.605
							C1227.937,1343.005,1035.744,1394.151,1033.816,1394.669z"/>
					</g>
					<g>
						
							<linearGradient id="SVGID_00000132798312800524334950000007280988381132617115_" gradientUnits="userSpaceOnUse" x1="2836.05" y1="831.5643" x2="2845.1025" y2="590.4307" gradientTransform="matrix(0.984 0.1784 -0.1784 0.984 -1518.1509 -244.2395)">
							<stop  offset="0" style="stop-color:#FFC444"/>
							<stop  offset="0.9964" style="stop-color:#F36F56"/>
						</linearGradient>
						<path style="fill:url(#SVGID_00000132798312800524334950000007280988381132617115_);" d="M1120.815,888.466
							c1.885,8.805,11.478,56.051-7.853,68.208c-4.19,2.636-12.242,4.144-28.345,7.163c-10.543,1.976-19.389,3.188-25.628,3.934
							c0.901,7.922,3.57,20.818,12.713,32.548c25.63,32.882,77.02,24.373,84.349,23.038c25.849-4.707,51.286-12.694,57.43-17.575
							c9.353-7.432,16.708-13.009,21.058-18.674c-10.004-4.834-30.199-17.583-43.753-21.755c-10.129-3.116-19.637-5.34-28.286-6.936
							c-1.421-9.127-2.844-18.253-4.266-27.381C1145.76,916.845,1133.287,902.656,1120.815,888.466z"/>
						
							<linearGradient id="SVGID_00000081606379637018305320000008993193472389338800_" gradientUnits="userSpaceOnUse" x1="2833.2249" y1="618.6909" x2="2829.3499" y2="930.8957" gradientTransform="matrix(0.984 0.1784 -0.1784 0.984 -1518.1509 -244.2395)">
							<stop  offset="0" style="stop-color:#FFC444"/>
							<stop  offset="0.9964" style="stop-color:#F36F56"/>
						</linearGradient>
						<path style="fill:url(#SVGID_00000081606379637018305320000008993193472389338800_);" d="M1119.91,912.012
							c0,0,3.493,34.623,37.15,40.725c30.136,5.463,52.82-67.359,37.398-86.195c-5.144-6.283-17.844-12.261-28.855-11.944
							c-7.743,0.223-33.898,10.184-37.548,36.355c-5.209-5.488-11.699-7.065-14.899-4.767c-4.059,2.915-1.885,11.391-1.391,13.311
							C1113.473,906.149,1117.817,910.273,1119.91,912.012z"/>
					</g>
				</g>
			</g>
			<g>
				
					<linearGradient id="SVGID_00000053503770221235952210000017761995537665190077_" gradientUnits="userSpaceOnUse" x1="323.2211" y1="1407.9534" x2="667.3749" y2="1407.9534" gradientTransform="matrix(-1 0 0 1 1740.2787 0)">
					<stop  offset="0" style="stop-color:#40447E"/>
					<stop  offset="0.9964" style="stop-color:#3C3B6B"/>
				</linearGradient>
				<path style="fill:url(#SVGID_00000053503770221235952210000017761995537665190077_);" d="M1408.628,1382.376l-314.867,15.322
					c-4.334,0.212-8.287,2.534-10.58,6.215l-8.713,13.984c-4.336,6.961,0.874,15.939,9.07,15.626l333.519-12.705L1408.628,1382.376z
					"/>
				
					<linearGradient id="SVGID_00000170236910597020385130000003874226392934500487_" gradientUnits="userSpaceOnUse" x1="103.1347" y1="1190.8596" x2="328.7715" y2="1414.6913" gradientTransform="matrix(-1 0 0 1 1740.2787 0)">
					<stop  offset="0" style="stop-color:#40447E"/>
					<stop  offset="0.9964" style="stop-color:#3C3B6B"/>
				</linearGradient>
				<path style="fill:url(#SVGID_00000170236910597020385130000003874226392934500487_);" d="M1736.117,1207.035l-325.293,6.304
					c-9.625,0.187-18.439,5.431-23.195,13.799l-112.645,198.188l343.55-13.687c9.429-0.376,18.034-5.482,22.881-13.579
					l104.365-174.357C1750.223,1216.281,1744.766,1206.867,1736.117,1207.035z"/>
				
					<linearGradient id="SVGID_00000083052839165464604540000003102124225313878207_" gradientUnits="userSpaceOnUse" x1="103.1352" y1="1190.8597" x2="328.7722" y2="1414.6915" gradientTransform="matrix(-1 0 0 1 1740.2787 0)">
					<stop  offset="0" style="stop-color:#40447E"/>
					<stop  offset="0.9964" style="stop-color:#3C3B6B"/>
				</linearGradient>
				<path style="opacity:0.3;fill:url(#SVGID_00000083052839165464604540000003102124225313878207_);" d="M1387.628,1227.139
					c4.757-8.369,13.571-13.613,23.196-13.8l7.129-0.137c1.063,10.5,4.285,20.105,10.71,27.86
					c20.058,24.211,53.383,9.277,78.222,34.899c27.285,28.146,2.079,61.652,26.474,87.848
					c25.677,27.571,67.198,5.123,114.928,22.767l-6.873,11.482c-4.846,8.099-13.451,13.204-22.88,13.58l-343.55,13.687
					L1387.628,1227.139z"/>
			</g>
			<g>
				
					<linearGradient id="SVGID_00000129180750561465854150000018164715580123917224_" gradientUnits="userSpaceOnUse" x1="1010.9918" y1="1118.2351" x2="1032.0554" y2="1456.7557" gradientTransform="matrix(0.9933 -0.1159 0.1159 0.9933 -217.4344 89.9445)">
					<stop  offset="0" style="stop-color:#FF9085"/>
					<stop  offset="1" style="stop-color:#FB6FBB"/>
				</linearGradient>
				<path style="fill:url(#SVGID_00000129180750561465854150000018164715580123917224_);" d="M1119.419,1371.854
					c4.098-10.823,8.197-21.644,12.295-32.468c-45.295-12.42-107.938-30.766-172.193-53.726c-10.063-3.597-22.018-8.05-25.934-18.64
					c-10.987-29.704,58.861-60.485,86.014-125.344c25.112-59.986,11.29-143.23-17.853-153.065
					c-60.646-20.464-275.707,247.235-198.897,360.083C846.268,1412.486,980.128,1422.643,1119.419,1371.854z"/>
			</g>
			
				<linearGradient id="SVGID_00000182488427789059207460000011318549696733447854_" gradientUnits="userSpaceOnUse" x1="1201.5323" y1="1340.0898" x2="1087.1284" y2="1447.9009">
				<stop  offset="0" style="stop-color:#FFC444"/>
				<stop  offset="0.9964" style="stop-color:#F36F56"/>
			</linearGradient>
			<path style="fill:url(#SVGID_00000182488427789059207460000011318549696733447854_);" d="M1131.714,1339.386
				c28.436-15.105,62.474,0.378,64.667,1.414c6.247,2.949,15.341,8.203,24.529,17.588c1.038,1.418,13.373,18.509,8.88,23.986
				c-3.602,4.388-17.55,0.75-34.315-9.676c-7.027-0.985-17.489-1.89-30.021-0.736c-23.014,2.123-33.557,9.394-41.912,3.118
				c-6.118-4.594-8.203-14.308-6.001-21.53C1119.905,1345.792,1126.9,1341.944,1131.714,1339.386z"/>
		</g>
		<g>
			<g>
				
					<linearGradient id="SVGID_00000022534776902546766710000008995695635091907214_" gradientUnits="userSpaceOnUse" x1="1748.9103" y1="541.7333" x2="2006.764" y2="602.6436">
					<stop  offset="0" style="stop-color:#311944"/>
					<stop  offset="1" style="stop-color:#893976"/>
				</linearGradient>
				<path style="fill:url(#SVGID_00000022534776902546766710000008995695635091907214_);" d="M1919.722,446.249
					c84.92,2.606,156.241,54.454,170.14,120.086c0.018,0.085,0.035,0.172,0.053,0.258c0.752,3.592,1.332,7.225,1.732,10.895
					c0.027,0.242,0.056,0.484,0.081,0.727c0.176,1.714,0.312,3.437,0.409,5.166c0.018,0.314,0.03,0.628,0.045,0.942
					c0.084,1.767,0.141,3.54,0.141,5.322c0,76.269-77.842,134.068-172.601,129.164c-2.521-0.131-5.025-0.313-7.518-0.529
					c-0.244-0.021-0.489-0.038-0.733-0.06c-2.359-0.212-4.702-0.469-7.034-0.756c-0.363-0.045-0.726-0.087-1.088-0.134
					c-2.256-0.289-4.498-0.616-6.727-0.975c-0.42-0.067-0.84-0.135-1.259-0.205c-2.187-0.365-4.36-0.761-6.517-1.19
					c-0.437-0.087-0.873-0.178-1.309-0.268c-2.147-0.442-4.281-0.908-6.397-1.412c-0.41-0.098-0.816-0.202-1.225-0.302
					c-2.102-0.514-4.192-1.051-6.262-1.625c-0.371-0.103-0.739-0.214-1.11-0.319c-1.863-0.529-3.712-1.082-5.547-1.659
					c-0.465-0.147-0.935-0.286-1.398-0.435c-1.862-0.599-3.703-1.231-5.535-1.88c-0.395-0.139-0.801-0.264-1.195-0.406
					c0.005-0.005,0.01-0.009,0.015-0.014c-62.99-22.721-107.275-73.857-107.275-131.043
					C1751.606,501.31,1826.331,443.382,1919.722,446.249z"/>
				<g>
					
						<linearGradient id="SVGID_00000067201395139741687830000000313581718523032482_" gradientUnits="userSpaceOnUse" x1="-2222.1399" y1="471.7241" x2="-2001.0798" y2="881.7251" gradientTransform="matrix(-1 0 0 1 -258.321 0)">
						<stop  offset="0" style="stop-color:#FF9085"/>
						<stop  offset="1" style="stop-color:#FB6FBB"/>
					</linearGradient>
					<path style="fill:url(#SVGID_00000067201395139741687830000000313581718523032482_);" d="M1733.627,575.598
						c0,74.287,74.724,138.377,168.115,143.211c94.759,4.905,172.601-52.894,172.601-129.164
						c0-76.269-77.842-140.487-172.601-143.396C1808.352,443.382,1733.627,501.31,1733.627,575.598z"/>
					<path style="fill:#FFFFFF;" d="M1841.105,552.232c0,21.812,25.395,73.689,43.332,107.619
						c7.471,14.132,27.156,15.083,34.658,1.638c18.083-32.409,43.859-82.478,43.859-104.497c0-33.978-27.477-62.466-61.211-63.624
						C1868.183,492.216,1841.105,518.572,1841.105,552.232z M1869.115,553.326c0-18.111,14.588-32.261,32.628-31.602
						c18.091,0.661,32.793,15.955,32.793,34.158c0,18.203-14.703,32.348-32.793,31.595
						C1883.702,586.727,1869.115,571.438,1869.115,553.326z"/>
					<g style="opacity:0.3;">
						
							<linearGradient id="SVGID_00000025426916278898426120000000130647939781256579_" gradientUnits="userSpaceOnUse" x1="-2286.9338" y1="498.8131" x2="-2070.3062" y2="933.5331" gradientTransform="matrix(-1 0 0 1 -258.321 0)">
							<stop  offset="0" style="stop-color:#FF9085"/>
							<stop  offset="1" style="stop-color:#FB6FBB"/>
						</linearGradient>
						<path style="fill:url(#SVGID_00000025426916278898426120000000130647939781256579_);" d="M1860.52,682.073
							c20.449-39.177-0.224-77.629,27.44-102.419c28.225-25.294,65.088,0.805,104.995-19.228
							c15.495-7.778,32.766-23.179,45.633-55.807c22.408,23.993,35.756,53.522,35.756,85.026
							c0,76.269-77.842,134.068-172.601,129.164c-21.514-1.114-42.028-5.369-60.855-12.153
							C1850.165,698.595,1856.314,690.131,1860.52,682.073z"/>
					</g>
				</g>
			</g>
			<g>
				
					<linearGradient id="SVGID_00000026866059207878534790000011460285524397202305_" gradientUnits="userSpaceOnUse" x1="2105.179" y1="751.4017" x2="2257.9778" y2="926.2716">
					<stop  offset="0" style="stop-color:#FFC444"/>
					<stop  offset="0.9964" style="stop-color:#F36F56"/>
				</linearGradient>
				<path style="fill:url(#SVGID_00000026866059207878534790000011460285524397202305_);" d="M2485.976,909.166
					c0.068,0.746,0.13,1.494,0.186,2.243c0.046,0.618,0.09,1.237,0.128,1.857c0.055,0.897,0.097,1.797,0.134,2.698
					c0.021,0.497,0.047,0.994,0.062,1.493c0.043,1.414,0.07,2.833,0.07,4.256c0,6.199-0.409,12.331-1.208,18.378
					c-1.398,10.584-3.987,20.914-7.66,30.907c-0.525,1.428-1.071,2.849-1.64,4.263c-2.274,5.654-4.897,11.195-7.848,16.607
					c-6.64,12.176-14.943,23.7-24.678,34.396c-2.164,2.377-4.397,4.713-6.699,7.006c-2.302,2.293-4.672,4.544-7.108,6.749
					c-9.743,8.823-20.537,16.931-32.219,24.201c-1.46,0.909-2.935,1.804-4.422,2.687c-2.975,1.764-6.005,3.476-9.086,5.132
					c-10.784,5.797-22.202,10.915-34.145,15.277c-3.412,1.245-6.867,2.43-10.363,3.55c-3.495,1.12-7.031,2.176-10.604,3.166
					c-3.573,0.991-7.185,1.915-10.831,2.773c-20.055,4.713-41.177,7.379-62.942,7.679c-1.865,0.026-3.723,0.031-5.576,0.022
					c-0.595-0.003-1.186-0.017-1.779-0.024c-1.262-0.013-2.525-0.028-3.782-0.058c-0.677-0.016-1.35-0.043-2.025-0.063
					c-1.172-0.036-2.344-0.073-3.51-0.123c-0.691-0.03-1.378-0.068-2.067-0.102c-1.154-0.057-2.307-0.118-3.456-0.188
					c-0.669-0.042-1.336-0.089-2.003-0.135c-1.173-0.081-2.344-0.166-3.51-0.261c-0.629-0.051-1.257-0.106-1.885-0.161
					c-1.214-0.106-2.426-0.22-3.634-0.342c-0.567-0.057-1.133-0.116-1.698-0.176c-1.291-0.139-2.577-0.285-3.86-0.441
					c-0.471-0.057-0.942-0.113-1.412-0.173c-1.42-0.178-2.834-0.369-4.244-0.568c-0.324-0.046-0.649-0.09-0.973-0.137
					c-1.636-0.237-3.265-0.489-4.887-0.754c-0.094-0.015-0.189-0.029-0.283-0.045c-10.375-1.706-20.46-3.964-30.194-6.747
					c0.009-0.009,0.018-0.017,0.027-0.025c-83.191-23.83-141.373-85.572-141.373-158.784c0-95.183,98.332-176.838,222.125-182.493
					c119.545-5.461,219.626,61.618,230.465,152.581c0.071,0.591,0.143,1.183,0.207,1.777
					C2485.847,907.761,2485.912,908.463,2485.976,909.166z"/>
				<g>
					
						<linearGradient id="SVGID_00000183954983782852950710000007866882517925910956_" gradientUnits="userSpaceOnUse" x1="-2579.0874" y1="778.815" x2="-2280.823" y2="1332.0071" gradientTransform="matrix(-1 0 0 1 -258.321 0)">
						<stop  offset="0" style="stop-color:#FFC444"/>
						<stop  offset="0.9964" style="stop-color:#F36F56"/>
					</linearGradient>
					<path style="fill:url(#SVGID_00000183954983782852950710000007866882517925910956_);" d="M2018.124,935.197
						c0,95.183,96.202,170.991,217.314,169.287c123.895-1.743,226.441-83.589,226.441-182.77
						c0-99.181-102.546-174.795-226.441-169.01C2114.326,758.359,2018.124,840.013,2018.124,935.197z"/>
					<path style="fill:#FFFFFF;" d="M2170.851,836.024v168.393c0,10.81,9.153,17.558,17.06,12.595l141.019-88.522
						c8.795-5.521,8.795-21.159,0-26.146l-141.019-79.952C2180.004,817.91,2170.851,825.214,2170.851,836.024z"/>
					<g style="opacity:0.3;">
						
							<linearGradient id="SVGID_00000018195714334356856840000007737898803626475694_" gradientUnits="userSpaceOnUse" x1="-2662.1729" y1="808.1312" x2="-2368.0681" y2="1398.3287" gradientTransform="matrix(-1 0 0 1 -258.321 0)">
							<stop  offset="0" style="stop-color:#FFC444"/>
							<stop  offset="0.9964" style="stop-color:#F36F56"/>
						</linearGradient>
						<path style="fill:url(#SVGID_00000018195714334356856840000007737898803626475694_);" d="M2181.858,1060.658
							c26.555-52.297-0.291-99.992,35.644-134.496c36.753-35.29,84.889-5.017,137.176-34.706
							c20.35-11.555,43.066-33.187,60.011-76.791c29.556,28.978,47.191,66.08,47.191,107.048
							c0,99.181-102.546,181.027-226.441,182.77c-27.988,0.394-54.624-3.346-79.03-10.478
							C2168.429,1082.835,2176.402,1071.403,2181.858,1060.658z"/>
					</g>
				</g>
			</g>
			<g>
				
					<linearGradient id="SVGID_00000021087886939682685700000014069107718128372406_" gradientUnits="userSpaceOnUse" x1="1529.9214" y1="938.6985" x2="1813.1266" y2="953.8702">
					<stop  offset="0" style="stop-color:#AA80F9"/>
					<stop  offset="0.9964" style="stop-color:#6165D7"/>
				</linearGradient>
				<path style="fill:url(#SVGID_00000021087886939682685700000014069107718128372406_);" d="M1658.109,1092.142
					c-0.554-0.038-1.105-0.085-1.658-0.127c-1.005-0.077-2.01-0.154-3.011-0.242c-0.556-0.049-1.11-0.105-1.665-0.157
					c-1.001-0.095-2-0.192-2.996-0.299c-0.529-0.057-1.056-0.118-1.583-0.178c-1.03-0.117-2.058-0.238-3.082-0.367
					c-0.48-0.06-0.959-0.124-1.438-0.188c-1.082-0.142-2.161-0.292-3.237-0.448c-0.411-0.06-0.821-0.121-1.231-0.182
					c-1.17-0.176-2.336-0.361-3.498-0.553c-0.307-0.051-0.613-0.101-0.919-0.153c-1.305-0.221-2.605-0.453-3.9-0.694
					c-0.159-0.029-0.318-0.058-0.476-0.088c-10.341-1.945-20.35-4.517-29.948-7.666c0.009-0.008,0.018-0.016,0.027-0.023
					c-69.8-22.95-118.432-76.26-118.432-136.821c0-78.781,82.289-143.253,186.43-144.023
					c101.242-0.748,186.424,58.659,195.533,135.19c0.05,0.417,0.102,0.835,0.148,1.253c0.068,0.629,0.128,1.259,0.185,1.89
					c0.055,0.593,0.104,1.187,0.15,1.782c0.041,0.537,0.08,1.075,0.113,1.614c0.046,0.741,0.081,1.484,0.112,2.228
					c0.018,0.423,0.04,0.845,0.053,1.269c0.037,1.184,0.06,2.371,0.06,3.562c0,40.191-20.925,76.02-54.683,101.89
					c-2.178,1.669-4.409,3.297-6.692,4.881c-2.282,1.585-4.616,3.126-6.999,4.623c-1.192,0.749-2.395,1.487-3.611,2.213
					c-2.432,1.453-4.911,2.859-7.436,4.22c-2.525,1.36-5.096,2.674-7.711,3.939c-2.213,1.071-4.463,2.1-6.737,3.101
					c-12.744,5.61-26.424,10.109-40.816,13.332c-2.764,0.619-5.551,1.197-8.366,1.721c-16.995,3.164-34.884,4.573-53.303,3.979
					c-1.572-0.051-3.138-0.118-4.7-0.197c-0.487-0.024-0.971-0.058-1.457-0.086
					C1660.259,1092.278,1659.182,1092.216,1658.109,1092.142z"/>
				<g>
					
						<linearGradient id="SVGID_00000027568289354136096740000000228322180976533130_" gradientUnits="userSpaceOnUse" x1="-1983.4813" y1="824.2581" x2="-1740.1465" y2="1275.572" gradientTransform="matrix(-1 0 0 1 -258.321 0)">
						<stop  offset="0" style="stop-color:#AA80F9"/>
						<stop  offset="0.9964" style="stop-color:#6165D7"/>
					</linearGradient>
					<path style="fill:url(#SVGID_00000027568289354136096740000000228322180976533130_);" d="M1471.26,943.957
						c0,78.781,80.827,145.302,183.117,148.665c105.262,3.46,192.865-60.924,192.865-143.899
						c0-82.975-87.603-149.58-192.865-148.788C1552.086,800.703,1471.26,865.176,1471.26,943.957z"/>
					<g>
						<path style="fill:#FFFFFF;" d="M1688.093,1046.624l-7.889-55.224l-28.571-0.538l7.827,55.006l-28.098-0.742l-7.767-54.793
							l-30.283-0.57v-27.938l25.632,0.383l-4.955-34.184l-28.975-0.296v-28.21l24.645,0.155l-8.028-52.952l27.555-0.03l8.09,53.155
							l28.458,0.179l-7.84-53.365l27.989-0.03l7.901,53.571l31.458,0.198v28.761l-27.025-0.276l5.072,34.584l30.899,0.462v28.486
							l-25.82-0.486l8.268,55.447L1688.093,1046.624z M1675.164,963.049l-5.033-34.451l-28.492-0.291l4.993,34.315L1675.164,963.049
							z"/>
					</g>
					<g style="opacity:0.3;">
						
							<linearGradient id="SVGID_00000140697063733627628790000012259709691253062032_" gradientUnits="userSpaceOnUse" x1="-2053.8792" y1="850.9962" x2="-1814.2047" y2="1331.9655" gradientTransform="matrix(-1 0 0 1 -258.321 0)">
							<stop  offset="0.0036" style="stop-color:#E38DDD"/>
							<stop  offset="1" style="stop-color:#9571F6"/>
						</linearGradient>
						<path style="fill:url(#SVGID_00000140697063733627628790000012259709691253062032_);" d="M1609.049,1054.089
							c22.45-42.458-0.245-83.099,30.14-110.478c31.133-28.053,71.991-1.124,116.482-24.014
							c17.346-8.924,36.729-26.192,51.202-62.038c25.273,25.239,40.368,56.889,40.368,91.163
							c0,82.975-87.603,147.36-192.865,143.899c-23.691-0.779-46.209-4.938-66.816-11.821
							C1597.708,1071.992,1604.44,1062.806,1609.049,1054.089z"/>
					</g>
				</g>
			</g>
		</g>
		<g>
			<g>
				
					<linearGradient id="SVGID_00000018928091497885287840000010570036624112859021_" gradientUnits="userSpaceOnUse" x1="438.5207" y1="2587.0466" x2="2.1203" y2="3105.9666" gradientTransform="matrix(-1 0 0 1 1362.8925 0)">
					<stop  offset="0.0036" style="stop-color:#E38DDD"/>
					<stop  offset="1" style="stop-color:#9571F6"/>
				</linearGradient>
				<path style="fill:url(#SVGID_00000018928091497885287840000010570036624112859021_);" d="M957.909,3142.929
					c-26.297-129.952-14.972-234.383-3.028-297.444c14.49-76.506,43.949-232.035,167.587-318.727
					c9.743-6.831,106.465-73.354,149.906-40.315c22.403,17.039,27.519,58.19,17.723,90.67
					c-25.293,83.861-139.328,74.557-177.214,169.998c-12.616,31.784-14.955,70.566-6.156,74.224
					c10.833,4.502,41.729-42.921,44.673-47.441c27.544-42.279,27.802-66.215,48.804-72.707c12.896-3.987,29.893-0.245,37.497,9.939
					c17.315,23.193-16.887,76.037-26.449,90.811c-25.01,38.643-45.897,47.422-50.975,80.322
					c-2.186,14.166-1.797,35.106,6.605,38.371c11.364,4.415,33.054-25.182,46.969-44.169c37.411-51.046,41.399-80.723,59.998-82.851
					c17.351-1.985,36.905,21.209,41.927,35.341C1329.482,2867.523,1274.387,2949.622,957.909,3142.929z"/>
				<path style="opacity:0.28;fill:#FFFFFF;" d="M961.867,3120.638c-3.928-120.752,15.618-216.48,33.325-279.295
					c22.76-80.746,65.569-232.617,185.668-298.339c8.535-4.671,71.324-39.031,88.867-20.629
					c11.695,12.267,1.329,45.94-15.869,68.237c-29.349,38.05-63.156,22.955-111.083,60.302
					c-43.006,33.512-58.11,78.644-61.89,90.453c-14.023,43.814-6.738,81.376-4.761,95.215
					C1083.635,2889.147,1068.256,2975.254,961.867,3120.638z"/>
				<path style="opacity:0.28;fill:#FFFFFF;" d="M1004.714,3090.486c67.345-60.316,82.91-109.733,84.106-144.408
					c0.931-27.015-6.378-59.08,14.282-88.867c13.216-19.054,23.179-15.984,46.021-36.499c47.714-42.853,53.64-100.617,63.476-98.388
					c5.474,1.24,8.314,20.19,4.761,38.086c-7.333,36.929-36.214,40.801-65.063,85.693c-19.708,30.668-26.551,60.482-30.151,76.171
					c-8.786,38.281-2.819,51.712-7.935,72.997C1107.581,3022.857,1083.584,3058.46,1004.714,3090.486z"/>
			</g>
			<g>
				
					<linearGradient id="SVGID_00000046305720115604313450000009889224203856399292_" gradientUnits="userSpaceOnUse" x1="574.2476" y1="3129.6758" x2="539.6844" y2="2815.4644" gradientTransform="matrix(-0.9986 0.0527 0.0527 0.9986 1370.7856 28.5205)">
					<stop  offset="0" style="stop-color:#AA80F9"/>
					<stop  offset="0.9964" style="stop-color:#6165D7"/>
				</linearGradient>
				<path style="fill:url(#SVGID_00000046305720115604313450000009889224203856399292_);" d="M998.37,3163.923
					c116.743,6.691,151.445,13.687,206.46-5.061c51.695-17.616,104.721-52.305,100.064-68.231
					c-3.34-11.423-35.795-11.271-55.18-11.18c-52.02,0.242-94.918,16.177-125.018,31.577c25.961-17.618,51.922-35.236,77.882-52.854
					c18.127-6.487,48.801-20.248,75.973-49.327c17.012-18.205,56.102-67.512,41.409-91.203
					c-15.347-24.748-88.258-19.75-130.286,15.348c-20.166,16.841-20.193,29.731-47.222,59.133
					c-24.566,26.722-49.926,43.683-67.744,53.921c16.695-20.87,39.403-53.472,57.056-97.409
					c26.823-66.762,47.072-172.379,12.956-191.578c-22.63-12.735-67.501,13.506-89.943,44.608
					c-18.196,25.216-16.412,46.365-28.933,127.392c-5.443,35.226-10.781,63.593-14.248,81.192
					c-34.72-76.16-44.793-140.234-46.826-187.327c-2.614-60.512,7.4-107.926-15.744-120.538
					c-20.628-11.241-57.464,10.691-76.148,31.272c-75.619,83.297,24.153,278.785,34.699,298.958
					c-27.746-21.011-65.984-53.887-103.017-101.404c-39.603-50.814-56.326-88.638-76.459-85.251
					c-20.025,3.368-33.221,45.997-31.719,78.987c4.188,91.971,124.303,145.98,137.123,151.549
					c-10.105,1.627-27.235,3.337-47.432-0.519c-44.785-8.548-58.754-35.697-104.189-44.913c-17.377-3.525-52.909-7.176-57.287,3.583
					c-7.86,19.312,81.885,91.841,190.778,119.496C855.284,3164.282,845.741,3155.177,998.37,3163.923z"/>
				<path style="opacity:0.28;fill:#FFFFFF;" d="M1075.423,3097.387c53.15-23.629,45.927-55.76,104.073-95.548
					c37.236-25.479,45.887-16.194,85.789-40.552c21.948-13.396,39.888-28.759,54.451-43.955c0.069,0.107,0.157,0.203,0.223,0.312
					c14.693,23.691-24.397,72.998-41.409,91.203c-27.172,29.079-57.845,42.841-75.973,49.327
					c-25.961,17.617-51.922,35.235-77.882,52.854c30.1-15.4,72.999-31.334,125.018-31.577c16.898-0.08,43.724-0.203,52.541,7.335
					c-15.621,9.686-29.676,14.348-41.113,16.681c-26.079,5.321-42.439-0.631-64.999,12.968
					c-18.098,10.91-16.589,20.178-32.524,26.085c-14.997,5.559-22.657-0.307-59.664-6.384c-35.997-5.91-54.293-8.679-68.838,0.458
					c-10.993,6.906-16.832,18.298-20.052,28.318c-3.73-0.228-7.545-0.458-11.46-0.687c2.895-11.505,8.213-24.692,18.333-36.47
					C1037.981,3109.085,1055.538,3106.227,1075.423,3097.387z"/>
				<path style="opacity:0.28;fill:#FFFFFF;" d="M923.965,3138.229c-8.399-2.01-12.413,3.995-24.075,5.51
					c-21.674,2.814-29.798-15.069-55.275-23.566c-30.155-10.058-37.802,8.65-67.837-0.654
					c-23.775-7.366-20.712-19.624-51.774-37.523c-33.054-19.047-47.052-11.233-71.345-26.955
					c-7.808-5.053-16.717-12.572-25.201-24.272c10.681-5.79,38.627-2.703,53.423,0.298c45.436,9.216,59.405,36.365,104.189,44.913
					c20.197,3.856,37.327,2.146,47.432,0.519c-12.82-5.569-132.935-59.578-137.123-151.549
					c-1.393-30.602,9.865-69.475,27.485-77.635c-2.095,21.245-2.387,39.405-2.064,53.69c0.752,33.235,1.343,50.135,11.856,63.998
					c18.241,24.054,40.473,11.515,70.791,36.519c27.6,22.762,17.983,40.417,46.775,63.212
					c24.847,19.672,39.571,12.509,62.949,28.458c14.667,10.006,32.48,28.956,43.181,68.614c-4.872-0.221-9.539-0.422-13.978-0.601
					C939.148,3149.956,933.018,3140.395,923.965,3138.229z"/>
				<path style="opacity:0.28;fill:#FFFFFF;" d="M950.187,3012.892c-14.546-39.62-39.799-35.547-50.335-70.441
					c-10.474-34.687,12.44-45.468,6.599-95.696c-4.375-37.629-18.585-43.17-19.529-68.89c-0.697-18.961,5.988-44.793,36.894-76.816
					c9.372-2.463,18.221-2.47,25.208,1.338c23.144,12.612,13.131,60.026,15.744,120.538c2.034,47.092,12.106,111.167,46.826,187.327
					c3.467-17.599,8.805-45.966,14.248-81.192c12.521-81.027,10.737-102.176,28.933-127.392
					c22.443-31.102,67.313-57.343,89.943-44.608c1.294,0.728,2.499,1.595,3.638,2.563c-11.289,7.695-21.7,17.152-30.455,28.82
					c-29.846,39.772-12.867,68.267-39.924,146.718c-26.023,75.451-52.425,80.111-73.37,145.307
					c-6.689,20.821-12.992,48.383-14.292,83.003c-7.646-0.423-14.849-0.798-21.666-1.132c-7.838-25.68-11.533-48.659-13.11-68.155
					C952.068,3051.261,960.012,3039.655,950.187,3012.892z"/>
			</g>
		</g>
	</g>
</g>
</svg>
