<svg width="119" height="49" viewBox="0 0 119 49" fill="none" xmlns="http://www.w3.org/2000/svg">
<circle cx="21.1765" cy="21.1765" r="21.1765" fill="#7A24A1"/>
<path d="M33.9623 29.7148H28.3435C26.5082 29.7148 24.9552 29.0654 23.6846 27.7948C22.4141 26.496 21.7646 24.9431 21.7646 23.1078C21.7646 21.3007 22.4141 19.776 23.6846 18.4772C24.9552 17.1784 26.5082 16.529 28.3435 16.529V20.3125C27.9482 20.3125 27.5811 20.369 27.2423 20.5101C26.8752 20.6513 26.5929 20.849 26.3105 21.1313C26.0564 21.3854 25.8588 21.696 25.7176 22.0348C25.5764 22.3737 25.5199 22.7407 25.5199 23.1078C25.5199 23.8984 25.7741 24.5478 26.3105 25.1125C26.8752 25.6772 27.5246 25.9595 28.3435 25.9595H33.9623C35.7976 25.9595 37.3505 26.609 38.6211 27.8795C39.9199 29.1784 40.5694 30.7313 40.5694 32.5384C40.5694 34.3454 39.9199 35.8984 38.6211 37.1972C37.3505 38.4678 35.7976 39.1172 33.9623 39.1172V35.3337C34.3576 35.3337 34.7246 35.2772 35.0635 35.136C35.4305 34.9948 35.7411 34.7972 35.9952 34.5431C36.2494 34.289 36.447 34.0066 36.5882 33.6395C36.7294 33.3007 36.8141 32.9337 36.8141 32.5384C36.8141 31.776 36.5035 31.1266 35.967 30.5619C35.4023 29.9972 34.7529 29.7148 33.9623 29.7148Z" fill="#FCFCFC"/>
<path d="M57.685 19.2042C64.6309 19.2042 68.5838 21.4348 68.6403 27.7313V36.1172H63.7838V34.056C60.8473 35.496 57.6003 36.3995 53.6756 36.3995C49.0168 36.3995 46.1085 34.9031 46.1085 31.1478C46.1085 26.8278 50.8521 25.4725 56.1321 25.4725C58.9838 25.4725 61.6097 25.9242 63.7838 26.6584C63.7838 23.496 59.7179 23.2419 57.4591 23.2419C55.285 23.2419 52.6309 23.4395 49.2144 24.456L47.4921 20.9266C50.8803 19.8254 54.2121 19.2042 57.685 19.2042ZM63.7838 30.9501V29.6513C62.0897 29.1148 59.8026 28.6348 56.725 28.6348C53.1109 28.6348 50.9368 29.256 50.9368 30.9501C50.9368 32.7007 52.5462 32.8419 55.0591 32.8419C57.685 32.8419 61.2991 32.0231 63.7838 30.9501ZM81.9221 19.2042C88.868 19.2042 92.821 21.4348 92.8774 27.7313V36.1172H88.021V34.056C85.0845 35.496 81.8374 36.3995 77.9127 36.3995C73.2539 36.3995 70.3457 34.9031 70.3457 31.1478C70.3457 26.8278 75.0892 25.4725 80.3692 25.4725C83.221 25.4725 85.8468 25.9242 88.021 26.6584C88.021 23.496 83.9551 23.2419 81.6962 23.2419C79.5221 23.2419 76.868 23.4395 73.4515 24.456L71.7292 20.9266C75.1174 19.8254 78.4492 19.2042 81.9221 19.2042ZM88.021 30.9501V29.6513C86.3268 29.1148 84.0398 28.6348 80.9621 28.6348C77.348 28.6348 75.1739 29.256 75.1739 30.9501C75.1739 32.7007 76.7833 32.8419 79.2962 32.8419C81.9221 32.8419 85.5362 32.0231 88.021 30.9501ZM94.2519 30.2725H99.0801C99.0801 32.0513 100.915 32.729 106.308 32.729C111.532 32.729 112.379 32.3901 112.379 31.0913C112.379 29.8207 111.588 29.736 105.744 29.369C98.4307 28.9454 94.8448 28.3807 94.8448 24.3713C94.8448 20.0231 99.9272 19.2042 105.857 19.2042C112.125 19.2042 116.671 20.0231 116.671 24.5972H111.814C111.814 23.2137 110.064 22.8748 105.574 22.8748C101 22.8748 99.7013 23.2137 99.7013 24.1737C99.7013 25.2184 100.577 25.3878 106.308 25.8113C112.802 26.2913 117.235 26.4607 117.235 30.8937C117.235 35.5807 113 36.3995 106.591 36.3995C100.181 36.3995 94.2519 35.5807 94.2519 30.2725Z" fill="#183953"/>
</svg>
